<svg xmlns="http://www.w3.org/2000/svg" xmlns:xlink="http://www.w3.org/1999/xlink" width="113" height="113" viewBox="0 0 113 113">
  <defs>
    <filter id="Trazado_982547" x="0" y="0" width="113" height="113" filterUnits="userSpaceOnUse">
      <feOffset dy="3" input="SourceAlpha"/>
      <feGaussianBlur stdDeviation="3" result="blur"/>
      <feFlood flood-opacity="0.161"/>
      <feComposite operator="in" in2="blur"/>
      <feComposite in="SourceGraphic"/>
    </filter>
  </defs>
  <g id="Grupo_1160695" data-name="Grupo 1160695" transform="translate(-325 -2235)">
    <g id="Grupo_1160651" data-name="Grupo 1160651" transform="translate(0 -3477)">
      <g id="Grupo_1159745" data-name="Grupo 1159745" transform="translate(0 1505)">
        <g id="Grupo_1158168" data-name="Grupo 1158168" transform="translate(-1 -1314)">
          <g id="Grupo_1152576" data-name="Grupo 1152576" transform="translate(-0.454 1205.621)">
            <g id="Grupo_1148633" data-name="Grupo 1148633" transform="translate(71.408 600.047)">
              <g id="Grupo_1148525" data-name="Grupo 1148525" transform="translate(264.046 3721.333)">
                <g transform="matrix(1, 0, 0, 1, -9, -6)" filter="url(#Trazado_982547)">
                  <g id="Trazado_982547-2" data-name="Trazado 982547" transform="translate(9 6)" fill="#fcebe9">
                    <path d="M 47.5 93.5 C 41.28937149047852 93.5 35.26533508300781 92.28397369384766 29.59518623352051 89.88570404052734 C 24.11771965026855 87.56893157958984 19.19813346862793 84.25196075439453 14.97309303283691 80.02691650390625 C 10.74804019927979 75.80186462402344 7.431066513061523 70.88229370117188 5.114293098449707 65.40481567382812 C 2.716026782989502 59.73468017578125 1.5 53.71062850952148 1.5 47.5 C 1.5 41.28937149047852 2.716026782989502 35.26533508300781 5.114293098449707 29.59518623352051 C 7.431066513061523 24.11771965026855 10.74804019927979 19.19813346862793 14.97309303283691 14.97309303283691 C 19.19813346862793 10.74804019927979 24.11771965026855 7.431066513061523 29.59518623352051 5.114293098449707 C 35.26533508300781 2.716026782989502 41.28937149047852 1.5 47.5 1.5 C 53.71062850952148 1.5 59.73468017578125 2.716026782989502 65.40481567382812 5.114293098449707 C 70.88229370117188 7.431066513061523 75.80186462402344 10.74804019927979 80.02691650390625 14.97309303283691 C 84.25196075439453 19.19813346862793 87.56893157958984 24.11771965026855 89.88570404052734 29.59518623352051 C 92.28397369384766 35.26533508300781 93.5 41.28937149047852 93.5 47.5 C 93.5 53.71062850952148 92.28397369384766 59.73468017578125 89.88570404052734 65.40481567382812 C 87.56893157958984 70.88229370117188 84.25196075439453 75.80186462402344 80.02691650390625 80.02691650390625 C 75.80186462402344 84.25196075439453 70.88229370117188 87.56893157958984 65.40481567382812 89.88570404052734 C 59.73468017578125 92.28397369384766 53.71062850952148 93.5 47.5 93.5 Z" stroke="none"/>
                    <path d="M 47.5 3 C 41.49121475219727 3 35.66376876831055 4.176155090332031 30.17950439453125 6.495796203613281 C 24.88084411621094 8.736953735351562 20.12152099609375 11.94598388671875 16.03375244140625 16.03375244140625 C 11.94598388671875 20.12152099609375 8.736953735351562 24.88084411621094 6.495796203613281 30.17950439453125 C 4.176155090332031 35.66376876831055 3 41.49121475219727 3 47.5 C 3 53.50878524780273 4.176155090332031 59.33623123168945 6.495796203613281 64.82049560546875 C 8.736953735351562 70.11915588378906 11.94598388671875 74.87847900390625 16.03375244140625 78.96624755859375 C 20.12152099609375 83.05401611328125 24.88084411621094 86.26304626464844 30.17950439453125 88.50419616699219 C 35.66376876831055 90.82384490966797 41.49121475219727 92 47.5 92 C 53.50878524780273 92 59.33623123168945 90.82384490966797 64.82049560546875 88.50419616699219 C 70.11915588378906 86.26304626464844 74.87847900390625 83.05401611328125 78.96624755859375 78.96624755859375 C 83.05401611328125 74.87847900390625 86.26304626464844 70.11915588378906 88.50419616699219 64.82049560546875 C 90.82384490966797 59.33623123168945 92 53.50878524780273 92 47.5 C 92 41.49121475219727 90.82384490966797 35.66376876831055 88.50419616699219 30.17950439453125 C 86.26304626464844 24.88084411621094 83.05401611328125 20.12152099609375 78.96624755859375 16.03375244140625 C 74.87847900390625 11.94598388671875 70.11915588378906 8.736953735351562 64.82049560546875 6.495796203613281 C 59.33623123168945 4.176155090332031 53.50878524780273 3 47.5 3 M 47.5 0 C 73.7335205078125 0 95 21.2664794921875 95 47.5 C 95 73.7335205078125 73.7335205078125 95 47.5 95 C 21.2664794921875 95 0 73.7335205078125 0 47.5 C 0 21.2664794921875 21.2664794921875 0 47.5 0 Z" stroke="none" fill="#e44b36"/>
                  </g>
                </g>
              </g>
            </g>
          </g>
        </g>
      </g>
    </g>
    <g id="social-network_1400064_1_" data-name="social-network_1400064 (1)" transform="translate(351 2258)">
      <path id="Trazado_995303" data-name="Trazado 995303" d="M305.45,20.725a12.673,12.673,0,0,1-4.777,9.935l-.118-.147V27.459a3.9,3.9,0,0,0-2.682-3.71l-3.191-1.067V21.166a3.913,3.913,0,0,0,1.958-3.377V16a4.029,4.029,0,0,0-3.534-4.062,3.914,3.914,0,0,0-4.3,3.9v1.958a3.913,3.913,0,0,0,1.958,3.377v1.517l-3.191,1.067a3.9,3.9,0,0,0-2.682,3.71v3.054l-.118.147a12.724,12.724,0,1,1,20.673-9.935Zm0,0" transform="translate(-245.74 -7.021)" fill="#fcd770"/>
      <path id="Trazado_995304" data-name="Trazado 995304" d="M305.45,292.725a12.673,12.673,0,0,1-4.777,9.935l-.118-.147v-3.054a3.9,3.9,0,0,0-2.682-3.71l-3.191-1.067v-1.517a3.913,3.913,0,0,0,1.958-3.377V288a4.029,4.029,0,0,0-3.534-4.062,3.914,3.914,0,0,0-4.3,3.9v1.958a3.913,3.913,0,0,0,1.958,3.377v1.517l-3.191,1.067a3.9,3.9,0,0,0-2.682,3.71v3.054l-.118.147a12.724,12.724,0,1,1,20.673-9.935Zm0,0" transform="translate(-245.74 -245.74)" fill="#ef7385"/>
      <path id="Trazado_995305" data-name="Trazado 995305" d="M12.777,302.66a12.725,12.725,0,1,1,15.9,0l-.118-.147v-3.054a3.9,3.9,0,0,0-2.682-3.71l-3.191-1.067v-1.517a3.913,3.913,0,0,0,1.958-3.377V288a4.029,4.029,0,0,0-3.534-4.062,3.914,3.914,0,0,0-4.3,3.9v1.958a3.913,3.913,0,0,0,1.958,3.377v1.517l-3.191,1.067a3.9,3.9,0,0,0-2.682,3.71v3.054Zm0,0" transform="translate(-7.021 -245.74)" fill="#e6e9ed"/>
      <g id="Grupo_1160694" data-name="Grupo 1160694" transform="translate(5.755 4.895)">
        <path id="Trazado_995306" data-name="Trazado 995306" d="M334.818,58.6l.118.147a12.718,12.718,0,0,1-15.9,0l.118-.147V55.55a3.9,3.9,0,0,1,2.682-3.71l3.191-1.067V49.256a3.913,3.913,0,0,1-1.958-3.377V43.921a3.914,3.914,0,0,1,4.3-3.9,4.029,4.029,0,0,1,3.534,4.062v1.791a3.913,3.913,0,0,1-1.958,3.377v1.517l3.191,1.067a3.9,3.9,0,0,1,2.682,3.71Zm0,0" transform="translate(-285.758 -40.007)" fill="#f0d0b4"/>
        <path id="Trazado_995307" data-name="Trazado 995307" d="M334.818,330.6l.118.147a12.718,12.718,0,0,1-15.9,0l.118-.147V327.55a3.9,3.9,0,0,1,2.682-3.71l3.191-1.067v-1.517a3.913,3.913,0,0,1-1.958-3.377v-1.958a3.914,3.914,0,0,1,4.3-3.9,4.029,4.029,0,0,1,3.534,4.062v1.791a3.913,3.913,0,0,1-1.958,3.377v1.517l3.191,1.067a3.9,3.9,0,0,1,2.682,3.71Zm0,0" transform="translate(-285.758 -278.726)" fill="#f0d0b4"/>
        <path id="Trazado_995308" data-name="Trazado 995308" d="M62.818,330.6l.118.147a12.718,12.718,0,0,1-15.9,0l.118-.147V327.55a3.9,3.9,0,0,1,2.682-3.71l3.191-1.067v-1.517a3.913,3.913,0,0,1-1.958-3.377v-1.958a3.914,3.914,0,0,1,4.3-3.9,4.029,4.029,0,0,1,3.534,4.062v1.791a3.913,3.913,0,0,1-1.958,3.377v1.517l3.191,1.067a3.9,3.9,0,0,1,2.682,3.71Zm0,0" transform="translate(-47.039 -278.726)" fill="#f0d0b4"/>
      </g>
      <path id="Trazado_995309" data-name="Trazado 995309" d="M37.518,45.588l-.01.01H34.631a5.008,5.008,0,0,0-3.544,1.468,5.008,5.008,0,0,1-3.544,1.468H25.185a2.417,2.417,0,0,0-1.077,4.581,4.674,4.674,0,0,1,2.574,4.17v.607a4.664,4.664,0,0,0,.783,2.584l1.929,2.887v.01a13.7,13.7,0,0,1-10.767-.607l.01-.01a12.95,12.95,0,0,0,2.751-1.5,3.276,3.276,0,0,0-.685-5.716l-.333-.137a3.978,3.978,0,0,1-2.5-3.69,3.977,3.977,0,0,0-3.113-3.876l-3.3-.734h-.02a13.676,13.676,0,0,1,3.592-6.3L16.7,42.465a7.35,7.35,0,0,0,5.2,2.154h.382a7.373,7.373,0,0,0,4.4-1.468,7.373,7.373,0,0,1,4.4-1.468h4.131a13.746,13.746,0,0,1,2.3,3.906Zm0,0" transform="translate(-10.042 -35.808)" fill="#69d6f4"/>
      <path id="Trazado_995310" data-name="Trazado 995310" d="M118.751,79.922a13.555,13.555,0,0,1,.91,4.9,13.694,13.694,0,0,1-9.035,12.882V97.7L108.7,94.81a4.664,4.664,0,0,1-.783-2.584v-.607a4.674,4.674,0,0,0-2.574-4.17,2.417,2.417,0,0,1,1.077-4.581h2.359a5.008,5.008,0,0,0,3.544-1.468,5.008,5.008,0,0,1,3.544-1.468h2.878Zm0,0" transform="translate(-91.275 -70.143)" fill="#b4dd7f"/>
      <path id="Trazado_995311" data-name="Trazado 995311" d="M19.746,103.8a3.258,3.258,0,0,1-1.38,2.672,12.95,12.95,0,0,1-2.751,1.5l-.01.01A13.728,13.728,0,0,1,8.421,92.32h.02l3.3.734a3.977,3.977,0,0,1,3.113,3.876,3.978,3.978,0,0,0,2.5,3.69l.333.137a3.285,3.285,0,0,1,2.065,3.044Zm0,0" transform="translate(-7.021 -81.024)" fill="#b4dd7f"/>
      <path id="Trazado_995312" data-name="Trazado 995312" d="M60.975,12.894H56.854a7.373,7.373,0,0,0-4.4,1.468,7.373,7.373,0,0,1-4.4,1.468h-.382a7.35,7.35,0,0,1-5.2-2.154L40.8,12.013a13.689,13.689,0,0,1,20.174.881Zm0,0" transform="translate(-35.809 -7.021)" fill="#b4dd7f"/>
      <path id="Trazado_995313" data-name="Trazado 995313" d="M46.985,33.281a13.626,13.626,0,0,0-8.96,3.36L25.719,24.335a14.6,14.6,0,0,0,3.646-9.652H33.33a13.7,13.7,0,1,0,0-1.958H29.22A14.675,14.675,0,1,0,12.725,29.22v4.111a13.7,13.7,0,1,0,1.958,0V29.366a14.6,14.6,0,0,0,9.652-3.646L36.64,38.025a13.687,13.687,0,1,0,10.344-4.744ZM40.133,23.225V20.441a2.932,2.932,0,0,1,2.008-2.786l3.865-1.288V13.577l-.487-.283a2.905,2.905,0,0,1-1.471-2.526V8.81a2.948,2.948,0,0,1,.961-2.174,2.909,2.909,0,0,1,2.266-.748,3.053,3.053,0,0,1,2.646,3.091v1.789a2.905,2.905,0,0,1-1.471,2.526l-.487.283v2.791l3.865,1.288a2.931,2.931,0,0,1,2.008,2.786v2.784a11.663,11.663,0,0,1-13.7,0ZM46.985,1.958a11.728,11.728,0,0,1,8.81,19.49V20.441A4.887,4.887,0,0,0,52.448,15.8l-2.526-.843v-.293a4.9,4.9,0,0,0,1.958-3.895V8.978a5.023,5.023,0,0,0-4.418-5.039A4.893,4.893,0,0,0,42.09,8.81v1.958a4.9,4.9,0,0,0,1.958,3.895v.293l-2.526.842a4.889,4.889,0,0,0-3.347,4.643v1.007a11.728,11.728,0,0,1,8.81-19.49ZM6.852,56.506V53.722A2.934,2.934,0,0,1,8.86,50.936l3.865-1.287V46.858l-.487-.283a2.905,2.905,0,0,1-1.471-2.526V42.091a2.937,2.937,0,0,1,3.227-2.924,3.054,3.054,0,0,1,2.646,3.092v1.789a2.905,2.905,0,0,1-1.471,2.526l-.487.283v2.791l3.865,1.287a2.934,2.934,0,0,1,2.008,2.786v2.784a11.663,11.663,0,0,1-13.7,0Zm18.6-9.521a11.686,11.686,0,0,1-2.937,7.744V53.722a4.887,4.887,0,0,0-3.347-4.642l-2.526-.843v-.293A4.9,4.9,0,0,0,18.6,44.048V42.259A5.023,5.023,0,0,0,14.18,37.22,4.893,4.893,0,0,0,8.81,42.091v1.958a4.9,4.9,0,0,0,1.958,3.895v.293l-2.526.842a4.889,4.889,0,0,0-3.347,4.643v1.007A11.739,11.739,0,1,1,25.45,46.985ZM22.8,4.894H21.045a8.371,8.371,0,0,0-4.992,1.664,6.4,6.4,0,0,1-3.817,1.272H11.85a6.315,6.315,0,0,1-4.5-1.864L6.415,5.03A12.678,12.678,0,0,1,22.8,4.894ZM1.958,14.683a12.714,12.714,0,0,1,.206-2.214l2.345.521A2.974,2.974,0,0,1,6.852,15.91a4.928,4.928,0,0,0,3.112,4.6l.333.133a2.307,2.307,0,0,1,.485,4.018,11.619,11.619,0,0,1-2.174,1.2A12.736,12.736,0,0,1,1.958,14.683Zm9,12.166c.324-.193.653-.38.959-.6a4.264,4.264,0,0,0-.894-7.43l-.333-.132A2.977,2.977,0,0,1,8.81,15.91a4.92,4.92,0,0,0-3.876-4.832l-2.282-.507A12.723,12.723,0,0,1,5.029,6.413l.939.938a8.261,8.261,0,0,0,5.883,2.438h.385a8.371,8.371,0,0,0,4.992-1.664,6.4,6.4,0,0,1,3.817-1.272h3.647A12.708,12.708,0,0,1,25.96,8.81H24.59a5.95,5.95,0,0,0-4.237,1.755A4.008,4.008,0,0,1,17.5,11.746H15.145a3.4,3.4,0,0,0-1.52,6.438,3.665,3.665,0,0,1,2.037,3.3v.6a5.625,5.625,0,0,0,.947,3.129L17.805,27a12.492,12.492,0,0,1-6.847-.154Zm8.769-.489-1.491-2.235a3.69,3.69,0,0,1-.618-2.044v-.6a5.612,5.612,0,0,0-3.12-5.047,1.441,1.441,0,0,1,.645-2.73H17.5a5.95,5.95,0,0,0,4.237-1.755,4.008,4.008,0,0,1,2.852-1.181h2.2A12.7,12.7,0,0,1,19.727,26.36ZM40.133,56.506V53.722a2.934,2.934,0,0,1,2.008-2.786l3.865-1.287V46.858l-.487-.283a2.905,2.905,0,0,1-1.471-2.526V42.091a2.937,2.937,0,0,1,3.227-2.924,3.054,3.054,0,0,1,2.646,3.092v1.789a2.905,2.905,0,0,1-1.471,2.526l-.487.283v2.791l3.865,1.287a2.934,2.934,0,0,1,2.008,2.786v2.784a11.663,11.663,0,0,1-13.7,0Zm15.662-1.778V53.722a4.887,4.887,0,0,0-3.347-4.642l-2.526-.843v-.293a4.9,4.9,0,0,0,1.958-3.895V42.259a5.023,5.023,0,0,0-4.418-5.039,4.893,4.893,0,0,0-5.371,4.871v1.958a4.9,4.9,0,0,0,1.958,3.895v.293l-2.526.842a4.889,4.889,0,0,0-3.347,4.643v1.007a11.746,11.746,0,1,1,17.619,0Zm0,0" transform="translate(0)"/>
    </g>
  </g>
</svg>
