<svg xmlns="http://www.w3.org/2000/svg" xmlns:xlink="http://www.w3.org/1999/xlink" width="108" height="108" viewBox="0 0 108 108">
  <defs>
    <filter id="Trazado_982547" x="0" y="0" width="108" height="108" filterUnits="userSpaceOnUse">
      <feOffset dy="3" input="SourceAlpha"/>
      <feGaussianBlur stdDeviation="3" result="blur"/>
      <feFlood flood-opacity="0.161"/>
      <feComposite operator="in" in2="blur"/>
      <feComposite in="SourceGraphic"/>
    </filter>
  </defs>
  <g id="Grupo_1160688" data-name="Grupo 1160688" transform="translate(-171 -9413)">
    <g id="Grupo_1160581" data-name="Grupo 1160581" transform="translate(0 7864)">
      <g id="Grupo_1153955" data-name="Grupo 1153955" transform="translate(-83 1036)">
        <g id="Grupo_1149598" data-name="Grupo 1149598" transform="translate(80 315)">
          <g id="Grupo_1148770" data-name="Grupo 1148770" transform="translate(-27 -2583)">
            <g id="Grupo_1146954" data-name="Grupo 1146954" transform="translate(-415 -1202)">
              <g transform="matrix(1, 0, 0, 1, 616, 3983)" filter="url(#Trazado_982547)">
                <g id="Trazado_982547-2" data-name="Trazado 982547" transform="translate(9 6)" fill="#fcebe9">
                  <path d="M 45 88.5 C 39.12687683105469 88.5 33.43022537231445 87.35007476806641 28.06830024719238 85.08217620849609 C 22.88852500915527 82.89131164550781 18.23629951477051 79.75458526611328 14.2408504486084 75.75914764404297 C 10.24541282653809 71.76370239257812 7.108687400817871 67.11147308349609 4.917825222015381 61.93170166015625 C 2.649924993515015 56.56977462768555 1.5 50.87312316894531 1.5 45 C 1.5 39.12687683105469 2.649924993515015 33.43022537231445 4.917825222015381 28.06830024719238 C 7.108687400817871 22.88852500915527 10.24541282653809 18.23629951477051 14.2408504486084 14.2408504486084 C 18.23629951477051 10.24541282653809 22.88852500915527 7.108687400817871 28.06830024719238 4.917825222015381 C 33.43022537231445 2.649924993515015 39.12687683105469 1.5 45 1.5 C 50.87312316894531 1.5 56.56977462768555 2.649924993515015 61.93170166015625 4.917825222015381 C 67.11147308349609 7.108687400817871 71.76370239257812 10.24541282653809 75.75914764404297 14.2408504486084 C 79.75458526611328 18.23629951477051 82.89131164550781 22.88852500915527 85.08217620849609 28.06830024719238 C 87.35007476806641 33.43022537231445 88.5 39.12687683105469 88.5 45 C 88.5 50.87312316894531 87.35007476806641 56.56977462768555 85.08217620849609 61.93170166015625 C 82.89131164550781 67.11147308349609 79.75458526611328 71.76370239257812 75.75914764404297 75.75914764404297 C 71.76370239257812 79.75458526611328 67.11147308349609 82.89131164550781 61.93170166015625 85.08217620849609 C 56.56977462768555 87.35007476806641 50.87312316894531 88.5 45 88.5 Z" stroke="none"/>
                  <path d="M 45 3 C 39.32871246337891 3 33.82865524291992 4.110054016113281 28.65262985229492 6.299339294433594 C 23.65165710449219 8.414573669433594 19.15968322753906 11.44334411621094 15.301513671875 15.301513671875 C 11.44334411621094 19.15968322753906 8.414573669433594 23.65165710449219 6.299339294433594 28.65262985229492 C 4.110054016113281 33.82865524291992 3 39.32871246337891 3 45 C 3 50.67128753662109 4.110054016113281 56.17134475708008 6.299339294433594 61.34737396240234 C 8.414573669433594 66.34834289550781 11.44334411621094 70.84031677246094 15.301513671875 74.698486328125 C 19.15968322753906 78.55665588378906 23.65165710449219 81.58542633056641 28.65262985229492 83.70066070556641 C 33.82865524291992 85.88994598388672 39.32871246337891 87 45 87 C 50.67128753662109 87 56.17134475708008 85.88994598388672 61.34737396240234 83.70066070556641 C 66.34834289550781 81.58542633056641 70.84031677246094 78.55665588378906 74.698486328125 74.698486328125 C 78.55665588378906 70.84031677246094 81.58542633056641 66.34834289550781 83.70066070556641 61.34737396240234 C 85.88994598388672 56.17134475708008 87 50.67128753662109 87 45 C 87 39.32871246337891 85.88994598388672 33.82865524291992 83.70066070556641 28.65262985229492 C 81.58542633056641 23.65165710449219 78.55665588378906 19.15968322753906 74.698486328125 15.301513671875 C 70.84031677246094 11.44334411621094 66.34834289550781 8.414573669433594 61.34737396240234 6.299339294433594 C 56.17134475708008 4.110054016113281 50.67128753662109 3 45 3 M 45 0 C 69.85281372070312 0 90 20.14718627929688 90 45 C 90 69.85281372070312 69.85281372070312 90 45 90 C 20.14718627929688 90 0 69.85281372070312 0 45 C 0 20.14718627929688 20.14718627929688 0 45 0 Z" stroke="none" fill="#41a599"/>
                </g>
              </g>
            </g>
          </g>
        </g>
      </g>
    </g>
    <g id="_FILLED_OUTLINE" data-name="/ FILLED_OUTLINE" transform="translate(182 9421)">
      <path id="Trazado_995271" data-name="Trazado 995271" d="M331.91,128.435H330.1V127.7l-8.145-20.362L313.81,127.7v.731H312v-.9a.9.9,0,0,1,.065-.336l9.05-22.625a.9.9,0,0,1,1.68,0l9.05,22.625a.906.906,0,0,1,.065.336Z" transform="translate(-262.516 -78.045)" fill="#ffda86"/>
      <path id="Trazado_995272" data-name="Trazado 995272" d="M43.91,128.434H42.1V127.7l-8.145-20.362L25.81,127.7v.731H24v-.9a.905.905,0,0,1,.065-.336l9.05-22.625a.9.9,0,0,1,1.681,0l9.05,22.625a.905.905,0,0,1,.065.336Z" transform="translate(-7.095 -78.045)" fill="#ffda86"/>
      <rect id="Rectángulo_412865" data-name="Rectángulo 412865" width="5.846" height="39.752" transform="translate(40.553 18.338)" fill="#ed8f4f"/>
      <path id="Trazado_995273" data-name="Trazado 995273" d="M79.059,27.62h0l-.475.475a7.647,7.647,0,0,1-5.407,2.24h0A7.647,7.647,0,0,1,67.77,28.1L66.234,26.56A8.739,8.739,0,0,0,60.054,24h-5.43a8.739,8.739,0,0,0-6.18,2.56L46.909,28.1a7.647,7.647,0,0,1-5.407,2.24h0A7.647,7.647,0,0,1,36.1,28.1l-.475-.475h0a1.81,1.81,0,0,0-1.81-1.81h0A1.81,1.81,0,0,0,32,27.62h0a4.37,4.37,0,0,0,1.28,3.09l1.005,1.005a7.647,7.647,0,0,0,5.407,2.24h4.525a7.647,7.647,0,0,0,5.407-2.24L51.16,30.18a8.739,8.739,0,0,1,6.18-2.56h0a8.739,8.739,0,0,1,6.18,2.56l1.535,1.535a7.647,7.647,0,0,0,5.407,2.24h4.525a7.647,7.647,0,0,0,5.407-2.24L81.4,30.71a4.37,4.37,0,0,0,1.28-3.09h0a1.81,1.81,0,0,0-1.81-1.81h0A1.81,1.81,0,0,0,79.059,27.62Z" transform="translate(-14.19 -7.095)" fill="#f7a46b"/>
      <circle id="Elipse_11557" data-name="Elipse 11557" cx="6.43" cy="6.43" r="6.43" transform="translate(37.045 20.677)" fill="#0cbf6a"/>
      <circle id="Elipse_11558" data-name="Elipse 11558" cx="6.43" cy="6.43" r="6.43" transform="translate(37.045 33.538)" fill="#0cbf6a"/>
      <path id="Trazado_995274" data-name="Trazado 995274" d="M228.793,95.508a.9.9,0,0,1-.64-.265l-1.81-1.81,1.28-1.28,1.17,1.17,2.98-2.98,1.28,1.28-3.62,3.62A.9.9,0,0,1,228.793,95.508Z" transform="translate(-186.549 -65.934)" fill="#ffe7b1"/>
      <rect id="Rectángulo_412866" data-name="Rectángulo 412866" width="1.81" height="7.679" transform="translate(39.795 37.454) rotate(-45)" fill="#ffe7b1"/>
      <rect id="Rectángulo_412867" data-name="Rectángulo 412867" width="7.679" height="1.81" transform="translate(39.795 41.604) rotate(-45)" fill="#ffe7b1"/>
      <path id="Trazado_995275" data-name="Trazado 995275" d="M152.988,397.43H151.53l-.4-2.405A3.62,3.62,0,0,0,147.558,392H137.4a3.62,3.62,0,0,0-3.571,3.025l-.4,2.405h-1.458a3.62,3.62,0,0,0-3.571,3.025l-.4,2.405h28.959l-.4-2.405A3.62,3.62,0,0,0,152.988,397.43Z" transform="translate(-99.33 -333.466)" fill="#d17537"/>
      <path id="Trazado_995276" data-name="Trazado 995276" d="M312,312h19.91v1.81a3.62,3.62,0,0,1-3.62,3.62H315.62a3.62,3.62,0,0,1-3.62-3.62Z" transform="translate(-262.516 -262.516)" fill="#ffc542"/>
      <path id="Trazado_995277" data-name="Trazado 995277" d="M24,312H43.91v1.81a3.62,3.62,0,0,1-3.62,3.62H27.62A3.62,3.62,0,0,1,24,313.81Z" transform="translate(-7.095 -262.516)" fill="#ffc542"/>
      <path id="Trazado_995278" data-name="Trazado 995278" d="M190.128,392H179.972a3.62,3.62,0,0,0-3.571,3.025l-.4,2.405h18.1l-.4-2.405A3.62,3.62,0,0,0,190.128,392Z" transform="translate(-141.9 -333.466)" fill="#e2803d"/>
      <path id="Trazado_995279" data-name="Trazado 995279" d="M228.793,93.323l-1.17-1.17-1.28,1.28,1.81,1.81a.9.9,0,0,0,1.28,0l3.62-3.62-1.28-1.28Z" transform="translate(-186.549 -65.934)"/>
      <path id="Trazado_995280" data-name="Trazado 995280" d="M227.623,201.053l2.075-2.075,2.075,2.075,1.28-1.28-2.075-2.075,2.075-2.075-1.28-1.28-2.075,2.075-2.075-2.075-1.28,1.28,2.075,2.075-2.075,2.075Z" transform="translate(-186.548 -158.169)"/>
      <path id="Trazado_995281" data-name="Trazado 995281" d="M69.394,48.579H69.1L60.776,27.764H60.8a8.5,8.5,0,0,0,6.047-2.5l1.005-1.005a5.24,5.24,0,0,0,1.545-3.73,2.715,2.715,0,0,0-5.4-.4l-.24.24a6.742,6.742,0,0,1-9.534,0l-1.536-1.536A9.581,9.581,0,0,0,45.864,16h-5.43a9.581,9.581,0,0,0-6.82,2.825L32.08,20.36a6.742,6.742,0,0,1-9.534,0l-.24-.24a2.715,2.715,0,0,0-5.4.4,5.24,5.24,0,0,0,1.545,3.73l1.005,1.005a8.5,8.5,0,0,0,6.047,2.5h.021L17.2,48.579H16.9a.9.9,0,0,0-.9.905v1.81a4.53,4.53,0,0,0,4.525,4.525h12.67a4.53,4.53,0,0,0,4.525-4.525v-1.81a.9.9,0,0,0-.905-.9h-.292L28.2,27.764h1.831a8.5,8.5,0,0,0,6.047-2.5l.02-.02a7.227,7.227,0,0,0,3.555,7.955,7.234,7.234,0,0,0-.12,12.6V57.629H38.071a4.511,4.511,0,0,0-4.463,3.781l-.275,1.649h-.692a4.511,4.511,0,0,0-4.463,3.781l-.4,2.405A.905.905,0,0,0,28.67,70.3H57.629a.905.905,0,0,0,.893-1.054l-.4-2.405a4.511,4.511,0,0,0-4.463-3.781h-.692l-.275-1.649a4.511,4.511,0,0,0-4.463-3.781H46.769V45.8a7.234,7.234,0,0,0-.12-12.6A7.227,7.227,0,0,0,50.2,25.239l.02.02a8.5,8.5,0,0,0,6.047,2.5H58.1L49.777,48.579h-.292a.9.9,0,0,0-.9.905v1.81A4.53,4.53,0,0,0,53.1,55.819h12.67A4.53,4.53,0,0,0,70.3,51.294v-1.81a.9.9,0,0,0-.905-.9ZM35.91,51.294a2.718,2.718,0,0,1-2.715,2.715H20.525a2.718,2.718,0,0,1-2.715-2.715v-.9h18.1ZM19.147,48.579,26.86,29.3l7.713,19.283Zm34.511,16.29a2.706,2.706,0,0,1,2.678,2.269l.225,1.351H29.738l.225-1.351a2.706,2.706,0,0,1,2.678-2.269Zm-2.752-3.161.225,1.351H35.168l.225-1.351a2.706,2.706,0,0,1,2.678-2.269H48.228a2.706,2.706,0,0,1,2.678,2.269Zm-5.946-4.079H41.34V46.54a7.264,7.264,0,0,0,3.62,0Zm3.62-18.1a5.43,5.43,0,1,1-5.43-5.43A5.43,5.43,0,0,1,48.579,39.529Zm-5.43-7.24a5.43,5.43,0,1,1,5.43-5.43A5.43,5.43,0,0,1,43.149,32.289ZM51.5,23.98l-1.536-1.535a9.644,9.644,0,0,0-13.639,0L34.794,23.98a6.7,6.7,0,0,1-4.767,1.975H25.5a6.7,6.7,0,0,1-4.767-1.975L19.73,22.975a3.442,3.442,0,0,1-1.015-2.45.9.9,0,1,1,1.81,0,.9.9,0,0,0,.265.64l.475.475a8.552,8.552,0,0,0,12.094,0L34.895,20.1a7.783,7.783,0,0,1,5.54-2.295h5.43A7.783,7.783,0,0,1,51.4,20.1L52.94,21.64a8.552,8.552,0,0,0,12.094,0l.475-.475a.9.9,0,0,0,.265-.64.9.9,0,1,1,1.81,0,3.442,3.442,0,0,1-1.015,2.45L65.564,23.98A6.7,6.7,0,0,1,60.8,25.955H56.272A6.7,6.7,0,0,1,51.5,23.98ZM59.439,29.3l7.713,19.283H51.726Zm9.05,22a2.718,2.718,0,0,1-2.715,2.715H53.1a2.718,2.718,0,0,1-2.715-2.715v-.9h18.1Z" transform="translate(0 0)"/>
    </g>
  </g>
</svg>
