<svg xmlns="http://www.w3.org/2000/svg" width="480.004" height="403.52" viewBox="0 0 480.004 403.52">
  <g id="OBJECTS" transform="translate(-48.573 39.042)">
    <g id="Grupo_1161159" data-name="Grupo 1161159" transform="translate(48.573 31.747)">
      <g id="Grupo_1161110" data-name="Grupo 1161110" transform="translate(22.273 23.211)">
        <path id="Trazado_996980" data-name="Trazado 996980" d="M521.78,349.837c-16.649,7.354-35.844,8.91-46.556,25.475-3.886,6.007-6.573,12.612-9.27,19.185H255.077c-21.027-10.655-40.768-24.358-52.407-44.945-9.869-17.455-11.157-37.543-14.1-56.956-2.884-19.047-9.874-36.445-17.9-53.84-7.8-16.9-16.215-33.895-19.916-52.276-3.44-17.082-2.23-34.52,4.619-50.632,14.167-33.323,48.887-53.725,84.908-50.547,18.375,1.621,34.34,10.032,50.5,18.259,16.572,8.436,33.722,15.768,52.666,11.925,17.9-3.632,33.659-13.7,50.513-20.277,16.7-6.514,34.27-8.789,51.789-4.156,34.164,9.034,58.241,40.166,57.413,75.719a82.743,82.743,0,0,1-5.2,25.862c-3.325,9.349-7.7,18.54-9.359,28.391-3.6,21.323,11.012,36.352,26.056,49.013,13.441,11.312,28.067,23.392,31.343,41.667C549.273,329.914,537.536,342.877,521.78,349.837Z" transform="translate(-99.898 -178.977)" fill="#dfefff"/>
        <path id="Trazado_996411" data-name="Trazado 996411" d="M521.78,349.837c-16.649,7.354-35.844,8.91-46.556,25.475-3.886,6.007-6.573,12.612-9.27,19.185H255.077c-21.027-10.655-40.768-24.358-52.407-44.945-9.869-17.455-11.157-37.543-14.1-56.956-2.884-19.047-9.874-36.445-17.9-53.84-7.8-16.9-16.215-33.895-19.916-52.276-3.44-17.082-2.23-34.52,4.619-50.632,14.167-33.323,48.887-53.725,84.908-50.547,18.375,1.621,34.34,10.032,50.5,18.259,16.572,8.436,33.722,15.768,52.666,11.925,17.9-3.632,33.659-13.7,50.513-20.277,16.7-6.514,34.27-8.789,51.789-4.156,34.164,9.034,58.241,40.166,57.413,75.719a82.743,82.743,0,0,1-5.2,25.862c-3.325,9.349-7.7,18.54-9.359,28.391-3.6,21.323,11.012,36.352,26.056,49.013,13.441,11.312,28.067,23.392,31.343,41.667C549.273,329.914,537.536,342.877,521.78,349.837Z" transform="translate(-148.898 -84.977)" fill="#b6dcff"/>
      </g>
      <path id="Trazado_996412" data-name="Trazado 996412" d="M313.175,393.386l-6.492-54.238a3.583,3.583,0,0,0-3.545-3.16c-15.61-.077-33.54-3.434-51.893-7.388a2.143,2.143,0,0,1-1.671-2.383l2.785-20.423-5.353-6.589a1.19,1.19,0,0,1-.083-1.4,21.578,21.578,0,0,1,6.407-6.1.618.618,0,0,0-.132-1.1,30.474,30.474,0,0,1-8.818-4.638,1.423,1.423,0,0,1-.482-.926l-.708-6.016a1.093,1.093,0,0,1,1-1.22,21.87,21.87,0,0,0,6.5-1.2,1.858,1.858,0,0,0,1.116-1.467l1.494-11.395a2.321,2.321,0,0,0-1.121-2.3,181.38,181.38,0,0,1-20.206-14.355,1.641,1.641,0,0,1-.5-1.875l2.561-6.562a2.55,2.55,0,0,1,2.375-1.623h4.57a.836.836,0,0,0,.733-.434l17.432-31.714a3.992,3.992,0,0,0-.122-4.06,64.427,64.427,0,0,1-7.333-16.587,18.31,18.31,0,0,1-.429-8.464c2.328-12.461,10.565-50.263,27.485-67.465,20.423-20.763,99.223-52.42,155.387-13.275S479.965,202.54,461.357,239.3a211.636,211.636,0,0,1-33.509,48.186,23.116,23.116,0,0,0-5.312,22.225l24.3,83.67H313.175Z" transform="translate(-127.947 -60.656)" fill="#b1a3cc"/>
      <g id="Grupo_1161112" data-name="Grupo 1161112" transform="translate(0 109.991)">
        <path id="Trazado_996413" data-name="Trazado 996413" d="M546.191,184.738a39.57,39.57,0,0,1,39.655,39.485c0,1.224-.064,2.432-.173,3.628l29.691,15.078-31.684-5.835a39.623,39.623,0,1,1-37.489-52.356Z" transform="translate(-506.536 -184.738)" fill="#fff"/>
        <g id="Grupo_1161111" data-name="Grupo 1161111" transform="translate(10.116 11.058)">
          <path id="Trazado_996414" data-name="Trazado 996414" d="M582.916,197.45a134.217,134.217,0,0,0,29.229,8.2l-2.368,33.814c-2.473,6.25-7.76,11-14.788,14.822l0,.008h-.014l-.011.007,0-.008c-7.974-.639-14.734-2.833-19.532-7.541l-15.894-29.94A134.1,134.1,0,0,0,582.916,197.45Z" transform="translate(-559.537 -197.45)" fill="#f6d430"/>
          <path id="Trazado_996415" data-name="Trazado 996415" d="M578.273,249.29l-15.894-29.94q1.823-1.189,3.58-2.423l46.556,25.318c-2.514,6.129-7.748,10.808-14.684,14.58l0,.008h-.014l-.011.007,0-.008C589.832,256.192,583.072,254,578.273,249.29Z" transform="translate(-562.379 -199.984)" fill="#e2bd23"/>
          <path id="Trazado_996416" data-name="Trazado 996416" d="M563.385,217.508a134.979,134.979,0,0,0,19.409-16.189l.518-.52.685.264a134.983,134.983,0,0,0,24.311,6.912l.988.183-2.182,31.18-.076.175c-2.066,4.8-6.156,8.889-12.506,12.509l-.311.178-.358-.037c-7.273-.73-12.672-2.808-16.509-6.353l-.141-.13-14.656-27.607Zm15.634,26.78c3.4,3.068,8.212,4.9,14.708,5.6,5.653-3.277,9.31-6.91,11.166-11.093L606.91,210a136.945,136.945,0,0,1-23.041-6.577,136.959,136.959,0,0,1-18.385,15.366Z" transform="translate(-559.315 -197.886)" fill="#ffe67b"/>
          <path id="Trazado_996417" data-name="Trazado 996417" d="M568.948,219.919A138.47,138.47,0,0,0,583.7,207.514l.405-.391.529.192a138.624,138.624,0,0,0,18.516,5.348l.764.164-1.821,25.995-.012.177-.079.158c-1.6,3.243-4.52,6.133-8.918,8.835l-.273.168-.317-.043c-5.116-.684-8.955-2.139-11.736-4.452l-.137-.113-12.3-23.173Zm13.094,22.473c2.448,1.979,5.845,3.255,10.371,3.9,3.875-2.423,6.461-4.97,7.9-7.772l1.7-24.258a140,140,0,0,1-17.463-5.059,140.006,140.006,0,0,1-13.9,11.715Z" transform="translate(-558.939 -198.709)" fill="#ffe67b"/>
        </g>
      </g>
      <g id="Grupo_1161118" data-name="Grupo 1161118" transform="translate(351.792 124.412)">
        <path id="Trazado_996418" data-name="Trazado 996418" d="M79.839,305.248l30.7-30.872a44.278,44.278,0,0,1-8.008-25.292c0-26.382,23.622-47.768,52.76-47.768s52.76,21.386,52.76,47.768-23.622,47.768-52.76,47.768a56.227,56.227,0,0,1-31.529-9.465Z" transform="translate(-79.839 -201.316)" fill="#fff"/>
        <g id="Grupo_1161117" data-name="Grupo 1161117" transform="translate(39.818 6.32)">
          <g id="Grupo_1161115" data-name="Grupo 1161115" transform="translate(15.27 12.8)">
            <path id="Trazado_996419" data-name="Trazado 996419" d="M140.19,223.927a20.428,20.428,0,0,1-2.115,40.023l-12.191,22.014-12.24-5.35,7.076-22.472a20.415,20.415,0,0,1,19.47-34.216Z" transform="translate(-111.888 -223.296)" fill="#f6d430"/>
            <path id="Trazado_996420" data-name="Trazado 996420" d="M133.5,236.792a.344.344,0,0,1,.4.1l2.662,3.228,2.95-.8a.348.348,0,0,1,.395.17l1.924,3.574,2.915-1.465a.346.346,0,0,1,.445.122l1.677,2.605,3.807-.295a.345.345,0,0,1,.281.578l-5.7,6.182L131,279.6l-.618-.305,14.281-28.86a.348.348,0,0,1,.056-.082l5.139-5.572-3.136.243a.345.345,0,0,1-.317-.157l-1.621-2.517-2.938,1.476a.347.347,0,0,1-.459-.145l-1.953-3.628-2.9.788a.343.343,0,0,1-.357-.114l-2.041-2.475.717,5.537a.348.348,0,0,1-.01.137l-9.464,33.839-.665-.186,9.445-33.771-.862-6.656A.338.338,0,0,1,133.5,236.792Z" transform="translate(-116.956 -225.048)" fill="#401d82"/>
            <path id="Trazado_996421" data-name="Trazado 996421" d="M135.511,273.2l-.649-.236,9.276-25.52a.345.345,0,0,1,.428-.211l3.275,1.031a.345.345,0,0,1,.212.469l-11.3,25.588-.632-.279,11.148-25.236-2.591-.816Z" transform="translate(-122.821 -226.409)" fill="#401d82"/>
            <g id="Grupo_1161114" data-name="Grupo 1161114" transform="translate(0 37.943)">
              <path id="Trazado_996422" data-name="Trazado 996422" d="M160.27,275.092l-17.723-8.178-6.559,20.828,14.2,5.887Z" transform="translate(-135.988 -266.914)" fill="#7a4495"/>
              <g id="Grupo_1161113" data-name="Grupo 1161113" transform="translate(0.298 1.307)">
                <path id="Trazado_996423" data-name="Trazado 996423" d="M142.067,282.285l18.429,1.247-.485.89-17.078-1.156,13.69,7.384-.616,1.132c-9.365-1.677-13.848-2.52-15.992-2.983l.275-.873c2.919.59,9.046,1.718,14.279,2.662l-12.922-6.969Z" transform="translate(-140.016 -270.221)" fill="#401d82"/>
                <path id="Trazado_996424" data-name="Trazado 996424" d="M139.53,268.416l15.31,12.063-.446.819-15.159-11.944Z" transform="translate(-133.68 -268.416)" fill="#401d82"/>
              </g>
            </g>
          </g>
          <g id="Grupo_1161116" data-name="Grupo 1161116">
            <path id="Trazado_996425" data-name="Trazado 996425" d="M124.479,213.492l-4.538,7.035-1.929-.794,3.234-8.283Z" transform="translate(-69.289 -208.954)" fill="#ffe67b"/>
            <path id="Trazado_996426" data-name="Trazado 996426" d="M143.238,217.658h-1.961l-2.043-9.077h4Z" transform="translate(-106.511 -208.581)" fill="#ffe67b"/>
            <path id="Trazado_996427" data-name="Trazado 996427" d="M157.278,213.2l6.411,9.674-1.407,1.171-9.758-7.829Z" transform="translate(-138.52 -209.182)" fill="#ffe67b"/>
            <path id="Trazado_996428" data-name="Trazado 996428" d="M98.576,232.923l11.346-5.56,1.248,5.56-11.46,1.588Z" transform="translate(-39.074 -211.025)" fill="#ffe67b"/>
            <path id="Trazado_996429" data-name="Trazado 996429" d="M97.056,250.711l12.027,2.837-2.383,5.9-10.212-6.894Z" transform="translate(-35.172 -214.063)" fill="#ffe67b"/>
            <path id="Trazado_996430" data-name="Trazado 996430" d="M117.73,276.956l-5.673,3.386L108.88,268.29l1.258-.84Z" transform="translate(-54.598 -216.241)" fill="#ffe67b"/>
            <path id="Trazado_996431" data-name="Trazado 996431" d="M164.374,229.244l12.131,5.579-.592,1.862-14.029-2.27Z" transform="translate(-159.479 -211.27)" fill="#ffe67b"/>
            <path id="Trazado_996432" data-name="Trazado 996432" d="M178.866,251.92l.338,1.771L165.4,258.9l-1.258-6.457Z" transform="translate(-164.146 -214.22)" fill="#ffe67b"/>
          </g>
        </g>
      </g>
      <g id="Grupo_1161122" data-name="Grupo 1161122" transform="translate(319.689 236.936)">
        <g id="Grupo_1161119" data-name="Grupo 1161119" transform="translate(12.99)">
          <path id="Trazado_996433" data-name="Trazado 996433" d="M223.162,426.465h-8.876c2.387-13.6,10.823-62.027,12.136-74.715,1.532-14.807,4.425-22.807,12.084-20.764s8.169,21.1,1.532,43.74C235.119,391.5,227.026,415.269,223.162,426.465Z" transform="translate(-214.285 -330.671)" fill="#216838"/>
          <path id="Trazado_996434" data-name="Trazado 996434" d="M219,425.129l-4.71-5.2q.093-.534.19-1.087l4.718,5.211,1.2-6.539-4.564-6.468q.1-.6.209-1.213l4.575,6.481,1.813-9.909-4.5-7.586q.112-.66.224-1.326l4.516,7.609,1.964-10.738-4.815-6.775q.1-.609.2-1.217l4.831,6.8,1.936-10.579-5.128-6.194q.093-.573.184-1.141l5.148,6.219,1.562-8.54-5.128-7.715c.066-.432.131-.858.195-1.279l5.158,7.76,1.353-7.393-5.426-7.848q.09-.665.17-1.282l5.477,7.92,1.649-9.016-5.939-8.416q.1-.622.2-1.222l5.955,8.44,1.837-10.044-4.114-9.272a9.231,9.231,0,0,1,.611-.769l3.781,8.522,1.929-10.546c.277.041.562.1.853.166l-1.933,10.567,6.426-6.341q.189.415.359.867L234.906,343,233.06,353.09l10.452-6.535c0,.337,0,.685-.007,1.03l-10.657,6.663-1.664,9.1,11.658-6.929c-.047.364-.1.732-.15,1.1l-11.716,6.963-1.384,7.566,11.523-5.924c-.082.367-.168.738-.254,1.108l-11.468,5.9-1.554,8.492,10.885-6.315c-.118.4-.237.8-.359,1.214l-10.731,6.226L225.7,393.338l9.4-6.187c-.138.438-.277.875-.417,1.316l-9.2,6.054-1.991,10.886,7.226-4.695q-.218.663-.436,1.32l-7.006,4.553-1.809,9.885,5.156-3.48-.459,1.36-4.915,3.319-1.193,6.518,3.372-1.8q-.213.618-.415,1.208l-3.158,1.688-.219,1.2h-.884Z" transform="translate(-213.14 -330.684)" fill="#b2d855"/>
        </g>
        <g id="Grupo_1161120" data-name="Grupo 1161120" transform="translate(35.964 6.826)">
          <path id="Trazado_996435" data-name="Trazado 996435" d="M192.158,427.486h-8.736c2.023-9.8,10.25-49.483,13.67-63.313,3.914-15.828,9.7-28.252,16.85-25.189s2.213,22.3,0,29.613C212.179,374.425,197.9,412.29,192.158,427.486Z" transform="translate(-183.421 -338.517)" fill="#216838"/>
          <path id="Trazado_996436" data-name="Trazado 996436" d="M183.8,421.261l3.285,4.478,1.587-5.429-3.385-6.187c.09-.432.182-.868.274-1.311l3.456,6.318,2.489-8.514-3.955-7.274.278-1.313,4.024,7.4,2.653-9.074L190.35,390.2l.324-1.506,4.223,10.327,3.018-10.326-5.131-9.7c.1-.443.194-.878.29-1.312l5.191,9.815,2.278-7.792-5.88-9.1c.093-.406.183-.792.272-1.181l5.93,9.178,2.423-8.29-6.12-9.89c.106-.381.212-.759.321-1.134l6.128,9.9,2.4-8.213-5.706-10.07c.138-.347.278-.687.42-1.023l5.627,9.929,2.974-10.175-4.473-7.273q.288-.374.581-.716l4.221,6.863,2.827-9.672c.176.057.352.117.531.193.1.042.184.1.277.145l-2.749,9.4,5.954-3.81q.073.465.124.953l-6.448,4.126-2.945,10.077,9.075-5.811q-.077.569-.164,1.138l-9.282,5.945-2.393,8.184,9.791-5.155c-.1.39-.2.773-.3,1.141l-9.829,5.177-2.355,8.056L212,371.711c-.15.429-.311.886-.484,1.375L201.393,379.9l-2.272,7.772,9.159-5.671c-.159.434-.323.878-.487,1.324l-9.037,5.6-3.076,10.52,7.705-4.229-.465,1.248-7.585,4.163-2.685,9.184,6.251-2.61-.42,1.118-6.145,2.566-2.521,8.621,5.285-2.2-.422,1.119-5.177,2.156-1.6,5.473,4.406-1.349-.389,1.029-4.309,1.32-.138.474h-.906l.216-.737-3.215-4.383C183.64,422.037,183.72,421.652,183.8,421.261Z" transform="translate(-182.504 -338.559)" fill="#b2d855"/>
        </g>
        <path id="Trazado_996437" data-name="Trazado 996437" d="M168.871,436.035H113.739l0-.015A49.29,49.29,0,0,1,115,430.194a52.346,52.346,0,0,1,4.4-10.941c1.707-3.17,3.659-6.622,6.792-8.587,3.08-1.932,7.095-2.323,10.135-.09a8.743,8.743,0,0,1,1.355,1.274c.227-.514.469-1.021.744-1.511a11.852,11.852,0,0,1,7.057-5.814,8.789,8.789,0,0,1,8.162,1.912c2.755,2.6,2.022,6.163,1.253,9.468-.361,1.549-.75,3.092-1.153,4.631a6.242,6.242,0,0,1,3.393.007,7.442,7.442,0,0,1,5.138,5.813c0,.01,0,.022.005.032a4.828,4.828,0,0,1,.688-.14,5.126,5.126,0,0,1,5.346,2.909,10.836,10.836,0,0,1,.732,5.748C169.007,435.282,168.937,435.659,168.871,436.035Z" transform="translate(-38.307 -340.241)" fill="#b2d855"/>
        <g id="Grupo_1161121" data-name="Grupo 1161121" transform="translate(67.842 37.66)">
          <path id="Trazado_996438" data-name="Trazado 996438" d="M141.588,432.1h-13.47c4.093-8.2,20.813-44.334,25.872-50.718,7.148-9.021,17.019-9.588,22.466-2.922s-.4,18.7-7.574,26.82C163.8,411.031,149.644,424.509,141.588,432.1Z" transform="translate(-128.118 -373.964)" fill="#216838"/>
          <path id="Trazado_996439" data-name="Trazado 996439" d="M130.116,430.791l-1.974-8.166c.2-.409.392-.819.594-1.241l2.052,8.489,2.757-3.766h0l.114-.157c.027-.832-.478-6.234-1.11-12.5l.728-1.507c.786,7.7,1.087,11.255,1.181,12.914l7.277-9.941-2.582-14.938c.22-.44.438-.873.657-1.307l2.639,15.27,5.327-7.277-4.431-14.878c.195-.37.39-.741.58-1.1l4.5,15.094,6.308-8.617-5.178-15.911q.326-.406.658-.788l5.154,15.834,6.335-8.655-1.453-13.43c.288-.055.574-.1.86-.137l1.355,12.525,7.411-10.124c.227.178.448.366.665.563l-7.431,10.151,10.91-1.512q-.021.44-.068.887l-11.558,1.6-6.3,8.608,14.535-.451c-.159.3-.324.592-.491.886l-14.7.456-6.258,8.55,15.654-1.511c-.168.2-.336.391-.505.583-.105.119-.22.246-.333.371l-15.5,1.5-5.467,7.47,11.656.565-.846.83-11.426-.553-7.4,10.108c1.9-.335,6.478-1.3,11.4-2.365l-1.216,1.164c-7.312,1.583-9.9,2.06-10.856,2.126l-2.788,3.808,8.674-1.207-1.088,1.03-8.3,1.156-.6.822h-1.077Z" transform="translate(-123.563 -373.979)" fill="#b2d855"/>
        </g>
        <path id="Trazado_996440" data-name="Trazado 996440" d="M144.709,432.771c-.166-2.134-.24-4.279-.3-6.4-.108-4-.116-8.006.026-12.008.118-3.339.038-7.03,1.758-10.016a6.96,6.96,0,0,1,11.916-1.053c1.116-5.174,3.122-10.311,8.206-12.7a10.219,10.219,0,0,1,9.372.228,10.4,10.4,0,0,1,4.558,7.057,20.428,20.428,0,0,1,.362,3.05c.779-1.437,1.639-2.823,2.495-4.139a54.052,54.052,0,0,1,8.785-10.331c3.276-3.006,7.246-6.372,11.756-7.16s8.838,1.249,11.858,4.547a22.859,22.859,0,0,1,4.865,9.973,29.119,29.119,0,0,1,3.57-4.148c2.69-2.565,6.614-4.395,10.229-2.564,3.533,1.788,4.917,5.7,4.773,9.467-.17,4.436-1.372,8.986-2.452,13.274-.963,3.823-2.14,7.571-3.447,11.282a10.115,10.115,0,0,1,10.788,4.183,12.555,12.555,0,0,1,1.608,7.457Z" transform="translate(-141.245 -336.976)" fill="#145436"/>
        <path id="Trazado_996441" data-name="Trazado 996441" d="M194.992,436.726c-.016-.087-.034-.181-.05-.264a19.262,19.262,0,0,1-.324-4.152c.09-2.581.569-5.618,2.413-7.571a6.139,6.139,0,0,1,7.467-1.254c.192.105.375.226.559.344-.24-.914-.478-1.828-.7-2.744-.862-3.487-1.163-7.6,2.106-9.964a9.819,9.819,0,0,1,9.724-.584c3.622,1.728,6.143,5.066,8.416,8.255.378.531.733,1.078,1.1,1.618a5.874,5.874,0,0,1,2.69-2.382,8.948,8.948,0,0,1,8.674,1.256,18.153,18.153,0,0,1,5.348,6.7c.24.478.454.967.657,1.462a9,9,0,0,1,1.764-.626,8.7,8.7,0,0,1,6.547,1.041c3.039,1.9,4.031,5.484,3.626,8.867h-60.01Z" transform="translate(-194.608 -340.932)" fill="#b2d855"/>
      </g>
      <g id="Grupo_1161143" data-name="Grupo 1161143" transform="translate(144.581 33.585)">
        <g id="Grupo_1161124" data-name="Grupo 1161124">
          <path id="Trazado_996442" data-name="Trazado 996442" d="M255.549,153.5a23.162,23.162,0,0,1,10.886-11.047,22.727,22.727,0,0,1,2.681-1.078c-2.428-8.522-.843-18.745,6.607-24.009a14.836,14.836,0,0,1,10.707-2.622c1.548-8.532,7.42-16.483,16.452-17.683a16.531,16.531,0,0,1,13.556,4.15,15.4,15.4,0,0,1,3.836,5.5,20.341,20.341,0,0,1,1.148,7.954q-.029,1.3-.111,2.6a27.169,27.169,0,0,1,10.435-5.009,27.059,27.059,0,0,1,15.847-11.1,25.83,25.83,0,0,1,23.207,5.868c.7.617,1.361,1.275,2,1.959,5.039-3.115,11.339-3.509,17.024-2.1a25.854,25.854,0,0,1,13.815,8.482c3.871,4.737,5.236,10.9,4.718,16.91-.09,1.04-.235,2.074-.418,3.1.122-.013.251-.028.368-.039a20.921,20.921,0,0,1,7.584.632,22.441,22.441,0,0,1,11.9,8.053c6.264,8.214,6.207,19.431,1.233,28.241a19.251,19.251,0,0,1,1.627,1.358,23.913,23.913,0,0,1,7.156,18.861c-.425,6.774-3.339,14.176-8.808,18.442-5.059,3.947-11.866,4.289-17.806,2.362-2.906,5.73-10.111,9.09-16.268,10.35a20.112,20.112,0,0,1-13.3-1.475,19.869,19.869,0,0,1-5.933-4.683,23.321,23.321,0,0,1-16.807,7.063c-9.972-.048-19.675-5.57-26.269-12.8-.234-.257-.456-.525-.684-.787a23.538,23.538,0,0,1-9.215-.376,20.112,20.112,0,0,1-14.251-13.666c-.515.208-1.029.405-1.541.582a27.854,27.854,0,0,1-10.854,1.489c-3.253-.213-6.69-1.032-9.12-3.341a10.206,10.206,0,0,1-2.718-9.246c.037-.216.1-.423.144-.635a30.688,30.688,0,0,1-4.954.024,34.178,34.178,0,0,1-9.367-2.018c-2.611-.983-5-2.632-5.927-5.38a9.334,9.334,0,0,1-.389-1.744c-4.165-.415-7.846-4.169-9.262-7.9C252.638,163.88,253.4,158.124,255.549,153.5Z" transform="translate(-253.438 -96.903)" fill="#fb8ea4"/>
          <g id="Grupo_1161123" data-name="Grupo 1161123" transform="translate(8.633 14.379)">
            <path id="Trazado_996443" data-name="Trazado 996443" d="M380.924,147c.151-.316,3.68-7.874.858-18.444-2.971-11.123-16.041-15.933-23.934-15.014-8.4.982-10.98,5.253-11.086,5.434l1.5.877c.018-.031,2.32-3.711,9.784-4.583,7.284-.852,19.331,3.547,22.051,13.735,2.649,9.918-.712,17.173-.745,17.245Z" transform="translate(-288.273 -113.432)" fill="#ed4082"/>
            <path id="Trazado_996444" data-name="Trazado 996444" d="M340.566,181.044l.865-1.509c-.358-.206-8.737-5.159-4.414-13.6s15.187-3.457,15.647-3.24l1.17.549.07-1.29c.036-.682,1.041-16.712,14.217-17.559,13.271-.873,17.179,11.788,17.217,11.917l.458,1.546,1.041-1.234a18.83,18.83,0,0,1,19.444-5.369c11.754,3.526,12.311,12.824,12.316,12.918l1.738-.08c0-.105-.632-10.627-13.554-14.5a20.716,20.716,0,0,0-20.28,4.9c-1.5-3.489-6.561-12.608-18.494-11.834-12.5.8-15.186,13.943-15.72,18.013-3.231-1.176-12.62-3.729-16.82,4.47C330.383,175.071,340.463,180.985,340.566,181.044Z" transform="translate(-314.667 -117.229)" fill="#ed4082"/>
            <path id="Trazado_996445" data-name="Trazado 996445" d="M385.643,206.718l1.416-1.012c-.033-.046-3.256-4.643-2.7-9.683.531-4.858,6.388-7.35,6.446-7.374l.956-.4-.556-.874c-.053-.084-5.247-8.363-1.386-13.8,3.839-5.406,13.019-2.744,13.112-2.717l.5-1.667c-.424-.126-10.465-3.051-15.029,3.376-3.79,5.338-.491,12.466.845,14.9-1.885.992-6.107,3.708-6.615,8.365C382,201.546,385.495,206.509,385.643,206.718Z" transform="translate(-339.959 -120.587)" fill="#ed4082"/>
            <path id="Trazado_996446" data-name="Trazado 996446" d="M409.117,136.64c.066-.326,1.688-8.053,9.741-7.713,7.908.318,7.941,7.24,7.939,7.535l1.74.021c0-.089.014-8.907-9.609-9.295a10.562,10.562,0,0,0-10.139,5.652,46.672,46.672,0,0,0-1.394-5.59c-2.085-6.749-10.319-10.466-15.226-10.854-4.737-.372-6.284.361-6.547.511l.868,1.508-.434-.754.409.768c.014-.007,1.34-.635,5.566-.3,4.609.364,11.935,3.914,13.7,9.632,1.835,5.94,1.667,8.613,1.665,8.64Z" transform="translate(-367.74 -113.804)" fill="#ed4082"/>
            <path id="Trazado_996447" data-name="Trazado 996447" d="M270.161,220.642l.807-1.541c-.072-.038-7.252-3.883-6.494-9.495.789-5.841,6.516-9.737,6.574-9.775l.492-.329-.125-.579c-.032-.148-3.1-14.918,7.4-20.483,10.555-5.6,21.55,4.21,21.658,4.309l.832.755.524-1c.05-.094,5.086-9.475,12.512-8.042a15.433,15.433,0,0,1,10.632,7.993l1.588-.71a16.907,16.907,0,0,0-11.892-8.993c-7.264-1.386-12.261,5.466-13.847,8.026-2.9-2.262-12.958-9.112-22.821-3.882-10.412,5.522-8.862,18.9-8.385,21.821-1.507,1.136-6.1,5.02-6.862,10.65C261.828,216.2,269.82,220.464,270.161,220.642Z" transform="translate(-158.811 -121.128)" fill="#ed4082"/>
            <path id="Trazado_996448" data-name="Trazado 996448" d="M301.628,134.968h.154c11.115,0,14.35,9.7,15.263,14.371,2.134-3,6.862-7.879,14.022-5.766,8.1,2.393,7.565,12.53,6.15,17.556l-1.674-.471c.036-.129,3.512-12.911-4.968-15.416-8.583-2.533-13.079,6.582-13.266,6.972l-.785-.376-.867.046c-.033-.622-.971-15.176-13.875-15.176h-.139c-13.085.106-14.673,13.969-14.735,14.558l-1.73-.177C285.193,150.928,286.973,135.086,301.628,134.968Z" transform="translate(-189.881 -116.234)" fill="#ed4082"/>
            <path id="Trazado_996449" data-name="Trazado 996449" d="M336.714,133.368c.038-.148,3.7-14.821-9-18.415-12.558-3.558-19.285,8.726-19.35,8.851l1.534.821c.245-.458,6.145-11.164,17.343-8,11.055,3.13,7.93,15.768,7.791,16.3Z" transform="translate(-209.229 -113.546)" fill="#ed4082"/>
            <path id="Trazado_996450" data-name="Trazado 996450" d="M259.3,211.443c.076.127,7.75,12.74,18.328,10.063,10.49-2.655,8.9-20.989,8.878-21.175l1.732-.164c.053.565.867,9.935-2.595,16.65a10.814,10.814,0,0,0,7.968-.4c4.924-2.1,6.051-9.407,6.061-9.481l1.722.251c-.05.339-1.272,8.342-7.1,10.831a13.3,13.3,0,0,1-5.246,1.107,11.72,11.72,0,0,1-4.3-.792,11.206,11.206,0,0,1-6.7,4.856,14.1,14.1,0,0,1-3.47.439c-9.92,0-16.475-10.788-16.779-11.3Z" transform="translate(-129.416 -124.718)" fill="#ed4082"/>
            <path id="Trazado_996451" data-name="Trazado 996451" d="M423.045,172.666a8.247,8.247,0,0,1,5.555-6.853,15.694,15.694,0,0,1,.676-9.632c4.565-12.329,21.83-9.684,22-9.656L451,148.244c-.16-.028-16.02-2.46-20.093,8.541a13.547,13.547,0,0,0,5.358,16.715l-.886,1.5a16.829,16.829,0,0,1-6.233-7.524,6.413,6.413,0,0,0-4.375,5.411c-.611,4.847,4.719,9.241,4.772,9.285l-1.1,1.352C428.2,183.317,422.313,178.48,423.045,172.666Z" transform="translate(-422.982 -117.705)" fill="#ed4082"/>
            <path id="Trazado_996452" data-name="Trazado 996452" d="M346.111,189.508c8.795,0,18.364-10.273,18.849-10.8l-1.28-1.178c-.134.145-13.507,14.5-22,8.951s-2.335-18.678-2.271-18.809l-1.57-.751c-.07.146-6.853,14.648,2.889,21.016A9.651,9.651,0,0,0,346.111,189.508Z" transform="translate(-260.539 -120.392)" fill="#ed4082"/>
            <path id="Trazado_996453" data-name="Trazado 996453" d="M334.174,202.081c.011.11,1.125,11.04,7.143,12.1,5.251.926,9.974-5.254,11.207-7.023-5.605-6.605-2.853-16.669-2.82-16.784l1.674.474c-.034.12-3.3,12.106,5.12,17.485a10.942,10.942,0,0,0,14.51-1.745l.663.564.848.193c-.023.1-2.229,10.117,2.182,14.2a8.767,8.767,0,0,0,9.538,1.559l.766,1.563a11.38,11.38,0,0,1-4.51.923,10.021,10.021,0,0,1-6.976-2.769c-3.7-3.422-3.527-9.871-3.1-13.407a12.927,12.927,0,0,1-7.631,2.671,13.285,13.285,0,0,1-7.225-2.29,13.746,13.746,0,0,1-1.8-1.372c-1.5,2.114-5.913,7.59-11.353,7.59a7.983,7.983,0,0,1-1.394-.123c-7.32-1.292-8.525-13.147-8.573-13.651Z" transform="translate(-277.949 -123.444)" fill="#ed4082"/>
          </g>
        </g>
        <g id="Grupo_1161142" data-name="Grupo 1161142" transform="translate(15.743 0.432)">
          <g id="Grupo_1161129" data-name="Grupo 1161129" transform="translate(4.261)">
            <g id="Grupo_1161125" data-name="Grupo 1161125" transform="translate(24.29)">
              <path id="Trazado_996454" data-name="Trazado 996454" d="M383.75,103.98c.759-3.463,4.637-8.683,16.12-5.688S410.1,110.574,410.1,110.574L408.7,125.6l-27.822-2.114S382.606,109.2,383.75,103.98Zm19.566,17.567.827-11.351s.74-7.016-6.054-9.279-9.09,1.681-9.539,4.3c-.677,3.946-1.7,14.736-1.7,14.736Z" transform="translate(-380.879 -97.399)" fill="#7a4495"/>
              <path id="Trazado_996455" data-name="Trazado 996455" d="M409.3,127.8l-27.822-2.114s.7-5.8,1.508-11.364l5.2.692c-.405,3.7-.731,7.137-.731,7.137l16.464,1.6.479-6.575,5.823.775Z" transform="translate(-381.479 -99.601)" fill="#401d82"/>
            </g>
            <path id="Trazado_996456" data-name="Trazado 996456" d="M426.519,123.081,384.544,120.1l-10.158,44.4,50.938,6.349Z" transform="translate(-367.32 -100.352)" fill="#7a4495"/>
            <g id="Grupo_1161126" data-name="Grupo 1161126" transform="translate(0 17.805)">
              <path id="Trazado_996457" data-name="Trazado 996457" d="M439.1,119.806l-8.667,45.984-6.016.7-7.618-2.818,10.82-44.961,6.955-.847Z" transform="translate(-416.802 -117.868)" fill="#7a4495"/>
              <path id="Trazado_996458" data-name="Trazado 996458" d="M431.486,119.806l-8.667,45.984-6.016.7,10.157-48.626Z" transform="translate(-409.184 -117.868)" fill="#401d82"/>
            </g>
            <g id="Grupo_1161127" data-name="Grupo 1161127" transform="translate(53.511 20.8)">
              <path id="Trazado_996459" data-name="Trazado 996459" d="M370.448,122.632l-1.877,48.95,6.624,2.408,4.122-2.408-2.026-48.594-4.451-1.677Z" transform="translate(-368.571 -121.311)" fill="#7a4495"/>
              <path id="Trazado_996460" data-name="Trazado 996460" d="M375.187,122.632l2.391-1.321,2.356,52.679-6.624-2.408Z" transform="translate(-373.31 -121.311)" fill="#401d82"/>
            </g>
            <g id="Grupo_1161128" data-name="Grupo 1161128" transform="translate(28.375 30.771)">
              <path id="Trazado_996461" data-name="Trazado 996461" d="M393.076,156.63l5.576-14.638a4.744,4.744,0,0,1-2.216-4.609A5.7,5.7,0,0,1,402.7,132.8a5.071,5.071,0,0,1,4.9,5.543,5.492,5.492,0,0,1-4.48,4.461l1.769,15.68Z" transform="translate(-393.076 -132.773)" fill="#01265a"/>
              <path id="Trazado_996462" data-name="Trazado 996462" d="M394.953,158.216l-1.74-15.417a5.49,5.49,0,0,0,4.48-4.461,5.027,5.027,0,0,0-4.617-5.492,6.256,6.256,0,0,1,1.372-.051,5.07,5.07,0,0,1,4.9,5.543,5.492,5.492,0,0,1-4.48,4.461l1.769,15.68Z" transform="translate(-384.825 -132.773)" fill="#401d82"/>
            </g>
          </g>
          <g id="Grupo_1161134" data-name="Grupo 1161134" transform="translate(0 114.393)">
            <g id="Grupo_1161131" data-name="Grupo 1161131" transform="translate(0 13.275)">
              <path id="Trazado_996463" data-name="Trazado 996463" d="M436.794,247.083l-69.127-2.919-1.361,92.245,59.908,7.659Z" transform="translate(-366.306 -244.164)" fill="#e9f4ff"/>
              <g id="Grupo_1161130" data-name="Grupo 1161130" transform="translate(5.73 6.07)">
                <path id="Trazado_996464" data-name="Trazado 996464" d="M434.013,253.412v2.212l-45.044-.511v-3.971Z" transform="translate(-388.969 -251.142)" fill="#401d82"/>
                <path id="Trazado_996465" data-name="Trazado 996465" d="M436.216,264.149v1.7L416.36,265l.454-2.836Z" transform="translate(-414.999 -252.576)" fill="#401d82"/>
                <path id="Trazado_996466" data-name="Trazado 996466" d="M427.983,281.62,408.014,279.8v-2.837l20.308.236Z" transform="translate(-399.845 -254.502)" fill="#401d82"/>
                <path id="Trazado_996467" data-name="Trazado 996467" d="M378.923,292.49l50.434,3.064-.624,4.85-50.264-4.85Z" transform="translate(-375.179 -256.522)" fill="#401d82"/>
                <path id="Trazado_996468" data-name="Trazado 996468" d="M383.882,302.924,431.99,306.1v2.5l-48.108-.453Z" transform="translate(-382.521 -257.88)" fill="#401d82"/>
                <path id="Trazado_996469" data-name="Trazado 996469" d="M410.23,315.935V313.1l25.188,1.248v3.177Z" transform="translate(-408.869 -259.204)" fill="#401d82"/>
                <path id="Trazado_996470" data-name="Trazado 996470" d="M397.708,327.147V323.4l36.875,3.177-.425,3.971Z" transform="translate(-397.141 -260.544)" fill="#401d82"/>
                <path id="Trazado_996471" data-name="Trazado 996471" d="M436.78,338.9v3.631l-26.55-1.815.567-2.837Z" transform="translate(-410.23 -262.428)" fill="#401d82"/>
                <path id="Trazado_996472" data-name="Trazado 996472" d="M401.94,339.028l-20.536-.567V334.49l20.536,1.248Z" transform="translate(-350.315 -261.987)" fill="#401d82"/>
              </g>
              <path id="Trazado_996473" data-name="Trazado 996473" d="M378.469,349.112c22.435-3.244,43.023-6.034,57.469-7.318a83.557,83.557,0,0,0,2.439,14.977Z" transform="translate(-378.469 -256.867)" fill="#c4e3ff"/>
            </g>
            <g id="Grupo_1161133" data-name="Grupo 1161133" transform="translate(15.828)">
              <path id="Trazado_996474" data-name="Trazado 996474" d="M419.6,233.328,412.278,323.7l-56.5-1.361,5.446-93.437Z" transform="translate(-355.773 -228.903)" fill="#fff"/>
              <g id="Grupo_1161132" data-name="Grupo 1161132" transform="translate(8.34 9.53)">
                <path id="Trazado_996475" data-name="Trazado 996475" d="M412.351,243.6v3.233l-48.165-3.914v-3.064Z" transform="translate(-364.186 -239.859)" fill="#401d82"/>
                <path id="Trazado_996476" data-name="Trazado 996476" d="M364.969,256.294l46.122,2.024V261.4l-46.122-.965Z" transform="translate(-363.607 -241.997)" fill="#401d82"/>
                <path id="Trazado_996477" data-name="Trazado 996477" d="M365.751,269.533h25.3l-.483,3.064-24.819-1.532Z" transform="translate(-344.249 -243.72)" fill="#401d82"/>
                <path id="Trazado_996478" data-name="Trazado 996478" d="M413.479,270.946H397.708V268.62l16.225.794Z" transform="translate(-394.928 -243.601)" fill="#401d82"/>
                <path id="Trazado_996479" data-name="Trazado 996479" d="M367.353,277.979l33.823,1.591-.365,3.741-33.457-3.177Z" transform="translate(-355.765 -244.819)" fill="#401d82"/>
                <path id="Trazado_996480" data-name="Trazado 996480" d="M413.416,291.862l-30.578-.568v-3.63l30.578,2.156Z" transform="translate(-381.476 -246.079)" fill="#401d82"/>
                <path id="Trazado_996481" data-name="Trazado 996481" d="M369.273,297.707l42.378,1.815-.567,3.744-41.811-2.837Z" transform="translate(-367.911 -247.386)" fill="#401d82"/>
                <path id="Trazado_996482" data-name="Trazado 996482" d="M372.061,310.359l24.664.454v3.177L372.061,312.4Z" transform="translate(-355.41 -249.032)" fill="#401d82"/>
                <path id="Trazado_996483" data-name="Trazado 996483" d="M414,320.755v2.723h-37.16l.738-3.858Z" transform="translate(-376.838 -250.237)" fill="#401d82"/>
              </g>
              <path id="Trazado_996484" data-name="Trazado 996484" d="M420.691,335.675c-19.717-4.3-38.137-8.972-52.647-14.75a59.692,59.692,0,0,0-3.858,13.388Z" transform="translate(-364.186 -240.877)" fill="#d2e9ff"/>
            </g>
          </g>
          <g id="Grupo_1161141" data-name="Grupo 1161141" transform="translate(41.504 60.851)">
            <g id="Grupo_1161136" data-name="Grupo 1161136">
              <path id="Trazado_996485" data-name="Trazado 996485" d="M304,215.669a39.321,39.321,0,0,0,39.079,35.723c1.181,0,2.375-.054,3.573-.162A39.268,39.268,0,1,0,304,215.669Z" transform="translate(-299.054 -168.067)" fill="#b6dcff"/>
              <g id="Grupo_1161135" data-name="Grupo 1161135" transform="translate(59.847 13.716)">
                <path id="Trazado_996486" data-name="Trazado 996486" d="M311.727,199.067a40.941,40.941,0,0,1,4.661,9.785l-6.722,2.893a41.924,41.924,0,0,0-2.61-9.637Z" transform="translate(-295.71 -185.195)" fill="#d7ecff"/>
                <path id="Trazado_996487" data-name="Trazado 996487" d="M317.568,183.12a46.994,46.994,0,0,1,11.379,9.329l-3.426,3.065a37.88,37.88,0,0,0-9.143-10.606Z" transform="translate(-316.377 -183.12)" fill="#d7ecff"/>
              </g>
              <path id="Trazado_996488" data-name="Trazado 996488" d="M338.415,171.425a44.051,44.051,0,1,1,7.955,87.742q-2.02.184-4.009.183a44.053,44.053,0,0,1-3.946-87.925Zm-35.129,47.416a39.321,39.321,0,0,0,39.079,35.723c1.181,0,2.375-.054,3.573-.162a39.268,39.268,0,1,0-42.653-35.561Z" transform="translate(-298.339 -167.858)" fill="#d7ecff"/>
              <path id="Trazado_996489" data-name="Trazado 996489" d="M338.415,167.536a44.051,44.051,0,1,1,7.955,87.742q-2.02.184-4.009.183a44.053,44.053,0,0,1-3.946-87.925Zm-35.129,47.417a39.321,39.321,0,0,0,39.079,35.723c1.181,0,2.375-.054,3.573-.162a39.268,39.268,0,1,0-42.653-35.561Z" transform="translate(-298.339 -167.352)" fill="#fff"/>
            </g>
            <g id="Grupo_1161137" data-name="Grupo 1161137" transform="translate(1.199 6.884)">
              <ellipse id="Elipse_11580" data-name="Elipse 11580" cx="29.195" cy="29.195" rx="29.195" ry="29.195" transform="matrix(-0.826, -0.564, 0.564, -0.826, 48.23, 81.145)" fill="#ba2b7a"/>
              <path id="Trazado_996490" data-name="Trazado 996490" d="M343.03,194.245a24.475,24.475,0,1,1-19.07,28.884A24.5,24.5,0,0,1,343.03,194.245Zm9.189,44.9a21.36,21.36,0,1,0-25.208-16.644A21.383,21.383,0,0,0,352.219,239.149Z" transform="translate(-307.358 -177.67)" fill="#fff"/>
              <text id="C" transform="matrix(-0.98, 0.2, 0.2, 0.98, 57.465, 48.766)" fill="#fff" font-size="34" font-family="Montserrat-Bold, Montserrat" font-weight="700"><tspan x="0" y="0">C</tspan></text>
            </g>
            <g id="Grupo_1161138" data-name="Grupo 1161138" transform="translate(45.352 89.613)">
              <path id="Trazado_996491" data-name="Trazado 996491" d="M333.469,270.369l11.5,71.615-7.836,1.116-9.043-72.731Z" transform="translate(-328.086 -270.369)" fill="#fff"/>
              <path id="Trazado_996492" data-name="Trazado 996492" d="M341.458,332.81l-7.307,1.354-3.52-28.308,6.781,1.749Z" transform="translate(-326.792 -274.987)" fill="#d7ecff"/>
            </g>
            <g id="Grupo_1161140" data-name="Grupo 1161140" transform="translate(46.94 124.399)">
              <path id="Trazado_996493" data-name="Trazado 996493" d="M335.45,311.04l7.261,48.222-15.885,2.156-3.857-51.059Z" transform="translate(-322.969 -310.359)" fill="#7a4495"/>
              <g id="Grupo_1161139" data-name="Grupo 1161139" transform="translate(0.207 2.738)">
                <path id="Trazado_996494" data-name="Trazado 996494" d="M327.893,333.88l13.661-1.788.234,1.549-13.777,1.8Z" transform="translate(-326.537 -315.925)" fill="#401d82"/>
                <path id="Trazado_996495" data-name="Trazado 996495" d="M326.6,341.5l-.12-1.584,14.507,1.321.24,1.595Z" transform="translate(-324.743 -316.944)" fill="#401d82"/>
                <path id="Trazado_996496" data-name="Trazado 996496" d="M339.962,356.646H324.546l-.117-1.567h15.3Z" transform="translate(-321.697 -318.916)" fill="#401d82"/>
                <path id="Trazado_996497" data-name="Trazado 996497" d="M342.439,327.993l-13.588-.508-.118-1.571,13.469.5Z" transform="translate(-327.917 -315.121)" fill="#401d82"/>
                <path id="Trazado_996498" data-name="Trazado 996498" d="M343.231,315.041l.242,1.606L330.537,315.1l-.12-1.592Z" transform="translate(-330.417 -313.507)" fill="#401d82"/>
                <path id="Trazado_996499" data-name="Trazado 996499" d="M342.623,319.206l.233,1.549-12.9,2.227-.118-1.568Z" transform="translate(-329.293 -314.249)" fill="#401d82"/>
                <path id="Trazado_996500" data-name="Trazado 996500" d="M340.173,347.837l.233,1.548-14.764,2.336-.119-1.567Z" transform="translate(-323.093 -317.974)" fill="#401d82"/>
                <path id="Trazado_996501" data-name="Trazado 996501" d="M323.708,363.992l15.3-4.115.235,1.558-15.414,4.147Z" transform="translate(-320.35 -319.541)" fill="#401d82"/>
              </g>
            </g>
          </g>
        </g>
      </g>
      <g id="Grupo_1161154" data-name="Grupo 1161154" transform="translate(17.53)">
        <path id="Trazado_996502" data-name="Trazado 996502" d="M542.5,58.294c29.326,0,53.1,20.193,53.1,45.1,0,17.487-11.726,32.639-28.857,40.122l18.815,32.04-33.73-27.769a62.566,62.566,0,0,1-9.33.708c-29.326,0-53.1-20.193-53.1-45.1S513.178,58.294,542.5,58.294Z" transform="translate(-489.403 -58.294)" fill="#fff"/>
        <g id="Grupo_1161153" data-name="Grupo 1161153" transform="translate(21.987 6.688)">
          <g id="Grupo_1161145" data-name="Grupo 1161145" transform="translate(0 22.901)">
            <path id="Trazado_996503" data-name="Trazado 996503" d="M569.284,92.309l10.45,16.48-.526.33-9.47-15.166.414,16.6-.621.016Z" transform="translate(-565.006 -92.309)" fill="#ba2b7a"/>
            <g id="Grupo_1161144" data-name="Grupo 1161144" transform="translate(0 14.57)">
              <path id="Trazado_996504" data-name="Trazado 996504" d="M573.72,122.488c6.043-1.146,10.079-6.619,9.016-12.222l-21.882,4.153C561.917,120.023,567.677,123.634,573.72,122.488Z" transform="translate(-560.844 -109.216)" fill="#f8dd59"/>
              <path id="Trazado_996505" data-name="Trazado 996505" d="M575.394,110.959a11.009,11.009,0,0,1-9.14,9.635,11.776,11.776,0,0,1-5.4-.224,11.466,11.466,0,0,0,9.176,2.117c6.043-1.146,10.079-6.619,9.015-12.222Z" transform="translate(-557.154 -109.216)" fill="#f6d430"/>
              <path id="Trazado_996506" data-name="Trazado 996506" d="M561.048,114.262c-.245-1.291,4.455-3.267,10.5-4.414s11.14-1.03,11.384.261-4.455,3.267-10.5,4.414S561.293,115.553,561.048,114.262Z" transform="translate(-561.038 -109.059)" fill="#ffe67b"/>
              <path id="Trazado_996507" data-name="Trazado 996507" d="M561.925,114.174c-.205-1.08,4.186-2.821,9.807-3.888s10.345-1.056,10.55.024-4.186,2.821-9.807,3.888S562.13,115.254,561.925,114.174Z" transform="translate(-561.154 -109.116)" fill="#e2bd23"/>
            </g>
            <path id="Trazado_996508" data-name="Trazado 996508" d="M564.908,92.309l15.907,18.7-.394.334L565.227,93.434l-1.7,20.61-.516-.043Z" transform="translate(-560.63 -92.309)" fill="#ed4082"/>
          </g>
          <g id="Grupo_1161147" data-name="Grupo 1161147" transform="translate(39.893 18.048)">
            <path id="Trazado_996509" data-name="Trazado 996509" d="M527.811,86.73l3.327,18.994-.612.1L527.6,88.532l-7.024,16.913-.574-.239Z" transform="translate(-513.432 -86.73)" fill="#ba2b7a"/>
            <g id="Grupo_1161146" data-name="Grupo 1161146" transform="translate(0 16.56)">
              <path id="Trazado_996510" data-name="Trazado 996510" d="M526.128,118.8c-6.149.144-11.241-4.362-11.374-10.065l22.266-.518C537.153,113.921,532.277,118.659,526.128,118.8Z" transform="translate(-514.754 -106.087)" fill="#f8dd59"/>
              <path id="Trazado_996511" data-name="Trazado 996511" d="M521.188,108.716a11.009,11.009,0,0,0,10.953,7.509,11.77,11.77,0,0,0,5.234-1.349,11.464,11.464,0,0,1-8.529,3.991c-6.149.144-11.242-4.362-11.374-10.065Z" transform="translate(-517.472 -106.151)" fill="#f6d430"/>
              <path id="Trazado_996512" data-name="Trazado 996512" d="M537.023,107.9c-.03-1.314-5.04-2.263-11.188-2.119s-11.108,1.324-11.078,2.637,5.04,2.263,11.188,2.119S537.054,109.214,537.023,107.9Z" transform="translate(-514.757 -105.768)" fill="#ffe67b"/>
              <path id="Trazado_996513" data-name="Trazado 996513" d="M536.363,107.976c-.025-1.1-4.683-1.882-10.4-1.749s-10.337,1.133-10.311,2.232,4.683,1.882,10.4,1.749S536.39,109.076,536.363,107.976Z" transform="translate(-514.873 -105.825)" fill="#e2bd23"/>
            </g>
            <path id="Trazado_996514" data-name="Trazado 996514" d="M529.018,86.95l5.769,20.7-.5.138-5.434-19.495-11.146,19.8-.451-.254Z" transform="translate(-514.696 -86.759)" fill="#ed4082"/>
          </g>
          <g id="Grupo_1161148" data-name="Grupo 1161148" transform="translate(0.194 8.03)">
            <path id="Trazado_996515" data-name="Trazado 996515" d="M517.708,91.644a107.147,107.147,0,0,0,27.213-15.707l.906-.723,1.053.521.005,0a120.212,120.212,0,0,0,30.221,10.586l-.195,1.225A122.428,122.428,0,0,1,546.3,79.7a109.909,109.909,0,0,1-28.163,13.15Z" transform="translate(-517.708 -75.213)" fill="#7a4495"/>
            <path id="Trazado_996516" data-name="Trazado 996516" d="M556.139,81.519c-1.653-.578-3.3-1.178-4.929-1.822-1.256.824-2.532,1.612-3.82,2.38l-1.131-3.425c1.211-.882,2.408-1.782,3.577-2.717l.906-.723,1.053.521.005,0c1.771.893,3.571,1.731,5.384,2.542Z" transform="translate(-522.623 -75.213)" fill="#401d82"/>
          </g>
          <g id="Grupo_1161152" data-name="Grupo 1161152" transform="translate(16.44)">
            <g id="Grupo_1161149" data-name="Grupo 1161149" transform="translate(10.025)">
              <path id="Trazado_996517" data-name="Trazado 996517" d="M544.632,66.193l2.353-.211,7.354,66.743-5.042.453Z" transform="translate(-544.632 -65.982)" fill="#7a4495"/>
              <path id="Trazado_996518" data-name="Trazado 996518" d="M545.211,141.236l-.467-6.7,4.836.453.636,5.772Z" transform="translate(-540.606 -74.902)" fill="#401d82"/>
              <path id="Trazado_996519" data-name="Trazado 996519" d="M551.989,69.634a3.734,3.734,0,0,1,1.552-.237,3.778,3.778,0,0,1,.941.195l.605,5.5a3.727,3.727,0,0,1-1.939.393,3.876,3.876,0,0,1-.762-.132Z" transform="translate(-551.78 -66.425)" fill="#401d82"/>
            </g>
            <g id="Grupo_1161150" data-name="Grupo 1161150" transform="translate(9.481 61.631)">
              <path id="Trazado_996520" data-name="Trazado 996520" d="M554.051,141.274l-1.856-4.442-13.26.989-.7,5.044Z" transform="translate(-538.236 -136.832)" fill="#7a4495"/>
              <path id="Trazado_996521" data-name="Trazado 996521" d="M554.051,141.778l-15.815,1.591.326-2.356,15.041-.308Z" transform="translate(-538.236 -137.336)" fill="#401d82"/>
            </g>
            <path id="Trazado_996522" data-name="Trazado 996522" d="M529.608,144l14.278-1.554,14.537-1.307,3.584,3.88-17.747,1.594-17.746,1.6Z" transform="translate(-526.514 -75.761)" fill="#7a4495"/>
            <g id="Grupo_1161151" data-name="Grupo 1161151" transform="translate(8.462 2.254)">
              <path id="Trazado_996523" data-name="Trazado 996523" d="M556.629,71.615a3.211,3.211,0,1,0-3.365,2.624A3.028,3.028,0,0,0,556.629,71.615Z" transform="translate(-550.259 -68.573)" fill="#f8dd59"/>
              <path id="Trazado_996524" data-name="Trazado 996524" d="M550.346,71.347a2.619,2.619,0,0,1,.787-1.681,2.391,2.391,0,0,0-.066.371,3.028,3.028,0,0,0,3,3.034,3.321,3.321,0,0,0,2.578-.943,3.077,3.077,0,0,1-3.3,2.253A3.027,3.027,0,0,1,550.346,71.347Z" transform="translate(-550.341 -68.715)" fill="#f6d430"/>
            </g>
          </g>
        </g>
      </g>
      <g id="Grupo_1161158" data-name="Grupo 1161158" transform="translate(40.242 213.492)">
        <g id="Grupo_1161156" data-name="Grupo 1161156" transform="translate(18.952 41.872)">
          <path id="Trazado_996525" data-name="Trazado 996525" d="M559.07,429.222h-3.536c-2.966-7.415-14.854-36.956-19.4-45.612-5.217-9.925-10.382-27.912-5.106-30.976s14.466,2.893,18.722,18.5C553.5,384.918,558.056,420.977,559.07,429.222Z" transform="translate(-528.814 -351.856)" fill="#216838"/>
          <g id="Grupo_1161155" data-name="Grupo 1161155" transform="translate(0.14 0.096)">
            <path id="Trazado_996526" data-name="Trazado 996526" d="M529.7,362.272q-.069-.522-.12-1.027l7.291,3.564-4.165-12.635a5.761,5.761,0,0,1,.847-.206l4.085,12.39,3.662-9.539q.347.3.691.628l-3.922,10.219,2.417,7.329,5.175-12.967q.286.453.565.932l-5.317,13.32,3.292,9.984,6.078-13.441c.03.11.063.216.094.326.087.318.174.659.262,1L544.6,385.484l2.557,7.755,5.452-11.946c.093.49.186.982.279,1.485l-5.33,11.677,2.585,7.841,4.245-10.841q.137.84.273,1.689l-4.091,10.447,3.51,10.647,2.658-7.292c.087.614.174,1.226.259,1.829l-2.477,6.8,2.226,6.751,1.615-3.534c.073.555.144,1.1.213,1.626l-1.427,3.123,1.878,5.7h-.915l-1.781-5.4-2.862-1.288c-.154-.381-.311-.768-.472-1.167l2.965,1.335-2.259-6.852-3.87-2.24-.542-1.319,4,2.316-3.541-10.742-5.195-2.929c-.186-.439-.371-.878-.557-1.312l5.348,3.015-2.619-7.944-6.988-4.83q-.361-.8-.7-1.544l7.24,5.005-2.491-7.557-7.654-3.39q-.291-.59-.578-1.207l7.865,3.483-3.33-10.1-8.776-4.815q-.166-.586-.32-1.167l8.7,4.772-2.437-7.39Z" transform="translate(-529.579 -351.967)" fill="#b2d855"/>
            <path id="Trazado_996527" data-name="Trazado 996527" d="M532.986,440.7H531.97l-.259-.648C532.2,440.3,532.625,440.512,532.986,440.7Z" transform="translate(-505.39 -363.428)" fill="#aaa"/>
            <path id="Trazado_996528" data-name="Trazado 996528" d="M528.863,440.715l.009.069h-.057Z" transform="translate(-498.755 -363.515)" fill="#aaa"/>
          </g>
        </g>
        <g id="Grupo_1161157" data-name="Grupo 1161157" transform="translate(36.064)">
          <path id="Trazado_996529" data-name="Trazado 996529" d="M523.432,422.958c-3.1-10.47-13.459-45.53-20.2-69.61-8-28.593-10.041-48.676-5.106-49.527s9.19,3.4,17.53,23.147c7.574,17.932,19.781,84.016,21.958,95.99Z" transform="translate(-495.466 -303.721)" fill="#216838"/>
          <path id="Trazado_996530" data-name="Trazado 996530" d="M497.679,317.232q-.056-.613-.1-1.2l7.158,5.814-5.037-17.9a1.83,1.83,0,0,1,.367-.113q.244-.042.487-.066l5.059,17.98,4.436-10.392q.27.45.547.933l-4.608,10.794,5.245,18.642,6.3-14.9.067.157c.131.311.264.639.4.978l-6.384,15.106L515.7,357.6l7.391-12.957c.1.4.208.8.312,1.208l-7.373,12.923,4.979,17.7,6.443-13.706q.155.69.311,1.383l-6.394,13.6,3.3,11.714,6.517-9.463.245,1.178-6.456,9.373,4.11,14.607,4.77-12.056q.158.792.313,1.573l-4.695,11.864,3.778,13.425,4.2-8.341q.136.719.265,1.407l-4.114,8.175.493,1.752h-.9l-.425-1.513-9.537-5.721-.364-1.233,9.557,5.733L528.645,406.8l-9.841-6.122c-.121-.414-.244-.833-.367-1.254l9.858,6.133-4.17-14.822-10.536-7.945-.4-1.394,10.551,7.955-3.193-11.348-9.983-5.7-.344-1.2,9.991,5.706-5.01-17.8-10.122-6.016c-.113-.406-.223-.807-.334-1.211l10.114,6.011-4.08-14.5-9.942-7.178c-.095-.429-.183-.849-.275-1.272l9.838,7.1L505.147,323.3Z" transform="translate(-497.401 -303.726)" fill="#b2d855"/>
        </g>
        <path id="Trazado_996531" data-name="Trazado 996531" d="M483.624,433.957H440.947c-.573-3.579-.751-7.259-.972-10.844a129.66,129.66,0,0,1-.2-14.218c.115-2.375.322-4.754.654-7.109a15.48,15.48,0,0,1,1.77-5.814,8.275,8.275,0,0,1,10.065-3.454,11.41,11.41,0,0,1,5.245,3.84,17.3,17.3,0,0,1,1.413,2.152c.183-.452.373-.889.544-1.294a30.964,30.964,0,0,1,2.813-5.37,7.9,7.9,0,0,1,4.137-3.341,6.786,6.786,0,0,1,5.5.866c3.309,2.023,4.8,5.973,5.338,9.639.649,4.4-.02,8.949-.378,13.351-.019.234-.038.467-.057.7a5.144,5.144,0,0,1,3.793-.477c3.3.883,4.83,4.455,5.324,7.531a23.533,23.533,0,0,1-1.217,10.6C484.383,431.81,484.007,432.885,483.624,433.957Z" transform="translate(-359.379 -314.72)" fill="#b2d855"/>
        <path id="Trazado_996532" data-name="Trazado 996532" d="M472.6,433.7a15.54,15.54,0,0,1-.4-1.777c-.915-5.722,2.437-12.088,8.7-12.366a8.053,8.053,0,0,1,1.6.1c-.512-1-1.006-2-1.51-2.96q-2.116-4.025-4.068-8.136c-1.263-2.663-2.49-5.348-3.609-8.075-1-2.444-1.892-5.171-1.407-7.84a7.807,7.807,0,0,1,4.219-5.626,10.329,10.329,0,0,1,7.24-.122,42.023,42.023,0,0,1,13.167,7.36,48.149,48.149,0,0,1,7.93,7.95,10.413,10.413,0,0,1,2.506-4.165,13.868,13.868,0,0,1,11.186-3.689c8.3.756,15.381,7.19,20.411,13.394a51.066,51.066,0,0,1,4.376,6.348c.077-.641.149-1.282.226-1.923a56.968,56.968,0,0,1,.973-7.247,4.784,4.784,0,0,1,4.058-3.679,8.723,8.723,0,0,1,5.921,1.81,36.175,36.175,0,0,1,8.553,9.054,45.64,45.64,0,0,1,5.706,11.152,41.093,41.093,0,0,1,2.221,10.436h-98Z" transform="translate(-471.77 -314.467)" fill="#145436"/>
        <path id="Trazado_996533" data-name="Trazado 996533" d="M511.044,436.961a14.6,14.6,0,0,1,3.653-8.455,12.377,12.377,0,0,1,8.257-4.09,11.587,11.587,0,0,1,4.425.519c0-.361,0-.723.01-1.084a20.809,20.809,0,0,1,2.02-8.882,6.244,6.244,0,0,1,7.165-3.433c2.885.735,5.323,3,7.137,5.276.465.583.908,1.2,1.323,1.835a9.593,9.593,0,0,1,.922-1.227,8.486,8.486,0,0,1,9.571-2.346c6.594,2.489,10.406,9.62,11.521,16.2a32.029,32.029,0,0,1,.438,5.684Z" transform="translate(-502.822 -317.723)" fill="#b2d855"/>
      </g>
    </g>
  </g>
</svg>
