<svg xmlns="http://www.w3.org/2000/svg" xmlns:xlink="http://www.w3.org/1999/xlink" width="505" height="388" viewBox="0 0 505 388">
  <defs>
    <clipPath id="clip-path">
      <rect id="Rectángulo_412871" data-name="Rectángulo 412871" width="505" height="388" transform="translate(915 299)" fill="#fff" stroke="#707070" stroke-width="1" opacity="0.47"/>
    </clipPath>
    <filter id="Trazado_995380" x="47.514" y="5.217" width="405.564" height="380.049" filterUnits="userSpaceOnUse">
      <feOffset dy="3" input="SourceAlpha"/>
      <feGaussianBlur stdDeviation="3" result="blur"/>
      <feFlood flood-opacity="0.161"/>
      <feComposite operator="in" in2="blur"/>
      <feComposite in="SourceGraphic"/>
    </filter>
  </defs>
  <g id="Enmascarar_grupo_1098780" data-name="Enmascarar grupo 1098780" transform="translate(-915 -299)" clip-path="url(#clip-path)">
    <g id="OBJECTS" transform="translate(960.644 298.967)">
      <g transform="matrix(1, 0, 0, 1, -45.64, 0.03)" filter="url(#Trazado_995380)">
        <path id="Trazado_995380-2" data-name="Trazado 995380" d="M309.567,80.212q-3.224,2.288-6.328,4.71C287,97.582,272.188,112.872,253.8,121.536c-26.8,12.628-57.4,9.535-86.493,6.739s-60.042-4.68-85.971,9.9-42.891,51.907-27.194,78.106c12.838,21.427,38.508,25.475,53.939,43.384,34.466,40-19.312,66.638-30.46,99.987-13.02,38.945,16.441,68.011,52.443,57.166,19.971-6.016,36.3-21.07,52.239-35.3,26.05-23.248,54.936-33.671,88.549-27.94,37.191,6.342,73.229,39.159,112.164,28.539,33.289-9.082,50.186-47.786,49.371-81.952-.921-38.615-35.173-71.443-27.6-110.365,4.556-23.419,25.03-40.52,29.879-63.875C441.1,94.939,415.516,64.166,386.352,58.4,359.693,53.128,332.426,63.988,309.567,80.212Z" transform="translate(8.41 -45.84)" fill="#bdbcd9"/>
      </g>
      <path id="Trazado_995381" data-name="Trazado 995381" d="M244.768,57.5,256.552,90.63l31.761-15.1-15.1,31.761,33.133,11.783L273.215,130.86l15.1,31.762-31.761-15.1-11.784,33.134-11.783-33.134-31.761,15.1,15.1-31.762-33.134-11.783,33.134-11.783-15.1-31.761,31.761,15.1Z" transform="translate(-40.086 -54.066)" fill="#eaad29"/>
      <g id="Grupo_1160731" data-name="Grupo 1160731" transform="translate(75.686 82.005)">
        <g id="Grupo_1160730" data-name="Grupo 1160730">
          <g id="Grupo_1160728" data-name="Grupo 1160728" transform="translate(0 55.86)">
            <path id="Trazado_995382" data-name="Trazado 995382" d="M114.318,268.849c.657,26.721,23.007,48.188,50.5,48.188s49.846-21.467,50.5-48.188Z" transform="translate(-114.318 -199.393)" fill="#2d201b"/>
            <path id="Trazado_995383" data-name="Trazado 995383" d="M211.756,271.376a1,1,0,0,1-.841-.458L165,199.709,116.78,270.936a1,1,0,0,1-1.656-1.121l49.071-72.481a1,1,0,0,1,1.669.019L212.6,269.834a1,1,0,0,1-.839,1.542Z" transform="translate(-114.353 -197.895)" fill="#2d201b"/>
          </g>
          <g id="Grupo_1160729" data-name="Grupo 1160729" transform="translate(158.99 53.523)">
            <path id="Trazado_995384" data-name="Trazado 995384" d="M276.737,266.4a49.438,49.438,0,0,0,98.848,0Z" transform="translate(-276.737 -197.004)" fill="#2d201b"/>
            <path id="Trazado_995385" data-name="Trazado 995385" d="M374.175,268.988a1,1,0,0,1-.841-.458l-45.912-71.209L279.2,268.548a1,1,0,0,1-1.656-1.121l49.071-72.481a1,1,0,0,1,1.669.019l46.732,72.481a1,1,0,0,1-.84,1.542Z" transform="translate(-276.771 -195.507)" fill="#2d201b"/>
          </g>
          <path id="Trazado_995386" data-name="Trazado 995386" d="M336.358,197.693H151.649a4.69,4.69,0,0,1-4.676-4.676h0a4.69,4.69,0,0,1,4.676-4.676H336.358a4.69,4.69,0,0,1,4.676,4.676h0A4.69,4.69,0,0,1,336.358,197.693Z" transform="translate(-115.007 -141.833)" fill="#2d201b"/>
          <path id="Línea_1146" data-name="Línea 1146" d="M0,221.265H0a1,1,0,0,1-1-1L-.508,0a1,1,0,0,1,1-1,1,1,0,0,1,1,1L1,220.268A1,1,0,0,1,0,221.265Z" transform="translate(128.503)" fill="#2d201b"/>
        </g>
      </g>
      <g id="Grupo_1160732" data-name="Grupo 1160732" transform="translate(80.764 279.424)">
        <path id="Trazado_995387" data-name="Trazado 995387" d="M376.051,449.395a130.434,130.434,0,0,0-255.5-5.173c-.388,1.711-.727,3.439-1.044,5.174H376.051Z" transform="translate(-119.506 -342.507)" fill="#72a9b7"/>
        <path id="Trazado_995388" data-name="Trazado 995388" d="M380.234,450.227a129.975,129.975,0,0,0-35.708-68.31,26.781,26.781,0,0,0-14.46,23.708V410.7a26.287,26.287,0,0,0,.454,4.772,26.778,26.778,0,0,0-13.851,23.368v5.1a26.453,26.453,0,0,0,.785,6.293h62.78Z" transform="translate(-123.669 -343.339)" fill="#b2e3d5"/>
        <path id="Trazado_995389" data-name="Trazado 995389" d="M152.389,417.512c9.29,0,39.328-4.461,37.289,11.273-.779,5.977-8.766,8.357-8.766,15.607a13.218,13.218,0,0,0,1.791,6.6h96.66a13.265,13.265,0,0,0,1.789-6.6c0-8.073-7.421-14.686-16.485-14.686H215.3c-5.2,0-7.039-5.439-4.942-9.092,3.4-5.92,11-2.2,16.514-4.6,5.594-2.436,9.262-7.648,9.262-13.185a13.045,13.045,0,0,0-.354-2.989c10.522-1.317,18.694-9.4,18.694-19.119,0-10.607-9.758-19.3-21.682-19.3H181.154a130.588,130.588,0,0,0-28.876,23.51,128.514,128.514,0,0,0-15.932,21.258C138.042,412.655,144.614,417.512,152.389,417.512Z" transform="translate(-119.862 -342.906)" fill="#b2e3d5"/>
      </g>
      <path id="Línea_1147" data-name="Línea 1147" d="M0,1.2a1,1,0,0,1-1-1,1,1,0,0,1,1-1L396.479-1a1,1,0,0,1,1,1,1,1,0,0,1-1,1Z" transform="translate(8.408 385.864)" fill="#161616"/>
      <g id="Grupo_1160733" data-name="Grupo 1160733" transform="translate(294.641 223.413)">
        <path id="Trazado_995390" data-name="Trazado 995390" d="M430.247,285.288a118.585,118.585,0,0,0-30.829,15.173,5.42,5.42,0,0,0-1.994,1.986,6.117,6.117,0,0,0-.108,3.448,30.812,30.812,0,0,1-5.459,22.147c-1.194,1.654-3.162,3.35-5.038,2.55-1.491-.636-1.964-2.487-2.161-4.1a44.554,44.554,0,0,1,1.228-17.034q-15.647,13.25-30.558,27.336a27.371,27.371,0,0,1,1.815,27.586c-.61,1.182-1.507,2.45-2.835,2.559-1.6.129-2.755-1.473-3.419-2.932a26.2,26.2,0,0,1-1.705-16.483c-10.407,7.405-13.775,22.469-9.171,34.382s15.982,20.445,28.378,23.523a47.451,47.451,0,0,0,35.969-5.381,43.333,43.333,0,0,0,20.02-30.125,212.374,212.374,0,0,1-23.885,7.764c-2.157.562-5.074.758-5.991-1.274s1.137-4.077,2.979-5.311c8.827-5.925,20-9.374,29.3-13.692,3.987-10.22,4.785-22.442,5.52-33.387-3.191,1.032-5.894,3.158-8.838,4.766s-6.5,2.709-9.626,1.492a2.311,2.311,0,0,1-1.5-1.32,2.508,2.508,0,0,1,.189-1.54,14.81,14.81,0,0,1,6.627-7.752c4.281-2.386,9.861-2.728,12.169-6.053,2.662-9.471,5.249-19.965-1.075-28.334" transform="translate(-337.996 -285.288)" fill="#858234"/>
        <path id="Trazado_995391" data-name="Trazado 995391" d="M341.278,446.9a.66.66,0,0,1-.649-.777c1.652-9.088,6.522-22.107,14.473-38.7,6.348-13.245,14.667-28.793,24.727-46.213,17.123-29.651,33.579-54.789,33.743-55.039a.659.659,0,1,1,1.1.723c-.164.25-16.6,25.361-33.707,54.981-22.611,39.156-36.111,68.369-39.041,84.481A.66.66,0,0,1,341.278,446.9Z" transform="translate(-338.065 -285.736)" fill="#2d201b"/>
        <path id="Trazado_995392" data-name="Trazado 995392" d="M377.91,366.085a.66.66,0,0,1-.627-.456,124.114,124.114,0,0,1-4.885-20.655,132.537,132.537,0,0,1-1.255-21.193.659.659,0,1,1,1.319.02,121,121,0,0,0,6.076,41.421.66.66,0,0,1-.627.863Z" transform="translate(-338.709 -286.101)" fill="#2d201b"/>
        <path id="Trazado_995393" data-name="Trazado 995393" d="M409.155,317.8a.659.659,0,0,1-.2-1.286,58.287,58.287,0,0,0,25.431-16.653.659.659,0,1,1,.985.876,59.878,59.878,0,0,1-26.007,17.03A.659.659,0,0,1,409.155,317.8Z" transform="translate(-339.498 -285.605)" fill="#2d201b"/>
        <path id="Trazado_995394" data-name="Trazado 995394" d="M386.62,355.156a.659.659,0,0,1-.135-1.3,165.039,165.039,0,0,0,35.529-11.827c3.3-1.535,6.745-3.261,9.352-5.986a.659.659,0,0,1,.953.912c-2.765,2.89-6.482,4.752-9.749,6.27a166.361,166.361,0,0,1-35.813,11.921A.662.662,0,0,1,386.62,355.156Z" transform="translate(-339.022 -286.369)" fill="#2d201b"/>
        <path id="Trazado_995395" data-name="Trazado 995395" d="M362.584,398.244a.659.659,0,0,1-.012-1.319,104.9,104.9,0,0,0,61.093-21.178.659.659,0,0,1,.8,1.05A106.227,106.227,0,0,1,362.6,398.244Z" transform="translate(-338.515 -287.209)" fill="#2d201b"/>
      </g>
      <g id="Grupo_1160734" data-name="Grupo 1160734" transform="translate(336.623 304.005)">
        <path id="Trazado_995396" data-name="Trazado 995396" d="M400.585,430.746l58.337-7.836s20.462-72.7-53.113-51.372Z" transform="translate(-381.299 -367.618)" fill="#a5a244"/>
        <path id="Trazado_995397" data-name="Trazado 995397" d="M380.883,450.79a.659.659,0,0,1-.477-1.114c17.5-18.382,34.671-35.446,52.845-53.512,6.3-6.266,12.822-12.745,19.3-19.233a.659.659,0,1,1,.933.932c-6.483,6.489-13,12.969-19.306,19.236-18.167,18.059-35.327,35.117-52.819,53.486A.657.657,0,0,1,380.883,450.79Z" transform="translate(-380.883 -367.825)" fill="#2d201b"/>
        <path id="Trazado_995398" data-name="Trazado 995398" d="M400.585,431.417a.659.659,0,0,1-.552-1.02c7.733-11.84,12.745-28.137,15.588-39.724a223.972,223.972,0,0,0,4.361-22.55.659.659,0,1,1,1.308.165,225.463,225.463,0,0,1-4.389,22.7,186.462,186.462,0,0,1-6.209,20.494,114.285,114.285,0,0,1-6.112,13.782c2.841-3.346,6.744-8.191,10.836-14.024,7.347-10.472,16.823-26.362,20.247-42.589a.659.659,0,0,1,1.29.272,96.929,96.929,0,0,1-8.454,23.19,159.813,159.813,0,0,1-12.017,19.9,181.767,181.767,0,0,1-15.423,19.2A.658.658,0,0,1,400.585,431.417Z" transform="translate(-381.299 -367.631)" fill="#2d201b"/>
        <path id="Trazado_995399" data-name="Trazado 995399" d="M400.585,432.05a.659.659,0,0,1-.408-1.178c.087-.069,8.874-6.965,20.6-14.479a213.454,213.454,0,0,1,19.452-11.188,93.8,93.8,0,0,1,20.022-7.695.659.659,0,0,1,.3,1.284c-12.8,2.977-28.3,11.813-39.051,18.7-7.951,5.095-14.543,9.9-17.967,12.474L459.95,415.8a.659.659,0,0,1,.321,1.279L400.746,432.03A.659.659,0,0,1,400.585,432.05Z" transform="translate(-381.299 -368.263)" fill="#2d201b"/>
      </g>
      <g id="Grupo_1160735" data-name="Grupo 1160735" transform="translate(306.819 310.707)">
        <path id="Trazado_995400" data-name="Trazado 995400" d="M366.309,437.539l53.523-16.7s-5.936-69.708-69.4-38.2Z" transform="translate(-350.436 -374.465)" fill="#5e5e35"/>
        <path id="Trazado_995401" data-name="Trazado 995401" d="M364.563,450.528a.66.66,0,0,1-.649-.779,125.886,125.886,0,0,1,17.466-45.162,84.8,84.8,0,0,1,11.032-13.936,35.536,35.536,0,0,1,9.869-7.364.659.659,0,0,1,.537,1.2c-6,2.677-13.793,10.651-20.33,20.809a124.556,124.556,0,0,0-17.278,44.688A.66.66,0,0,1,364.563,450.528Z" transform="translate(-350.734 -374.664)" fill="#2d201b"/>
        <path id="Trazado_995402" data-name="Trazado 995402" d="M367.042,436.8a.66.66,0,0,1-.659-.636,301.809,301.809,0,0,0-4.235-37.683c-1.807-10.618-3.522-18.157-3.539-18.232a.659.659,0,1,1,1.286-.294c.017.075,1.74,7.65,3.553,18.3a321.086,321.086,0,0,1,4.042,33.454c.973-3.886,2.489-10.109,4.09-17.313,2.486-11.185,5.691-27.086,6.84-39.322a.659.659,0,0,1,1.313.123c-1.156,12.305-4.372,28.267-6.867,39.49-2.7,12.152-5.163,21.523-5.187,21.617A.659.659,0,0,1,367.042,436.8Z" transform="translate(-350.622 -374.479)" fill="#2d201b"/>
        <path id="Trazado_995403" data-name="Trazado 995403" d="M367.209,437.3a.659.659,0,0,1-.493-1.1c.065-.073,6.577-7.372,15.527-15.656a186.938,186.938,0,0,1,15.047-12.643,82.2,82.2,0,0,1,16.086-9.725.659.659,0,0,1,.52,1.212c-10.564,4.533-22.557,14.533-30.757,22.123-5.813,5.381-10.59,10.34-13.223,13.154l48.408-22.276a.659.659,0,0,1,.551,1.2l-51.392,23.649A.657.657,0,0,1,367.209,437.3Z" transform="translate(-350.79 -374.978)" fill="#2d201b"/>
      </g>
      <g id="Grupo_1160736" data-name="Grupo 1160736" transform="translate(26.037 223.87)">
        <path id="Trazado_995404" data-name="Trazado 995404" d="M67.528,285.755a118.584,118.584,0,0,1,30.829,15.173,5.421,5.421,0,0,1,1.994,1.986,6.126,6.126,0,0,1,.108,3.448,30.812,30.812,0,0,0,5.459,22.147c1.2,1.654,3.162,3.35,5.038,2.55,1.491-.636,1.964-2.487,2.161-4.1a44.555,44.555,0,0,0-1.228-17.034q15.647,13.25,30.558,27.336a27.373,27.373,0,0,0-1.815,27.586c.61,1.182,1.506,2.451,2.835,2.559,1.6.129,2.754-1.473,3.419-2.932A26.2,26.2,0,0,0,148.592,348c10.407,7.405,13.775,22.469,9.172,34.382s-15.982,20.445-28.378,23.523a47.451,47.451,0,0,1-35.969-5.381A43.333,43.333,0,0,1,73.4,370.395a212.441,212.441,0,0,0,23.885,7.764c2.157.562,5.074.759,5.992-1.273s-1.138-4.076-2.979-5.311c-8.827-5.925-20-9.374-29.3-13.692-3.987-10.22-4.784-22.442-5.52-33.387,3.191,1.031,5.894,3.158,8.838,4.766s6.5,2.709,9.626,1.492a2.307,2.307,0,0,0,1.5-1.319,2.509,2.509,0,0,0-.189-1.54,14.81,14.81,0,0,0-6.627-7.752c-4.281-2.386-9.861-2.728-12.17-6.053-2.664-9.471-5.252-19.965,1.073-28.334" transform="translate(-63.598 -285.755)" fill="#858234"/>
        <path id="Trazado_995405" data-name="Trazado 995405" d="M157,447.361a.66.66,0,0,1-.648-.542c-2.93-16.113-16.431-45.327-39.044-84.486-17.1-29.619-33.54-54.725-33.7-54.975a.659.659,0,1,1,1.1-.723c.164.25,16.62,25.388,33.743,55.039,10.06,17.42,18.379,32.968,24.727,46.213,7.951,16.59,12.82,29.609,14.473,38.7a.66.66,0,0,1-.649.777Z" transform="translate(-64.032 -286.203)" fill="#2d201b"/>
        <path id="Trazado_995406" data-name="Trazado 995406" d="M121.808,366.551a.66.66,0,0,1-.627-.863,121,121,0,0,0,6.076-41.421.659.659,0,0,1,1.319-.02,132.537,132.537,0,0,1-1.255,21.193,124.117,124.117,0,0,1-4.885,20.655A.66.66,0,0,1,121.808,366.551Z" transform="translate(-64.827 -286.568)" fill="#2d201b"/>
        <path id="Trazado_995407" data-name="Trazado 995407" d="M90.14,318.269a.658.658,0,0,1-.2-.033,59.879,59.879,0,0,1-26.007-17.03.659.659,0,1,1,.985-.876,58.287,58.287,0,0,0,25.431,16.653.659.659,0,0,1-.2,1.286Z" transform="translate(-63.615 -286.072)" fill="#2d201b"/>
        <path id="Trazado_995408" data-name="Trazado 995408" d="M112.254,355.622a.663.663,0,0,1-.137-.014,166.419,166.419,0,0,1-35.813-11.921c-3.266-1.518-6.982-3.379-9.748-6.27a.659.659,0,1,1,.953-.912c2.608,2.726,6.05,4.452,9.352,5.986a165.1,165.1,0,0,0,35.529,11.827.659.659,0,0,1-.135,1.3Z" transform="translate(-63.67 -286.836)" fill="#2d201b"/>
        <path id="Trazado_995409" data-name="Trazado 995409" d="M135.94,398.71h-.012A106.232,106.232,0,0,1,74.06,377.263a.659.659,0,0,1,.8-1.05,104.9,104.9,0,0,0,61.094,21.178.659.659,0,0,1-.012,1.319Z" transform="translate(-63.827 -287.676)" fill="#2d201b"/>
      </g>
      <g id="Grupo_1160737" data-name="Grupo 1160737" transform="translate(0 304.461)">
        <path id="Trazado_995410" data-name="Trazado 995410" d="M97.95,431.212l-58.337-7.836S19.152,350.672,92.727,372Z" transform="translate(-37 -368.084)" fill="#a5a244"/>
        <path id="Trazado_995411" data-name="Trazado 995411" d="M117.411,451.257a.657.657,0,0,1-.478-.2c-17.493-18.37-34.655-35.429-52.823-53.49-6.3-6.266-12.821-12.744-19.3-19.232a.659.659,0,1,1,.933-.932c6.479,6.486,13,12.964,19.3,19.229,18.175,18.067,35.343,35.133,52.849,53.516a.659.659,0,0,1-.477,1.114Z" transform="translate(-37.174 -368.291)" fill="#2d201b"/>
        <path id="Trazado_995412" data-name="Trazado 995412" d="M98.495,431.883a.658.658,0,0,1-.476-.2,181.769,181.769,0,0,1-15.423-19.2,159.811,159.811,0,0,1-12.017-19.9,96.929,96.929,0,0,1-8.454-23.189.659.659,0,1,1,1.29-.272c3.424,16.226,12.9,32.116,20.247,42.588,4.092,5.833,8,10.678,10.836,14.024a114.281,114.281,0,0,1-6.112-13.782,186.465,186.465,0,0,1-6.209-20.494,225.477,225.477,0,0,1-4.389-22.7.659.659,0,0,1,1.308-.165,224.133,224.133,0,0,0,4.365,22.566c2.843,11.582,7.854,27.872,15.584,39.708a.659.659,0,0,1-.552,1.02Z" transform="translate(-37.544 -368.097)" fill="#2d201b"/>
        <path id="Trazado_995413" data-name="Trazado 995413" d="M97.975,432.517a.659.659,0,0,1-.161-.02L38.289,417.545a.659.659,0,0,1,.321-1.279l56.418,14.171c-3.424-2.57-10.016-7.379-17.967-12.474-10.75-6.889-26.251-15.725-39.051-18.7a.659.659,0,0,1,.3-1.284,93.8,93.8,0,0,1,20.022,7.695A213.452,213.452,0,0,1,77.783,416.86c11.725,7.514,20.512,14.41,20.6,14.479a.659.659,0,0,1-.408,1.178Z" transform="translate(-37.024 -368.729)" fill="#2d201b"/>
      </g>
      <g id="Grupo_1160738" data-name="Grupo 1160738" transform="translate(40.646 311.163)">
        <path id="Trazado_995414" data-name="Trazado 995414" d="M132.045,438l-53.523-16.7s5.936-69.708,69.4-38.2Z" transform="translate(-78.522 -374.931)" fill="#5e5e35"/>
        <path id="Trazado_995415" data-name="Trazado 995415" d="M134.468,450.994a.66.66,0,0,1-.648-.54,124.557,124.557,0,0,0-17.278-44.688c-6.537-10.158-14.327-18.132-20.33-20.809a.659.659,0,0,1,.537-1.2,35.536,35.536,0,0,1,9.869,7.364,84.8,84.8,0,0,1,11.032,13.936,125.886,125.886,0,0,1,17.466,45.162.66.66,0,0,1-.649.779Z" transform="translate(-78.901 -375.13)" fill="#2d201b"/>
        <path id="Trazado_995416" data-name="Trazado 995416" d="M132.381,437.269a.659.659,0,0,1-.637-.492c-.025-.093-2.486-9.464-5.187-21.617-2.495-11.223-5.712-27.185-6.867-39.49a.659.659,0,1,1,1.313-.123c1.149,12.236,4.354,28.137,6.84,39.322,1.6,7.2,3.118,13.427,4.09,17.313a321.1,321.1,0,0,1,4.042-33.454c1.813-10.654,3.536-18.229,3.553-18.3a.659.659,0,0,1,1.286.294c-.017.075-1.733,7.621-3.54,18.241a301.8,301.8,0,0,0-4.234,37.674.66.66,0,0,1-.659.636Z" transform="translate(-79.405 -374.945)" fill="#2d201b"/>
        <path id="Trazado_995417" data-name="Trazado 995417" d="M131.532,437.769a.657.657,0,0,1-.275-.06L79.865,414.06a.659.659,0,1,1,.551-1.2l48.408,22.276c-2.635-2.816-7.416-7.78-13.232-13.163-8.2-7.587-20.187-17.583-30.748-22.116a.659.659,0,1,1,.52-1.212,82.21,82.21,0,0,1,16.086,9.725A186.948,186.948,0,0,1,116.5,421.015c8.95,8.284,15.462,15.583,15.527,15.656a.659.659,0,0,1-.493,1.1Z" transform="translate(-78.556 -375.444)" fill="#2d201b"/>
      </g>
      <path id="Elipse_11569" data-name="Elipse 11569" d="M19.994-1A20.988,20.988,0,0,1,34.839,34.839,20.994,20.994,0,1,1,11.822.65,20.863,20.863,0,0,1,19.994-1Zm0,39.988A18.994,18.994,0,1,0,1,19.994,19.015,19.015,0,0,0,19.994,38.988Z" transform="translate(176.404 62.012) rotate(-45)" fill="#2d201b"/>
      <path id="Elipse_11570" data-name="Elipse 11570" d="M11.975-.6a12.574,12.574,0,0,1,8.891,21.465A12.574,12.574,0,0,1,3.084,3.084,12.491,12.491,0,0,1,11.975-.6Zm0,23.949A11.376,11.376,0,1,0,.6,11.975,11.389,11.389,0,0,0,11.975,23.351Z" transform="translate(190.129 53.34) rotate(-14.206)" fill="#2d201b"/>
      <g id="Grupo_1160739" data-name="Grupo 1160739" transform="translate(138.628 146.615)">
        <path id="Trazado_995418" data-name="Trazado 995418" d="M210.028,239.794a8.8,8.8,0,0,1,3.413,3.685,5.56,5.56,0,0,1-6.525,7.542,8.91,8.91,0,0,1-3.3-1.864,21.872,21.872,0,0,1-4.667-5.325c-.74-1.185-3.389-5.354-2.765-6.772.665-1.51,5.332-.519,6.648-.25A20.41,20.41,0,0,1,210.028,239.794Z" transform="translate(-178.987 -207.455)" fill="#858234"/>
        <path id="Trazado_995419" data-name="Trazado 995419" d="M222.622,230.478a8.8,8.8,0,0,1,3.414,3.686,5.56,5.56,0,0,1-6.525,7.542,8.909,8.909,0,0,1-3.3-1.864,21.853,21.853,0,0,1-4.667-5.325c-.74-1.185-3.389-5.354-2.765-6.772.665-1.509,5.332-.519,6.648-.25A20.414,20.414,0,0,1,222.622,230.478Z" transform="translate(-179.253 -207.258)" fill="#858234"/>
        <path id="Trazado_995420" data-name="Trazado 995420" d="M204.189,214.086a8.8,8.8,0,0,1,1.278-4.858,5.56,5.56,0,0,1,9.866,1.461,8.9,8.9,0,0,1,.2,3.787,21.821,21.821,0,0,1-1.99,6.8c-.6,1.26-2.7,5.732-4.231,5.966-1.631.25-3.3-4.221-3.777-5.476A20.415,20.415,0,0,1,204.189,214.086Z" transform="translate(-179.158 -206.834)" fill="#858234"/>
        <path id="Trazado_995421" data-name="Trazado 995421" d="M227.734,216.288a8.791,8.791,0,0,1,5.023.111,5.56,5.56,0,0,1,.88,9.935A8.917,8.917,0,0,1,230,227.411a21.871,21.871,0,0,1-7.072-.35c-1.367-.293-6.2-1.288-6.789-2.723-.623-1.528,3.336-4.192,4.445-4.95A20.393,20.393,0,0,1,227.734,216.288Z" transform="translate(-179.409 -207.027)" fill="#858234"/>
        <path id="Trazado_995422" data-name="Trazado 995422" d="M188.835,223.23a8.8,8.8,0,0,1,1.278-4.858,5.56,5.56,0,0,1,9.866,1.461,8.9,8.9,0,0,1,.2,3.787,21.82,21.82,0,0,1-1.99,6.8c-.6,1.26-2.7,5.732-4.231,5.966-1.631.25-3.3-4.221-3.778-5.477A20.388,20.388,0,0,1,188.835,223.23Z" transform="translate(-178.834 -207.027)" fill="#858234"/>
        <path id="Trazado_995423" data-name="Trazado 995423" d="M179.729,240.468a6.2,6.2,0,0,1,.9-3.423,3.918,3.918,0,0,1,6.952,1.029,6.272,6.272,0,0,1,.141,2.669,15.42,15.42,0,0,1-1.4,4.789c-.425.888-1.9,4.04-2.982,4.2-1.149.176-2.324-2.975-2.662-3.859A14.4,14.4,0,0,1,179.729,240.468Z" transform="translate(-178.641 -207.436)" fill="#858234"/>
        <path id="Trazado_995424" data-name="Trazado 995424" d="M194.767,246.922a6.2,6.2,0,0,1,3.329,1.2,3.918,3.918,0,0,1-1.646,6.833,6.27,6.27,0,0,1-2.671-.1,15.4,15.4,0,0,1-4.644-1.825c-.847-.5-3.853-2.256-3.921-3.346-.072-1.16,3.171-2.049,4.082-2.305A14.365,14.365,0,0,1,194.767,246.922Z" transform="translate(-178.757 -207.678)" fill="#858234"/>
        <path id="Trazado_995425" data-name="Trazado 995425" d="M178.618,266.1a.4.4,0,0,1-.4-.473,51.092,51.092,0,0,1,5.943-16.1,58.44,58.44,0,0,1,10.734-13.6,56.054,56.054,0,0,1,30.524-15.025.4.4,0,1,1,.107.8c-22.481,3.018-42.479,21.963-46.518,44.067A.4.4,0,0,1,178.618,266.1Z" transform="translate(-178.618 -207.139)" fill="#2d201b"/>
        <path id="Trazado_995426" data-name="Trazado 995426" d="M219.872,236.62c-.26,0-.583,0-5.934-5.093-2.59-2.465-5.13-4.962-5.155-4.987a.4.4,0,0,1-.12-.3c.116-3.534.335-10.268.337-10.459a.4.4,0,0,1,.4-.4h0a.4.4,0,0,1,.4.4c0,.163-.278,8.663-.332,10.307.529.518,2.645,2.591,4.838,4.68,4.533,4.32,5.454,4.963,5.637,5.052a.4.4,0,0,1-.074.8Z" transform="translate(-179.261 -207.023)" fill="#2d201b"/>
        <path id="Trazado_995427" data-name="Trazado 995427" d="M207.888,246.7a.4.4,0,0,1-.1-.012c-.18-.045-.515-.129-6.667-5.469-3.006-2.61-5.968-5.233-6-5.259a.4.4,0,0,1-.131-.244l-2.026-14.354a.4.4,0,1,1,.795-.112l2.006,14.208c4.415,3.909,11.532,10.107,12.246,10.461a.4.4,0,0,1-.125.782Z" transform="translate(-178.929 -207.139)" fill="#2d201b"/>
        <path id="Trazado_995428" data-name="Trazado 995428" d="M195.679,252.139a.4.4,0,0,1-.127-.021h0c-.374-.122-6.463-1.384-10.466-2.2a.4.4,0,0,1-.313-.313l-2.154-10.62a.4.4,0,1,1,.786-.159l2.1,10.36c1.8.368,9.814,2.013,10.3,2.175a.4.4,0,0,1-.127.782Z" transform="translate(-178.711 -207.511)" fill="#2d201b"/>
      </g>
      <g id="Grupo_1160740" data-name="Grupo 1160740" transform="translate(60.375 158.988)">
        <path id="Trazado_995429" data-name="Trazado 995429" d="M125.006,252.433a8.8,8.8,0,0,0-3.413,3.686,5.56,5.56,0,0,0,6.525,7.542,8.882,8.882,0,0,0,3.3-1.864,21.852,21.852,0,0,0,4.667-5.325c.74-1.185,3.389-5.354,2.765-6.772-.665-1.51-5.332-.519-6.648-.25A20.4,20.4,0,0,0,125.006,252.433Z" transform="translate(-99.151 -220.094)" fill="#858234"/>
        <path id="Trazado_995430" data-name="Trazado 995430" d="M112.412,243.116A8.8,8.8,0,0,0,109,246.8a5.56,5.56,0,0,0,6.525,7.542,8.882,8.882,0,0,0,3.3-1.864,21.849,21.849,0,0,0,4.666-5.325c.74-1.185,3.389-5.354,2.765-6.772-.665-1.51-5.332-.519-6.648-.25A20.427,20.427,0,0,0,112.412,243.116Z" transform="translate(-98.886 -219.897)" fill="#858234"/>
        <path id="Trazado_995431" data-name="Trazado 995431" d="M130.982,226.725a8.8,8.8,0,0,0-1.278-4.858,5.56,5.56,0,0,0-9.866,1.459,8.9,8.9,0,0,0-.2,3.787,21.821,21.821,0,0,0,1.99,6.8c.6,1.26,2.7,5.732,4.231,5.966,1.631.25,3.3-4.221,3.777-5.477A20.38,20.38,0,0,0,130.982,226.725Z" transform="translate(-99.117 -219.473)" fill="#858234"/>
        <path id="Trazado_995432" data-name="Trazado 995432" d="M107.248,228.927a8.8,8.8,0,0,0-5.023.111,5.56,5.56,0,0,0-.88,9.935,8.916,8.916,0,0,0,3.637,1.078,21.862,21.862,0,0,0,7.071-.35c1.367-.293,6.2-1.288,6.789-2.723.623-1.528-3.336-4.192-4.445-4.95A20.345,20.345,0,0,0,107.248,228.927Z" transform="translate(-98.676 -219.666)" fill="#858234"/>
        <path id="Trazado_995433" data-name="Trazado 995433" d="M146.336,235.868a8.8,8.8,0,0,0-1.278-4.858,5.56,5.56,0,0,0-9.866,1.46,8.9,8.9,0,0,0-.2,3.787,21.821,21.821,0,0,0,1.99,6.8c.6,1.261,2.7,5.732,4.231,5.966,1.631.25,3.3-4.221,3.777-5.476A20.4,20.4,0,0,0,146.336,235.868Z" transform="translate(-99.441 -219.666)" fill="#858234"/>
        <path id="Trazado_995434" data-name="Trazado 995434" d="M155.514,253.106a6.2,6.2,0,0,0-.9-3.423,3.918,3.918,0,0,0-6.952,1.029,6.272,6.272,0,0,0-.141,2.669,15.421,15.421,0,0,0,1.4,4.789c.425.888,1.9,4.04,2.982,4.2,1.149.176,2.324-2.975,2.662-3.86A14.355,14.355,0,0,0,155.514,253.106Z" transform="translate(-99.706 -220.075)" fill="#858234"/>
        <path id="Trazado_995435" data-name="Trazado 995435" d="M140.343,259.561a6.2,6.2,0,0,0-3.329,1.2,3.918,3.918,0,0,0,1.647,6.833,6.27,6.27,0,0,0,2.671-.1,15.4,15.4,0,0,0,4.644-1.825c.847-.5,3.853-2.256,3.92-3.346.072-1.16-3.171-2.049-4.082-2.305A14.348,14.348,0,0,0,140.343,259.561Z" transform="translate(-99.456 -220.318)" fill="#858234"/>
        <path id="Trazado_995436" data-name="Trazado 995436" d="M155.789,278.737a.4.4,0,0,1-.394-.329c-4.039-22.1-24.037-41.049-46.518-44.067a.4.4,0,0,1,.107-.8,56.054,56.054,0,0,1,30.524,15.025,58.441,58.441,0,0,1,10.734,13.6,51.092,51.092,0,0,1,5.943,16.1.4.4,0,0,1-.4.473Z" transform="translate(-98.893 -219.779)" fill="#2d201b"/>
        <path id="Trazado_995437" data-name="Trazado 995437" d="M115.313,249.259a.4.4,0,0,1-.074-.8c.184-.09,1.1-.733,5.638-5.053,2.193-2.09,4.309-4.161,4.837-4.68-.054-1.644-.332-10.144-.332-10.307a.4.4,0,0,1,.8,0c0,.189.222,6.923.338,10.457a.4.4,0,0,1-.12.3c-.025.025-2.565,2.522-5.155,4.987C115.9,249.259,115.573,249.259,115.313,249.259Z" transform="translate(-99.028 -219.662)" fill="#2d201b"/>
        <path id="Trazado_995438" data-name="Trazado 995438" d="M127.217,259.339a.4.4,0,0,1-.125-.782c.714-.354,7.831-6.552,12.246-10.461l2.006-14.208a.4.4,0,0,1,.795.112l-2.026,14.354a.4.4,0,0,1-.131.244c-.03.026-2.992,2.649-6,5.259-6.153,5.341-6.488,5.424-6.668,5.469A.4.4,0,0,1,127.217,259.339Z" transform="translate(-99.279 -219.779)" fill="#2d201b"/>
        <path id="Trazado_995439" data-name="Trazado 995439" d="M139.468,264.776a.4.4,0,0,1-.129-.781c.485-.162,8.5-1.807,10.3-2.175l2.1-10.36a.4.4,0,0,1,.786.159l-2.154,10.62a.4.4,0,0,1-.313.313c-4,.818-10.092,2.08-10.466,2.2A.4.4,0,0,1,139.468,264.776Z" transform="translate(-99.538 -220.15)" fill="#2d201b"/>
      </g>
      <g id="Grupo_1160741" data-name="Grupo 1160741" transform="translate(21.405 84.937)">
        <path id="Trazado_995440" data-name="Trazado 995440" d="M93.734,170.3c3.025,3.025,3.269,7.683.547,10.406s-7.381,2.477-10.406-.547-3.269-7.683-.547-10.406S90.709,167.279,93.734,170.3Z" transform="translate(-59.343 -144.333)" fill="#fcf6f2"/>
        <path id="Trazado_995441" data-name="Trazado 995441" d="M82.4,176.46c4.65,1.467,3.2,10.156-.206,13.649-3.461,3.551-9.247,2.645-14.117,3.585-4.44.857-8.865,4.125-9.191,8.636-.25,3.454,1.9,6.583,4.044,9.3a132.007,132.007,0,0,0,18.089,18.714c2.251,1.91,4.751,3.823,7.69,4.1s6.283-1.832,6.2-4.784a7.445,7.445,0,0,0-1.816-4.047A52.84,52.84,0,0,0,76.224,210.9c5.253,3.584,10.754,7.266,17.051,8.14,1.572.218,3.412.154,4.426-1.069,1.556-1.877-.046-4.664-1.725-6.433a55.466,55.466,0,0,0-9.754-8.152c2.111.641,3.916,2.011,5.912,2.951s4.465,1.412,6.337.244c2.041-1.273,2.619-4.112,1.977-6.431s-2.23-4.239-3.776-6.081L129.9,208.363,105.881,183.27,86.523,167.5Z" transform="translate(-58.867 -144.325)" fill="#fcf6f2"/>
        <path id="Trazado_995442" data-name="Trazado 995442" d="M93.559,169.823c2.56,4.15,9.672,4.145,12.226-.009,2.6-4.225.3-9.613.024-14.565-.255-4.516,1.832-9.6,6.127-11.023,3.288-1.087,6.846.228,10,1.648A132,132,0,0,1,144.51,158.84c2.4,1.717,4.868,3.672,5.857,6.455s-.241,6.541-3.124,7.182a7.442,7.442,0,0,1-4.368-.771,52.821,52.821,0,0,1-18.388-12.764c4.758,4.217,9.674,8.651,12.062,14.544.6,1.471.984,3.271.046,4.553-1.441,1.968-4.534,1.1-6.659-.1a55.439,55.439,0,0,1-10.29-7.465c1.138,1.89,2.907,3.306,4.307,5.011s2.46,3.985,1.786,6.086c-.735,2.291-3.348,3.545-5.753,3.489s-4.655-1.126-6.82-2.174l21.982,28.723-30.2-17.155L84.919,179.54Z" transform="translate(-59.417 -143.825)" fill="#fcf6f2"/>
        <path id="Trazado_995443" data-name="Trazado 995443" d="M81.459,175.02l-1.894.884,2.273,1.389Z" transform="translate(-59.304 -144.484)" fill="#81aa9b"/>
        <circle id="Elipse_11571" data-name="Elipse 11571" cx="0.793" cy="0.793" r="0.793" transform="translate(23.797 29.582)" fill="#2d201b"/>
        <path id="Trazado_995444" data-name="Trazado 995444" d="M123.8,202.133a31.57,31.57,0,0,0-.411,19.441A15.635,15.635,0,0,0,126.2,227.2a7.871,7.871,0,0,0,5.412,2.935,2.07,2.07,0,0,0,1.489-.37,2.254,2.254,0,0,0,.592-1.546c.394-4.427-1.612-8.684-3.693-12.61a9.771,9.771,0,0,0,5.841,5.154,2.913,2.913,0,0,0,2.427-.066c1.146-.735.991-2.46.493-3.728a12.869,12.869,0,0,0-3.562-5.025C131.8,209.012,127.125,205.139,123.8,202.133Z" transform="translate(-60.201 -145.056)" fill="#fcf6f2"/>
        <path id="Trazado_995445" data-name="Trazado 995445" d="M123.985,199.756a31.567,31.567,0,0,1,19.424-.917,15.643,15.643,0,0,1,5.7,2.664,7.874,7.874,0,0,1,3.075,5.334,2.07,2.07,0,0,1-.331,1.5,2.256,2.256,0,0,1-1.529.632c-4.415.509-8.723-1.385-12.7-3.363a9.773,9.773,0,0,1,5.3,5.7,2.91,2.91,0,0,1,0,2.428c-.7,1.166-2.434,1.054-3.714.59a12.889,12.889,0,0,1-5.117-3.429C131.07,207.577,127.077,203.005,123.985,199.756Z" transform="translate(-60.242 -144.963)" fill="#fcf6f2"/>
      </g>
      <g id="Grupo_1160742" data-name="Grupo 1160742" transform="translate(116.31 106.027)">
        <rect id="Rectángulo_412870" data-name="Rectángulo 412870" width="34.389" height="42.051" transform="translate(0 59.553)" fill="#f5e1d0"/>
        <path id="Trazado_995446" data-name="Trazado 995446" d="M166.51,210.106c.553-2.869,3.231-4.906,4.05-7.711,1.229-4.209-2.028-8.38-2.414-12.748-.343-3.886,1.6-7.56,2.515-11.353a21.866,21.866,0,0,0-.871-12.924,23.108,23.108,0,0,1,3.458,13.953c-.208,2.737-.893,5.592.1,8.15,1.238,3.185,4.854,5.222,5.379,8.6.189,1.216-.056,2.5.374,3.658a13.026,13.026,0,0,0,1.644,2.479c1.926,2.892,1.319,6.788.014,10.009C177.578,220.069,164.6,219.991,166.51,210.106Z" transform="translate(-156.04 -165.37)" fill="#eaad29"/>
        <path id="Línea_1148" data-name="Línea 1148" d="M0,16.8a.4.4,0,0,1-.4-.4V0A.4.4,0,0,1,0-.4.4.4,0,0,1,.4,0V16.4A.4.4,0,0,1,0,16.8Z" transform="translate(16.795 46.356)" fill="#2d201b"/>
        <path id="Trazado_995447" data-name="Trazado 995447" d="M187.679,256.167a7.464,7.464,0,0,1-2.9-.608,8.785,8.785,0,0,1-3.918-3.278,13.387,13.387,0,0,1-1.722-8.586,8,8,0,0,1-4.086,1.741,9.55,9.55,0,0,1-5.6-.954,11.964,11.964,0,0,1-4.19-3.7,17.208,17.208,0,0,1-2.46-5.069.4.4,0,1,1,.768-.232c.675,2.24,2.385,6.3,6.25,8.288,3.274,1.689,7.473,1.055,9.559-1.442a.4.4,0,0,1,.7.32c-.4,2.552-.476,6.219,1.453,9.2,1.815,2.8,5.246,4.184,7.981,3.211a.4.4,0,0,1,.269.756A6.278,6.278,0,0,1,187.679,256.167Z" transform="translate(-155.974 -166.853)" fill="#2d201b"/>
      </g>
      <path id="Trazado_995448" data-name="Trazado 995448" d="M184.69,141.961l2.154,3.937,3.937,2.154-3.937,2.154-2.154,3.937-2.154-3.937-3.937-2.154,3.937-2.154Z" transform="translate(-39.989 -58.849)" fill="#2d201b"/>
      <path id="Trazado_995449" data-name="Trazado 995449" d="M155.347,137.068l1.02,1.864,1.864,1.019-1.864,1.02-1.02,1.864-1.019-1.864-1.865-1.02,1.865-1.019Z" transform="translate(-39.437 -58.746)" fill="#2d201b"/>
      <path id="Trazado_995450" data-name="Trazado 995450" d="M423.1,129.122l1.02,1.864,1.864,1.02-1.864,1.019-1.02,1.865-1.019-1.865-1.864-1.019,1.864-1.02Z" transform="translate(-45.09 -58.578)" fill="#2d201b"/>
      <path id="Trazado_995451" data-name="Trazado 995451" d="M129.231,113.052l.566,1.034,1.034.566-1.034.566-.566,1.034-.566-1.034-1.034-.566,1.034-.566Z" transform="translate(-38.913 -58.239)" fill="#2d201b"/>
      <path id="Trazado_995452" data-name="Trazado 995452" d="M83.382,266.962l2.154,3.938,3.937,2.154-3.937,2.153-2.154,3.938-2.154-3.938-3.937-2.153,3.937-2.154Z" transform="translate(-37.85 -61.488)" fill="#2d201b"/>
      <path id="Trazado_995453" data-name="Trazado 995453" d="M400.283,178.412l4.231,7.477,7.735,4.089-7.735,4.09-4.231,7.477-4.231-7.477-7.735-4.09,7.735-4.089Z" transform="translate(-44.417 -59.618)" fill="#2d201b"/>
      <path id="Trazado_995454" data-name="Trazado 995454" d="M323.423,325.331l2.154,3.937,3.937,2.154-3.937,2.154-2.154,3.938-2.154-3.938-3.937-2.154,3.937-2.154Z" transform="translate(-42.918 -62.72)" fill="#2d201b"/>
      <path id="Trazado_995455" data-name="Trazado 995455" d="M180.354,335.842l2.154,3.937,3.937,2.154-3.937,2.154-2.154,3.937-2.154-3.937-3.937-2.154,3.937-2.154Z" transform="translate(-39.898 -62.942)" fill="#2d201b"/>
      <path id="Trazado_995456" data-name="Trazado 995456" d="M353.558,126.689l2.154,3.938,3.938,2.153-3.938,2.154-2.154,3.937-2.153-3.937-3.938-2.154,3.938-2.153Z" transform="translate(-43.555 -58.526)" fill="#2d201b"/>
      <path id="Trazado_995457" data-name="Trazado 995457" d="M406.349,265.894l2.154,3.938,3.937,2.153-3.937,2.154-2.154,3.938-2.154-3.938-3.937-2.154,3.937-2.153Z" transform="translate(-44.669 -61.465)" fill="#2d201b"/>
      <path id="Trazado_995458" data-name="Trazado 995458" d="M50.76,246.842l1.2,2.194,2.194,1.2-2.194,1.2-1.2,2.194-1.2-2.194-2.193-1.2,2.193-1.2Z" transform="translate(-37.219 -61.063)" fill="#2d201b"/>
      <path id="Trazado_995459" data-name="Trazado 995459" d="M192.714,328.747l1.2,2.193,2.194,1.2-2.194,1.2-1.2,2.193-1.2-2.193-2.193-1.2,2.193-1.2Z" transform="translate(-40.216 -62.792)" fill="#2d201b"/>
      <path id="Trazado_995460" data-name="Trazado 995460" d="M433.525,256.238l1.2,2.194,2.194,1.2-2.194,1.2-1.2,2.193-1.2-2.193-2.194-1.2,2.194-1.2Z" transform="translate(-45.3 -61.262)" fill="#2d201b"/>
      <path id="Trazado_995461" data-name="Trazado 995461" d="M54.849,277.632a3.7,3.7,0,1,1,3.7-3.7A3.7,3.7,0,0,1,54.849,277.632Zm0-6.4a2.7,2.7,0,1,0,2.7,2.7A2.7,2.7,0,0,0,54.851,271.234Z" transform="translate(-37.309 -61.568)" fill="#2d201b"/>
      <path id="Trazado_995462" data-name="Trazado 995462" d="M224.812,303.419a2.5,2.5,0,1,1,2.5-2.5A2.5,2.5,0,0,1,224.812,303.419Zm0-4a1.5,1.5,0,1,0,1.5,1.5A1.5,1.5,0,0,0,224.812,299.42Z" transform="translate(-40.923 -62.163)" fill="#2d201b"/>
      <path id="Trazado_995463" data-name="Trazado 995463" d="M317.541,144.007a2.5,2.5,0,1,1-2.5,2.5A2.5,2.5,0,0,1,317.541,144.007Zm0,4a1.5,1.5,0,1,0-1.5-1.5A1.5,1.5,0,0,0,317.541,148.006Z" transform="translate(-42.88 -58.903)" fill="#2d201b"/>
      <path id="Trazado_995464" data-name="Trazado 995464" d="M416.216,181.479a1.249,1.249,0,1,1,1.249-1.249A1.251,1.251,0,0,1,416.216,181.479Zm0-2a.749.749,0,1,0,.748.749A.751.751,0,0,0,416.217,179.48Z" transform="translate(-44.985 -59.636)" fill="#2d201b"/>
      <path id="Trazado_995465" data-name="Trazado 995465" d="M384.149,124.649A1.249,1.249,0,1,1,382.9,125.9,1.251,1.251,0,0,1,384.149,124.649Zm0,2a.749.749,0,1,0-.749-.749A.75.75,0,0,0,384.149,126.648Z" transform="translate(-44.308 -58.489)" fill="#2d201b"/>
      <path id="Trazado_995466" data-name="Trazado 995466" d="M378.816,168.926h0a2.5,2.5,0,1,1-2.5,2.5A2.5,2.5,0,0,1,378.818,168.926Zm0,4a1.5,1.5,0,0,0,0-3v0a1.5,1.5,0,1,0,0,3Z" transform="translate(-44.174 -59.429)" fill="#2d201b"/>
      <path id="Trazado_995467" data-name="Trazado 995467" d="M66.739,185.4a1.7,1.7,0,1,1,1.7-1.7A1.7,1.7,0,0,1,66.739,185.4Zm0-2.4a.7.7,0,1,0,.7.7A.7.7,0,0,0,66.739,183Z" transform="translate(-37.602 -59.705)" fill="#2d201b"/>
      <path id="Trazado_995468" data-name="Trazado 995468" d="M41.359,325a4.1,4.1,0,1,1,4.1-4.1A4.1,4.1,0,0,1,41.359,325Zm0-7.2a3.1,3.1,0,1,0,3.1,3.1A3.1,3.1,0,0,0,41.359,317.8Z" transform="translate(-37.016 -62.551)" fill="#2d201b"/>
      <path id="Trazado_995469" data-name="Trazado 995469" d="M202.743,177.992a2.9,2.9,0,1,1,2.9-2.9A2.9,2.9,0,0,1,202.743,177.992Zm0-4.8a1.9,1.9,0,1,0,1.9,1.9A1.9,1.9,0,0,0,202.743,173.193Z" transform="translate(-40.448 -59.498)" fill="#2d201b"/>
      <path id="Trazado_995470" data-name="Trazado 995470" d="M107.571,126.539a2.5,2.5,0,1,1,2.5-2.5A2.5,2.5,0,0,1,107.571,126.539Zm0-4a1.5,1.5,0,1,0,1.5,1.5A1.5,1.5,0,0,0,107.573,122.54Z" transform="translate(-38.447 -58.428)" fill="#2d201b"/>
      <path id="Trazado_995471" data-name="Trazado 995471" d="M308.744,343.338l4.28,7.824,7.823,4.279-7.823,4.279-4.28,7.823-4.279-7.823-7.823-4.279,7.823-4.279Z" transform="translate(-42.481 -63.1)" fill="#f9f6f1"/>
      <path id="Trazado_995472" data-name="Trazado 995472" d="M190.377,382.3l2.67,4.882,4.882,2.67-4.882,2.669-2.67,4.883-2.67-4.883-4.882-2.669,4.882-2.67Z" transform="translate(-40.078 -63.923)" fill="#f9f6f1"/>
      <path id="Trazado_995473" data-name="Trazado 995473" d="M225.583,384.216l1.442,2.636,2.636,1.442-2.636,1.442-1.442,2.636-1.442-2.636-2.636-1.442,2.636-1.442Z" transform="translate(-40.895 -63.964)" fill="#f9f6f1"/>
      <path id="Trazado_995474" data-name="Trazado 995474" d="M201.89,428.334l1.442,2.636,2.636,1.442-2.636,1.442-1.442,2.636-1.442-2.636-2.636-1.442,2.636-1.442Z" transform="translate(-40.395 -64.895)" fill="#f9f6f1"/>
      <path id="Trazado_995475" data-name="Trazado 995475" d="M290.945,403.9l1.414,2.585,2.584,1.413-2.584,1.414-1.414,2.585-1.413-2.585-2.585-1.414,2.585-1.413Z" transform="translate(-42.277 -64.379)" fill="#f9f6f1"/>
      <path id="Trazado_995476" data-name="Trazado 995476" d="M276.216,354.62l1.788,3.27,3.27,1.788L278,361.466l-1.788,3.269-1.788-3.269-3.269-1.788,3.269-1.788Z" transform="translate(-41.943 -63.339)" fill="#f9f6f1"/>
      <path id="Trazado_995477" data-name="Trazado 995477" d="M323.677,379.395l.566,1.034,1.034.566-1.034.566-.566,1.034-.565-1.034-1.035-.566,1.035-.566Z" transform="translate(-43.018 -63.862)" fill="#f9f6f1"/>
      <g id="Grupo_1160743" data-name="Grupo 1160743" transform="translate(246.808 142.399)">
        <path id="Trazado_995478" data-name="Trazado 995478" d="M303.64,268.448c-11.052-9.327-12.054-26.315-2.239-37.947s26.731-13.5,37.782-4.172,12.054,26.315,2.239,37.947S314.692,277.774,303.64,268.448Z" transform="translate(-289.247 -202.904)" fill="#dd562b"/>
        <path id="Trazado_995479" data-name="Trazado 995479" d="M307.168,227.18c-29.542,3.84-19.729,50.779,7.339,44.85" transform="translate(-289.131 -203.047)" fill="#dd562b"/>
        <path id="Trazado_995480" data-name="Trazado 995480" d="M314.966,224.41c16.8-27.653,60.877,18.013,24.048,40.947" transform="translate(-289.676 -202.806)" fill="#dd562b"/>
        <path id="Trazado_995481" data-name="Trazado 995481" d="M304.6,236.514c-3.438,4.073-9.3,15.805-3.824,20.426" transform="translate(-289.329 -203.244)" fill="#dd562b"/>
        <path id="Trazado_995482" data-name="Trazado 995482" d="M306.266,260.83a.4.4,0,0,1-.3-.136,33.153,33.153,0,0,1-5.5-9.406,19.584,19.584,0,0,1-1.295-8.994,15.361,15.361,0,0,1,4.706-9.349.4.4,0,1,1,.564.571c-4.714,4.655-5.8,10.541-3.223,17.494a32.922,32.922,0,0,0,5.354,9.156.4.4,0,0,1-.3.666Z" transform="translate(-289.349 -203.175)" fill="#2d201b"/>
        <path id="Trazado_995483" data-name="Trazado 995483" d="M339.392,251.59a.371.371,0,0,1-.369-.334c-.955-9.464-5.751-14.789-9.605-17.588a23.4,23.4,0,0,0-8.252-3.863.371.371,0,0,1,.142-.729,23.672,23.672,0,0,1,8.52,3.972,23.385,23.385,0,0,1,6.251,6.72,26.723,26.723,0,0,1,3.683,11.414.371.371,0,0,1-.332.407Z" transform="translate(-289.808 -203.095)" fill="#89361c"/>
        <path id="Trazado_995484" data-name="Trazado 995484" d="M305.76,225.441a3.563,3.563,0,0,1-.252,1.553c-.554,1.005-4.129,2.085-5.114,2.922-2.187,1.859-4.171,3.446-5.41,6.2-.264.587-1.339,4.519-.825,4.952.231.195.08-.609.212-.88.317-.646.715-1.29,1.083-1.911,1.02-1.719,1.724-3.555,3.313-4.971a10.762,10.762,0,0,1,5.7-2.78c1.051-.089,2.342.672,3.241.97.751.25,1.59.2,2.33.377,1.437.347,1.132,3.126,1.3,4.1a61.448,61.448,0,0,0,1.307,6.4c.308,1.065.975,2,1.312,3.048a8.324,8.324,0,0,1,.551,3.112c-.018.153-.29,1.586.041,1.624.141.017.272-.114.364-.222,1.7-2.009.707-6.62.4-8.84a15.023,15.023,0,0,0-.75-4.34,10.042,10.042,0,0,1-1.124-5.361,9.7,9.7,0,0,1-.074-2c.016-.019.974.384,1.086.387a7.2,7.2,0,0,0,2.732-.519c1.12-.482,1.891-1.667,3.071-2.174,2.878-1.238,5.59-2.673,8.725-3.227,1.489-.263,2.992.462,4.453.58.118.01.954.255,1.053.007.193-.483-2.69-1.994-3.147-2.126A21.451,21.451,0,0,0,324,221.6a20.24,20.24,0,0,0-2.336.676c-.433.1-.59.553-.99.754a13.02,13.02,0,0,1-4.26,1.7,7.981,7.981,0,0,0-1.243.01c-.123.028-.369.16-.38.032s.256-.13.364-.222a13.211,13.211,0,0,0,2.729-2.816c.9-1.434.712-3.258,1.222-4.794a30.4,30.4,0,0,1,4.125-7.816c1.059-1.514,1.839-3.017,3.068-4.472.071-.085,1.765-1.987,1.067-2.1-2.152-.348-5.6,2.876-6.815,4.31a28.768,28.768,0,0,0-2.507,3.18c-.911,1.458-1.008,3.4-1.4,5-.708,2.928-3.1,7.31-5.977,8.548-.816.351-2.019-1.733-2.839-1.866-3.682-.6-7.751.771-11.274-.864a19.958,19.958,0,0,1-4.217-2.323c-.1-.086-1.413-1.035-1.427-1.028-.5.213.984,1.842,1.128,2.011.474.558.589,1.377,1.025,1.924a10.094,10.094,0,0,0,3.489,2.768,10.809,10.809,0,0,0,2.52.361,13.554,13.554,0,0,0,3.4.574c.73-.062,1.408-.406,2.161-.47C305.2,224.626,305.766,224.9,305.76,225.441Z" transform="translate(-289.166 -202.526)" fill="rgba(99,120,34,0.99)"/>
        <path id="Trazado_995485" data-name="Trazado 995485" d="M307.754,227.448a.371.371,0,0,1-.011-.742l10.63-.32a.371.371,0,1,1,.022.742l-10.63.32Z" transform="translate(-289.524 -203.038)" fill="rgba(65,77,26,0.99)"/>
        <path id="Trazado_995486" data-name="Trazado 995486" d="M309.333,231.2a.371.371,0,0,1-.3-.589l4.942-6.815a.371.371,0,1,1,.6.436l-4.942,6.815A.371.371,0,0,1,309.333,231.2Z" transform="translate(-289.557 -202.98)" fill="rgba(65,77,26,0.99)"/>
        <path id="Trazado_995487" data-name="Trazado 995487" d="M294.485,258.181a.737.737,0,0,1-.635-.362,19.5,19.5,0,0,1-1.692-4.151,19.078,19.078,0,0,1-.354-9.647.737.737,0,1,1,1.433.345c-1.609,6.683,1.848,12.645,1.883,12.7a.737.737,0,0,1-.634,1.112Z" transform="translate(-289.193 -203.406)" fill="rgba(249,234,206,0.99)"/>
        <path id="Trazado_995488" data-name="Trazado 995488" d="M299.879,265.46a.734.734,0,0,1-.33-.078,8.712,8.712,0,0,1-2.128-2.171,8.193,8.193,0,0,1-1.651-2.583.737.737,0,0,1,1.446-.283,11.122,11.122,0,0,0,1.372,1.965,11.643,11.643,0,0,0,1.629,1.758.737.737,0,0,1-.339,1.392Z" transform="translate(-289.286 -203.75)" fill="rgba(249,234,206,0.99)"/>
      </g>
      <g id="Grupo_1160745" data-name="Grupo 1160745" transform="translate(267.192 103.577)">
        <g id="Grupo_1160744" data-name="Grupo 1160744">
          <path id="Trazado_995489" data-name="Trazado 995489" d="M357.394,185.156c2.405,1.273,4.523,3.679,6.6,7.853,2.513,5.047.628,15.007,4.135,22.388,18.745,8.605,17.117,39.205-8.806,39.132a16.984,16.984,0,0,1-9.505-2.618,18.652,18.652,0,0,1-6.375.952c-26.247-.478-26.967-31.918-7.3-39.648a1.213,1.213,0,0,0,.414-.522c1.243-12.739,2.352-29.444,16.137-28.745A10.983,10.983,0,0,1,357.394,185.156Z" transform="translate(-310.219 -163.312)" fill="rgba(233,214,76,0.99)"/>
          <path id="Trazado_995490" data-name="Trazado 995490" d="M368.521,215.958a22.119,22.119,0,0,1-1.676-5.389,11.893,11.893,0,0,0-5.613,2.076,7.977,7.977,0,0,0-2.767,3.345,8.155,8.155,0,0,0-.4,3.888c.265,2.653,1.11,5.29.429,7.953a6.223,6.223,0,0,1-1.654,3.039,8.006,8.006,0,0,1-2.742,1.568c-2.115.785-4.426,1.1-6.387,2.267a9.025,9.025,0,0,0-2.676,2.69,19.641,19.641,0,0,0-2.08,3.779,29.732,29.732,0,0,0-2.009,12.056c.928.106,1.888.174,2.89.192a18.644,18.644,0,0,0,6.375-.952,16.983,16.983,0,0,0,9.505,2.618C385.638,255.163,387.266,224.563,368.521,215.958Z" transform="translate(-310.609 -163.874)" fill="rgba(186,166,43,0.99)"/>
          <path id="Trazado_995491" data-name="Trazado 995491" d="M352.756,186.839h-.036a.5.5,0,0,1-.461-.532,40.848,40.848,0,0,0-.413-8.109c-.611-3.961-2.136-9.271-5.933-12.067a.5.5,0,1,1,.59-.8,14.086,14.086,0,0,1,4.4,5.788,27.611,27.611,0,0,1,1.93,6.948,41.048,41.048,0,0,1,.419,8.312A.5.5,0,0,1,352.756,186.839Z" transform="translate(-310.72 -162.928)" fill="rgba(77,52,20,0.99)"/>
          <path id="Trazado_995492" data-name="Trazado 995492" d="M317.537,191.453c.783-2.2,2.941-4.191,4.409-5.921,3.989-4.7,7.99-10.23,13.692-12.938,2.616-1.242,7-2.8,9.391-.313,2.54,2.646.442,7.649-2.685,8.757-.874.309-1.968-.052-2.8.342-.671.318-.062,1.546-.442,2.182a7.073,7.073,0,0,1-3.4,2.918c-2.148.761-4.622-.4-6.317,1.23-1.406,1.35-1.635,5.1-3.61,6.992-2.288,2.2-5.818,2.7-8.707,3.526A10.138,10.138,0,0,0,313.5,199.8a9.935,9.935,0,0,0-2.042,1.75c-1.187,1.239-1.194,1.243-1.2,1.2-.089-.733,2.517-7.432,2.715-8.12,1.074-3.717,1.281-5.847,1.818-7.791,2.619-9.5,2.527-17.256,12.316-22.63,5.37-2.947,12.6-1.119,11.67,6.377-.447,3.6-3.041,7.025-5.19,9.772" transform="translate(-309.961 -162.867)" fill="#858234"/>
          <path id="Trazado_995493" data-name="Trazado 995493" d="M309.955,203.459a.4.4,0,0,1-.343-.61,136.419,136.419,0,0,1,10-14.38,100.64,100.64,0,0,1,8.8-9.7c5.162-4.953,9.03-7.378,10.354-7.968a11.29,11.29,0,0,1,8.491-.621,8.6,8.6,0,0,1,3.108,1.824.4.4,0,0,1-.572.563h0a7.974,7.974,0,0,0-2.839-1.643,10.5,10.5,0,0,0-7.862.61c-1.28.57-5.042,2.937-10.125,7.814A117.921,117.921,0,0,0,310.3,203.266.4.4,0,0,1,309.955,203.459Z" transform="translate(-309.955 -163.018)" fill="#2d201b"/>
          <path id="Trazado_995494" data-name="Trazado 995494" d="M357.537,193.638a.4.4,0,0,1-.393-.322,7.062,7.062,0,0,0-4.609-5.73,8.759,8.759,0,0,0-3.618-.451.4.4,0,0,1-.1-.8,9.416,9.416,0,0,1,3.96.479,7.855,7.855,0,0,1,5.158,6.339.4.4,0,0,1-.394.48Z" transform="translate(-310.776 -163.37)" fill="#2d201b"/>
          <path id="Trazado_995495" data-name="Trazado 995495" d="M354.213,253.743q-.345,0-.721-.012a18.412,18.412,0,0,1-7.465-1.8.371.371,0,1,1,.331-.664,18.654,18.654,0,0,0,10.486,1.542.371.371,0,1,1,.135.73A16.605,16.605,0,0,1,354.213,253.743Z" transform="translate(-310.72 -164.74)" fill="rgba(186,166,43,0.99)"/>
          <path id="Trazado_995496" data-name="Trazado 995496" d="M338.6,222.682a1.346,1.346,0,1,0-1.858.59A1.38,1.38,0,0,0,338.6,222.682Z" transform="translate(-310.506 -164.087)" fill="rgba(186,166,43,0.99)"/>
          <path id="Trazado_995497" data-name="Trazado 995497" d="M334.042,229.884a2.107,2.107,0,1,0-2.783.7A2.032,2.032,0,0,0,334.042,229.884Z" transform="translate(-310.381 -164.219)" fill="rgba(186,166,43,0.99)"/>
          <path id="Trazado_995498" data-name="Trazado 995498" d="M343.137,221.124a1.059,1.059,0,1,0-1.445.432A1.066,1.066,0,0,0,343.137,221.124Z" transform="translate(-310.614 -164.064)" fill="rgba(186,166,43,0.99)"/>
          <path id="Trazado_995499" data-name="Trazado 995499" d="M339.758,229.355a1.126,1.126,0,1,0-1.545.473A1.142,1.142,0,0,0,339.758,229.355Z" transform="translate(-310.539 -164.235)" fill="rgba(186,166,43,0.99)"/>
          <path id="Trazado_995500" data-name="Trazado 995500" d="M327.163,229.365a.955.955,0,1,0-1.311.4A.971.971,0,0,0,327.163,229.365Z" transform="translate(-310.28 -164.241)" fill="rgba(186,166,43,0.99)"/>
          <path id="Trazado_995501" data-name="Trazado 995501" d="M334.99,235.688a1.2,1.2,0,1,0-1.614.444A1.184,1.184,0,0,0,334.99,235.688Z" transform="translate(-310.436 -164.368)" fill="rgba(186,166,43,0.99)"/>
          <path id="Trazado_995502" data-name="Trazado 995502" d="M328.071,235.219a1.758,1.758,0,1,0-2.332.6A1.7,1.7,0,0,0,328.071,235.219Z" transform="translate(-310.268 -164.341)" fill="rgba(186,166,43,0.99)"/>
          <path id="Trazado_995503" data-name="Trazado 995503" d="M338.9,232a.722.722,0,1,0-.966.26A.707.707,0,0,0,338.9,232Z" transform="translate(-310.538 -164.304)" fill="rgba(186,166,43,0.99)"/>
          <path id="Trazado_995504" data-name="Trazado 995504" d="M346.293,223.459a.788.788,0,1,0-1.064.3A.782.782,0,0,0,346.293,223.459Z" transform="translate(-310.691 -164.122)" fill="rgba(186,166,43,0.99)"/>
        </g>
        <path id="Trazado_995505" data-name="Trazado 995505" d="M328.444,223.928a.707.707,0,0,1-.571-1.123c.145-.2,3.609-4.921,7.712-6.832a.707.707,0,1,1,.6,1.282c-3.775,1.757-7.132,6.335-7.165,6.381A.706.706,0,0,1,328.444,223.928Z" transform="translate(-310.345 -164.002)" fill="rgba(249,234,206,0.99)"/>
        <path id="Trazado_995506" data-name="Trazado 995506" d="M339.823,214.083l-.062,0a.737.737,0,0,1-.674-.8c.274-3.3.6-6.053,1.03-8.649a.737.737,0,0,1,1.454.241c-.423,2.556-.745,5.266-1.016,8.53A.737.737,0,0,1,339.823,214.083Z" transform="translate(-310.586 -163.751)" fill="#f9eace"/>
        <path id="Trazado_995507" data-name="Trazado 995507" d="M341.818,200.677a.738.738,0,0,1-.717-.909l.069-.286a14.6,14.6,0,0,1,2.216-5.614.737.737,0,1,1,1.17.9,13.3,13.3,0,0,0-1.952,5.061l-.069.288A.737.737,0,0,1,341.818,200.677Z" transform="translate(-310.628 -163.531)" fill="#f9eace"/>
      </g>
      <g id="Grupo_1160746" data-name="Grupo 1160746" transform="translate(278.714 141.328)">
        <path id="Trazado_995508" data-name="Trazado 995508" d="M387.977,227.088c-9.825,4.115-11.824,23.53-17.612,32.7-2.983,4.723-8.586,8.927-13.684,11.079-3.943,1.664-8.482,3.392-12.692,2.648l1.626,3.586s8.342,3.985,20,1.646c0,0,30.391-7.92,34.306-37.86-.574-7.313-4.068-12.19-10.219-14.306A9.9,9.9,0,0,0,387.977,227.088Z" transform="translate(-322.195 -201.963)" fill="#f3d46b"/>
        <path id="Trazado_995509" data-name="Trazado 995509" d="M383.171,201.432l-7.3,2.169c.782,1.139,1.5,2.308,2.4,3.408,2.774,3.37,5.091,11.373,4.824,15.586-.2,3.231-5.829,3.264-7,6.57l-42.07,46.323a32.772,32.772,0,0,0,10.11,1.9c13.224.373,23.852-7.278,27.877-10.064,7.943-5.5,17.752-18.885,19.1-24.784,2.445-10.715-.365-14.356-2.518-17.18a5.535,5.535,0,0,0-3.3-1.805,78.04,78.04,0,0,0,.341-8.081C385.569,211.77,385,205.742,383.171,201.432Z" transform="translate(-321.985 -201.432)" fill="#ebc751"/>
        <path id="Trazado_995510" data-name="Trazado 995510" d="M369.863,205.338c3.307,2.3,7.343,7.1,6.694,16.735a25.228,25.228,0,0,0-3.136-1.778c-16.838-4.648-18.257,21.753-25.313,32.928-2.983,4.724-8.594,8.934-13.692,11.086-3.942,1.664-8.479,3.391-12.69,2.647l1.627,3.588s8.341,3.98,20,1.64c0,0,37.018-9.592,34.66-47.777,0,0,4.991-10.516.341-21.59Z" transform="translate(-321.725 -201.461)" fill="#f3d46b"/>
        <path id="Trazado_995511" data-name="Trazado 995511" d="M321.823,268.433l1.626,3.586a30.249,30.249,0,0,0,9.057,2.187c-.1-.239-.4-.964-.449-1.075-.954-2.309-1.46-3.722-2.217-5.611A17.007,17.007,0,0,1,321.823,268.433Z" transform="translate(-321.727 -202.827)" fill="#5b3817"/>
        <path id="Trazado_995512" data-name="Trazado 995512" d="M321.823,268.433l1.626,3.586a30.249,30.249,0,0,0,9.057,2.187c-.1-.239-.4-.964-.449-1.075-.954-2.309-1.46-3.722-2.217-5.611A17.007,17.007,0,0,1,321.823,268.433Z" transform="translate(-321.727 -202.827)" fill="#5b3817"/>
        <path id="Trazado_995513" data-name="Trazado 995513" d="M366.789,260.253a.546.546,0,0,1-.384-.933,41.128,41.128,0,0,0,11.457-21.8,38.235,38.235,0,0,0,.54-11,.546.546,0,0,1,1.081-.152,38.519,38.519,0,0,1-.54,11.312,43.037,43.037,0,0,1-3.53,10.888,41.712,41.712,0,0,1-8.239,11.536A.544.544,0,0,1,366.789,260.253Z" transform="translate(-322.676 -201.96)" fill="#dfba42"/>
        <path id="Trazado_995514" data-name="Trazado 995514" d="M385.83,253.949a.546.546,0,0,1-.428-.884c4.287-5.437,8.475-12.084,7.034-20.163-.691-3.875-2.346-6.5-4.919-7.809a.546.546,0,1,1,.495-.973c2.894,1.471,4.744,4.361,5.5,8.591a20.085,20.085,0,0,1-1.282,11.31,39.957,39.957,0,0,1-5.969,9.721A.545.545,0,0,1,385.83,253.949Z" transform="translate(-323.078 -201.921)" fill="#dfba42"/>
        <path id="Trazado_995515" data-name="Trazado 995515" d="M373.936,267.342a.546.546,0,0,1-.194-1.056,10.256,10.256,0,0,0,3.044-2.076c.179-.156.365-.318.552-.478a29.635,29.635,0,0,0,4.32-4.341.546.546,0,1,1,.857.676,30.618,30.618,0,0,1-4.469,4.5c-.182.155-.365.315-.542.469a11.246,11.246,0,0,1-3.374,2.274A.545.545,0,0,1,373.936,267.342Z" transform="translate(-322.827 -202.663)" fill="#dfba42"/>
        <path id="Trazado_995516" data-name="Trazado 995516" d="M351,278.813a.546.546,0,0,1-.063-1.088c3.143-.372,6.935-1.227,13.354-4.936a.546.546,0,0,1,.546.945c-6.59,3.807-10.514,4.689-13.772,5.074A.554.554,0,0,1,351,278.813Z" transform="translate(-322.343 -202.949)" fill="#dfba42"/>
        <path id="Trazado_995517" data-name="Trazado 995517" d="M332.8,274.313l1.2,2.733s4.884,1.7,7.975,1.6l-.965-4.482Z" transform="translate(-321.959 -202.968)" fill="#5b3817"/>
        <path id="Trazado_995518" data-name="Trazado 995518" d="M370.073,228.52a.546.546,0,0,1-.456-.845,17.812,17.812,0,0,1,3.375-4.029,5.335,5.335,0,0,1,5.125-1.255.546.546,0,0,1-.322,1.043c-3.02-.931-5.469,2.1-7.264,4.839A.545.545,0,0,1,370.073,228.52Z" transform="translate(-322.746 -201.881)" fill="#dfba42"/>
        <path id="Trazado_995519" data-name="Trazado 995519" d="M362.961,244.479a.4.4,0,0,1-.346-.6,49.962,49.962,0,0,0,5.4-13.6.4.4,0,0,1,.786.16,50.817,50.817,0,0,1-5.493,13.847A.4.4,0,0,1,362.961,244.479Z" transform="translate(-322.596 -202.043)" fill="#2d201b"/>
        <path id="Trazado_995520" data-name="Trazado 995520" d="M340.047,268.489a.4.4,0,0,1-.091-.792,39.459,39.459,0,0,0,5.845-1.991c2.894-1.242,6.815-3.366,9.058-6.431a.4.4,0,1,1,.648.474,17.108,17.108,0,0,1-4.343,4,31.323,31.323,0,0,1-5.059,2.7,39.473,39.473,0,0,1-5.966,2.029A.4.4,0,0,1,340.047,268.489Z" transform="translate(-322.112 -202.658)" fill="#2d201b"/>
        <path id="Trazado_995521" data-name="Trazado 995521" d="M385.752,238.518a.4.4,0,0,1-.368-.56l0-.008c1.219-2.834,2.272-5.282,1.415-8.17a.4.4,0,1,1,.769-.228c.94,3.166-.166,5.738-1.447,8.715l0,.008A.4.4,0,0,1,385.752,238.518Z" transform="translate(-323.077 -202.028)" fill="#2d201b"/>
        <path id="Trazado_995522" data-name="Trazado 995522" d="M382.4,246.977a.4.4,0,0,1-.334-.624,24.028,24.028,0,0,0,1.409-2.54c.218-.433.443-.881.681-1.32a.4.4,0,0,1,.706.382c-.232.428-.454.87-.669,1.3a24.627,24.627,0,0,1-1.458,2.624A.4.4,0,0,1,382.4,246.977Z" transform="translate(-323.006 -202.303)" fill="#2d201b"/>
        <path id="Trazado_995523" data-name="Trazado 995523" d="M360.1,271.489a.4.4,0,0,1-.23-.73c2.239-1.566,4.27-3.258,6.42-5.049l.714-.594a.4.4,0,0,1,.513.617l-.713.593c-2.068,1.723-4.207,3.5-6.473,5.09A.4.4,0,0,1,360.1,271.489Z" transform="translate(-322.535 -202.783)" fill="#2d201b"/>
        <path id="Trazado_995524" data-name="Trazado 995524" d="M383.337,266.7a.4.4,0,0,1-.159-.77,10.341,10.341,0,0,0,2.424-1.771,32.1,32.1,0,0,0,5.806-7.55.4.4,0,0,1,.693.4c-4.6,7.876-8.446,9.585-8.607,9.654A.4.4,0,0,1,383.337,266.7Z" transform="translate(-323.026 -202.601)" fill="#2d201b"/>
      </g>
      <path id="Trazado_995525" data-name="Trazado 995525" d="M276.737,266.4a49.438,49.438,0,0,0,98.848,0Z" transform="translate(-42.061 -61.476)" fill="#2d201b"/>
      <path id="Trazado_995526" data-name="Trazado 995526" d="M203.777,316.4a2.2,2.2,0,1,1,1.556-.647A2.2,2.2,0,0,1,203.777,316.4Zm0-3.6a1.4,1.4,0,1,0,.988,2.384,1.385,1.385,0,0,0,.41-.986A1.4,1.4,0,0,0,203.777,312.8Z" transform="translate(-40.483 -62.447)" fill="#2d201b"/>
      <path id="Trazado_995527" data-name="Trazado 995527" d="M176.478,331.655a3.71,3.71,0,1,1,2.614-1.087A3.7,3.7,0,0,1,176.478,331.655Zm0-6.6a2.894,2.894,0,1,0,2.9,2.9A2.9,2.9,0,0,0,176.478,325.057Z" transform="translate(-39.875 -62.706)" fill="#2d201b"/>
      <g id="Grupo_1160752" data-name="Grupo 1160752" transform="translate(153.696 189.629)">
        <g id="Grupo_1160751" data-name="Grupo 1160751">
          <g id="Grupo_1160750" data-name="Grupo 1160750">
            <g id="Grupo_1160748" data-name="Grupo 1160748" transform="translate(0 11.886)">
              <g id="Grupo_1160747" data-name="Grupo 1160747">
                <path id="Trazado_995528" data-name="Trazado 995528" d="M196.608,435.7c.5.967,1,1.93,1.521,2.883l.015.026q.558,1.015,1.15,2.011,1.238,2.069,2.506,4.124,1.664,2.581,3.306,5.171a19.278,19.278,0,0,0,4.149.413l16.232.394a16.208,16.208,0,0,0-6.759-7.575,48.547,48.547,0,0,1-4.246-2.364,5.336,5.336,0,0,1-2.467-3.921,6.718,6.718,0,0,1,1.414-3.7A57.375,57.375,0,0,1,221.862,423a70.149,70.149,0,0,1-12.607-1.656c-2.225,3.071-4.772,6.363-8.537,7.235-1.3.3-2.676.285-3.975.61a12.419,12.419,0,0,0-2.732,1.122c.935,1.759,1.747,3.585,2.6,5.395" transform="translate(-194.011 -266.262)" fill="#722d14"/>
                <path id="Trazado_995529" data-name="Trazado 995529" d="M281.927,423.8c.289,1.473,2.842,9.432,3.129,10.9.077.4.155.434.063.826a3.2,3.2,0,0,1-.968,1.383,15.052,15.052,0,0,0-3.934,13.888c14.183-.509,28.385-.5,42.789.212a23.025,23.025,0,0,0-14.586-11.383c-2.529-.635-5.218-.86-7.5-2.1-3.3-1.786-5.76-10.2-6.687-13.783" transform="translate(-195.823 -266.313)" fill="#722d14"/>
                <path id="Trazado_995530" data-name="Trazado 995530" d="M218.728,443.3a48.562,48.562,0,0,1-4.246-2.364,5.336,5.336,0,0,1-2.467-3.921,5.4,5.4,0,0,1,.851-2.789,7.282,7.282,0,0,0-5.278,1.661,2.7,2.7,0,0,1-4.45-1.175,28,28,0,0,1-1.621-6.214c-.26.087-.525.166-.8.23-1.3.3-2.676.285-3.975.611a12.416,12.416,0,0,0-2.732,1.122c.934,1.758,1.746,3.584,2.6,5.393.5.967,1,1.93,1.521,2.883l.015.026q.558,1.015,1.15,2.011,1.238,2.069,2.506,4.124,1.664,2.581,3.306,5.171a19.288,19.288,0,0,0,4.149.413l16.232.394A16.2,16.2,0,0,0,218.728,443.3Z" transform="translate(-194.011 -266.413)" fill="#722d14"/>
                <path id="Trazado_995531" data-name="Trazado 995531" d="M308.42,439.895c-2.528-.635-5.218-.861-7.5-2.1a5.336,5.336,0,0,1-1.487-1.286c-.328.571-.661,1.167-1.067,1.751a8.8,8.8,0,0,1-5.531,3.918c-3.956.678-6.671-2.5-7.889-5.954a4.887,4.887,0,0,1-.791.95,15.052,15.052,0,0,0-3.934,13.888c14.183-.509,28.385-.5,42.789.212A23.031,23.031,0,0,0,308.42,439.895Z" transform="translate(-195.823 -266.576)" fill="#722d14"/>
                <path id="Trazado_995532" data-name="Trazado 995532" d="M255.593,293.151a4.8,4.8,0,0,0-3.313,3.618,8.916,8.916,0,0,0,.528,4.833c2.328,6.76,7.81,12.043,13.2,17.435a138.961,138.961,0,0,0,23.468,12.825l3.468-1.092c-4.208-2.973-7.35-7.022-11.027-10.547s-8.247-6.666-13.2-6.774a46.49,46.49,0,0,0-8.533-16.525,11.739,11.739,0,0,0-4.587-3.774" transform="translate(-195.238 -263.555)" fill="#b3502b"/>
                <path id="Trazado_995533" data-name="Trazado 995533" d="M255.593,293.151a4.8,4.8,0,0,0-3.313,3.618,8.916,8.916,0,0,0,.528,4.833c2.328,6.76,7.81,12.043,13.2,17.435a138.961,138.961,0,0,0,23.468,12.825l3.468-1.092c-4.208-2.973-7.35-7.022-11.027-10.547s-8.247-6.666-13.2-6.774a46.49,46.49,0,0,0-8.533-16.525,11.739,11.739,0,0,0-4.587-3.774" transform="translate(-195.238 -263.555)" fill="#5046b5"/>
                <path id="Trazado_995534" data-name="Trazado 995534" d="M257.875,284.575c-2.38-3.125-5.763-5.565-8.234-8.634-1.127-1.4-2.189-5.9-2.715-8.946A18.945,18.945,0,0,1,244,265.682a26.865,26.865,0,0,1-4.283-2.765c.232,2.315-.538,5.41-.833,7.39-1.839,7.9-8.3,11.69-10.608,17.622-2.443,6.285-.485,13.266,2.651,19.308s7.424,11.618,9.672,18.31c5.378.253,8.46-.064,13.824.362.913-7.151,5.859-13.388,7.1-20.5s.9-14.861-3.65-20.834" transform="translate(-194.711 -262.917)" fill="#d96e46"/>
                <path id="Trazado_995535" data-name="Trazado 995535" d="M241.342,264.982c.018.047.03.095.048.142a9.8,9.8,0,0,0,6.755,6.206c-.38-1.467-.883-5.484-1.106-6.777-1.042-.292-1.914,1.542-2.741,1.149a19.925,19.925,0,0,1-3.082-1.894C241.247,264.2,241.287,264.592,241.342,264.982Z" transform="translate(-195.008 -262.936)" fill="#b04928"/>
                <path id="Trazado_995536" data-name="Trazado 995536" d="M257.875,284.777c-1.939-2.546-4.537-4.642-6.773-6.989-3.493.718-7.685-.841-10.369-2.812a10.8,10.8,0,0,1-2.439-2.494c-2.355,6.6-7.91,10.235-10.015,15.65-2.443,6.285-.485,13.266,2.651,19.308s7.424,11.618,9.672,18.31c5.378.253,8.46-.064,13.824.362.913-7.151,5.859-13.388,7.1-20.5S262.425,290.749,257.875,284.777Z" transform="translate(-194.711 -263.119)" fill="#b04928"/>
                <path id="Trazado_995537" data-name="Trazado 995537" d="M257.875,284.727c-2.38-3.125-5.763-5.565-8.234-8.634a11.407,11.407,0,0,1-1.47-3.474,15.146,15.146,0,0,1-9.226-2.513c-.02.117-.04.241-.057.352-1.839,7.9-8.3,11.69-10.608,17.622-2.443,6.285-.485,13.266,2.651,19.308s7.424,11.618,9.672,18.31c5.378.253,8.459-.064,13.824.362.913-7.151,5.859-13.388,7.1-20.5S262.425,290.7,257.875,284.727Z" transform="translate(-194.711 -263.069)" fill="#9c8cf8"/>
                <path id="Trazado_995538" data-name="Trazado 995538" d="M239.069,322.009s-14.013,12.932-2.354,26.26l40.312,76.494,28.287-.268L263.09,341s-6.985-15.806-7.522-18.526Z" transform="translate(-194.815 -264.165)"/>
                <path id="Trazado_995539" data-name="Trazado 995539" d="M244.086,341.118,195.647,422h29.775l36.057-64.284Z" transform="translate(-194.046 -264.568)"/>
                <path id="Trazado_995540" data-name="Trazado 995540" d="M242.076,286.884a5.872,5.872,0,0,0-1.144-3.14,4.255,4.255,0,0,0-3.7-1.745,9.883,9.883,0,0,0-5.4,1.981c-7.011,4.69-11.367,12.793-15.858,20.838a1.935,1.935,0,0,0-.147.335,176.627,176.627,0,0,0-7.253,31.339,2.375,2.375,0,0,0,.32,1.522c.815,1.374,2.579,1.426,3.192.09,2.129-4.647,5.031-8.8,7.417-13.292,2.7-5.086,4.776-11.026,3.919-16.735a1.914,1.914,0,0,1,.8-1.952,53.072,53.072,0,0,0,15.31-14.395c1.156-1.621,2.076-2.673,2.545-4.845" transform="translate(-194.318 -263.32)" fill="#9c8cf8"/>
                <path id="Trazado_995541" data-name="Trazado 995541" d="M209.8,329.191s-1.449,7.815-1.753,9.505a4.7,4.7,0,0,1-.937,1.589,66.166,66.166,0,0,0-3.843,6.681c.8,1.351,1.594,2.7,2.465,3.981-.263,2.3-.491,4.78.694,6.8a8.251,8.251,0,0,0-.088-4.13,20.584,20.584,0,0,0,1.241-3.482l2.324-3.465c-.219,1.049-.636,2.048-.893,3.088a4.947,4.947,0,0,0,.09,3.156l1.35-3.424a21.931,21.931,0,0,0,1.183-3.6,10.881,10.881,0,0,0-.065-4.726c.64-2.054,4.4-8.941,5.285-10.9Z" transform="translate(-194.206 -264.316)" fill="#d96e46"/>
                <path id="Trazado_995542" data-name="Trazado 995542" d="M275.312,325.218c-.377.071,6.665-.875,6.283-.84,1.347-.124,3.855-.352,4.371.042,1.5,1.148,7.2,6.584,7.472,7.028.838-.141,1.234.336,1.928.832s1.277,1.132,1.944,1.666a8.355,8.355,0,0,0,2.9,1.508,4.377,4.377,0,0,1-2.73-.109,17.476,17.476,0,0,0-2.528-.934c.894,1.231,2.611,3.718,3.53,5.121q.461,2.11.837,4.238a5.812,5.812,0,0,1-1.9-3.519,2.79,2.79,0,0,1-1.767,2.1,8.149,8.149,0,0,1-2.81.476,3.811,3.811,0,0,1,1.987-2.639,7.15,7.15,0,0,1-5.36-6.11,1.472,1.472,0,0,0-.164-.673c-.143-.219-.882-.526-.636-.435.772.284-7.207-4.091-9.249-5.439" transform="translate(-195.727 -264.211)" fill="#b3502b"/>
                <path id="Trazado_995543" data-name="Trazado 995543" d="M224.388,448.836h-.007l-17.472-.665a.176.176,0,0,1-.146-.089l-10.732-18.8a.176.176,0,0,1,.306-.175l10.683,18.718,17.374.661a.176.176,0,0,1-.007.352Z" transform="translate(-194.057 -266.427)"/>
                <path id="Línea_1149" data-name="Línea 1149" d="M41.044.176H0A.176.176,0,0,1-.176,0,.176.176,0,0,1,0-.176H41.044A.176.176,0,0,1,41.22,0,.176.176,0,0,1,41.044.176Z" transform="translate(83.687 181.013)"/>
                <path id="Trazado_995544" data-name="Trazado 995544" d="M290.923,395.131a.235.235,0,0,1-.06-.008,39.5,39.5,0,0,1-14.052-7.242,40.51,40.51,0,0,1-5.827-5.624,31.574,31.574,0,0,1-4.265-6.459,35.34,35.34,0,0,1-.678-29.06.235.235,0,1,1,.432.186,34.807,34.807,0,0,0,.669,28.668c4.219,8.655,14.023,16.5,23.841,19.077a.235.235,0,0,1-.06.462Z" transform="translate(-195.478 -264.689)" fill="#f9ebd5"/>
                <path id="Trazado_995545" data-name="Trazado 995545" d="M205.738,419.18a9.224,9.224,0,0,1-2.876-.458,7.369,7.369,0,0,1-4.126-3.206.235.235,0,0,1,.406-.236c1.608,2.762,5.447,4.1,8.93,3.109a13.376,13.376,0,0,0,7.617-6.561,42.1,42.1,0,0,0,3.423-8.939q.121-.4.242-.808a32.989,32.989,0,0,1,4.15-9.668,36.965,36.965,0,0,1,6.739-6.747c3.3-2.776,6.408-5.4,8.009-9.183a13.389,13.389,0,0,0-5.346-16.252.235.235,0,1,1,.24-.4,13.93,13.93,0,0,1,5.539,16.84c-1.645,3.888-4.946,6.67-8.139,9.359a36.616,36.616,0,0,0-6.657,6.657,32.6,32.6,0,0,0-4.085,9.534q-.121.4-.241.808a42.452,42.452,0,0,1-3.465,9.038,13.838,13.838,0,0,1-7.9,6.78A9.025,9.025,0,0,1,205.738,419.18Z" transform="translate(-194.115 -264.967)" fill="#f9ebd5"/>
                <path id="Trazado_995546" data-name="Trazado 995546" d="M278.629,424.73a.235.235,0,0,1-.219-.32,20.3,20.3,0,0,0-16.423-27.5.235.235,0,1,1,.058-.466,20.845,20.845,0,0,1,16.8,28.141A.235.235,0,0,1,278.629,424.73Z" transform="translate(-195.447 -265.741)" fill="#f9ebd5"/>
                <path id="Trazado_995547" data-name="Trazado 995547" d="M223.252,317.583l-.435-.208c1.153-2.411.953-7.239.813-9.2a2.267,2.267,0,0,1,1.044-2.072c3.643-2.331,11.131-9.445,11.206-9.517l.333.349c-.076.072-7.6,7.217-11.279,9.574a1.785,1.785,0,0,0-.822,1.632C224.287,310.625,224.411,315.159,223.252,317.583Z" transform="translate(-194.624 -263.631)" fill="#2d201b"/>
                <path id="Línea_1150" data-name="Línea 1150" d="M3.505,11.348a.176.176,0,0,1-.168-.124L-.168.053A.176.176,0,0,1-.053-.168a.176.176,0,0,1,.221.115L3.674,11.119a.176.176,0,0,1-.168.229Z" transform="translate(91.733 158.113)"/>
                <path id="Trazado_995548" data-name="Trazado 995548" d="M291.182,438.78a1.417,1.417,0,0,1-1.357-.99l-4.6-14.429a1.423,1.423,0,0,1,.922-1.785l1.574-.5a1.422,1.422,0,0,1,1.785.923l4.6,14.43a1.423,1.423,0,0,1-.922,1.784l-1.574.5A1.413,1.413,0,0,1,291.182,438.78Zm-3.031-17.4a1.04,1.04,0,0,0-.315.049l-1.574.5a1.049,1.049,0,0,0-.679,1.316l4.6,14.429a1.058,1.058,0,0,0,1,.729,1.04,1.04,0,0,0,.315-.049l1.574-.5a1.049,1.049,0,0,0,.679-1.315l-4.6-14.43A1.046,1.046,0,0,0,288.151,421.382Z" transform="translate(-195.939 -266.259)"/>
              </g>
              <path id="Línea_1151" data-name="Línea 1151" d="M0,9.325a.175.175,0,0,1-.11-.039.176.176,0,0,1-.028-.248L7.17-.11a.176.176,0,0,1,.248-.028A.176.176,0,0,1,7.445.11L.138,9.259A.176.176,0,0,1,0,9.325Z" transform="translate(10.731 156.778)"/>
              <path id="Trazado_995549" data-name="Trazado 995549" d="M204.7,435.622a1.424,1.424,0,0,1-.88-.305l-1.3-1.025a1.423,1.423,0,0,1-.232-2l9.4-11.875a1.423,1.423,0,0,1,2-.232l1.3,1.025a1.424,1.424,0,0,1,.232,2l-9.4,11.876A1.414,1.414,0,0,1,204.7,435.622Zm8.107-15.365a1.042,1.042,0,0,0-.823.4l-9.4,11.875a1.048,1.048,0,0,0,.171,1.471l1.3,1.025a1.051,1.051,0,0,0,1.47-.17l9.4-11.876a1.05,1.05,0,0,0-.171-1.471l-1.3-1.025A1.034,1.034,0,0,0,212.809,420.257Z" transform="translate(-194.183 -266.235)"/>
            </g>
            <g id="Grupo_1160749" data-name="Grupo 1160749" transform="translate(38.688)">
              <path id="Trazado_995550" data-name="Trazado 995550" d="M251.9,262.6a1.067,1.067,0,0,1,.127,1.337c-.014.019-.027.035-.042.052,0,.492-.066,1.044-.108,1.574a.736.736,0,0,1-.733.7l-6.4-.212a5.909,5.909,0,0,1-2.445-.58c-1.389-.692-1.352-2.165-2.3-3.127-1.741-1.76-4.32-3.212-4.2-5.782a6.5,6.5,0,0,1,.078-.761,5.791,5.791,0,0,1,5.788-4.993l7.116.235a2.618,2.618,0,0,1,1.924,1.068,4.389,4.389,0,0,1,.62,2.387c.017.909-.379,1.8-.274,2.7a3.716,3.716,0,0,0,.4,1.448,1.381,1.381,0,0,0,1.156.755c-.257.43-.5.942-.758,1.371a1.791,1.791,0,0,0,.346.709.656.656,0,0,0,.108.083A1.455,1.455,0,0,1,251.9,262.6Z" transform="translate(-233.581 -250.776)" fill="#e0714a"/>
              <path id="Trazado_995551" data-name="Trazado 995551" d="M238.785,265.983c.3.362.61.709.927,1.048a15.664,15.664,0,0,0,.066-4.3c-.929.154-1.062-.305-1.7-.972a2.662,2.662,0,0,1-.638-2.521,1.921,1.921,0,0,1,1.1-1.3c.952-.361,2.627.133,2.587,1.112a1.726,1.726,0,0,0,2.084,1.915l-.276-2.908c1.045-.068,1.605-.7,1.286-1.653a5.244,5.244,0,0,0,4.342-1.755c1.034-1.212,1.82-2.376,1.355-3.875l-14.268.065C229.872,250.867,237.617,264.567,238.785,265.983Z" transform="translate(-233.533 -250.775)" fill="#2d201b"/>
              <path id="Trazado_995552" data-name="Trazado 995552" d="M241.548,260.683a2.424,2.424,0,1,1-2.379-2.889A2.671,2.671,0,0,1,241.548,260.683Z" transform="translate(-233.602 -250.923)" fill="#e0714a"/>
              <path id="Trazado_995553" data-name="Trazado 995553" d="M239.788,261.741a.07.07,0,0,1-.044-.015,1.5,1.5,0,0,1-.643-1.021.849.849,0,0,1,.269-.666.628.628,0,0,1,.4-.177,1,1,0,0,0-.483-.541.983.983,0,0,0-.808-.073.07.07,0,0,1-.05-.131,1.177,1.177,0,0,1,1.5.8.07.07,0,0,1-.078.085.47.47,0,0,0-.39.136.716.716,0,0,0-.224.554,1.413,1.413,0,0,0,.591.921.07.07,0,0,1-.044.125Z" transform="translate(-233.637 -250.951)" fill="#472a1c"/>
            </g>
          </g>
          <path id="Trazado_995554" data-name="Trazado 995554" d="M249.514,260.181a1.741,1.741,0,0,1-.251-.018,2.1,2.1,0,0,1-1.484-1.047.121.121,0,1,1,.209-.12,1.877,1.877,0,0,0,1.31.928,1.5,1.5,0,0,0,1.435-.595.121.121,0,1,1,.2.137A1.731,1.731,0,0,1,249.514,260.181Z" transform="translate(-195.148 -250.95)" fill="#2d201b"/>
          <path id="Trazado_995555" data-name="Trazado 995555" d="M252.193,263.035h-.008a2.383,2.383,0,0,1-1.685-.879.121.121,0,1,1,.189-.15,2.137,2.137,0,0,0,1.512.789.121.121,0,0,1-.008.241Z" transform="translate(-195.206 -251.014)" fill="#2d201b"/>
        </g>
        <path id="Trazado_995556" data-name="Trazado 995556" d="M239.8,335.114h-4a8.5,8.5,0,0,1-8.5-8.5h0a8.5,8.5,0,0,1,8.5-8.5h4a8.5,8.5,0,0,1,8.5,8.5h0A8.5,8.5,0,0,1,239.8,335.114Z" transform="translate(-194.714 -252.197)" fill="#722d14"/>
        <path id="Trazado_995557" data-name="Trazado 995557" d="M240.785,321.039a1,1,0,0,1-.887-1.46,112.377,112.377,0,0,0,5.781-14.036c2.545-7.52,5.428-18.658,4.713-29.019a1,1,0,1,1,2-.138,63.229,63.229,0,0,1-1.078,15.665,102.1,102.1,0,0,1-3.747,14.166,114.385,114.385,0,0,1-5.889,14.282A1,1,0,0,1,240.785,321.039Z" transform="translate(-194.999 -251.317)" fill="#722d14"/>
        <path id="Trazado_995558" data-name="Trazado 995558" d="M236.325,328.473a11.467,11.467,0,0,1-5.783-1.763,14.757,14.757,0,0,1-2.8-2.156l.348-.334A14.572,14.572,0,0,0,230.8,326.3a10.484,10.484,0,0,0,6.444,1.634c3.187-.366,6.033-2.611,8.459-6.674l.414.247c-2.508,4.2-5.476,6.524-8.822,6.907A8.571,8.571,0,0,1,236.325,328.473Z" transform="translate(-194.727 -252.266)" fill="#2d201b"/>
        <path id="Trazado_995559" data-name="Trazado 995559" d="M235.037,326.267a1.641,1.641,0,1,1,1.641-1.641A1.643,1.643,0,0,1,235.037,326.267Zm0-2.8a1.159,1.159,0,1,0,1.159,1.159A1.16,1.16,0,0,0,235.037,323.467Z" transform="translate(-194.848 -252.305)" fill="#2d201b"/>
        <circle id="Elipse_11572" data-name="Elipse 11572" cx="5.698" cy="5.698" r="5.698" transform="translate(29.992 1.943)" fill="#2d201b"/>
      </g>
      <path id="Trazado_995560" data-name="Trazado 995560" d="M398.216,155.533a2.7,2.7,0,1,1,2.7-2.7A2.7,2.7,0,0,1,398.216,155.533Zm0-4.4a1.7,1.7,0,1,0,1.7,1.7A1.7,1.7,0,0,0,398.216,151.134Z" transform="translate(-44.58 -59.032)" fill="#2d201b"/>
    </g>
  </g>
</svg>
