<svg xmlns="http://www.w3.org/2000/svg" xmlns:xlink="http://www.w3.org/1999/xlink" width="505" height="324" viewBox="0 0 505 324">
  <defs>
    <clipPath id="clip-path">
      <rect id="Rectángulo_412951" data-name="Rectángulo 412951" width="505" height="324" transform="translate(915 2811)" fill="#fff" opacity="0.72"/>
    </clipPath>
    <clipPath id="clip-path-2">
      <circle id="Elipse_11592" data-name="Elipse 11592" cx="165.497" cy="165.497" r="165.497" fill="#41a599"/>
    </clipPath>
    <clipPath id="clip-path-3">
      <circle id="Elipse_11593" data-name="Elipse 11593" cx="165.497" cy="165.497" r="165.497"/>
    </clipPath>
    <clipPath id="clip-path-4">
      <path id="Trazado_996707" data-name="Trazado 996707" d="M52.679,61.288V392.282H383.674V61.288" transform="translate(-52.679 -61.288)" opacity="0.3"/>
    </clipPath>
    <clipPath id="clip-path-11">
      <rect id="Rectángulo_412953" data-name="Rectángulo 412953" width="61.404" height="52.074" transform="matrix(-0.826, -0.564, 0.564, -0.826, 50.724, 77.622)"/>
    </clipPath>
    <clipPath id="clip-path-13">
      <path id="Trazado_996740" data-name="Trazado 996740" d="M408.619,61.288v55.606h-61.4v52.072h61.4V392.282H255.136V61.288Z" transform="translate(-255.136 -61.288)"/>
    </clipPath>
  </defs>
  <g id="Enmascarar_grupo_1098783" data-name="Enmascarar grupo 1098783" transform="translate(-915 -2811)" clip-path="url(#clip-path)">
    <g id="Grupo_1161334" data-name="Grupo 1161334" transform="translate(969 2811.305)">
      <g id="Grupo_1161272" data-name="Grupo 1161272" transform="translate(0 0)">
        <g id="Grupo_1161265" data-name="Grupo 1161265" transform="translate(282.663 270.441)" opacity="0.2">
          <path id="Trazado_996697" data-name="Trazado 996697" d="M89.134,1301.33l3.5,12.171a39.964,39.964,0,0,1,9.084,3.7l11.211-6.157,10.022,9.893L116.711,1332a38.885,38.885,0,0,1,3.749,8.968l12.329,3.452v14.021L120.46,1361.9a38.9,38.9,0,0,1-3.749,8.968l6.237,11.067-10.022,9.893-11.211-6.156a39.925,39.925,0,0,1-9.084,3.7l-3.5,12.171H74.93l-3.5-12.171a39.931,39.931,0,0,1-9.084-3.7l-11.211,6.156-10.021-9.893,6.237-11.067A38.849,38.849,0,0,1,43.6,1361.9l-12.329-3.452v-14.021l12.329-3.452a38.862,38.862,0,0,1,3.749-8.968l-6.237-11.067,10.021-9.893,11.211,6.157a39.92,39.92,0,0,1,9.084-3.7l3.5-12.171h14.2Zm-7.1,23.919a26.186,26.186,0,1,0,26.524,26.184A26.41,26.41,0,0,0,82.032,1325.249Z" transform="translate(-31.276 -1301.33)" fill="#28965a"/>
        </g>
        <g id="Grupo_1161266" data-name="Grupo 1161266" transform="translate(0 258.697)" opacity="0.3">
          <path id="Trazado_996698" data-name="Trazado 996698" d="M444.329,1287.21l2.662,9.266a30.392,30.392,0,0,1,6.915,2.818l8.535-4.687,7.629,7.532-4.748,8.426a29.611,29.611,0,0,1,2.854,6.827l9.386,2.628v10.674l-9.386,2.628a29.569,29.569,0,0,1-2.854,6.827l4.748,8.426-7.629,7.532-8.535-4.687a30.407,30.407,0,0,1-6.915,2.818l-2.662,9.266H433.516l-2.662-9.266a30.392,30.392,0,0,1-6.915-2.818l-8.535,4.687-7.629-7.532,4.748-8.426a29.576,29.576,0,0,1-2.854-6.827l-9.386-2.628V1320.02l9.386-2.628a29.572,29.572,0,0,1,2.854-6.827l-4.748-8.426,7.629-7.532,8.535,4.687a30.407,30.407,0,0,1,6.915-2.818l2.662-9.266Zm-5.406,18.214a19.935,19.935,0,1,0,20.192,19.934A20.106,20.106,0,0,0,438.923,1305.424Z" transform="translate(-400.283 -1287.21)" fill="none" stroke="#28965a" stroke-miterlimit="10" stroke-width="1"/>
        </g>
        <g id="Grupo_1161267" data-name="Grupo 1161267" transform="translate(23.656 2.765)" opacity="0.2">
          <path id="Trazado_996699" data-name="Trazado 996699" d="M405.6,979.482l3.222,11.214a36.805,36.805,0,0,1,8.371,3.411l10.33-5.673,9.234,9.116-5.747,10.2a35.858,35.858,0,0,1,3.455,8.264l11.36,3.181v12.919l-11.36,3.181a35.8,35.8,0,0,1-3.455,8.264l5.747,10.2-9.234,9.116L417.2,1057.2a36.758,36.758,0,0,1-8.371,3.41l-3.222,11.214H392.515l-3.222-11.214a36.836,36.836,0,0,1-8.371-3.41l-10.33,5.673-9.234-9.116,5.747-10.2a35.791,35.791,0,0,1-3.455-8.264l-11.36-3.18v-12.919l11.36-3.181a35.785,35.785,0,0,1,3.455-8.264l-5.747-10.2,9.234-9.116,10.33,5.673a36.808,36.808,0,0,1,8.371-3.411l3.222-11.214H405.6Zm-6.544,22.046a24.129,24.129,0,1,0,24.441,24.127A24.335,24.335,0,0,0,399.059,1001.528Z" transform="translate(-352.29 -979.482)" fill="#28965a"/>
        </g>
        <g id="Grupo_1161268" data-name="Grupo 1161268" transform="translate(293.796 29.685)" opacity="0.3">
          <path id="Trazado_996700" data-name="Trazado 996700" d="M78.4,1011.85l3.353,11.669a38.326,38.326,0,0,1,8.709,3.548l10.749-5.9,9.608,9.485-5.979,10.611a37.247,37.247,0,0,1,3.595,8.6l11.82,3.309v13.443l-11.82,3.309a37.267,37.267,0,0,1-3.595,8.6l5.979,10.611-9.608,9.485-10.749-5.9a38.294,38.294,0,0,1-8.709,3.548L78.4,1107.926H64.779l-3.353-11.669a38.3,38.3,0,0,1-8.709-3.548l-10.749,5.9-9.608-9.485,5.979-10.611a37.266,37.266,0,0,1-3.595-8.6l-11.82-3.309v-13.443l11.82-3.309a37.264,37.264,0,0,1,3.595-8.6l-5.979-10.611,9.608-9.485,10.749,5.9a38.258,38.258,0,0,1,8.709-3.548l3.353-11.669Zm-6.809,22.938a25.106,25.106,0,1,0,25.43,25.1A25.32,25.32,0,0,0,71.587,1034.788Z" transform="translate(-22.925 -1011.85)" fill="none" stroke="#28965a" stroke-miterlimit="10" stroke-width="1"/>
        </g>
        <g id="Grupo_1161269" data-name="Grupo 1161269" transform="translate(92.369 327.893)" opacity="0.2">
          <path id="Trazado_996701" data-name="Trazado 996701" d="M347.939,1370.41l1.863,6.483a21.291,21.291,0,0,1,4.84,1.971l5.972-3.279,5.339,5.27-3.322,5.9a20.658,20.658,0,0,1,2,4.777l6.567,1.839v7.469l-6.567,1.839a20.714,20.714,0,0,1-2,4.777l3.322,5.9-5.339,5.27-5.972-3.279a21.311,21.311,0,0,1-4.84,1.972l-1.863,6.483h-7.566l-1.863-6.483a21.238,21.238,0,0,1-4.84-1.972l-5.972,3.279-5.339-5.27,3.322-5.9a20.662,20.662,0,0,1-2-4.777l-6.567-1.839v-7.469l6.567-1.839a20.73,20.73,0,0,1,2-4.777l-3.322-5.9,5.339-5.27,5.972,3.279a21.275,21.275,0,0,1,4.84-1.971l1.863-6.483Zm-3.783,12.741a13.949,13.949,0,1,0,14.129,13.948A14.069,14.069,0,0,0,344.157,1383.151Z" transform="translate(-317.118 -1370.41)" fill="#28965a"/>
        </g>
        <g id="Grupo_1161270" data-name="Grupo 1161270" transform="translate(228.19)" opacity="0.2">
          <path id="Trazado_996702" data-name="Trazado 996702" d="M184.631,976.157l1.863,6.483a21.238,21.238,0,0,1,4.839,1.972l5.972-3.279,5.339,5.27-3.322,5.9a20.661,20.661,0,0,1,2,4.777l6.567,1.839v7.469l-6.567,1.839a20.736,20.736,0,0,1-2,4.777l3.322,5.9-5.339,5.27-5.972-3.279a21.326,21.326,0,0,1-4.839,1.972l-1.863,6.483h-7.566l-1.863-6.483a21.232,21.232,0,0,1-4.839-1.972l-5.972,3.279-5.339-5.27,3.322-5.9a20.659,20.659,0,0,1-2-4.777l-6.567-1.839v-7.469l6.567-1.839a20.732,20.732,0,0,1,2-4.777l-3.322-5.9,5.339-5.27,5.972,3.279a21.315,21.315,0,0,1,4.839-1.972l1.863-6.483ZM180.848,988.9a13.949,13.949,0,1,0,14.129,13.948A14.069,14.069,0,0,0,180.848,988.9Z" transform="translate(-153.811 -976.157)" fill="#28965a"/>
        </g>
        <g id="Grupo_1161271" data-name="Grupo 1161271" transform="translate(343.828 212.705)" opacity="0.3">
          <path id="Trazado_996703" data-name="Trazado 996703" d="M45.589,1231.91l1.863,6.483a21.291,21.291,0,0,1,4.84,1.971l5.972-3.279,5.339,5.27-3.322,5.9a20.657,20.657,0,0,1,2,4.777l6.567,1.839v7.469l-6.567,1.839a20.734,20.734,0,0,1-2,4.777l3.322,5.9-5.339,5.27-5.972-3.279a21.311,21.311,0,0,1-4.84,1.972l-1.863,6.483H38.024l-1.863-6.483a21.232,21.232,0,0,1-4.839-1.972l-5.972,3.279-5.339-5.27,3.322-5.9a20.661,20.661,0,0,1-2-4.777l-6.567-1.839v-7.469l6.567-1.839a20.693,20.693,0,0,1,2-4.777l-3.322-5.9,5.339-5.27,5.972,3.279a21.284,21.284,0,0,1,4.839-1.971l1.863-6.483Zm-3.782,12.75a13.949,13.949,0,1,0,14.129,13.948A14.069,14.069,0,0,0,41.807,1244.66Z" transform="translate(-14.769 -1231.91)" fill="none" stroke="#28965a" stroke-miterlimit="10" stroke-width="1"/>
        </g>
      </g>
      <g id="OBJECTS" transform="translate(21.16 16.961)">
        <g id="Grupo_1161332" data-name="Grupo 1161332">
          <circle id="Elipse_11590" data-name="Elipse 11590" cx="179.717" cy="179.717" r="179.717" fill="none" stroke="#28965a" stroke-miterlimit="10" stroke-width="0.778" stroke-dasharray="1.592"/>
          <circle id="Elipse_11591" data-name="Elipse 11591" cx="172.201" cy="172.201" r="172.201" transform="translate(7.517 7.517)" fill="#6bffb8"/>
          <g id="Grupo_1161305" data-name="Grupo 1161305" transform="translate(14.22 14.22)">
            <g id="Grupo_1161273" data-name="Grupo 1161273" clip-path="url(#clip-path-2)">
              <rect id="Rectángulo_412952" data-name="Rectángulo 412952" width="330.994" height="330.994" transform="translate(0.001 0.001)" fill="#2ceaa3"/>
            </g>
            <g id="Grupo_1161280" data-name="Grupo 1161280" opacity="0.3" clip-path="url(#clip-path-3)">
              <g id="Grupo_1161274" data-name="Grupo 1161274" transform="translate(0 0.001)" clip-path="url(#clip-path-4)">
                <path id="Trazado_996704" data-name="Trazado 996704" d="M212.689,17.861h-41.7L150.132,53.978,170.985,90.1h41.7l20.853-36.117Z" transform="translate(16.402 -53.978)" fill="#28965a"/>
                <path id="Trazado_996705" data-name="Trazado 996705" d="M209.74,28.18H177.946l-15.9,27.535,15.9,27.535H209.74l15.9-27.535Z" transform="translate(14.397 -55.715)" fill="#28965a"/>
                <path id="Trazado_996706" data-name="Trazado 996706" d="M206.219,40.5H186.254l-9.982,17.291,9.982,17.29h19.965l9.983-17.29Z" transform="translate(12.003 -57.789)" fill="#28965a"/>
              </g>
              <g id="Grupo_1161275" data-name="Grupo 1161275" transform="translate(0 0.001)" clip-path="url(#clip-path-4)">
                <path id="Trazado_996708" data-name="Trazado 996708" d="M214.911,415.842H173.206l-20.853,36.117,20.853,36.117h41.706l20.852-36.117Z" transform="translate(12.334 -120.966)" fill="none" stroke="#28965a" stroke-miterlimit="10" stroke-width="0.796"/>
                <path id="Trazado_996709" data-name="Trazado 996709" d="M211.961,426.161h-31.8l-15.9,27.535,15.9,27.534h31.8l15.9-27.534Z" transform="translate(10.329 -122.703)" fill="none" stroke="#28965a" stroke-miterlimit="10" stroke-width="0.796"/>
                <path id="Trazado_996710" data-name="Trazado 996710" d="M208.441,438.48H188.476l-9.983,17.29,9.983,17.29h19.965l9.982-17.29Z" transform="translate(7.934 -124.776)" fill="none" stroke="#28965a" stroke-miterlimit="10" stroke-width="0.796"/>
              </g>
              <g id="Grupo_1161276" data-name="Grupo 1161276" transform="translate(0 0.001)" clip-path="url(#clip-path-4)">
                <path id="Trazado_996712" data-name="Trazado 996712" d="M87.288,302.3h-41.7L24.731,338.414l20.853,36.117h41.7l20.853-36.117Z" transform="translate(246.097 -101.854)" fill="#28965a"/>
                <path id="Trazado_996713" data-name="Trazado 996713" d="M84.338,312.616H52.544l-15.9,27.535,15.9,27.534H84.338l15.9-27.534Z" transform="translate(244.092 -103.591)" fill="#28965a"/>
                <path id="Trazado_996714" data-name="Trazado 996714" d="M80.818,324.935H60.854l-9.983,17.29,9.983,17.29H80.818l9.983-17.29Z" transform="translate(241.697 -105.664)" fill="#28965a"/>
              </g>
              <g id="Grupo_1161277" data-name="Grupo 1161277" transform="translate(0 0.001)" clip-path="url(#clip-path-4)">
                <path id="Trazado_996716" data-name="Trazado 996716" d="M174.919,160.246H156.148L146.762,176.5l9.386,16.257h18.771L184.3,176.5Z" transform="translate(68.442 -77.944)" fill="none" stroke="#28965a" stroke-miterlimit="10" stroke-width="0.796"/>
                <path id="Trazado_996717" data-name="Trazado 996717" d="M172.432,168.95H162.019l-5.206,9.017,5.206,9.018h10.413l5.205-9.018Z" transform="translate(66.751 -79.409)" fill="none" stroke="#28965a" stroke-miterlimit="10" stroke-width="0.796"/>
              </g>
              <g id="Grupo_1161278" data-name="Grupo 1161278" transform="translate(0 0.001)" clip-path="url(#clip-path-4)">
                <path id="Trazado_996719" data-name="Trazado 996719" d="M458.272,238.64H432.7l-12.786,22.148L432.7,282.935h25.573l12.786-22.147Z" transform="translate(-445.485 -91.139)" fill="none" stroke="#28965a" stroke-miterlimit="10" stroke-width="0.796"/>
                <path id="Trazado_996720" data-name="Trazado 996720" d="M454.883,250.5H440.7l-7.093,12.285,7.093,12.284h14.185l7.093-12.284Z" transform="translate(-447.79 -93.136)" fill="none" stroke="#28965a" stroke-miterlimit="10" stroke-width="0.796"/>
              </g>
              <g id="Grupo_1161279" data-name="Grupo 1161279" transform="translate(0 0.001)" clip-path="url(#clip-path-4)">
                <path id="Trazado_996722" data-name="Trazado 996722" d="M226.323,237.312H200.749l-12.786,22.147,12.786,22.147h25.573l12.786-22.147Z" transform="translate(-20.628 -90.916)" fill="#28965a"/>
                <path id="Trazado_996723" data-name="Trazado 996723" d="M222.934,249.17H208.749l-7.093,12.285,7.093,12.285h14.185l7.092-12.285Z" transform="translate(-22.932 -92.912)" fill="#28965a"/>
              </g>
            </g>
            <g id="Grupo_1161333" data-name="Grupo 1161333">
              <g id="Grupo_1161290" data-name="Grupo 1161290" clip-path="url(#clip-path-3)">
                <g id="Grupo_1161284" data-name="Grupo 1161284" transform="translate(142.911 50.769)">
                  <g id="Grupo_1161281" data-name="Grupo 1161281" transform="translate(0 0)" clip-path="url(#clip-path-11)">
                    <path id="Trazado_996725" data-name="Trazado 996725" d="M152.45,203.274a69.912,69.912,0,0,0,97.041-18.333l56.151-82.308-6.562-4.477-56.151,82.308a61.958,61.958,0,0,1-86,16.248Z" transform="translate(-200.536 -118.262)" fill="#2a6041"/>
                  </g>
                  <g id="Grupo_1161283" data-name="Grupo 1161283" transform="translate(0 0)" clip-path="url(#clip-path-11)">
                    <g id="Grupo_1161282" data-name="Grupo 1161282" transform="translate(-64.087 -76.527)">
                      <path id="Trazado_996726" data-name="Trazado 996726" d="M178.568,34.05,263.509,92a2.046,2.046,0,0,0,2.842-.536h0a2.045,2.045,0,0,0-.537-2.842L180.873,30.672a2.046,2.046,0,0,0-2.842.536h0A2.045,2.045,0,0,0,178.568,34.05Z" transform="translate(-118.492 -30.316)" fill="#2a6041"/>
                      <path id="Trazado_996727" data-name="Trazado 996727" d="M187,46.409l84.941,57.947a2.045,2.045,0,0,0,2.842-.537h0a2.046,2.046,0,0,0-.536-2.842L189.3,43.03a2.045,2.045,0,0,0-2.842.537h0A2.044,2.044,0,0,0,187,46.409Z" transform="translate(-133.935 -32.396)" fill="#28965a"/>
                      <path id="Trazado_996728" data-name="Trazado 996728" d="M195.431,58.768l84.941,57.947a2.045,2.045,0,0,0,2.841-.536h0a2.046,2.046,0,0,0-.536-2.842L197.736,55.39a2.046,2.046,0,0,0-2.842.536h0A2.045,2.045,0,0,0,195.431,58.768Z" transform="translate(-149.379 -34.477)" fill="#2ceaa3"/>
                      <path id="Trazado_996729" data-name="Trazado 996729" d="M203.862,71.126,288.8,129.073a2.045,2.045,0,0,0,2.842-.537h0a2.045,2.045,0,0,0-.537-2.842L206.166,67.747a2.045,2.045,0,0,0-2.842.537h0A2.047,2.047,0,0,0,203.862,71.126Z" transform="translate(-164.822 -36.557)" fill="#2a6041"/>
                      <path id="Trazado_996730" data-name="Trazado 996730" d="M212.292,132.156l25.6,17.468a2.046,2.046,0,0,0,2.842-.536h0a2.046,2.046,0,0,0-.536-2.842L214.6,128.778a2.045,2.045,0,0,0-2.842.537h0A2.043,2.043,0,0,0,212.292,132.156Z" transform="translate(-120.928 -46.829)" fill="none" stroke="#28965a" stroke-miterlimit="10" stroke-width="0.796"/>
                      <path id="Trazado_996731" data-name="Trazado 996731" d="M220.723,144.515l25.6,17.468a2.045,2.045,0,0,0,2.842-.537h0a2.046,2.046,0,0,0-.536-2.842l-25.605-17.468a2.045,2.045,0,0,0-2.842.537h0A2.044,2.044,0,0,0,220.723,144.515Z" transform="translate(-136.371 -48.909)" fill="#fff"/>
                      <path id="Trazado_996732" data-name="Trazado 996732" d="M229.154,156.874l25.605,17.468a2.046,2.046,0,0,0,2.842-.536h0a2.046,2.046,0,0,0-.536-2.842l-25.6-17.468a2.045,2.045,0,0,0-2.842.537h0A2.043,2.043,0,0,0,229.154,156.874Z" transform="translate(-151.814 -50.99)" fill="#2a6041"/>
                      <path id="Trazado_996733" data-name="Trazado 996733" d="M237.586,169.233l25.6,17.468a2.045,2.045,0,0,0,2.842-.537h0a2.045,2.045,0,0,0-.537-2.842l-25.6-17.468a2.046,2.046,0,0,0-2.842.536h0A2.048,2.048,0,0,0,237.586,169.233Z" transform="translate(-167.258 -53.07)" fill="none" stroke="#28965a" stroke-miterlimit="10" stroke-width="0.796"/>
                      <path id="Trazado_996734" data-name="Trazado 996734" d="M246.018,132.92l84.941,57.947a2.045,2.045,0,0,0,2.841-.536h0a2.046,2.046,0,0,0-.536-2.842l-84.941-57.947a2.046,2.046,0,0,0-2.842.536h0A2.045,2.045,0,0,0,246.018,132.92Z" transform="translate(-242.038 -46.958)" fill="#2ceaa3"/>
                      <path id="Trazado_996735" data-name="Trazado 996735" d="M261.023,149.765l74,50.485a2.046,2.046,0,0,0,2.842-.536h0a2.045,2.045,0,0,0-.537-2.842l-74-50.485a2.045,2.045,0,0,0-2.842.537h0A2.044,2.044,0,0,0,261.023,149.765Z" transform="translate(-258.587 -49.793)" fill="#2a6041"/>
                      <path id="Trazado_996736" data-name="Trazado 996736" d="M276.03,166.609,339.1,209.633a2.046,2.046,0,0,0,2.842-.536h0a2.046,2.046,0,0,0-.536-2.842l-63.066-43.024a2.046,2.046,0,0,0-2.842.536h0A2.044,2.044,0,0,0,276.03,166.609Z" transform="translate(-275.137 -52.628)" fill="#28965a"/>
                      <path id="Trazado_996737" data-name="Trazado 996737" d="M304.187,192.425l30.255,20.64a2.046,2.046,0,0,0,2.842-.536h0a2.045,2.045,0,0,0-.536-2.841l-30.255-20.64a2.046,2.046,0,0,0-2.842.536h0A2.043,2.043,0,0,0,304.187,192.425Z" transform="translate(-293.901 -56.974)" fill="#2ceaa3"/>
                    </g>
                  </g>
                </g>
                <g id="Grupo_1161289" data-name="Grupo 1161289" transform="translate(9.132 0.001)">
                  <g id="Grupo_1161285" data-name="Grupo 1161285" clip-path="url(#clip-path-13)">
                    <path id="Trazado_996738" data-name="Trazado 996738" d="M263.63,392.282h7.943V292.644a61.957,61.957,0,0,1,61.887-61.887,69.912,69.912,0,0,0,69.832-69.832V61.287h-7.944v99.638a61.958,61.958,0,0,1-61.887,61.888,69.911,69.911,0,0,0-69.832,69.831v99.637Z" transform="translate(-256.873 -61.288)" fill="#2a6041"/>
                    <path id="Trazado_996739" data-name="Trazado 996739" d="M395.347,392.282h7.944v-1.1h-7.944Zm0-2.42h7.944v-1.324h-7.944Zm0-2.648h7.944v-1.324h-7.944Zm0-2.648h7.944v-1.324h-7.944Zm0-2.648h7.944v-1.324h-7.944Zm0-2.647h7.944v-1.324h-7.944Zm0-2.648h7.944V375.3h-7.944Zm0-2.648h7.944V372.65h-7.944Zm0-2.648h7.944V370h-7.944Zm0-2.648h7.944v-1.324h-7.944Zm0-2.648h7.944v-1.324h-7.944Zm0-2.647h7.944v-1.324h-7.944Zm0-2.648h7.944V359.41h-7.944Zm0-2.648h7.944v-1.324h-7.944Zm0-2.648h7.944v-1.324h-7.944Zm0-2.648h7.944v-1.324h-7.944Zm0-2.648h7.944v-1.324h-7.944Zm0-2.648h7.944V346.17h-7.944Zm0-2.648h7.944v-1.324h-7.944Zm0-2.647h7.944v-1.324h-7.944Zm0-2.648h7.944v-1.324h-7.944Zm0-2.648h7.944v-1.324h-7.944Zm0-2.648h7.944V332.93h-7.944Zm0-2.648h7.944v-1.324h-7.944Zm0-2.648h7.944v-1.324h-7.944Zm0-2.647h7.944v-1.324h-7.944Zm0-2.648h7.944v-1.324h-7.944Zm0-2.648h7.944v-1.324h-7.944Zm0-2.648h7.944v-1.324h-7.944Zm0-2.648h7.944v-1.324h-7.944Zm0-2.648h7.944v-1.324h-7.944Zm0-2.647h7.944V309.1h-7.944Zm0-2.648h7.944v-1.324h-7.944Zm0-2.648h7.944V303.8h-7.944Zm0-2.648h7.944v-1.324h-7.944Zm0-2.648h7.944v-1.324h-7.944Zm0-2.648h7.944v-1.324h-7.944Zm0-2.648h7.944v-1.324h-7.944Zm-.005-2.6,7.944-.093q-.009-.7-.03-1.4l-7.94.245Q395.337,291.309,395.342,291.933Zm-.077-2.488,7.933-.406q-.036-.7-.085-1.4l-7.924.56Q395.234,288.822,395.266,289.446Zm-.176-2.484,7.912-.72q-.064-.7-.141-1.395l-7.9.875Q395.033,286.34,395.09,286.961Zm-.275-2.473,7.877-1.035q-.091-.7-.2-1.388l-7.854,1.188C394.7,283.665,394.761,284.076,394.814,284.488Zm-.373-2.461,7.829-1.347q-.12-.7-.254-1.386l-7.8,1.515Q394.336,281.416,394.441,282.027Zm-.472-2.436,7.765-1.672q-.147-.689-.309-1.371l-7.73,1.831Q393.84,278.982,393.969,279.591Zm-.571-2.419,7.691-1.987q-.176-.677-.363-1.352l-7.653,2.132Q393.242,276.566,393.4,277.172Zm-.669-2.4,7.607-2.291q-.2-.674-.418-1.341l-7.558,2.445Q392.55,274.179,392.729,274.774Zm-.766-2.367,7.508-2.6q-.23-.664-.472-1.322l-7.454,2.749Q391.76,271.819,391.963,272.407Zm-.858-2.33,7.394-2.9q-.256-.652-.524-1.3l-7.334,3.052Q390.879,269.5,391.1,270.077Zm-.952-2.293,7.276-3.189q-.281-.642-.576-1.279l-7.207,3.341C389.817,267.032,389.987,267.406,390.153,267.784Zm-1.043-2.249,7.142-3.478q-.308-.632-.63-1.258l-7.064,3.632C388.745,264.8,388.93,265.166,389.11,265.535Zm-1.132-2.206,7-3.765q-.333-.619-.679-1.229l-6.914,3.912C387.583,262.6,387.783,262.966,387.978,263.329Zm-1.219-2.157,6.836-4.048c-.237-.4-.479-.8-.724-1.194l-6.757,4.178Q386.442,260.635,386.759,261.172Zm-1.31-2.115,6.673-4.309q-.382-.593-.777-1.174l-6.577,4.454Q385.114,258.537,385.449,259.057ZM384.061,257l6.49-4.579q-.4-.573-.819-1.137l-6.4,4.709Q383.7,256.495,384.061,257ZM382.583,255l6.308-4.828q-.428-.559-.869-1.109l-6.2,4.965Q382.207,254.507,382.583,255Zm-1.547-1.935,6.1-5.087c-.3-.359-.6-.715-.907-1.067l-6,5.206Q380.637,252.583,381.037,253.061Zm-1.629-1.877,5.889-5.331q-.469-.518-.947-1.027l-5.789,5.439Q378.989,250.721,379.407,251.184Zm-1.707-1.816,5.681-5.553q-.493-.5-.994-1l-5.565,5.67Q377.266,248.923,377.7,249.368Zm-1.775-1.742,5.453-5.779q-.51-.48-1.03-.952l-5.337,5.884Q375.473,247.2,375.926,247.625Zm-1.842-1.671,5.215-5.993q-.53-.462-1.068-.911l-5.094,6.095Q373.613,245.546,374.084,245.955Zm-1.912-1.6,4.974-6.194q-.548-.439-1.1-.867l-4.85,6.292Q371.686,243.966,372.172,244.357Zm-1.969-1.52,4.716-6.392c-.376-.277-.754-.552-1.137-.823l-4.59,6.484Q369.7,242.468,370.2,242.837Zm-2.034-1.44,4.459-6.574q-.581-.4-1.171-.778l-4.326,6.663Q367.654,241.048,368.168,241.4Zm-2.09-1.357,4.193-6.748q-.6-.372-1.2-.73l-4.054,6.831Q365.549,239.711,366.078,240.04Zm-2.146-1.274,3.924-6.907c-.41-.233-.821-.46-1.235-.684l-3.774,6.989Q363.393,238.46,363.932,238.765Zm-2.186-1.183,3.632-7.065q-.625-.321-1.256-.63l-3.492,7.135Q361.19,237.3,361.746,237.583Zm-2.241-1.1,3.346-7.2q-.637-.3-1.282-.58l-3.2,7.271Q358.94,236.223,359.505,236.486Zm-2.283-1,3.053-7.334q-.651-.272-1.308-.529l-2.9,7.4Q356.648,235.242,357.222,235.481Zm-2.322-.911,2.751-7.453q-.661-.243-1.329-.475l-2.595,7.508Q354.316,234.354,354.9,234.57Zm-2.358-.817,2.446-7.558q-.671-.217-1.346-.42l-2.292,7.606C351.749,233.5,352.146,233.624,352.542,233.753Zm-2.383-.719,2.132-7.652q-.674-.187-1.352-.363l-1.987,7.692Q349.559,232.866,350.16,233.034Zm-2.412-.621,1.828-7.73q-.682-.161-1.369-.309l-1.674,7.765Q347.143,232.269,347.748,232.413Zm-2.432-.523,1.515-7.8q-.687-.133-1.381-.254l-1.359,7.827C344.5,231.736,344.909,231.811,345.316,231.89Zm-2.451-.424,1.2-7.852q-.694-.106-1.391-.2l-1.04,7.876Q342.251,231.373,342.865,231.466Zm-2.464-.324.881-7.9q-.7-.077-1.4-.141l-.72,7.911Q339.783,231.072,340.4,231.141Zm-2.479-.227.565-7.923q-.7-.05-1.4-.086l-.406,7.933Q337.3,230.871,337.921,230.914Zm-2.483-.127.245-7.94c-.466-.015-.931-.024-1.4-.03l-.093,7.943Q334.815,230.768,335.438,230.787Zm-2.557-.033.063-7.943q-.624,0-1.243-.022l-.223,7.941C331.946,230.741,332.413,230.751,332.881,230.754Zm-2.8-.078.378-7.935q-.623-.03-1.242-.072l-.536,7.926Q329.377,230.642,330.079,230.676Zm-2.8-.19.7-7.913q-.621-.055-1.239-.121l-.852,7.9Q326.579,230.425,327.279,230.486Zm-2.79-.3,1.011-7.879q-.618-.079-1.231-.171l-1.171,7.857Q323.791,230.1,324.489,230.185Zm-2.775-.413,1.325-7.833q-.613-.1-1.222-.22l-1.487,7.8Q321.018,229.654,321.714,229.773Zm-2.757-.526,1.638-7.773q-.608-.128-1.212-.269l-1.8,7.737Q318.267,229.1,318.956,229.247Zm-2.74-.636,1.959-7.7q-.6-.153-1.2-.319l-2.11,7.659Q315.538,228.437,316.217,228.611Zm-2.705-.746,2.266-7.614q-.6-.178-1.188-.367l-2.419,7.567Q312.839,227.664,313.511,227.865Zm-2.676-.856,2.577-7.515q-.59-.2-1.174-.415l-2.725,7.462Q310.171,226.781,310.835,227.009Zm-2.634-.961,2.872-7.407q-.58-.225-1.154-.462l-3.022,7.346Q307.546,225.793,308.2,226.047Zm-2.593-1.066,3.169-7.285q-.568-.247-1.13-.506l-3.318,7.218Q304.966,224.7,305.608,224.981Zm-2.547-1.172,3.469-7.147q-.56-.272-1.114-.554l-3.6,7.079Q302.433,223.5,303.061,223.809Zm-2.489-1.267,3.743-7.007q-.546-.292-1.084-.594l-3.889,6.926Q299.951,222.21,300.571,222.542Zm-2.443-1.371,4.025-6.849q-.536-.316-1.065-.64l-4.159,6.768Q297.524,220.816,298.128,221.171Zm-2.386-1.467,4.295-6.682q-.523-.337-1.037-.682l-4.43,6.594Q295.151,219.324,295.742,219.7Zm-2.325-1.562,4.558-6.507q-.51-.357-1.01-.723l-4.687,6.414Q292.843,217.739,293.417,218.142Zm-2.265-1.656,4.819-6.316q-.5-.378-.982-.765l-4.94,6.221Q290.6,216.062,291.153,216.486Zm-2.193-1.742,5.063-6.121q-.48-.4-.951-.8l-5.182,6.021Q288.419,214.3,288.959,214.744Zm-2.125-1.832L292.141,207q-.464-.417-.92-.842l-5.418,5.808Q286.314,212.445,286.834,212.912ZM284.785,211l5.537-5.7q-.447-.434-.884-.877l-5.649,5.585Q284.282,210.509,284.785,211Zm-1.973-2,5.761-5.47q-.429-.45-.848-.91l-5.87,5.352Q282.329,208.492,282.812,209Zm-1.894-2.076,5.98-5.229q-.412-.47-.814-.949l-6.077,5.117Q280.459,206.4,280.919,206.925Zm-1.8-2.145,6.179-4.992q-.392-.485-.774-.977l-6.276,4.87Q278.674,204.235,279.114,204.78Zm-1.722-2.221,6.376-4.736q-.372-.5-.734-1.01l-6.467,4.613Q276.973,202,277.392,202.559Zm-1.629-2.284,6.558-4.484q-.352-.514-.692-1.034l-6.648,4.347Q275.366,199.694,275.762,200.275Zm-1.541-2.356,6.737-4.208q-.331-.529-.651-1.065l-6.818,4.077Q273.85,197.325,274.221,197.919Zm-1.438-2.406,6.893-3.949q-.307-.538-.6-1.082l-6.978,3.8Q272.433,194.9,272.783,195.513Zm-1.346-2.473,7.049-3.662q-.286-.551-.562-1.11l-7.124,3.516Q271.111,192.415,271.437,193.04Zm-1.248-2.527,7.195-3.368q-.263-.565-.518-1.135l-7.26,3.224Q269.891,189.878,270.189,190.514Zm-1.141-2.571,7.323-3.078q-.241-.573-.47-1.151l-7.387,2.923Q268.775,187.293,269.048,187.943Zm-1.04-2.621,7.444-2.774q-.217-.584-.423-1.173l-7.5,2.62Q267.763,184.661,268.008,185.322Zm-.932-2.664,7.553-2.462q-.193-.6-.378-1.194l-7.6,2.317C266.789,181.767,266.931,182.214,267.076,182.658Zm-.819-2.69,7.646-2.156q-.168-.6-.327-1.2l-7.686,2.01Q266.067,179.3,266.257,179.968Zm-.709-2.712,7.724-1.854q-.145-.6-.277-1.212l-7.76,1.7Q265.386,176.573,265.548,177.256Zm-.6-2.745,7.794-1.539q-.12-.609-.229-1.223l-7.822,1.383Q264.814,173.824,264.949,174.511Zm-.487-2.765,7.849-1.224c-.064-.409-.123-.82-.18-1.232l-7.872,1.069Q264.354,171.056,264.461,171.747Zm-.375-2.781,7.892-.91c-.048-.41-.091-.821-.13-1.233l-7.909.744Q264.006,168.268,264.086,168.966Zm-.264-2.8,7.922-.583q-.045-.62-.08-1.244l-7.933.43Q263.77,165.471,263.822,166.168Zm-.152-2.8,7.938-.269q-.02-.623-.031-1.248l-7.943.116Q263.646,162.669,263.67,163.367Zm-.042-2.781h7.943v-1.324h-7.943Zm0-2.648h7.943v-1.324h-7.943Zm0-2.648h7.943v-1.324h-7.943Zm0-2.648h7.943v-1.324h-7.943Zm0-2.647h7.943V148.67h-7.943Zm0-2.648h7.943v-1.324h-7.943Zm0-2.648h7.943v-1.324h-7.943Zm0-2.648h7.943v-1.324h-7.943Zm0-2.648h7.943v-1.324h-7.943Zm0-2.648h7.943V135.43h-7.943Zm0-2.648h7.943v-1.324h-7.943Zm0-2.647h7.943v-1.324h-7.943Zm0-2.648h7.943v-1.324h-7.943Zm0-2.648h7.943v-1.324h-7.943Zm0-2.648h7.943V122.19h-7.943Zm0-2.648h7.943v-1.324h-7.943Zm0-2.648h7.943v-1.324h-7.943Zm0-2.648h7.943v-1.324h-7.943Zm0-2.647h7.943V111.6h-7.943Zm0-2.648h7.943v-1.324h-7.943Zm0-2.648h7.943V106.3h-7.943Zm0-2.648h7.943v-1.324h-7.943Zm0-2.648h7.943v-1.324h-7.943Zm0-2.648h7.943V98.358h-7.943Zm0-2.647h7.943V95.711h-7.943Zm0-2.648h7.943V93.063h-7.943Zm0-2.648h7.943V90.415h-7.943Zm0-2.648h7.943V87.767h-7.943Zm0-2.648h7.943V85.119h-7.943Zm0-2.648h7.943V82.471h-7.943Zm0-2.648h7.943V79.823h-7.943Zm0-2.648h7.943V77.175h-7.943Zm0-2.647h7.943V74.527h-7.943Zm0-2.648h7.943V71.879h-7.943Zm0-2.648h7.943V69.231h-7.943Zm0-2.648h7.943V66.583h-7.943Zm0-2.648h7.943V63.935h-7.943Zm0-2.648h7.943V61.287h-7.943Z" transform="translate(-256.871 -61.288)" fill="#2a6041"/>
                  </g>
                  <g id="Grupo_1161288" data-name="Grupo 1161288" clip-path="url(#clip-path-13)">
                    <g id="Grupo_1161286" data-name="Grupo 1161286" transform="translate(22.02 10.182)">
                      <path id="Trazado_996741" data-name="Trazado 996741" d="M286.7,77.62H389.521a2.045,2.045,0,0,0,2.045-2.044h0a2.045,2.045,0,0,0-2.045-2.045H286.7a2.045,2.045,0,0,0-2.045,2.045h0A2.045,2.045,0,0,0,286.7,77.62Z" transform="translate(-284.652 -73.531)" fill="#2a6041"/>
                      <path id="Trazado_996742" data-name="Trazado 996742" d="M286.7,92.581H389.521a2.045,2.045,0,0,0,2.045-2.045h0a2.045,2.045,0,0,0-2.045-2.045H286.7a2.045,2.045,0,0,0-2.045,2.045h0A2.045,2.045,0,0,0,286.7,92.581Z" transform="translate(-284.652 -76.049)" fill="none" stroke="#28965a" stroke-miterlimit="10" stroke-width="0.796"/>
                      <path id="Trazado_996743" data-name="Trazado 996743" d="M286.7,107.541H389.521a2.045,2.045,0,0,0,2.045-2.045h0a2.044,2.044,0,0,0-2.045-2.044H286.7a2.045,2.045,0,0,0-2.045,2.044h0A2.044,2.044,0,0,0,286.7,107.541Z" transform="translate(-284.652 -78.567)" fill="#fff"/>
                      <path id="Trazado_996744" data-name="Trazado 996744" d="M286.7,122.5H389.521a2.045,2.045,0,0,0,2.045-2.045h0a2.045,2.045,0,0,0-2.045-2.045H286.7a2.045,2.045,0,0,0-2.045,2.045h0A2.045,2.045,0,0,0,286.7,122.5Z" transform="translate(-284.652 -81.085)" fill="#2a6041"/>
                      <path id="Trazado_996745" data-name="Trazado 996745" d="M342.417,137.463H398.9a2.044,2.044,0,0,0,2.044-2.044h0a2.045,2.045,0,0,0-2.044-2.045H342.417a2.045,2.045,0,0,0-2.045,2.045h0A2.046,2.046,0,0,0,342.417,137.463Z" transform="translate(-340.372 -83.604)" fill="none" stroke="#28965a" stroke-miterlimit="10" stroke-width="0.796"/>
                      <path id="Trazado_996746" data-name="Trazado 996746" d="M342.417,152.424H398.9a2.044,2.044,0,0,0,2.044-2.045h0a2.045,2.045,0,0,0-2.044-2.045H342.417a2.045,2.045,0,0,0-2.045,2.045h0A2.046,2.046,0,0,0,342.417,152.424Z" transform="translate(-340.372 -86.122)" fill="#fff"/>
                      <path id="Trazado_996747" data-name="Trazado 996747" d="M342.417,167.384H398.9a2.044,2.044,0,0,0,2.044-2.045h0a2.045,2.045,0,0,0-2.044-2.045H342.417a2.045,2.045,0,0,0-2.045,2.045h0A2.046,2.046,0,0,0,342.417,167.384Z" transform="translate(-340.372 -88.64)" fill="#2a6041"/>
                      <path id="Trazado_996748" data-name="Trazado 996748" d="M342.417,182.345H398.9a2.044,2.044,0,0,0,2.044-2.044h0a2.045,2.045,0,0,0-2.044-2.045H342.417a2.045,2.045,0,0,0-2.045,2.045h0A2.046,2.046,0,0,0,342.417,182.345Z" transform="translate(-340.372 -91.158)" fill="none" stroke="#28965a" stroke-miterlimit="10" stroke-width="0.796"/>
                      <path id="Trazado_996749" data-name="Trazado 996749" d="M286.7,197.306H389.521a2.045,2.045,0,0,0,2.045-2.045h0a2.045,2.045,0,0,0-2.045-2.045H286.7a2.045,2.045,0,0,0-2.045,2.045h0A2.045,2.045,0,0,0,286.7,197.306Z" transform="translate(-284.652 -93.676)" fill="#fff"/>
                      <path id="Trazado_996750" data-name="Trazado 996750" d="M294.658,212.266h86.274a2.045,2.045,0,0,0,2.045-2.045h0a2.045,2.045,0,0,0-2.045-2.045H294.658a2.045,2.045,0,0,0-2.045,2.045h0A2.045,2.045,0,0,0,294.658,212.266Z" transform="translate(-282.683 -96.194)" fill="#2a6041"/>
                      <path id="Trazado_996751" data-name="Trazado 996751" d="M302.617,227.227h76.344a2.045,2.045,0,0,0,2.045-2.044h0a2.045,2.045,0,0,0-2.045-2.045H302.617a2.045,2.045,0,0,0-2.045,2.045h0A2.045,2.045,0,0,0,302.617,227.227Z" transform="translate(-287.332 -98.713)" fill="none" stroke="#28965a" stroke-miterlimit="10" stroke-width="0.796"/>
                      <path id="Trazado_996752" data-name="Trazado 996752" d="M326.494,242.188H363.12a2.045,2.045,0,0,0,2.045-2.045h0a2.045,2.045,0,0,0-2.045-2.045H326.5a2.044,2.044,0,0,0-2.044,2.045h0A2.044,2.044,0,0,0,326.494,242.188Z" transform="translate(-291.35 -101.231)" fill="#fff"/>
                    </g>
                    <g id="Grupo_1161287" data-name="Grupo 1161287" transform="translate(22.02 181.118)">
                      <path id="Trazado_996753" data-name="Trazado 996753" d="M389.521,443.629H286.7a2.045,2.045,0,0,0-2.045,2.045h0a2.045,2.045,0,0,0,2.045,2.045H389.521a2.045,2.045,0,0,0,2.045-2.045h0A2.046,2.046,0,0,0,389.521,443.629Z" transform="translate(-284.653 -306.761)" fill="#2a6041"/>
                      <path id="Trazado_996754" data-name="Trazado 996754" d="M389.521,428.668H286.7a2.045,2.045,0,0,0-2.045,2.045h0a2.045,2.045,0,0,0,2.045,2.045H389.521a2.045,2.045,0,0,0,2.045-2.045h0A2.046,2.046,0,0,0,389.521,428.668Z" transform="translate(-284.653 -304.242)" fill="none" stroke="#28965a" stroke-miterlimit="10" stroke-width="0.796"/>
                      <path id="Trazado_996755" data-name="Trazado 996755" d="M389.521,413.708H286.7a2.045,2.045,0,0,0-2.045,2.045h0A2.044,2.044,0,0,0,286.7,417.8H389.521a2.045,2.045,0,0,0,2.045-2.044h0A2.046,2.046,0,0,0,389.521,413.708Z" transform="translate(-284.653 -301.724)" fill="#fff"/>
                      <path id="Trazado_996756" data-name="Trazado 996756" d="M389.521,398.747H286.7a2.045,2.045,0,0,0-2.045,2.045h0a2.045,2.045,0,0,0,2.045,2.045H389.521a2.045,2.045,0,0,0,2.045-2.045h0A2.046,2.046,0,0,0,389.521,398.747Z" transform="translate(-284.653 -299.206)" fill="#2a6041"/>
                      <path id="Trazado_996757" data-name="Trazado 996757" d="M389.521,383.786H286.7a2.045,2.045,0,0,0-2.045,2.045h0a2.045,2.045,0,0,0,2.045,2.045H389.521a2.045,2.045,0,0,0,2.045-2.045h0A2.046,2.046,0,0,0,389.521,383.786Z" transform="translate(-284.653 -296.688)" fill="none" stroke="#28965a" stroke-miterlimit="10" stroke-width="0.796"/>
                      <path id="Trazado_996758" data-name="Trazado 996758" d="M389.521,368.826H286.7a2.045,2.045,0,0,0-2.045,2.045h0a2.044,2.044,0,0,0,2.045,2.044H389.521a2.045,2.045,0,0,0,2.045-2.044h0A2.045,2.045,0,0,0,389.521,368.826Z" transform="translate(-284.653 -294.17)" fill="#fff"/>
                      <path id="Trazado_996759" data-name="Trazado 996759" d="M389.521,353.865H286.7a2.045,2.045,0,0,0-2.045,2.045h0a2.045,2.045,0,0,0,2.045,2.045H389.521a2.045,2.045,0,0,0,2.045-2.045h0A2.046,2.046,0,0,0,389.521,353.865Z" transform="translate(-284.653 -291.652)" fill="#2a6041"/>
                      <path id="Trazado_996760" data-name="Trazado 996760" d="M389.521,338.9H286.7a2.045,2.045,0,0,0-2.045,2.045h0a2.045,2.045,0,0,0,2.045,2.045H389.521a2.045,2.045,0,0,0,2.045-2.045h0A2.046,2.046,0,0,0,389.521,338.9Z" transform="translate(-284.653 -289.134)" fill="none" stroke="#28965a" stroke-miterlimit="10" stroke-width="0.796"/>
                      <path id="Trazado_996761" data-name="Trazado 996761" d="M389.521,323.944H286.7a2.045,2.045,0,0,0-2.045,2.045h0a2.044,2.044,0,0,0,2.045,2.044H389.521a2.045,2.045,0,0,0,2.045-2.044h0A2.045,2.045,0,0,0,389.521,323.944Z" transform="translate(-284.653 -286.616)" fill="#fff"/>
                      <path id="Trazado_996762" data-name="Trazado 996762" d="M384.241,308.983H294.657a2.044,2.044,0,0,0-2.044,2.045h0a2.045,2.045,0,0,0,2.044,2.045h89.584a2.045,2.045,0,0,0,2.045-2.045h0A2.045,2.045,0,0,0,384.241,308.983Z" transform="translate(-285.993 -284.097)" fill="#2a6041"/>
                      <path id="Trazado_996763" data-name="Trazado 996763" d="M378.961,294.022H302.617a2.045,2.045,0,0,0-2.045,2.044h0a2.045,2.045,0,0,0,2.045,2.045h76.344a2.045,2.045,0,0,0,2.045-2.045h0A2.046,2.046,0,0,0,378.961,294.022Z" transform="translate(-287.332 -281.579)" fill="none" stroke="#28965a" stroke-miterlimit="10" stroke-width="0.796"/>
                      <path id="Trazado_996764" data-name="Trazado 996764" d="M363.12,279.061H326.5a2.044,2.044,0,0,0-2.044,2.045h0a2.044,2.044,0,0,0,2.044,2.044H363.12a2.045,2.045,0,0,0,2.045-2.044h0A2.046,2.046,0,0,0,363.12,279.061Z" transform="translate(-291.351 -279.061)" fill="#fff"/>
                    </g>
                  </g>
                </g>
              </g>
            </g>
            <g id="Grupo_1161304" data-name="Grupo 1161304" clip-path="url(#clip-path-3)">
              <g id="Grupo_1161302" data-name="Grupo 1161302" transform="translate(225.139 96.05)">
                <g id="Grupo_1161294" data-name="Grupo 1161294">
                  <path id="Trazado_996766" data-name="Trazado 996766" d="M120.138,205.023c-9.127,6.586-11,26.648-11,26.648h0a20.3,20.3,0,0,0-10.791,12.047l-.343,1.03,8.04,3.128s-2.682,19.515,3.866,23.444,15.513,3.912,15.513,3.912L118.551,294.9l35.728,1.376,11.308-84.357Z" transform="translate(-97.432 -181.531)" fill="#ff8775"/>
                  <path id="Trazado_996767" data-name="Trazado 996767" d="M129.869,267.883a15.955,15.955,0,0,0,10.21,1.01,12.515,12.515,0,0,0,6.691-3.881,9.224,9.224,0,0,0,1.838-7.561A15.214,15.214,0,0,0,154.769,230a16.539,16.539,0,0,0-4.815-28.893,15.086,15.086,0,0,0-4.136-13.368,15.608,15.608,0,0,0-13.6-4.242,16.433,16.433,0,0,0-18.28-5.913,9.073,9.073,0,0,0-5.308,4.474A16.174,16.174,0,0,0,95.1,178.288a14.1,14.1,0,0,0-10.507,8.931c-3.594-1.61-8.048-.546-10.963,2.1a15.126,15.126,0,0,0-4.557,10.567A19.616,19.616,0,0,0,72.519,211.8a18.246,18.246,0,0,0,9.72,6.953,41.15,41.15,0,0,1,1.457-5.477c3.254.607,6.489-1.083,9.153-3.048a12.179,12.179,0,0,0,4.177-4.774,9.744,9.744,0,0,0,3.135,7.493,7.806,7.806,0,0,0,6.942,2.014,23.493,23.493,0,0,0-1.382,7.529,11.577,11.577,0,0,0,2.354,7.169,6.718,6.718,0,0,0,6.391,2.4,8.208,8.208,0,0,1,4.487-3.653c2.994-.754,6.069,1.376,7.62,4.045a12.305,12.305,0,0,1-.765,13.223A8.6,8.6,0,0,1,123.6,247.8a6.809,6.809,0,0,1-6.815.222,22.612,22.612,0,0,0,3.4,15.257,12.194,12.194,0,0,0,4.024,4.051A6.846,6.846,0,0,0,129.869,267.883Z" transform="translate(-69.051 -176.776)" fill="#202c23"/>
                  <path id="Trazado_996768" data-name="Trazado 996768" d="M154.993,240.722c-.29,1.763.432,3.351,1.613,3.545s2.374-1.077,2.665-2.841-.432-3.351-1.613-3.545S155.283,238.958,154.993,240.722Z" transform="translate(-138.518 -187.058)" fill="#202c23"/>
                  <g id="Grupo_1161291" data-name="Grupo 1161291" transform="translate(15.211 43.31)">
                    <path id="Trazado_996769" data-name="Trazado 996769" d="M159.215,238.563a10.515,10.515,0,0,0-1.082-4.069,10.79,10.79,0,0,0-2.705-3.442,15.6,15.6,0,0,0-1.819-1.361,5.608,5.608,0,0,0-2.14-.77,6.67,6.67,0,0,0-2.274.059,4.964,4.964,0,0,0-2.1.9l.035.277c.709.314,1.337.547,1.938.78l1.715.688a16.586,16.586,0,0,0,1.668.574,7.207,7.207,0,0,1,1.674.666,10.915,10.915,0,0,1,2.835,2.386,11.1,11.1,0,0,1,1.979,3.367Z" transform="translate(-147.097 -228.851)" fill="#202c23"/>
                  </g>
                  <g id="Grupo_1161292" data-name="Grupo 1161292" transform="translate(7.919 69.887)">
                    <path id="Trazado_996770" data-name="Trazado 996770" d="M160.771,267.165a15.367,15.367,0,0,0,4.67-2.424,11.277,11.277,0,0,0,3.315-3.935,10.952,10.952,0,0,1-3.673,3.407,14.429,14.429,0,0,1-4.627,1.715Z" transform="translate(-160.457 -260.807)" fill="#202c23"/>
                  </g>
                  <g id="Grupo_1161293" data-name="Grupo 1161293" transform="translate(47.619 54.57)">
                    <path id="Trazado_996771" data-name="Trazado 996771" d="M121.02,245.682A5.6,5.6,0,0,0,118.6,242.8a3.533,3.533,0,0,0-2.035-.38,2.942,2.942,0,0,0-1.918,1.057,8.309,8.309,0,0,0-1.556,3.61,22.891,22.891,0,0,0-.364,3.723l-.017.462.39.167a9.478,9.478,0,0,1,3.126,2.184l.014-.575a21.546,21.546,0,0,1-2.773,2.941,12.108,12.108,0,0,0,3.432-2.35l.25-.24-.235-.335a8.779,8.779,0,0,0-3.267-2.8l.373.628a35.093,35.093,0,0,1,.429-3.535,10.249,10.249,0,0,1,.443-1.652,6.066,6.066,0,0,1,.714-1.455,1.994,1.994,0,0,1,1.139-.787,3.02,3.02,0,0,1,1.54.084A6.716,6.716,0,0,1,121.02,245.682Z" transform="translate(-112.713 -242.391)" fill="#202c23"/>
                  </g>
                  <path id="Trazado_996772" data-name="Trazado 996772" d="M133.583,289.081,145.8,287.3l-14.2,7.434Z" transform="translate(-105.586 -195.38)" fill="#202c23"/>
                </g>
                <g id="Grupo_1161301" data-name="Grupo 1161301" transform="translate(15.517 13.403)" opacity="0.4">
                  <g id="Grupo_1161295" data-name="Grupo 1161295" transform="translate(23.691)">
                    <path id="Trazado_996773" data-name="Trazado 996773" d="M103.93,199.153a6.906,6.906,0,0,1,2.841-3.921,8.986,8.986,0,0,1,4.505-1.69,6.951,6.951,0,0,1,4.549,1.2,7.29,7.29,0,0,1,2.9,3.716l.167.5.352-.384a5.823,5.823,0,0,1,4.319-1.891,6.03,6.03,0,0,1,4.388,2.059,5.842,5.842,0,0,0-4.37-2.469,6.054,6.054,0,0,0-4.79,1.885l.519.114a7.908,7.908,0,0,0-3.1-4.106,7.618,7.618,0,0,0-4.99-1.226,8.866,8.866,0,0,0-4.7,1.978A6.6,6.6,0,0,0,103.93,199.153Z" transform="translate(-103.93 -192.891)" fill="#28965a"/>
                  </g>
                  <g id="Grupo_1161296" data-name="Grupo 1161296" transform="translate(45.981 44.839)">
                    <path id="Trazado_996774" data-name="Trazado 996774" d="M80.705,253.218a7.374,7.374,0,0,1,2.412-3.8A7.885,7.885,0,0,1,87.1,247.5a5.323,5.323,0,0,1,4.114,1.088A6.788,6.788,0,0,1,93.64,252.2l.16.576.374-.462a5.042,5.042,0,0,1,3.733-1.964,4.813,4.813,0,0,1,3.846,1.964,4.726,4.726,0,0,0-3.841-2.37,5.306,5.306,0,0,0-4.213,1.985l.534.115a7.444,7.444,0,0,0-2.592-4.007,5.987,5.987,0,0,0-4.63-1.139,7.808,7.808,0,0,0-4.172,2.222A6.9,6.9,0,0,0,80.705,253.218Z" transform="translate(-80.705 -246.805)" fill="#28965a"/>
                  </g>
                  <g id="Grupo_1161297" data-name="Grupo 1161297" transform="translate(0 4.07)">
                    <path id="Trazado_996775" data-name="Trazado 996775" d="M144.646,207.262a4.808,4.808,0,0,1,.255-3.306,6.2,6.2,0,0,1,1.987-2.595,4.685,4.685,0,0,1,3.021-.959,4.919,4.919,0,0,1,3,1.047l.41.328.089-.511a3.971,3.971,0,0,1,1.743-2.658,4.177,4.177,0,0,1,3.276-.486,4,4,0,0,0-3.482.131,4.206,4.206,0,0,0-2.142,2.907l.5-.184a5.54,5.54,0,0,0-3.377-1.268,5.341,5.341,0,0,0-3.41,1.17,6.089,6.089,0,0,0-1.994,2.942A4.5,4.5,0,0,0,144.646,207.262Z" transform="translate(-144.241 -197.785)" fill="#28965a"/>
                  </g>
                  <g id="Grupo_1161298" data-name="Grupo 1161298" transform="translate(28.814 17.191)">
                    <path id="Trazado_996776" data-name="Trazado 996776" d="M112.988,214.309a4.807,4.807,0,0,1,3.3-.279,6.2,6.2,0,0,1,2.881,1.544,4.687,4.687,0,0,1,1.433,2.828,4.921,4.921,0,0,1-.551,3.13l-.258.457.519.006a3.972,3.972,0,0,1,2.9,1.292,4.182,4.182,0,0,1,1.007,3.155,4,4,0,0,0-.689-3.416,4.2,4.2,0,0,0-3.214-1.647l.261.462a5.54,5.54,0,0,0,.709-3.538,5.344,5.344,0,0,0-1.7-3.177,6.086,6.086,0,0,0-3.224-1.5A4.5,4.5,0,0,0,112.988,214.309Z" transform="translate(-112.988 -213.561)" fill="#28965a"/>
                  </g>
                  <g id="Grupo_1161299" data-name="Grupo 1161299" transform="translate(52.412 20.459)">
                    <path id="Trazado_996777" data-name="Trazado 996777" d="M78.537,221.148a4.808,4.808,0,0,1,2.338-2.351,6.2,6.2,0,0,1,3.2-.688,4.686,4.686,0,0,1,2.923,1.228,4.923,4.923,0,0,1,1.606,2.742l.1.515.4-.332a3.975,3.975,0,0,1,3.051-.894,4.176,4.176,0,0,1,2.809,1.754,4,4,0,0,0-2.736-2.158,4.2,4.2,0,0,0-3.516.824l.5.184a5.531,5.531,0,0,0-1.75-3.155A5.347,5.347,0,0,0,84.1,217.5a6.088,6.088,0,0,0-3.426.946A4.507,4.507,0,0,0,78.537,221.148Z" transform="translate(-78.537 -217.491)" fill="#28965a"/>
                  </g>
                  <g id="Grupo_1161300" data-name="Grupo 1161300" transform="translate(37.184 62.62)">
                    <path id="Trazado_996778" data-name="Trazado 996778" d="M96.745,269.229a4.507,4.507,0,0,0,1.98,2.82,6.085,6.085,0,0,0,3.367,1.139,5.342,5.342,0,0,0,3.424-1.128,5.535,5.535,0,0,0,1.925-3.051l-.508.155a4.2,4.2,0,0,0,3.463,1.021,4,4,0,0,0,2.854-2,4.181,4.181,0,0,1-2.9,1.593,3.973,3.973,0,0,1-2.995-1.065l-.38-.353-.129.509a4.918,4.918,0,0,1-1.758,2.647,4.681,4.681,0,0,1-2.987,1.061,6.208,6.208,0,0,1-3.151-.867A4.814,4.814,0,0,1,96.745,269.229Z" transform="translate(-96.745 -268.184)" fill="#28965a"/>
                  </g>
                </g>
              </g>
              <path id="Trazado_996779" data-name="Trazado 996779" d="M248.686,249.777s-1.281-10.725,0-14.727,5.455-15.723,3.521-26.092S241.322,187.51,240.2,187.99s6.254,22.089,6.254,22.089-11.71-23.24-14.418-22.1,8.323,25.946,8.323,25.946-13.19-24.034-14.752-22.261,8.989,23.934,8.989,23.934-8.614-17.2-10.55-14.959,7.188,20.488,7.348,24.17-.8,6.82-.161,11.893,1.921,15.158,1.921,15.158Z" transform="translate(-64.016 -82.604)" fill="#ff8775"/>
              <path id="Trazado_996780" data-name="Trazado 996780" d="M191.629,290.288c17.31.783,29.98,19.633,31.986,40.269s-.34,51.883-.34,51.883l7.207,41.962-99.384-.684,15.444-66.309s-45.981,11.849-51.6,4.617S82.308,257.055,82.308,257.055l26.211-4.937,9.942,75.648S168.486,289.241,191.629,290.288Z" transform="translate(75.871 -93.407)" fill="#fff"/>
              <g id="Grupo_1161303" data-name="Grupo 1161303" transform="translate(222.413 252.779)">
                <path id="Trazado_996781" data-name="Trazado 996781" d="M124.5,376.447q6.069-1.773,12.1-3.622c4.024-1.217,8.039-2.453,12.076-3.588a89.216,89.216,0,0,1,12.2-2.808,46.853,46.853,0,0,1,6.231-.466,27.779,27.779,0,0,1,6.245.543,24.124,24.124,0,0,0-6.224-1.192,38.874,38.874,0,0,0-6.369.088,53.425,53.425,0,0,0-6.3.991q-3.1.706-6.145,1.571-6.085,1.753-12.037,3.884Q130.321,373.955,124.5,376.447Z" transform="translate(-124.505 -365.224)" fill="#2a6041"/>
              </g>
              <path id="Trazado_996782" data-name="Trazado 996782" d="M212.317,351.632l-.99-9.279,4.717-3.569Z" transform="translate(-16.994 -107.995)" fill="#2a6041"/>
              <line id="Línea_1226" data-name="Línea 1226" y1="4.176" x2="27.202" transform="translate(159.45 175.919)" fill="none" stroke="#2a6041" stroke-miterlimit="10" stroke-width="0.796"/>
              <path id="Trazado_996783" data-name="Trazado 996783" d="M252.682,267.344a1.144,1.144,0,1,0,1.144-1.144A1.144,1.144,0,0,0,252.682,267.344Z" transform="translate(-90.315 -95.778)" fill="#2a6041"/>
            </g>
          </g>
          <g id="Grupo_1161312" data-name="Grupo 1161312" transform="translate(16.098 45.363)">
            <path id="Trazado_996784" data-name="Trazado 996784" d="M391.047,168.1v21.847l19.6,19.6" transform="translate(-362.941 -110.409)" fill="none" stroke="#2ceaa3" stroke-miterlimit="10" stroke-width="11.144"/>
            <path id="Trazado_996785" data-name="Trazado 996785" d="M380.816,147.414V114.96l28.106-16.227,28.105,16.227v32.454L408.922,163.64Z" transform="translate(-380.816 -98.733)" fill="#2ceaa3"/>
            <path id="Trazado_996786" data-name="Trazado 996786" d="M388.328,145.266V120.027l21.858-12.619,21.857,12.619v25.239l-21.857,12.62Z" transform="translate(-382.08 -100.193)" fill="#fff"/>
            <g id="Grupo_1161307" data-name="Grupo 1161307" transform="translate(3.972 4.587)">
              <g id="Grupo_1161306" data-name="Grupo 1161306" transform="translate(0)">
                <path id="Trazado_996787" data-name="Trazado 996787" d="M443.511,154.705l-.573-.331v-.662" transform="translate(-442.938 -112.574)" fill="none" stroke="#28965a" stroke-miterlimit="10" stroke-width="0.778"/>
                <line id="Línea_1227" data-name="Línea 1227" y1="24.647" transform="translate(0 15.227)" fill="none" stroke="#28965a" stroke-miterlimit="10" stroke-width="0.778" stroke-dasharray="1.52 1.52"/>
                <path id="Trazado_996788" data-name="Trazado 996788" d="M442.938,121.6v-.661l.573-.331" transform="translate(-442.938 -107.001)" fill="none" stroke="#28965a" stroke-miterlimit="10" stroke-width="0.778"/>
                <line id="Línea_1228" data-name="Línea 1228" y1="12.324" x2="21.344" transform="translate(1.668 0.647)" fill="none" stroke="#28965a" stroke-miterlimit="10" stroke-width="0.778" stroke-dasharray="1.52 1.52"/>
                <path id="Trazado_996789" data-name="Trazado 996789" d="M413.92,104.579l.574-.331.573.331" transform="translate(-390.36 -104.248)" fill="none" stroke="#28965a" stroke-miterlimit="10" stroke-width="0.778"/>
                <line id="Línea_1229" data-name="Línea 1229" x2="21.345" y2="12.324" transform="translate(25.801 0.963)" fill="none" stroke="#28965a" stroke-miterlimit="10" stroke-width="0.778" stroke-dasharray="1.52 1.52"/>
                <path id="Trazado_996790" data-name="Trazado 996790" d="M385.592,120.6l.573.331v.661" transform="translate(-337.898 -107.001)" fill="none" stroke="#28965a" stroke-miterlimit="10" stroke-width="0.778"/>
                <line id="Línea_1230" data-name="Línea 1230" y2="24.647" transform="translate(48.267 15.859)" fill="none" stroke="#28965a" stroke-miterlimit="10" stroke-width="0.778" stroke-dasharray="1.52 1.52"/>
                <path id="Trazado_996791" data-name="Trazado 996791" d="M386.165,153.712v.662l-.573.331" transform="translate(-337.898 -112.574)" fill="none" stroke="#28965a" stroke-miterlimit="10" stroke-width="0.778"/>
                <line id="Línea_1231" data-name="Línea 1231" x1="21.345" y2="12.323" transform="translate(25.254 42.763)" fill="none" stroke="#28965a" stroke-miterlimit="10" stroke-width="0.778" stroke-dasharray="1.52 1.52"/>
                <path id="Trazado_996792" data-name="Trazado 996792" d="M415.067,170.863l-.573.331-.574-.331" transform="translate(-390.36 -115.46)" fill="none" stroke="#28965a" stroke-miterlimit="10" stroke-width="0.778"/>
                <line id="Línea_1232" data-name="Línea 1232" x1="21.345" y1="12.324" transform="translate(1.12 42.447)" fill="none" stroke="#28965a" stroke-miterlimit="10" stroke-width="0.778" stroke-dasharray="1.52 1.52"/>
              </g>
            </g>
            <g id="Grupo_1161310" data-name="Grupo 1161310" transform="translate(28.106 60.32)">
              <g id="Grupo_1161309" data-name="Grupo 1161309">
                <path id="Trazado_996793" data-name="Trazado 996793" d="M392.826,171.261V190.48L410.943,208.6" transform="translate(-392.826 -171.261)" fill="none" stroke="#28965a" stroke-miterlimit="10" stroke-width="0.705"/>
                <g id="Grupo_1161308" data-name="Grupo 1161308" transform="translate(15.836 35.055)">
                  <path id="Trazado_996794" data-name="Trazado 996794" d="M394.032,214.056a2.2,2.2,0,1,1-3.115,0A2.2,2.2,0,0,1,394.032,214.056Z" transform="translate(-390.271 -213.411)" fill="#28965a"/>
                </g>
              </g>
            </g>
            <g id="Grupo_1161311" data-name="Grupo 1161311" transform="translate(11.085 12.168)">
              <path id="Trazado_996795" data-name="Trazado 996795" d="M414.633,152.37h0a1.258,1.258,0,0,0,.45-1.722L405,133.428a1.258,1.258,0,0,0-1.722-.45h0a1.258,1.258,0,0,0-.45,1.722l10.087,17.221A1.258,1.258,0,0,0,414.633,152.37Z" transform="translate(-388.291 -116.636)" fill="#2a6041"/>
              <ellipse id="Elipse_11596" data-name="Elipse 11596" cx="9.313" cy="9.313" rx="9.313" ry="9.313" transform="translate(14.963 26.056) rotate(-143.445)" fill="#fff" stroke="#28965a" stroke-miterlimit="10" stroke-width="1.852"/>
            </g>
          </g>
          <g id="Grupo_1161318" data-name="Grupo 1161318" transform="translate(16.172 274.641)">
            <path id="Trazado_996796" data-name="Trazado 996796" d="M323.2,402.579h21.847L370.1,377.531" transform="translate(-266.047 -374.937)" fill="none" stroke="#2ceaa3" stroke-miterlimit="10" stroke-width="11.144"/>
            <path id="Trazado_996797" data-name="Trazado 996797" d="M419.436,429.7H387.518l-15.959-27.642,15.959-27.642h31.918l15.958,27.642Z" transform="translate(-371.559 -374.412)" fill="#2ceaa3"/>
            <path id="Trazado_996798" data-name="Trazado 996798" d="M417.447,425.082H392.208l-12.619-21.857,12.619-21.858h25.239l12.62,21.858Z" transform="translate(-372.91 -375.582)" fill="#fff"/>
            <g id="Grupo_1161314" data-name="Grupo 1161314" transform="translate(4.051 3.508)">
              <g id="Grupo_1161313" data-name="Grupo 1161313">
                <path id="Trazado_996799" data-name="Trazado 996799" d="M393.778,435.976l-.331.573h-.662" transform="translate(-351.647 -388.282)" fill="none" stroke="#28965a" stroke-miterlimit="10" stroke-width="0.778"/>
                <line id="Línea_1233" data-name="Línea 1233" x1="24.647" transform="translate(15.227 48.267)" fill="none" stroke="#28965a" stroke-miterlimit="10" stroke-width="0.778" stroke-dasharray="1.52 1.52"/>
                <path id="Trazado_996800" data-name="Trazado 996800" d="M426.886,436.549h-.662l-.331-.573" transform="translate(-412.29 -388.282)" fill="none" stroke="#28965a" stroke-miterlimit="10" stroke-width="0.778"/>
                <line id="Línea_1234" data-name="Línea 1234" x1="12.324" y1="21.345" transform="translate(0.647 25.254)" fill="none" stroke="#28965a" stroke-miterlimit="10" stroke-width="0.778" stroke-dasharray="1.52 1.52"/>
                <path id="Trazado_996801" data-name="Trazado 996801" d="M443.376,408.1l-.331-.573.331-.574" transform="translate(-443.045 -383.398)" fill="none" stroke="#28965a" stroke-miterlimit="10" stroke-width="0.778"/>
                <line id="Línea_1235" data-name="Línea 1235" y1="21.344" x2="12.324" transform="translate(0.963 1.121)" fill="none" stroke="#28965a" stroke-miterlimit="10" stroke-width="0.778" stroke-dasharray="1.52 1.52"/>
                <path id="Trazado_996802" data-name="Trazado 996802" d="M425.893,379.2l.331-.573h.662" transform="translate(-412.29 -378.63)" fill="none" stroke="#28965a" stroke-miterlimit="10" stroke-width="0.778"/>
                <line id="Línea_1236" data-name="Línea 1236" x2="24.647" transform="translate(15.859)" fill="none" stroke="#28965a" stroke-miterlimit="10" stroke-width="0.778" stroke-dasharray="1.52 1.52"/>
                <path id="Trazado_996803" data-name="Trazado 996803" d="M392.785,378.63h.662l.331.573" transform="translate(-351.647 -378.63)" fill="none" stroke="#28965a" stroke-miterlimit="10" stroke-width="0.778"/>
                <line id="Línea_1237" data-name="Línea 1237" x2="12.324" y2="21.344" transform="translate(42.763 1.668)" fill="none" stroke="#28965a" stroke-miterlimit="10" stroke-width="0.778" stroke-dasharray="1.52 1.52"/>
                <path id="Trazado_996804" data-name="Trazado 996804" d="M376.43,406.958l.331.574-.331.573" transform="translate(-321.027 -383.398)" fill="none" stroke="#28965a" stroke-miterlimit="10" stroke-width="0.778"/>
                <line id="Línea_1238" data-name="Línea 1238" x1="12.324" y2="21.345" transform="translate(42.447 25.801)" fill="none" stroke="#28965a" stroke-miterlimit="10" stroke-width="0.778" stroke-dasharray="1.52 1.52"/>
              </g>
            </g>
            <g id="Grupo_1161317" data-name="Grupo 1161317" transform="translate(59.785 7.4)">
              <g id="Grupo_1161316" data-name="Grupo 1161316">
                <path id="Trazado_996805" data-name="Trazado 996805" d="M331.537,403.982h19.219l18.117-18.117" transform="translate(-331.537 -383.74)" fill="none" stroke="#28965a" stroke-miterlimit="10" stroke-width="0.705"/>
                <g id="Grupo_1161315" data-name="Grupo 1161315" transform="translate(35.056)">
                  <path id="Trazado_996806" data-name="Trazado 996806" d="M329.627,383.954a2.2,2.2,0,1,1,0,3.115A2.2,2.2,0,0,1,329.627,383.954Z" transform="translate(-328.982 -383.31)" fill="#28965a"/>
                </g>
              </g>
            </g>
          </g>
          <g id="Grupo_1161324" data-name="Grupo 1161324" transform="translate(206.181 16.392)">
            <path id="Trazado_996807" data-name="Trazado 996807" d="M208.63,105.983H181.424l-24.4,24.4" transform="translate(-156.375 -70.982)" fill="none" stroke="#2ceaa3" stroke-miterlimit="10" stroke-width="13.877"/>
            <path id="Trazado_996808" data-name="Trazado 996808" d="M90.841,63.9h40.415l20.207,35-20.207,35H90.841l-20.207-35Z" transform="translate(-27.363 -63.899)" fill="#2ceaa3"/>
            <path id="Trazado_996809" data-name="Trazado 996809" d="M97.152,73.255h31.431L144.3,100.474l-15.715,27.22H97.152l-15.715-27.22Z" transform="translate(-29.182 -65.474)" fill="#fff"/>
            <g id="Grupo_1161320" data-name="Grupo 1161320" transform="translate(48.983 4.947)">
              <g id="Grupo_1161319" data-name="Grupo 1161319">
                <path id="Trazado_996810" data-name="Trazado 996810" d="M139.295,70.421l.331-.574h.662" transform="translate(-122.275 -69.847)" fill="none" stroke="#28965a" stroke-miterlimit="10" stroke-width="0.778"/>
                <line id="Línea_1239" data-name="Línea 1239" x2="31.376" transform="translate(19.348)" fill="none" stroke="#28965a" stroke-miterlimit="10" stroke-width="0.778" stroke-dasharray="1.605 1.605"/>
                <path id="Trazado_996811" data-name="Trazado 996811" d="M97.967,69.847h.662l.331.574" transform="translate(-46.575 -69.847)" fill="none" stroke="#28965a" stroke-miterlimit="10" stroke-width="0.778"/>
                <line id="Línea_1240" data-name="Línea 1240" x2="15.688" y2="27.173" transform="translate(53.053 1.73)" fill="none" stroke="#28965a" stroke-miterlimit="10" stroke-width="0.778" stroke-dasharray="1.605 1.605"/>
                <path id="Trazado_996812" data-name="Trazado 996812" d="M77.5,105.294l.331.573-.331.574" transform="translate(-8.427 -75.813)" fill="none" stroke="#28965a" stroke-miterlimit="10" stroke-width="0.778"/>
                <line id="Línea_1241" data-name="Línea 1241" x1="15.688" y2="27.173" transform="translate(52.719 31.784)" fill="none" stroke="#28965a" stroke-miterlimit="10" stroke-width="0.778" stroke-dasharray="1.605 1.605"/>
                <path id="Trazado_996813" data-name="Trazado 996813" d="M98.96,141.43l-.331.573h-.662" transform="translate(-46.575 -81.896)" fill="none" stroke="#28965a" stroke-miterlimit="10" stroke-width="0.778"/>
                <line id="Línea_1242" data-name="Línea 1242" x1="31.376" transform="translate(18.681 60.107)" fill="none" stroke="#28965a" stroke-miterlimit="10" stroke-width="0.778" stroke-dasharray="1.605 1.605"/>
                <path id="Trazado_996814" data-name="Trazado 996814" d="M140.288,142h-.662l-.331-.573" transform="translate(-122.275 -81.896)" fill="none" stroke="#28965a" stroke-miterlimit="10" stroke-width="0.778"/>
                <line id="Línea_1243" data-name="Línea 1243" x1="15.688" y1="27.173" transform="translate(0.665 31.206)" fill="none" stroke="#28965a" stroke-miterlimit="10" stroke-width="0.778" stroke-dasharray="1.605 1.605"/>
                <path id="Trazado_996815" data-name="Trazado 996815" d="M160.887,106.441l-.331-.574.331-.573" transform="translate(-160.556 -75.813)" fill="none" stroke="#28965a" stroke-miterlimit="10" stroke-width="0.778"/>
                <line id="Línea_1244" data-name="Línea 1244" y1="27.173" x2="15.689" transform="translate(0.998 1.152)" fill="none" stroke="#28965a" stroke-miterlimit="10" stroke-width="0.778" stroke-dasharray="1.605 1.605"/>
              </g>
            </g>
            <g id="Grupo_1161323" data-name="Grupo 1161323" transform="translate(0 35.001)">
              <g id="Grupo_1161322" data-name="Grupo 1161322">
                <path id="Trazado_996816" data-name="Trazado 996816" d="M207.813,105.983H183.878l-22.924,22.924" transform="translate(-158.829 -105.983)" fill="none" stroke="#28965a" stroke-miterlimit="10" stroke-width="0.705"/>
                <g id="Grupo_1161321" data-name="Grupo 1161321" transform="translate(0 20.644)">
                  <path id="Trazado_996817" data-name="Trazado 996817" d="M218.314,134.565a2.2,2.2,0,1,1,0-3.115A2.2,2.2,0,0,1,218.314,134.565Z" transform="translate(-214.553 -130.805)" fill="#28965a"/>
                </g>
              </g>
            </g>
          </g>
          <g id="Grupo_1161325" data-name="Grupo 1161325" transform="translate(271.142 27.78)">
            <path id="Trazado_996818" data-name="Trazado 996818" d="M120.883,97.745l-.561.561-.561-.561a13.854,13.854,0,0,1,0-19.592l.561-.561.561.561A13.854,13.854,0,0,1,120.883,97.745Z" transform="translate(-103.283 -77.591)" fill="#28965a"/>
            <line id="Línea_1245" data-name="Línea 1245" y2="50.833" transform="translate(17.039)" fill="none" stroke="#202c23" stroke-linecap="round" stroke-miterlimit="10" stroke-width="0.419"/>
            <path id="Trazado_996819" data-name="Trazado 996819" d="M118.107,81.472l2.609,2.609,2.662-2.663" transform="translate(-103.721 -78.235)" fill="none" stroke="#202c23" stroke-linecap="round" stroke-miterlimit="10" stroke-width="0.419"/>
            <path id="Trazado_996820" data-name="Trazado 996820" d="M116.139,86.315l4.228,4.227,4.3-4.3" transform="translate(-103.372 -79.047)" fill="none" stroke="#202c23" stroke-linecap="round" stroke-miterlimit="10" stroke-width="0.419"/>
            <path id="Trazado_996821" data-name="Trazado 996821" d="M115.935,92.937,120.3,97.3l4.469-4.469" transform="translate(-103.303 -80.156)" fill="none" stroke="#202c23" stroke-linecap="round" stroke-miterlimit="10" stroke-width="0.419"/>
            <path id="Trazado_996822" data-name="Trazado 996822" d="M101.289,108.691H100.5V107.9a13.853,13.853,0,0,1,13.853-13.853h.794v.794A13.853,13.853,0,0,1,101.289,108.691Z" transform="translate(-80.837 -80.36)" fill="#28965a"/>
            <line id="Línea_1246" data-name="Línea 1246" x1="17.283" y2="17.283" transform="translate(17.022 13.683)" fill="none" stroke="#202c23" stroke-linecap="round" stroke-miterlimit="10" stroke-width="0.419"/>
            <path id="Trazado_996823" data-name="Trazado 996823" d="M100.974,94.541V98.23h3.765" transform="translate(-70.832 -80.444)" fill="none" stroke="#202c23" stroke-linecap="round" stroke-miterlimit="10" stroke-width="0.419"/>
            <path id="Trazado_996824" data-name="Trazado 996824" d="M102.994,96.59v5.979h6.08" transform="translate(-76.847 -80.789)" fill="none" stroke="#202c23" stroke-linecap="round" stroke-miterlimit="10" stroke-width="0.419"/>
            <path id="Trazado_996825" data-name="Trazado 996825" d="M107.509,101.163v6.17h6.319" transform="translate(-85.356 -81.559)" fill="none" stroke="#202c23" stroke-linecap="round" stroke-miterlimit="10" stroke-width="0.419"/>
            <path id="Trazado_996826" data-name="Trazado 996826" d="M101.289,126.966H100.5v-.794a13.853,13.853,0,0,1,13.853-13.853h.794v.794A13.853,13.853,0,0,1,101.289,126.966Z" transform="translate(-80.837 -83.436)" fill="#28965a"/>
            <line id="Línea_1247" data-name="Línea 1247" x1="17.283" y2="17.284" transform="translate(17.022 28.881)" fill="none" stroke="#202c23" stroke-linecap="round" stroke-miterlimit="10" stroke-width="0.419"/>
            <path id="Trazado_996827" data-name="Trazado 996827" d="M100.974,112.815V116.5h3.765" transform="translate(-70.832 -83.52)" fill="none" stroke="#202c23" stroke-linecap="round" stroke-miterlimit="10" stroke-width="0.419"/>
            <path id="Trazado_996828" data-name="Trazado 996828" d="M102.994,114.864v5.979h6.08" transform="translate(-76.847 -83.865)" fill="none" stroke="#202c23" stroke-linecap="round" stroke-miterlimit="10" stroke-width="0.419"/>
            <path id="Trazado_996829" data-name="Trazado 996829" d="M107.509,119.437v6.17h6.319" transform="translate(-85.356 -84.634)" fill="none" stroke="#202c23" stroke-linecap="round" stroke-miterlimit="10" stroke-width="0.419"/>
            <path id="Trazado_996830" data-name="Trazado 996830" d="M137.984,116.136h.794v-.794a13.854,13.854,0,0,0-13.853-13.854h-.794v.794A13.854,13.854,0,0,0,137.984,116.136Z" transform="translate(-124.131 -81.613)" fill="#28965a"/>
            <line id="Línea_1248" data-name="Línea 1248" x2="17.022" y2="17.023" transform="translate(0 19.875)" fill="none" stroke="#202c23" stroke-linecap="round" stroke-miterlimit="10" stroke-width="0.419"/>
            <path id="Trazado_996831" data-name="Trazado 996831" d="M140.5,101.986v3.689h-3.766" transform="translate(-136.338 -81.697)" fill="none" stroke="#202c23" stroke-linecap="round" stroke-miterlimit="10" stroke-width="0.419"/>
            <path id="Trazado_996832" data-name="Trazado 996832" d="M138.013,104.035v5.979h-6.079" transform="translate(-129.855 -82.042)" fill="none" stroke="#202c23" stroke-linecap="round" stroke-miterlimit="10" stroke-width="0.419"/>
            <path id="Trazado_996833" data-name="Trazado 996833" d="M133.45,108.608v6.17h-6.319" transform="translate(-121.298 -82.812)" fill="none" stroke="#202c23" stroke-linecap="round" stroke-miterlimit="10" stroke-width="0.419"/>
          </g>
          <g id="Grupo_1161331" data-name="Grupo 1161331" transform="translate(35.732 287.501)">
            <g id="Grupo_1161326" data-name="Grupo 1161326" transform="translate(0 0)">
              <path id="Trazado_996834" data-name="Trazado 996834" d="M404.316,398.673h6.239l9.148,18.5a.848.848,0,0,1-.76,1.224H395.927a.848.848,0,0,1-.76-1.224Z" transform="translate(-395.078 -391.356)" fill="#2ceaa3"/>
              <rect id="Rectángulo_412955" data-name="Rectángulo 412955" width="6.239" height="7.439" transform="translate(9.238 0.729)" fill="#2ceaa3"/>
              <path id="Trazado_996835" data-name="Trazado 996835" d="M412.7,390.6h-7.123a.364.364,0,0,1-.364-.364h0a.364.364,0,0,1,.364-.364H412.7a.365.365,0,0,1,.365.364h0A.364.364,0,0,1,412.7,390.6Z" transform="translate(-396.783 -389.875)" fill="#2ceaa3"/>
            </g>
            <g id="Grupo_1161328" data-name="Grupo 1161328" transform="translate(2.026 15.547)">
              <path id="Trazado_996836" data-name="Trazado 996836" d="M410.288,409.449c-.543-1.687-7.488,1.542-7.488,1.542s4.734,1.8,6.071,1.145S410.288,409.449,410.288,409.449Z" transform="translate(-394.02 -408.635)" fill="#2a6041"/>
              <g id="Grupo_1161327" data-name="Grupo 1161327">
                <path id="Trazado_996837" data-name="Trazado 996837" d="M418.131,418.178l-4.35-8.8c0,.65-1.116,1.436-2.124,1.609-2.094.36-3.162-.2-6.19-1.7a5.162,5.162,0,0,0-3.178-.67l-4.729,9.561a.439.439,0,0,0,.393.633h19.784A.438.438,0,0,0,418.131,418.178Z" transform="translate(-397.514 -408.569)" fill="#28965a"/>
              </g>
            </g>
            <g id="Grupo_1161329" data-name="Grupo 1161329" transform="translate(0.001)" opacity="0.4">
              <path id="Trazado_996838" data-name="Trazado 996838" d="M422.171,389.875h-4.158a.364.364,0,0,0-.364.364h0a.364.364,0,0,0,.364.364h.442v6.588l-9.149,18.5a.848.848,0,0,0,.76,1.224h2.846l9.259-19.134v-7.906Z" transform="translate(-409.218 -389.875)" fill="#fff"/>
            </g>
            <g id="Grupo_1161330" data-name="Grupo 1161330" transform="translate(9.538 6.637)">
              <path id="Trazado_996839" data-name="Trazado 996839" d="M408.048,406.267a.871.871,0,1,0-.871.871A.871.871,0,0,0,408.048,406.267Z" transform="translate(-402.209 -399.124)" fill="none" stroke="#28965a" stroke-miterlimit="10" stroke-width="0.382"/>
              <path id="Trazado_996840" data-name="Trazado 996840" d="M409.131,401.109a.889.889,0,1,0-.889.889A.889.889,0,0,0,409.131,401.109Z" transform="translate(-404.163 -398.253)" fill="none" stroke="#28965a" stroke-miterlimit="10" stroke-width="0.382"/>
              <path id="Trazado_996841" data-name="Trazado 996841" d="M411.451,398.49a.635.635,0,1,0-.635.635A.634.634,0,0,0,411.451,398.49Z" transform="translate(-408.836 -397.855)" fill="none" stroke="#28965a" stroke-miterlimit="10" stroke-width="0.382"/>
              <path id="Trazado_996842" data-name="Trazado 996842" d="M412.689,404.183a1.574,1.574,0,1,0-1.574,1.574A1.574,1.574,0,0,0,412.689,404.183Z" transform="translate(-409.54 -398.655)" fill="none" stroke="#28965a" stroke-miterlimit="10" stroke-width="0.382"/>
            </g>
            <rect id="Rectángulo_412956" data-name="Rectángulo 412956" width="6.239" height="0.55" transform="translate(9.238 0.729)" fill="#28965a" opacity="0.2"/>
          </g>
        </g>
      </g>
    </g>
  </g>
</svg>
