<svg xmlns="http://www.w3.org/2000/svg" xmlns:xlink="http://www.w3.org/1999/xlink" width="610" height="511" viewBox="0 0 610 511">
  <defs>
    <clipPath id="clip-path">
      <rect id="Rectángulo_412950" data-name="Rectángulo 412950" width="610" height="511" transform="translate(1103 2673)" fill="#fff" stroke="#707070" stroke-width="1"/>
    </clipPath>
    <filter id="Elipse_11581" x="45.043" y="22.114" width="524.886" height="524.886" filterUnits="userSpaceOnUse">
      <feOffset dy="3" input="SourceAlpha"/>
      <feGaussianBlur stdDeviation="3" result="blur"/>
      <feFlood flood-opacity="0.161"/>
      <feComposite operator="in" in2="blur"/>
      <feComposite in="SourceGraphic"/>
    </filter>
    <clipPath id="clip-path-2">
      <circle id="Elipse_11589" data-name="Elipse 11589" cx="253.443" cy="253.443" r="253.443"/>
    </clipPath>
  </defs>
  <g id="Enmascarar_grupo_1098778" data-name="Enmascarar grupo 1098778" transform="translate(-1103 -2673)" clip-path="url(#clip-path)">
    <g transform="matrix(1, 0, 0, 1, 1103, 2673)" filter="url(#Elipse_11581)">
      <circle id="Elipse_11581-2" data-name="Elipse 11581" cx="253.443" cy="253.443" r="253.443" transform="translate(54.04 28.11)" fill="#fef0d7"/>
    </g>
    <g id="OBJECTS" transform="translate(1077.071 2701.114)">
      <g id="Grupo_1161222" data-name="Grupo 1161222" transform="translate(0 60.831)">
        <g id="Grupo_1161172" data-name="Grupo 1161172" transform="translate(0 37.597)">
          <circle id="Elipse_11582" data-name="Elipse 11582" cx="72.5" cy="72.5" r="72.5" transform="translate(0 153.901) rotate(-45)" fill="#edae49" opacity="0.44"/>
          <g id="Grupo_1161160" data-name="Grupo 1161160" transform="translate(32.162 82.597)">
            <path id="Trazado_996534" data-name="Trazado 996534" d="M58.2,245.212a6.33,6.33,0,0,1-2.527,5.3,9.289,9.289,0,0,1-4.6,1.774v2.284a1.193,1.193,0,0,1-1.182,1.182H47.91a1.193,1.193,0,0,1-1.182-1.182v-2.2a12.6,12.6,0,0,1-5.617-1.613,1.941,1.941,0,0,1-.672-.807,1.632,1.632,0,0,1-.161-.995,2.6,2.6,0,0,1,.269-.995,1.9,1.9,0,0,1,.672-.779,2.251,2.251,0,0,1,.941-.377,2.21,2.21,0,0,1,1.182.269,12.3,12.3,0,0,0,3.386.941,9.486,9.486,0,0,0,1.935.188,5.975,5.975,0,0,0,2.419-.43,1.266,1.266,0,0,0,.43-.188,2,2,0,0,0,1.1-1.854,2.329,2.329,0,0,0-1.533-2.1,6.852,6.852,0,0,0-.887-.377l-3.468-1.128-1.774-.592a10.538,10.538,0,0,1-4.14-2.446,5.221,5.221,0,0,1-1.21-3.655,6.086,6.086,0,0,1,2.527-5.107,9.819,9.819,0,0,1,4.6-1.774v-2.23a1.2,1.2,0,0,1,1.182-1.21H49.9a1.2,1.2,0,0,1,1.182,1.21v2.23q1.049.161,2.1.4a7.608,7.608,0,0,1,3.279,1.559,2.166,2.166,0,0,1,.538,2.2,3.208,3.208,0,0,1-.564.913,1.422,1.422,0,0,1-.833.538,1.514,1.514,0,0,1-.967-.108,10.848,10.848,0,0,0-2.635-1.1,7.993,7.993,0,0,0-.913-.188,13.242,13.242,0,0,0-1.881-.134,7.588,7.588,0,0,0-1.962.241,2.932,2.932,0,0,0-.51.188,2.638,2.638,0,0,0-.995.592A1.678,1.678,0,0,0,45.117,235a1.875,1.875,0,0,0,.833,1.613,4.235,4.235,0,0,0,.779.457,15.726,15.726,0,0,0,1.694.7,9.4,9.4,0,0,0,1.21.241,6.563,6.563,0,0,1,1.236.215.8.8,0,0,0,.215.054c.887.3,1.613.564,2.258.807a17.47,17.47,0,0,1,2.015.995,6.971,6.971,0,0,1,1.559,1.29,5.267,5.267,0,0,1,.941,1.666A6.229,6.229,0,0,1,58.2,245.212Z" transform="translate(-39.605 -187.026)" fill="#cc913b"/>
            <path id="Trazado_996535" data-name="Trazado 996535" d="M96.982,223.049a8.046,8.046,0,0,1-3.21,6.729,11.8,11.8,0,0,1-5.84,2.254v2.9a1.516,1.516,0,0,1-1.5,1.5H83.9a1.517,1.517,0,0,1-1.5-1.5v-2.8a16.028,16.028,0,0,1-7.138-2.05,2.474,2.474,0,0,1-.854-1.025,2.075,2.075,0,0,1-.2-1.264,3.313,3.313,0,0,1,.342-1.264,2.408,2.408,0,0,1,.854-.99,2.866,2.866,0,0,1,1.2-.479,2.824,2.824,0,0,1,1.5.341,15.615,15.615,0,0,0,4.3,1.2,11.978,11.978,0,0,0,2.459.239,7.626,7.626,0,0,0,3.075-.546,1.589,1.589,0,0,0,.546-.239,2.536,2.536,0,0,0,1.4-2.357,2.959,2.959,0,0,0-1.946-2.664,8.6,8.6,0,0,0-1.127-.479L82.4,219.121l-2.254-.752a13.384,13.384,0,0,1-5.26-3.108,6.63,6.63,0,0,1-1.537-4.646,7.738,7.738,0,0,1,3.211-6.49,12.477,12.477,0,0,1,5.84-2.254v-2.835a1.523,1.523,0,0,1,1.5-1.537h2.527a1.524,1.524,0,0,1,1.5,1.537v2.835q1.332.2,2.664.512a9.685,9.685,0,0,1,4.167,1.981,2.872,2.872,0,0,1,.752,1.366,2.9,2.9,0,0,1-.068,1.435,4.123,4.123,0,0,1-.717,1.161,1.8,1.8,0,0,1-1.059.683,1.928,1.928,0,0,1-1.229-.137,13.785,13.785,0,0,0-3.348-1.4,9.886,9.886,0,0,0-1.161-.239,16.781,16.781,0,0,0-2.391-.171,9.567,9.567,0,0,0-2.494.308,3.6,3.6,0,0,0-.648.239,3.352,3.352,0,0,0-1.264.752,2.134,2.134,0,0,0-.786,1.708,2.385,2.385,0,0,0,1.059,2.05,5.4,5.4,0,0,0,.99.581,19.747,19.747,0,0,0,2.152.888,11.933,11.933,0,0,0,1.537.308,8.392,8.392,0,0,1,1.571.273,1.041,1.041,0,0,0,.273.068c1.127.375,2.05.717,2.869,1.025a22.444,22.444,0,0,1,2.562,1.263,8.864,8.864,0,0,1,1.981,1.64,6.728,6.728,0,0,1,1.2,2.117A8.009,8.009,0,0,1,96.982,223.049Z" transform="translate(-26.802 -197.5)" fill="#cc913b"/>
            <path id="Trazado_996536" data-name="Trazado 996536" d="M115.435,232.165a4.567,4.567,0,0,1-1.824,3.821,6.7,6.7,0,0,1-3.317,1.28v1.648a.861.861,0,0,1-.854.854H108a.861.861,0,0,1-.854-.854v-1.59a9.1,9.1,0,0,1-4.054-1.164,1.409,1.409,0,0,1-.486-.582,1.183,1.183,0,0,1-.116-.717,1.861,1.861,0,0,1,.195-.717,1.368,1.368,0,0,1,.486-.563,1.349,1.349,0,0,1,1.533-.077,8.861,8.861,0,0,0,2.444.679,6.851,6.851,0,0,0,1.4.135,4.321,4.321,0,0,0,1.746-.31.894.894,0,0,0,.31-.135,1.441,1.441,0,0,0,.8-1.338,1.681,1.681,0,0,0-1.106-1.513,4.906,4.906,0,0,0-.64-.272l-2.5-.815-1.28-.426a7.6,7.6,0,0,1-2.988-1.766,3.765,3.765,0,0,1-.873-2.639,4.394,4.394,0,0,1,1.824-3.686,7.083,7.083,0,0,1,3.317-1.28v-1.61a.865.865,0,0,1,.854-.873h1.436a.865.865,0,0,1,.854.873v1.61q.757.116,1.513.291a5.5,5.5,0,0,1,2.367,1.126,1.621,1.621,0,0,1,.426.777,1.647,1.647,0,0,1-.039.815,2.341,2.341,0,0,1-.407.659,1.019,1.019,0,0,1-.6.388,1.1,1.1,0,0,1-.7-.077,7.874,7.874,0,0,0-1.9-.8,5.663,5.663,0,0,0-.659-.135,9.536,9.536,0,0,0-1.357-.1,5.416,5.416,0,0,0-1.417.175,2.076,2.076,0,0,0-.368.135,1.907,1.907,0,0,0-.717.426,1.212,1.212,0,0,0-.447.97,1.354,1.354,0,0,0,.6,1.164,3.042,3.042,0,0,0,.563.33,11.257,11.257,0,0,0,1.222.5,6.836,6.836,0,0,0,.873.174,4.679,4.679,0,0,1,.892.156.6.6,0,0,0,.154.039c.64.214,1.164.407,1.629.582a12.676,12.676,0,0,1,1.455.717,5.04,5.04,0,0,1,1.126.931,3.785,3.785,0,0,1,.679,1.2A4.5,4.5,0,0,1,115.435,232.165Z" transform="translate(-15.929 -189.854)" fill="#cc913b"/>
          </g>
          <g id="Grupo_1161171" data-name="Grupo 1161171" transform="translate(44.44)">
            <path id="Trazado_996537" data-name="Trazado 996537" d="M164.693,275.54v.083c-.069,3.807-26.057,6.883-58.1,6.883s-58.017-3.076-58.086-6.883v-.083c.317-3.78,26.195-6.828,58.086-6.828S164.376,271.76,164.693,275.54Z" transform="translate(-48.506 -87.886)"/>
            <path id="Trazado_996538" data-name="Trazado 996538" d="M48.506,306.816l58.092-169.2,58.092,169.2" transform="translate(-48.506 -137.621)" fill="none" stroke="#000" stroke-miterlimit="10" stroke-width="1"/>
            <g id="Grupo_1161170" data-name="Grupo 1161170" transform="translate(7.453 137.913)">
              <g id="Grupo_1161167" data-name="Grupo 1161167" transform="translate(17.058)">
                <g id="Grupo_1161161" data-name="Grupo 1161161" transform="translate(7.18 47.068)">
                  <path id="Trazado_996539" data-name="Trazado 996539" d="M129.928,276.221v6.166c0,2.028-4.58,3.835-11.683,4.966-1.352.221-2.814.414-4.345.579-.938.1-1.9.193-2.9.276l-4.345.262c-1.917.083-3.917.124-5.959.124a127.694,127.694,0,0,1-13.6-.69c-1.545-.179-2.993-.386-4.345-.607-.676-.11-1.324-.221-1.917-.359a41.354,41.354,0,0,1-4.359-1.062c-3.145-.979-4.993-2.193-4.993-3.49v-6.166c0,1.131,1.407,2.207,3.931,3.09.331.11.69.248,1.062.359a44.8,44.8,0,0,0,4.359,1.076c.621.11,1.241.221,1.917.359,1.352.221,2.8.4,4.345.579a127.1,127.1,0,0,0,13.6.7q3.062,0,5.959-.124c1.49-.069,2.938-.165,4.345-.276.993-.083,1.959-.166,2.9-.262q2.3-.248,4.345-.579A43.566,43.566,0,0,0,126,279.311C128.52,278.428,129.928,277.352,129.928,276.221Z" transform="translate(-71.479 -270.018)" fill="#cc913b"/>
                  <path id="Trazado_996540" data-name="Trazado 996540" d="M129.928,277.927c0,1.126-1.414,2.192-3.923,3.087-5.049,1.847-14.482,3.087-25.3,3.087s-20.251-1.24-25.3-3.087c-2.51-.894-3.924-1.961-3.924-3.087,0-3.433,13.068-6.2,29.224-6.2S129.928,274.494,129.928,277.927Z" transform="translate(-71.48 -271.724)" fill="#edae49"/>
                  <path id="Trazado_996541" data-name="Trazado 996541" d="M79.455,279.794v6.2a41.19,41.19,0,0,1-4.349-1.07v-6.2Q76.981,279.293,79.455,279.794Z" transform="translate(-70.104 -269.068)" fill="#edbf7c"/>
                  <path id="Trazado_996542" data-name="Trazado 996542" d="M106.577,279.791V286c-1.352.221-2.814.414-4.345.579V280.37Q104.529,280.122,106.577,279.791Z" transform="translate(-59.813 -268.663)" fill="#edbf7c"/>
                  <path id="Trazado_996543" data-name="Trazado 996543" d="M101.327,286.622V280.4c-1.407.11-2.855.207-4.345.276v6.207Z" transform="translate(-61.805 -268.432)" fill="#edbf7c"/>
                  <path id="Trazado_996544" data-name="Trazado 996544" d="M84,280.339v6.222q-2.309-.267-4.349-.6v-6.2C81.01,279.982,82.46,280.159,84,280.339Z" transform="translate(-68.38 -268.676)" fill="#edbf7c"/>
                </g>
                <g id="Grupo_1161162" data-name="Grupo 1161162" transform="translate(5.956 38.471)">
                  <path id="Trazado_996545" data-name="Trazado 996545" d="M129.04,269.989v6.166c0,2.028-4.58,3.835-11.683,4.966-1.352.221-2.814.414-4.345.579-.938.1-1.9.193-2.9.276l-4.345.262c-1.917.083-3.917.124-5.959.124a127.7,127.7,0,0,1-13.6-.69c-1.545-.179-2.993-.386-4.345-.607-.676-.11-1.324-.221-1.917-.359a41.368,41.368,0,0,1-4.359-1.062c-3.145-.979-4.993-2.193-4.993-3.49v-6.166c0,1.131,1.407,2.207,3.931,3.09.331.11.69.248,1.062.359a44.809,44.809,0,0,0,4.359,1.076c.621.11,1.241.221,1.917.359,1.352.221,2.8.4,4.345.579a127.1,127.1,0,0,0,13.6.7q3.062,0,5.959-.124c1.49-.069,2.938-.166,4.345-.276.993-.083,1.959-.166,2.9-.262q2.3-.248,4.345-.579a43.564,43.564,0,0,0,7.752-1.835C127.633,272.2,129.04,271.12,129.04,269.989Z" transform="translate(-70.592 -263.786)" fill="#cc913b"/>
                  <path id="Trazado_996546" data-name="Trazado 996546" d="M129.041,271.7c0,1.126-1.414,2.193-3.923,3.087-5.049,1.846-14.482,3.087-25.3,3.087s-20.252-1.24-25.3-3.087c-2.509-.894-3.923-1.961-3.923-3.087,0-3.433,13.068-6.2,29.224-6.2S129.041,268.262,129.041,271.7Z" transform="translate(-70.593 -265.492)" fill="#edae49"/>
                  <path id="Trazado_996547" data-name="Trazado 996547" d="M78.568,273.562v6.2a41.265,41.265,0,0,1-4.349-1.07v-6.2Q76.094,273.059,78.568,273.562Z" transform="translate(-69.217 -262.836)" fill="#edbf7c"/>
                  <path id="Trazado_996548" data-name="Trazado 996548" d="M105.69,273.559v6.207c-1.352.221-2.814.414-4.345.579v-6.207Q103.642,273.89,105.69,273.559Z" transform="translate(-58.926 -262.431)" fill="#edbf7c"/>
                  <path id="Trazado_996549" data-name="Trazado 996549" d="M100.44,280.39v-6.221c-1.407.11-2.855.207-4.345.276v6.207Z" transform="translate(-60.918 -262.2)" fill="#edbf7c"/>
                  <path id="Trazado_996550" data-name="Trazado 996550" d="M83.112,274.107v6.222q-2.309-.267-4.349-.6v-6.2C80.123,273.749,81.573,273.927,83.112,274.107Z" transform="translate(-67.493 -262.444)" fill="#edbf7c"/>
                </g>
                <g id="Grupo_1161163" data-name="Grupo 1161163" transform="translate(0 29.308)">
                  <path id="Trazado_996551" data-name="Trazado 996551" d="M124.724,263.346v6.166c0,2.028-4.58,3.835-11.683,4.966-1.352.221-2.814.414-4.345.579-.938.1-1.9.193-2.9.276l-4.345.262c-1.917.083-3.917.124-5.959.124a127.7,127.7,0,0,1-13.6-.69c-1.545-.179-2.993-.386-4.345-.607-.676-.11-1.324-.221-1.917-.359A41.367,41.367,0,0,1,71.272,273c-3.145-.979-4.993-2.193-4.993-3.49v-6.166c0,1.131,1.407,2.207,3.931,3.09.331.11.69.248,1.062.359a44.817,44.817,0,0,0,4.359,1.076c.621.11,1.241.221,1.917.359,1.352.221,2.8.4,4.345.579a127.106,127.106,0,0,0,13.6.7q3.062,0,5.959-.124c1.49-.069,2.938-.165,4.345-.276.993-.083,1.959-.165,2.9-.262q2.3-.248,4.345-.579a43.565,43.565,0,0,0,7.752-1.835C123.317,265.553,124.724,264.477,124.724,263.346Z" transform="translate(-66.273 -257.143)" fill="#cc913b"/>
                  <path id="Trazado_996552" data-name="Trazado 996552" d="M124.724,265.051c0,1.126-1.414,2.193-3.923,3.087-5.049,1.847-14.482,3.087-25.3,3.087s-20.252-1.24-25.3-3.087c-2.511-.894-3.924-1.962-3.924-3.087,0-3.433,13.068-6.2,29.224-6.2S124.724,261.619,124.724,265.051Z" transform="translate(-66.275 -258.849)" fill="#edae49"/>
                  <path id="Trazado_996553" data-name="Trazado 996553" d="M74.252,266.918v6.2a41.181,41.181,0,0,1-4.349-1.07v-6.2Q71.776,266.417,74.252,266.918Z" transform="translate(-64.899 -256.194)" fill="#edbf7c"/>
                  <path id="Trazado_996554" data-name="Trazado 996554" d="M101.374,266.916v6.207c-1.352.221-2.814.414-4.345.579V267.5Q99.326,267.247,101.374,266.916Z" transform="translate(-54.607 -255.788)" fill="#edbf7c"/>
                  <path id="Trazado_996555" data-name="Trazado 996555" d="M96.124,273.747v-6.221c-1.407.11-2.855.207-4.345.276v6.207Z" transform="translate(-56.599 -255.557)" fill="#edbf7c"/>
                  <path id="Trazado_996556" data-name="Trazado 996556" d="M78.8,267.463v6.222q-2.309-.267-4.349-.6v-6.2C75.807,267.107,77.257,267.285,78.8,267.463Z" transform="translate(-63.175 -255.801)" fill="#edbf7c"/>
                </g>
                <g id="Grupo_1161164" data-name="Grupo 1161164" transform="translate(4.919 20.145)">
                  <path id="Trazado_996557" data-name="Trazado 996557" d="M128.289,256.7v6.166c0,2.028-4.58,3.835-11.683,4.966-1.352.221-2.814.414-4.345.579-.938.1-1.9.193-2.9.276l-4.345.262c-1.917.083-3.917.124-5.959.124a127.694,127.694,0,0,1-13.6-.69c-1.545-.179-2.993-.386-4.345-.607-.676-.11-1.324-.221-1.917-.359a41.36,41.36,0,0,1-4.359-1.062c-3.145-.979-4.993-2.193-4.993-3.49V256.7c0,1.131,1.407,2.207,3.931,3.09.331.11.69.248,1.062.359a44.824,44.824,0,0,0,4.359,1.076c.621.11,1.241.221,1.917.359,1.352.221,2.8.4,4.345.579a127.114,127.114,0,0,0,13.6.7q3.062,0,5.959-.124c1.49-.069,2.938-.165,4.345-.276.993-.083,1.959-.165,2.9-.262q2.3-.248,4.345-.579a43.563,43.563,0,0,0,7.752-1.835C126.882,258.909,128.289,257.833,128.289,256.7Z" transform="translate(-69.84 -250.5)" fill="#cc913b"/>
                  <path id="Trazado_996558" data-name="Trazado 996558" d="M128.289,258.408c0,1.126-1.414,2.193-3.923,3.087-5.049,1.847-14.482,3.087-25.3,3.087s-20.252-1.24-25.3-3.087c-2.51-.894-3.924-1.961-3.924-3.087,0-3.433,13.068-6.2,29.224-6.2S128.289,254.974,128.289,258.408Z" transform="translate(-69.841 -252.206)" fill="#edae49"/>
                  <path id="Trazado_996559" data-name="Trazado 996559" d="M77.817,260.275v6.2a41.2,41.2,0,0,1-4.349-1.07v-6.2Q75.341,259.772,77.817,260.275Z" transform="translate(-68.465 -249.551)" fill="#edbf7c"/>
                  <path id="Trazado_996560" data-name="Trazado 996560" d="M104.939,260.272v6.207c-1.352.221-2.814.414-4.345.579v-6.207Q102.891,260.6,104.939,260.272Z" transform="translate(-58.173 -249.146)" fill="#edbf7c"/>
                  <path id="Trazado_996561" data-name="Trazado 996561" d="M99.689,267.1v-6.221c-1.407.11-2.855.207-4.345.276v6.207Z" transform="translate(-60.165 -248.914)" fill="#edbf7c"/>
                  <path id="Trazado_996562" data-name="Trazado 996562" d="M82.36,260.82v6.222q-2.309-.267-4.349-.6v-6.2C79.372,260.462,80.822,260.64,82.36,260.82Z" transform="translate(-66.741 -249.158)" fill="#edbf7c"/>
                </g>
                <g id="Grupo_1161165" data-name="Grupo 1161165" transform="translate(4.92 10.856)">
                  <path id="Trazado_996563" data-name="Trazado 996563" d="M128.29,249.969v6.166c0,2.028-4.58,3.835-11.683,4.966-1.352.221-2.814.414-4.345.579-.938.1-1.9.193-2.9.276l-4.345.262c-1.917.083-3.917.124-5.959.124a127.694,127.694,0,0,1-13.6-.69c-1.545-.179-2.993-.386-4.345-.607-.676-.11-1.324-.221-1.917-.359a41.352,41.352,0,0,1-4.359-1.062c-3.145-.979-4.993-2.193-4.993-3.49v-6.166c0,1.131,1.407,2.207,3.931,3.09.331.11.69.248,1.062.359a44.825,44.825,0,0,0,4.359,1.076c.621.11,1.241.221,1.917.359,1.352.221,2.8.4,4.345.579a127.115,127.115,0,0,0,13.6.7q3.062,0,5.959-.124c1.49-.069,2.938-.166,4.345-.276.993-.083,1.959-.165,2.9-.262q2.3-.248,4.345-.579a43.564,43.564,0,0,0,7.752-1.835C126.883,252.176,128.29,251.1,128.29,249.969Z" transform="translate(-69.841 -243.766)" fill="#cc913b"/>
                  <path id="Trazado_996564" data-name="Trazado 996564" d="M128.29,251.675c0,1.126-1.414,2.192-3.923,3.087-5.049,1.847-14.482,3.087-25.3,3.087s-20.252-1.24-25.3-3.087c-2.509-.894-3.923-1.961-3.923-3.087,0-3.433,13.068-6.2,29.224-6.2S128.29,248.242,128.29,251.675Z" transform="translate(-69.842 -245.472)" fill="#edae49"/>
                  <path id="Trazado_996565" data-name="Trazado 996565" d="M77.818,253.541v6.2a41.188,41.188,0,0,1-4.349-1.07v-6.2Q75.342,253.04,77.818,253.541Z" transform="translate(-68.466 -242.817)" fill="#edbf7c"/>
                  <path id="Trazado_996566" data-name="Trazado 996566" d="M104.94,253.539v6.207c-1.352.221-2.814.414-4.345.579v-6.207Q102.892,253.87,104.94,253.539Z" transform="translate(-58.175 -242.411)" fill="#edbf7c"/>
                  <path id="Trazado_996567" data-name="Trazado 996567" d="M99.69,260.37v-6.221c-1.407.11-2.855.207-4.345.276v6.207Z" transform="translate(-60.166 -242.18)" fill="#edbf7c"/>
                  <path id="Trazado_996568" data-name="Trazado 996568" d="M82.361,254.086v6.222q-2.309-.267-4.349-.6v-6.2C79.373,253.73,80.823,253.908,82.361,254.086Z" transform="translate(-66.742 -242.424)" fill="#edbf7c"/>
                </g>
                <g id="Grupo_1161166" data-name="Grupo 1161166" transform="translate(0.003)">
                  <path id="Trazado_996569" data-name="Trazado 996569" d="M124.725,242.1v6.166c0,2.028-4.58,3.835-11.683,4.966-1.352.221-2.814.414-4.345.579-.938.1-1.9.193-2.9.276l-4.345.262c-1.917.083-3.917.124-5.959.124a127.693,127.693,0,0,1-13.6-.69c-1.545-.179-2.993-.386-4.345-.607-.676-.11-1.324-.221-1.917-.359a41.352,41.352,0,0,1-4.359-1.062c-3.145-.979-4.993-2.193-4.993-3.49V242.1c0,1.131,1.407,2.207,3.931,3.09.331.11.69.248,1.062.359a44.826,44.826,0,0,0,4.359,1.076c.621.11,1.241.221,1.917.359,1.352.221,2.8.4,4.345.579a127.106,127.106,0,0,0,13.6.7q3.062,0,5.959-.124c1.49-.069,2.938-.166,4.345-.276.993-.083,1.959-.165,2.9-.262q2.3-.248,4.345-.579a43.568,43.568,0,0,0,7.752-1.835C123.318,244.306,124.725,243.23,124.725,242.1Z" transform="translate(-66.276 -235.896)" fill="#cc913b"/>
                  <path id="Trazado_996570" data-name="Trazado 996570" d="M124.726,243.805c0,1.126-1.414,2.192-3.923,3.087-5.049,1.847-14.482,3.087-25.3,3.087s-20.252-1.24-25.3-3.087c-2.51-.894-3.924-1.962-3.924-3.087,0-3.433,13.068-6.2,29.224-6.2S124.726,240.372,124.726,243.805Z" transform="translate(-66.277 -237.602)" fill="#edae49"/>
                  <path id="Trazado_996571" data-name="Trazado 996571" d="M74.253,245.671v6.2A41.188,41.188,0,0,1,69.9,250.8v-6.2Q71.779,245.17,74.253,245.671Z" transform="translate(-64.901 -234.947)" fill="#edbf7c"/>
                  <path id="Trazado_996572" data-name="Trazado 996572" d="M101.375,245.669v6.207c-1.352.221-2.814.414-4.345.579v-6.207Q99.327,246,101.375,245.669Z" transform="translate(-54.61 -234.541)" fill="#edbf7c"/>
                  <path id="Trazado_996573" data-name="Trazado 996573" d="M96.125,252.5v-6.221c-1.407.11-2.855.207-4.345.276v6.207Z" transform="translate(-56.601 -234.31)" fill="#edbf7c"/>
                  <path id="Trazado_996574" data-name="Trazado 996574" d="M78.8,246.216v6.222q-2.309-.267-4.349-.6v-6.2C75.808,245.86,77.258,246.038,78.8,246.216Z" transform="translate(-63.177 -234.554)" fill="#edbf7c"/>
                </g>
              </g>
              <g id="Grupo_1161168" data-name="Grupo 1161168" transform="translate(0 25.148)">
                <path id="Trazado_996575" data-name="Trazado 996575" d="M105.107,281.426a25.579,25.579,0,0,1-24.745,25.579c-.279.023-.57.023-.848.023-.3,0-.606,0-.909-.023a25.594,25.594,0,1,1,26.5-25.579Z" transform="translate(-53.909 -255.833)" fill="#edae49"/>
                <path id="Trazado_996576" data-name="Trazado 996576" d="M97.524,297.424a25.436,25.436,0,0,1-17.162,7.388H78.605A25.585,25.585,0,0,1,60.946,261.62Z" transform="translate(-53.909 -253.637)" fill="#edbf7c"/>
                <path id="Trazado_996577" data-name="Trazado 996577" d="M97.2,279.724a19.351,19.351,0,0,1-5.741,13.783l-.073.073A19.34,19.34,0,0,1,78.448,299.1c-.206.012-.436.012-.641.012-.23,0-.461,0-.691-.012A19.38,19.38,0,0,1,63.672,266.45l.073-.073A19.388,19.388,0,0,1,97.2,279.724Z" transform="translate(-52.204 -254.126)" fill="#ffdbab"/>
                <path id="Trazado_996578" data-name="Trazado 996578" d="M91.384,291.9a19.34,19.34,0,0,1-12.936,5.523c-.206.012-.436.012-.641.012-.23,0-.461,0-.691-.012a19.38,19.38,0,0,1-13.444-32.653Z" transform="translate(-52.204 -252.443)" fill="#edae49"/>
                <path id="Trazado_996579" data-name="Trazado 996579" d="M82.879,282.293a5.563,5.563,0,0,1-2.218,4.65,8.156,8.156,0,0,1-4.036,1.557v2.006a1.047,1.047,0,0,1-1.039,1.039H73.839a1.047,1.047,0,0,1-1.039-1.039V288.57a11.076,11.076,0,0,1-4.933-1.417,1.715,1.715,0,0,1-.59-.708,1.432,1.432,0,0,1-.142-.873,2.308,2.308,0,0,1,.236-.873,1.667,1.667,0,0,1,.59-.684,1.975,1.975,0,0,1,.826-.331,1.951,1.951,0,0,1,1.039.236,10.8,10.8,0,0,0,2.974.826,8.351,8.351,0,0,0,1.7.165,5.266,5.266,0,0,0,2.124-.378,1.069,1.069,0,0,0,.378-.166,1.755,1.755,0,0,0,.968-1.629,2.045,2.045,0,0,0-1.345-1.84,5.91,5.91,0,0,0-.779-.331l-3.044-.992-1.557-.519a9.238,9.238,0,0,1-3.635-2.148,4.585,4.585,0,0,1-1.062-3.21,5.344,5.344,0,0,1,2.218-4.484,8.622,8.622,0,0,1,4.036-1.557V265.7a1.053,1.053,0,0,1,1.039-1.062h1.745a1.053,1.053,0,0,1,1.039,1.062v1.959q.921.143,1.841.354a6.691,6.691,0,0,1,2.879,1.368,1.974,1.974,0,0,1,.519.944,2.007,2.007,0,0,1-.047.992,2.857,2.857,0,0,1-.5.8,1.243,1.243,0,0,1-.731.472,1.341,1.341,0,0,1-.85-.094,9.548,9.548,0,0,0-2.313-.968,6.83,6.83,0,0,0-.8-.165,11.612,11.612,0,0,0-1.653-.119,6.6,6.6,0,0,0-1.723.212,2.427,2.427,0,0,0-.448.166,2.326,2.326,0,0,0-.873.519,1.473,1.473,0,0,0-.543,1.179,1.648,1.648,0,0,0,.731,1.417,3.758,3.758,0,0,0,.684.4,13.6,13.6,0,0,0,1.487.614,8.242,8.242,0,0,0,1.062.212,5.831,5.831,0,0,1,1.086.189.731.731,0,0,0,.189.047c.779.259,1.417.5,1.982.708a15.223,15.223,0,0,1,1.77.873,6.108,6.108,0,0,1,1.368,1.132,4.624,4.624,0,0,1,.826,1.464A5.415,5.415,0,0,1,82.879,282.293Z" transform="translate(-49.114 -252.492)" fill="#cc913b"/>
              </g>
              <g id="Grupo_1161169" data-name="Grupo 1161169" transform="translate(57.083 13.364)">
                <path id="Trazado_996580" data-name="Trazado 996580" d="M146.491,272.883a25.579,25.579,0,0,1-24.745,25.579c-.279.025-.57.025-.848.025-.3,0-.606,0-.909-.025a25.594,25.594,0,1,1,26.5-25.579Z" transform="translate(-95.292 -247.29)" fill="#edae49"/>
                <path id="Trazado_996581" data-name="Trazado 996581" d="M138.909,288.88a25.436,25.436,0,0,1-17.162,7.388h-1.756a25.584,25.584,0,0,1-17.659-43.192Z" transform="translate(-95.291 -245.095)" fill="#edbf7c"/>
                <path id="Trazado_996582" data-name="Trazado 996582" d="M138.582,271.18a19.351,19.351,0,0,1-5.741,13.783l-.073.073a19.34,19.34,0,0,1-12.936,5.523c-.206.012-.436.012-.641.012-.23,0-.461,0-.69-.012a19.381,19.381,0,0,1-13.445-32.653l.073-.073a19.388,19.388,0,0,1,33.453,13.347Z" transform="translate(-93.586 -245.583)" fill="#ffdbab"/>
                <path id="Trazado_996583" data-name="Trazado 996583" d="M132.769,283.353a19.34,19.34,0,0,1-12.936,5.523c-.206.012-.436.012-.641.012-.23,0-.461,0-.69-.012a19.381,19.381,0,0,1-13.445-32.653Z" transform="translate(-93.586 -243.901)" fill="#edae49"/>
                <path id="Trazado_996584" data-name="Trazado 996584" d="M124.263,273.749a5.563,5.563,0,0,1-2.218,4.65,8.155,8.155,0,0,1-4.036,1.557v2.006A1.047,1.047,0,0,1,116.97,283h-1.746a1.047,1.047,0,0,1-1.039-1.039v-1.935a11.077,11.077,0,0,1-4.933-1.417,1.715,1.715,0,0,1-.59-.708,1.433,1.433,0,0,1-.142-.873,2.308,2.308,0,0,1,.236-.873,1.657,1.657,0,0,1,.59-.684,1.643,1.643,0,0,1,1.865-.1,10.813,10.813,0,0,0,2.974.826,8.253,8.253,0,0,0,1.7.166,5.266,5.266,0,0,0,2.124-.378,1.068,1.068,0,0,0,.378-.166,1.753,1.753,0,0,0,.967-1.629,2.048,2.048,0,0,0-1.345-1.841,5.906,5.906,0,0,0-.779-.331l-3.044-.992-1.557-.519a9.248,9.248,0,0,1-3.635-2.148,4.585,4.585,0,0,1-1.062-3.21,5.344,5.344,0,0,1,2.218-4.484,8.622,8.622,0,0,1,4.036-1.557v-1.959a1.053,1.053,0,0,1,1.039-1.062h1.746a1.053,1.053,0,0,1,1.039,1.062v1.959q.921.143,1.84.354a6.69,6.69,0,0,1,2.879,1.368,1.974,1.974,0,0,1,.519.944,2.007,2.007,0,0,1-.047.992,2.827,2.827,0,0,1-.5.8,1.243,1.243,0,0,1-.731.472,1.341,1.341,0,0,1-.85-.094,9.548,9.548,0,0,0-2.313-.968,6.851,6.851,0,0,0-.8-.165,11.629,11.629,0,0,0-1.652-.117,6.6,6.6,0,0,0-1.723.212,2.424,2.424,0,0,0-.448.166,2.328,2.328,0,0,0-.873.519,1.473,1.473,0,0,0-.543,1.179,1.644,1.644,0,0,0,.731,1.415,3.758,3.758,0,0,0,.684.4,13.606,13.606,0,0,0,1.487.614,8.252,8.252,0,0,0,1.062.212,5.826,5.826,0,0,1,1.086.189.733.733,0,0,0,.189.047c.779.259,1.417.5,1.982.708a15.219,15.219,0,0,1,1.77.873,6.11,6.11,0,0,1,1.368,1.133,4.651,4.651,0,0,1,.826,1.464A5.366,5.366,0,0,1,124.263,273.749Z" transform="translate(-90.497 -243.95)" fill="#cc913b"/>
              </g>
            </g>
            <path id="Trazado_996585" data-name="Trazado 996585" d="M164.693,273.722c-.069,21.477-26.057,38.871-58.1,38.871S48.576,295.2,48.507,273.722c.069,3.807,26.043,6.883,58.086,6.883S164.624,277.529,164.693,273.722Z" transform="translate(-48.506 -85.985)" fill="#00798c"/>
          </g>
        </g>
        <g id="Grupo_1161220" data-name="Grupo 1161220" transform="translate(440.872 37.667)">
          <circle id="Elipse_11583" data-name="Elipse 11583" cx="72.5" cy="72.5" r="72.5" transform="translate(0 153.851) rotate(-45)" fill="#edae49" opacity="0.44"/>
          <path id="Trazado_996586" data-name="Trazado 996586" d="M485.1,275.6v.083c-.069,3.807-26.057,6.883-58.1,6.883s-58.017-3.076-58.086-6.883V275.6c.317-3.793,26.195-6.842,58.086-6.842S484.778,271.806,485.1,275.6Z" transform="translate(-323.378 -87.939)"/>
          <path id="Trazado_996587" data-name="Trazado 996587" d="M368.906,306.867,427,137.672l58.092,169.2" transform="translate(-323.38 -137.672)" fill="none" stroke="#000" stroke-miterlimit="10" stroke-width="1"/>
          <g id="Grupo_1161215" data-name="Grupo 1161215" transform="translate(27.057 82.457)">
            <g id="Grupo_1161195" data-name="Grupo 1161195" transform="translate(25.84)">
              <g id="Grupo_1161183" data-name="Grupo 1161183" transform="translate(0 8.408)">
                <g id="Grupo_1161173" data-name="Grupo 1161173" transform="translate(5.792 16.354)">
                  <path id="Trazado_996588" data-name="Trazado 996588" d="M390.344,272.122c-9.377-9.194-13.241-16.855-11.482-22.771,1.222-4.111,4.791-6.411,8.241-8.638,3.508-2.262,7.133-4.6,8.28-8.854,1.188-4.4-.528-9.659-5.1-15.618l1.094-.84c4.851,6.319,6.647,11.977,5.341,16.818-1.287,4.764-5.14,7.25-8.864,9.654-3.389,2.186-6.589,4.253-7.667,7.872-1.6,5.387,2.141,12.586,11.125,21.393Z" transform="translate(-378.449 -215.401)" fill="#58af73"/>
                </g>
                <g id="Grupo_1161182" data-name="Grupo 1161182">
                  <g id="Grupo_1161174" data-name="Grupo 1161174" transform="translate(0)">
                    <path id="Trazado_996589" data-name="Trazado 996589" d="M387.085,208.163a18.124,18.124,0,0,1,5.68,10.769,18.351,18.351,0,0,1,.194,1.967l0,.1a.2.2,0,0,0,0,.04l0,0c0,.017,0,.033,0,.048s0,.054,0,.081,0,.046,0,.068c-.054,0-.121.006-.206.006a17.872,17.872,0,0,1-18.506-17.482c0-.081-.007-.149-.005-.206.057,0,.121-.007.2-.008l0,0c.132-.007.3-.011.488-.008.076,0,.155,0,.236,0,.382,0,.853.025,1.386.074A18.094,18.094,0,0,1,387.085,208.163Z" transform="translate(-374.25 -203.545)" fill="#6acf8c"/>
                  </g>
                  <g id="Grupo_1161175" data-name="Grupo 1161175" transform="translate(0 0.001)">
                    <path id="Trazado_996590" data-name="Trazado 996590" d="M390.31,218.539a18.82,18.82,0,0,0,2.455.394,18.35,18.35,0,0,1,.194,1.967l0,.146c0,.017,0,.033,0,.048s0,.054,0,.081,0,.046,0,.068c-.054,0-.121.006-.206.006a17.872,17.872,0,0,1-18.506-17.482c0-.081-.007-.149-.006-.206.057,0,.121-.007.2-.008l0,0c.132-.007.3-.011.488-.008.076,0,.154,0,.236,0,.382,0,.852.025,1.386.074a19.82,19.82,0,0,0,.521,2.418c.054.183.11.368.171.557a17.592,17.592,0,0,0,12.5,11.808C389.941,218.453,390.127,218.5,390.31,218.539Z" transform="translate(-374.25 -203.546)" fill="#58af73"/>
                  </g>
                  <g id="Grupo_1161177" data-name="Grupo 1161177" transform="translate(0 0.008)">
                    <g id="Grupo_1161176" data-name="Grupo 1161176">
                      <path id="Trazado_996591" data-name="Trazado 996591" d="M374.447,203.551l4.686,4.428-.2.21-4.68-4.422c0-.081-.007-.149-.005-.206C374.307,203.554,374.372,203.552,374.447,203.551Z" transform="translate(-374.25 -203.551)" fill="#fff"/>
                    </g>
                  </g>
                  <g id="Grupo_1161179" data-name="Grupo 1161179" transform="translate(13.699 12.949)">
                    <g id="Grupo_1161178" data-name="Grupo 1161178">
                      <path id="Trazado_996592" data-name="Trazado 996592" d="M384.378,212.933l4.817,4.551c0,.017,0,.033,0,.048s0,.054,0,.081,0,.046,0,.068c-.054,0-.121.006-.206.006l-4.811-4.546Z" transform="translate(-384.181 -212.933)" fill="#fff"/>
                    </g>
                  </g>
                  <g id="Grupo_1161181" data-name="Grupo 1161181" transform="translate(5.553 5.282)">
                    <g id="Grupo_1161180" data-name="Grupo 1161180" transform="translate(0 0)">
                      <rect id="Rectángulo_412924" data-name="Rectángulo 412924" width="0.288" height="9.594" transform="matrix(0.687, -0.727, 0.727, 0.687, 0, 0.21)" fill="#fff"/>
                    </g>
                  </g>
                </g>
              </g>
              <g id="Grupo_1161194" data-name="Grupo 1161194" transform="translate(82.282)">
                <g id="Grupo_1161184" data-name="Grupo 1161184" transform="translate(1.556 29.414)">
                  <path id="Trazado_996593" data-name="Trazado 996593" d="M446.176,254.993l-1.159-.749c4.411-6.817,5.764-11.856,4.02-14.975-1.16-2.075-3.455-2.917-5.884-3.81-2.76-1.014-5.614-2.064-7.158-4.995-1.561-2.966-1.229-6.9.99-11.69l1.251.579c-2.029,4.381-2.373,7.9-1.022,10.468,1.3,2.464,3.782,3.377,6.413,4.342,2.557.939,5.2,1.912,6.613,4.432C452.283,242.249,450.954,247.612,446.176,254.993Z" transform="translate(-435.029 -218.774)" fill="#58af73"/>
                </g>
                <g id="Grupo_1161193" data-name="Grupo 1161193">
                  <g id="Grupo_1161185" data-name="Grupo 1161185" transform="translate(0 0.001)">
                    <path id="Trazado_996594" data-name="Trazado 996594" d="M434.328,210.926a22.172,22.172,0,0,0,3.331,16.391l.07.1a.25.25,0,0,1,.03.039v0l.033.048.055.08a.5.5,0,0,1,.048.065c.054-.037.121-.08.2-.139a21.31,21.31,0,0,0,5.469-29.861c-.055-.08-.1-.148-.139-.2-.058.036-.121.08-.2.131v0c-.133.087-.292.2-.476.337-.074.051-.15.108-.226.168-.366.272-.8.625-1.28,1.048A21.566,21.566,0,0,0,434.328,210.926Z" transform="translate(-433.9 -197.451)" fill="#6acf8c"/>
                  </g>
                  <g id="Grupo_1161186" data-name="Grupo 1161186" transform="translate(2.56 0.001)">
                    <path id="Trazado_996595" data-name="Trazado 996595" d="M437.839,223.178a22.307,22.307,0,0,1-2.083,2.11,21.515,21.515,0,0,0,1.2,2.029l.1.143.033.048.055.08a.5.5,0,0,1,.048.065c.054-.037.121-.08.2-.139a21.31,21.31,0,0,0,5.469-29.861c-.055-.08-.1-.148-.139-.2-.058.036-.121.08-.2.131v0c-.132.087-.292.2-.476.337-.074.051-.15.108-.226.168-.366.272-.8.625-1.28,1.048a23.648,23.648,0,0,1,1.2,2.694c.077.214.153.433.229.655a20.974,20.974,0,0,1-3.694,20.167C438.133,222.837,437.985,223.01,437.839,223.178Z" transform="translate(-435.756 -197.451)" fill="#58af73"/>
                  </g>
                  <g id="Grupo_1161188" data-name="Grupo 1161188" transform="translate(7.945)">
                    <g id="Grupo_1161187" data-name="Grupo 1161187">
                      <path id="Trazado_996596" data-name="Trazado 996596" d="M441.045,197.582l-1.385,7.562.338.062,1.383-7.554c-.055-.08-.1-.148-.139-.2C441.184,197.486,441.119,197.53,441.045,197.582Z" transform="translate(-439.66 -197.45)" fill="#fff"/>
                    </g>
                  </g>
                  <g id="Grupo_1161190" data-name="Grupo 1161190" transform="translate(3.858 22.237)">
                    <g id="Grupo_1161189" data-name="Grupo 1161189">
                      <path id="Trazado_996597" data-name="Trazado 996597" d="M438.121,213.571l-1.424,7.773.033.048.055.08a.5.5,0,0,1,.048.065c.054-.037.121-.08.2-.139l1.422-7.765Z" transform="translate(-436.697 -213.571)" fill="#fff"/>
                    </g>
                  </g>
                  <g id="Grupo_1161192" data-name="Grupo 1161192" transform="translate(5.636 9.156)">
                    <g id="Grupo_1161191" data-name="Grupo 1161191" transform="translate(0 0)">
                      <rect id="Rectángulo_412925" data-name="Rectángulo 412925" width="11.441" height="0.343" transform="translate(0 11.253) rotate(-79.618)" fill="#fff"/>
                    </g>
                  </g>
                </g>
              </g>
            </g>
            <g id="Grupo_1161196" data-name="Grupo 1161196" transform="translate(28.696 37.517)">
              <path id="Trazado_996598" data-name="Trazado 996598" d="M376.441,244.368a26.4,26.4,0,0,1-.1-3.6A28.3,28.3,0,0,0,376.441,244.368Z" transform="translate(-376.32 -218.532)" fill="#d1495b"/>
              <path id="Trazado_996599" data-name="Trazado 996599" d="M376.337,241.3a19.5,19.5,0,0,1,.166-2.014C376.42,239.95,376.378,240.626,376.337,241.3Z" transform="translate(-376.314 -219.094)" fill="#d1495b"/>
              <path id="Trazado_996600" data-name="Trazado 996600" d="M405.295,230.894a33.772,33.772,0,0,0-5.918-4.166A32.367,32.367,0,0,1,405.295,230.894Z" transform="translate(-367.573 -223.859)" fill="#d1495b"/>
              <path id="Trazado_996601" data-name="Trazado 996601" d="M412.692,244.926c0-.014-.014-.014-.014-.028a55.833,55.833,0,0,1,3.766-7.49A56,56,0,0,0,412.692,244.926Z" transform="translate(-362.526 -219.807)" fill="#d1495b"/>
              <path id="Trazado_996602" data-name="Trazado 996602" d="M475.775,248.24c.152.566.276,1.131.386,1.738a3.7,3.7,0,0,1-.055.386,35.489,35.489,0,0,1-.828,3.6,45.945,45.945,0,0,1-2.69,7.173c-.552,1.2-1.186,2.428-1.848,3.655-4.524,8.18-11.532,16.856-20.65,25.491-1.007.952-2.042,1.89-3.1,2.842a196.915,196.915,0,0,1-18.415,14.622v.014l-.579.345-1.724,1.062-1.959-1.31c-.11-.083-.221-.165-.331-.234A201.4,201.4,0,0,1,406.516,293.8c-.786-.69-1.545-1.379-2.3-2.083-.414-.372-.828-.745-1.228-1.131-1.159-1.09-2.262-2.166-3.352-3.255-2.221-2.207-4.29-4.428-6.221-6.635-.924-1.062-1.807-2.1-2.662-3.159-.607-.745-1.2-1.5-1.766-2.248s-1.131-1.476-1.655-2.207a72.3,72.3,0,0,1-7.214-12.07c-.166-.317-.3-.648-.441-.979-.138-.3-.262-.621-.386-.924a41.081,41.081,0,0,1-2.359-7.38c-.124-.579-.235-1.145-.331-1.724a21.2,21.2,0,0,1,.979-3.586,23.846,23.846,0,0,1,1.531-3.269,25.833,25.833,0,0,1,2.455-3.628c3.3-4.083,7.973-7.49,13.435-8.3a19.537,19.537,0,0,1,9.366,1.062,25.115,25.115,0,0,1,3.655,1.628,32.082,32.082,0,0,1,6.593,4.786c.717.648,1.435,1.352,2.124,2.1a39.226,39.226,0,0,1,2.635,3.117,46,46,0,0,1,2.855,4.111,55.36,55.36,0,0,1,4.152,8.125,48.684,48.684,0,0,1,11.6-17.311,39.4,39.4,0,0,1,3.035-2.566c5.421-4,11.283-5.849,16.746-5.049,7.766,1.145,14,7.6,16.8,13.725.234.5.441.993.621,1.476.138.4.276.814.4,1.214C475.653,247.84,475.72,248.033,475.775,248.24Z" transform="translate(-376.215 -222.225)" fill="#d1495b"/>
              <path id="Trazado_996603" data-name="Trazado 996603" d="M449.086,241.719q-.021-.786-.083-1.531c-.028-.331-.055-.648-.1-.979.041.331.083.648.11.979C449.059,240.7,449.086,241.208,449.086,241.719Z" transform="translate(-348.781 -219.124)" fill="#d1495b"/>
              <path id="Trazado_996604" data-name="Trazado 996604" d="M476.624,247.242c.014.607.014,1.228-.014,1.848-.014.3-.028.607-.069.91-.014.29-.041.566-.069.855v.014c-.028.248-.055.5-.1.745-.028.138-.028.276-.055.414a3.482,3.482,0,0,1-.055.372c-.11-.607-.235-1.173-.386-1.738-.055-.207-.124-.4-.193-.607-.124-.4-.262-.814-.4-1.214-.179-.483-.386-.979-.621-1.476-2.8-6.125-9.035-12.58-16.8-13.725-5.462-.8-11.325,1.048-16.746,5.049a39.387,39.387,0,0,0-3.035,2.566,48.683,48.683,0,0,0-11.6,17.311,55.358,55.358,0,0,0-4.152-8.125,46,46,0,0,0-2.855-4.111,39.208,39.208,0,0,0-2.635-3.117c-.69-.745-1.407-1.448-2.124-2.1a32.085,32.085,0,0,0-6.593-4.786,25.113,25.113,0,0,0-3.655-1.628,19.538,19.538,0,0,0-9.366-1.062c-5.462.814-10.139,4.221-13.435,8.3a25.834,25.834,0,0,0-2.455,3.628,23.837,23.837,0,0,0-1.531,3.269,21.2,21.2,0,0,0-.979,3.586c-.055-.3-.1-.607-.138-.91-.041-.262-.069-.524-.1-.786,0-.041-.014-.083-.014-.124s-.014-.083-.014-.124a28.8,28.8,0,0,1-.1-3.6v-.028c.041-.676.083-1.352.165-2.014v-.014a23.29,23.29,0,0,1,.566-2.924c.179-.635.372-1.255.607-1.876.1-.262.207-.538.317-.8.235-.538.483-1.09.772-1.641.152-.262.3-.538.455-.814.345-.621.717-1.241,1.117-1.848s.855-1.2,1.338-1.793c.621-.759,1.283-1.5,1.986-2.207a20.8,20.8,0,0,1,11.435-6.1,17.009,17.009,0,0,1,2.373-.179,20.125,20.125,0,0,1,2.717.179,21.5,21.5,0,0,1,2.552.524c.579.152,1.159.331,1.724.538a26.686,26.686,0,0,1,3.655,1.628,33.773,33.773,0,0,1,5.918,4.166,37.856,37.856,0,0,1,3.628,3.655c.621.69,1.228,1.421,1.807,2.179.028.028.041.055.069.083.221.29.455.593.676.9.483.662.952,1.352,1.421,2.055.221.359.455.717.69,1.09.386.621.759,1.255,1.131,1.89a57.567,57.567,0,0,1,3.007,6.207c0,.014.014.014.014.028a56.172,56.172,0,0,1,3.752-7.518,44.716,44.716,0,0,1,7.849-9.807c.69-.648,1.393-1.255,2.1-1.807.3-.262.621-.51.938-.745.579-.428,1.159-.828,1.752-1.2a1.454,1.454,0,0,1,.152-.1c.331-.221.662-.414.993-.607.662-.386,1.324-.745,2-1.062.331-.166.676-.317,1.007-.455a21.905,21.905,0,0,1,3.186-1.117c.455-.124.924-.234,1.379-.317a18.525,18.525,0,0,1,6.276-.207c5.807.855,10.745,4.676,14.042,9.1a25.3,25.3,0,0,1,2.331,3.738,20.638,20.638,0,0,1,1.048,2.359c.152.469.317.91.455,1.366l.124.455c.1.317.166.621.234.952s.138.635.193.966.11.635.152.966.069.648.1.979Q476.6,246.456,476.624,247.242Z" transform="translate(-376.319 -224.648)" fill="#a53d4f"/>
              <path id="Trazado_996605" data-name="Trazado 996605" d="M378.538,233.933c.345-.607.717-1.228,1.131-1.835-.4.607-.772,1.228-1.117,1.848-.152.276-.3.552-.455.814C378.235,234.484,378.387,234.209,378.538,233.933Z" transform="translate(-375.646 -221.822)" fill="#a53d4f"/>
              <path id="Trazado_996606" data-name="Trazado 996606" d="M380.561,231.405a27.257,27.257,0,0,1,2-2.207c-.7.7-1.366,1.448-1.986,2.207-.483.593-.924,1.186-1.338,1.793C379.651,232.591,380.092,232,380.561,231.405Z" transform="translate(-375.214 -222.922)" fill="#a53d4f"/>
              <path id="Trazado_996607" data-name="Trazado 996607" d="M425.4,227.36a21.5,21.5,0,0,1,2-1.062C426.721,226.615,426.06,226.974,425.4,227.36Z" transform="translate(-357.701 -224.022)" fill="#a53d4f"/>
              <path id="Trazado_996608" data-name="Trazado 996608" d="M448.535,237.243c.083.317.166.621.221.952-.069-.331-.138-.635-.235-.952l-.124-.455C448.438,236.94,448.494,237.091,448.535,237.243Z" transform="translate(-348.975 -220.042)" fill="#a53d4f"/>
              <path id="Trazado_996609" data-name="Trazado 996609" d="M448.777,244.87a3.482,3.482,0,0,0,.055-.372c0,.138-.028.29-.041.428A.084.084,0,0,0,448.777,244.87Z" transform="translate(-348.831 -217.117)" fill="#a53d4f"/>
              <path id="Trazado_996610" data-name="Trazado 996610" d="M449.065,242.368c0,.3-.028.607-.041.91-.014.276-.069.566-.1.855.028-.29.055-.566.069-.855C449.037,242.975,449.051,242.671,449.065,242.368Z" transform="translate(-348.774 -217.925)" fill="#a53d4f"/>
            </g>
            <g id="Grupo_1161214" data-name="Grupo 1161214" transform="translate(0 21.775)">
              <path id="Trazado_996611" data-name="Trazado 996611" d="M446.918,227.96a1.451,1.451,0,0,0-.152.1c-.593.372-1.172.772-1.752,1.2-.317.234-.634.483-.938.745-5.145-1.366-9.67-1.2-13.5.441a14.827,14.827,0,0,0-7.132,6.525c-.014.014-.028.041-.041.055l-.014.014a37.683,37.683,0,0,0-2.648,5.545l-.041.083c-.428,1.076-.869,2.207-1.31,3.38-2.593,6.787-5.518,14.456-12.621,21.5a50.887,50.887,0,0,1-13.78,9.532c-.014.014-.041.014-.055.028-7.407,3.559-14.953,5.255-20.1,5.255a18.285,18.285,0,0,1-2.579-.166c-1.986-.29-3.283-.979-3.849-2.042-1.228-2.248.028-6.166,16.884-19.256.124.3.248.621.386.924.138.331.276.662.441.979.1.234.207.469.317.7-15.753,12.3-15.67,15.077-15.6,15.366a4.773,4.773,0,0,0,2.483.676c4.469.4,12.208-.993,19.974-4.649.014,0,.028-.014.041-.028a48.271,48.271,0,0,0,13.49-9.283c6.676-6.621,9.5-14.015,11.987-20.525.593-1.545,1.159-3.048,1.766-4.483.014-.028.028-.069.041-.1a37.541,37.541,0,0,1,2.91-5.711v-.014c.014-.014.028-.041.041-.055a17.446,17.446,0,0,1,7.918-6.8c4.952-2.138,10.787-2.11,17.422.055h.014Z" transform="translate(-351.518 -208.273)" fill="#58af73"/>
              <g id="Grupo_1161197" data-name="Grupo 1161197" transform="translate(27.133 24.99)">
                <path id="Trazado_996612" data-name="Trazado 996612" d="M495.089,244.333c-.5,2.8-4.373,2.855-10.814,2.938-2.18.028-4.593.069-7.187.193h-.014c-.3.014-.621.028-.938.055-9.021.538-19.9,2.345-29.574,9.214-6.18,4.4-8.525,8.538-11.008,12.925-2.621,4.649-5.324,9.435-12.428,14.98a65.018,65.018,0,0,1-16.18,9.09,66.354,66.354,0,0,1-23.174,4.828,21.321,21.321,0,0,1-5.849-.648,3.469,3.469,0,0,1-2.593-1.986c-.676-1.986.317-4.718,19.518-14.222.621.7,1.269,1.407,1.917,2.11-15.077,7.449-18.111,10.29-18.691,11.228,2.138,1.241,13.766,1.31,26.581-3.393a61.812,61.812,0,0,0,16.773-9.187c6.676-5.2,9.242-9.752,11.725-14.153,2.524-4.455,5.131-9.063,11.808-13.822,9.835-6.994,21.05-9.021,30.126-9.656.69-.041,1.379-.083,2.042-.124,2.607-.124,5.007-.166,7.1-.193,3.269-.041,7.283-.1,8.111-.7-.207-.635-2.055-3.1-17.7-8.69l-.014-.014c-.028-.055-.055-.11-.1-.179-.11-.221-.234-.441-.372-.676a.783.783,0,0,0-.055-.1c-.11-.179-.221-.372-.331-.552s-.235-.372-.359-.566c-.166-.262-.331-.51-.51-.759-.221-.317-.441-.621-.676-.924C493.008,238.457,495.517,241.8,495.089,244.333Z" transform="translate(-375.187 -231.353)" fill="#58af73"/>
              </g>
              <g id="Grupo_1161201" data-name="Grupo 1161201" transform="translate(0 47.292)">
                <path id="Trazado_996613" data-name="Trazado 996613" d="M368.352,252.138a18.124,18.124,0,0,1,5.68,10.769,18.35,18.35,0,0,1,.194,1.967l0,.1a.2.2,0,0,0,0,.04l0,0c0,.017,0,.033,0,.048s0,.054,0,.081a.561.561,0,0,0,0,.068c-.054,0-.121.005-.206.005a17.872,17.872,0,0,1-18.506-17.482c0-.081-.007-.149-.006-.206.057,0,.121-.006.2-.008l0,0c.132-.007.3-.011.488-.008.076,0,.155,0,.236,0,.382,0,.852.025,1.386.074A18.1,18.1,0,0,1,368.352,252.138Z" transform="translate(-355.517 -247.52)" fill="#6acf8c"/>
                <path id="Trazado_996614" data-name="Trazado 996614" d="M371.577,262.514a18.851,18.851,0,0,0,2.455.395,18.348,18.348,0,0,1,.194,1.967l0,.146c0,.017,0,.033,0,.048s0,.054,0,.081a.567.567,0,0,0,0,.068c-.054,0-.121.005-.206.005a17.872,17.872,0,0,1-18.506-17.482c0-.081-.007-.149-.005-.206.057,0,.121-.006.2-.008l0,0c.132-.007.3-.011.488-.008.076,0,.154,0,.236,0,.382,0,.852.025,1.386.074a19.814,19.814,0,0,0,.521,2.418c.054.183.11.368.171.557a17.592,17.592,0,0,0,12.5,11.808C371.209,262.428,371.4,262.472,371.577,262.514Z" transform="translate(-355.517 -247.52)" fill="#58af73"/>
                <g id="Grupo_1161198" data-name="Grupo 1161198" transform="translate(0 0.008)">
                  <path id="Trazado_996615" data-name="Trazado 996615" d="M355.714,247.526l4.686,4.428-.2.21-4.68-4.422c0-.081-.007-.149-.006-.206C355.574,247.53,355.639,247.527,355.714,247.526Z" transform="translate(-355.517 -247.526)" fill="#fff"/>
                </g>
                <g id="Grupo_1161199" data-name="Grupo 1161199" transform="translate(13.7 12.949)">
                  <path id="Trazado_996616" data-name="Trazado 996616" d="M365.646,256.908l4.817,4.551c0,.017,0,.033,0,.048s0,.054,0,.081a.56.56,0,0,0,0,.068c-.054,0-.121.006-.206.006l-4.811-4.546Z" transform="translate(-365.449 -256.908)" fill="#fff"/>
                </g>
                <g id="Grupo_1161200" data-name="Grupo 1161200" transform="translate(5.553 5.28)">
                  <rect id="Rectángulo_412926" data-name="Rectángulo 412926" width="0.287" height="9.594" transform="matrix(0.687, -0.727, 0.727, 0.687, 0, 0.209)" fill="#fff"/>
                </g>
              </g>
              <g id="Grupo_1161205" data-name="Grupo 1161205" transform="translate(145.599 16.945)">
                <path id="Trazado_996617" data-name="Trazado 996617" d="M466.953,230.138a18.124,18.124,0,0,0-5.68,10.769,18.336,18.336,0,0,0-.195,1.967l0,.1a.2.2,0,0,1,0,.04l0,0c0,.017,0,.032,0,.048s0,.054,0,.081a.53.53,0,0,1,0,.068c.054,0,.121.006.206.006a17.872,17.872,0,0,0,18.506-17.482c0-.081.007-.149.006-.206-.057,0-.121-.007-.2-.008l0,0c-.132-.007-.3-.011-.488-.008-.076,0-.154,0-.236,0-.382,0-.853.025-1.386.074A18.09,18.09,0,0,0,466.953,230.138Z" transform="translate(-461.07 -225.52)" fill="#6acf8c"/>
                <path id="Trazado_996618" data-name="Trazado 996618" d="M463.728,240.513a18.857,18.857,0,0,1-2.455.395,18.349,18.349,0,0,0-.194,1.967l0,.146c0,.017,0,.032,0,.048s0,.054,0,.081a.519.519,0,0,1,0,.068c.054,0,.121.006.206.006a17.872,17.872,0,0,0,18.506-17.482c0-.081.007-.149.006-.206-.057,0-.121-.007-.2-.008l0,0c-.132-.007-.3-.011-.488-.008-.076,0-.154,0-.236,0-.382,0-.852.025-1.386.074a19.825,19.825,0,0,1-.521,2.418c-.054.183-.11.368-.171.557a17.592,17.592,0,0,1-12.5,11.808Q464,240.452,463.728,240.513Z" transform="translate(-461.07 -225.52)" fill="#58af73"/>
                <g id="Grupo_1161202" data-name="Grupo 1161202" transform="translate(13.835 0.006)">
                  <path id="Trazado_996619" data-name="Trazado 996619" d="M475.786,225.525l-4.686,4.426.2.21,4.68-4.422c0-.081.007-.149.005-.206C475.926,225.529,475.862,225.528,475.786,225.525Z" transform="translate(-471.1 -225.525)" fill="#fff"/>
                </g>
                <g id="Grupo_1161203" data-name="Grupo 1161203" transform="translate(0 12.949)">
                  <path id="Trazado_996620" data-name="Trazado 996620" d="M465.891,234.908l-4.817,4.551c0,.017,0,.032,0,.048s0,.054,0,.081a.542.542,0,0,1,0,.068c.054,0,.121.006.206.006l4.811-4.545Z" transform="translate(-461.07 -234.908)" fill="#fff"/>
                </g>
                <g id="Grupo_1161204" data-name="Grupo 1161204" transform="translate(5.952 5.267)">
                  <rect id="Rectángulo_412927" data-name="Rectángulo 412927" width="9.594" height="0.288" transform="matrix(0.727, -0.687, 0.687, 0.727, 0, 6.588)" fill="#fff"/>
                </g>
              </g>
              <g id="Grupo_1161209" data-name="Grupo 1161209" transform="translate(60.245 64.11)">
                <path id="Trazado_996621" data-name="Trazado 996621" d="M403.848,268.321a12.873,12.873,0,0,0,8.183,2.784,13.094,13.094,0,0,0,1.4-.083l.073-.01.029-.005h0l.034,0,.058-.007a.3.3,0,0,1,.047-.008c-.006-.039-.01-.087-.019-.145a12.686,12.686,0,0,0-14.318-11.027c-.058.007-.1.011-.145.019,0,.04.01.087.017.139h0c.01.094.025.208.048.344.007.054.017.109.028.165.044.268.112.595.207.963A12.831,12.831,0,0,0,403.848,268.321Z" transform="translate(-399.192 -259.713)" fill="#6acf8c"/>
                <path id="Trazado_996622" data-name="Trazado 996622" d="M411.482,269.427a13.372,13.372,0,0,1,.55,1.677,13.079,13.079,0,0,0,1.4-.083l.1-.014.034,0,.058-.007a.311.311,0,0,1,.047-.008c-.006-.039-.01-.087-.019-.145a12.686,12.686,0,0,0-14.318-11.027c-.058.007-.1.011-.145.019,0,.04.01.087.017.139h0c.01.094.025.208.048.343.007.054.017.109.028.166.044.268.112.595.207.963a13.734,13.734,0,0,1,1.753.1l.41.058a12.487,12.487,0,0,1,9.67,7.447C411.381,269.178,411.432,269.3,411.482,269.427Z" transform="translate(-399.192 -259.713)" fill="#58af73"/>
                <g id="Grupo_1161206" data-name="Grupo 1161206" transform="translate(0 0.103)">
                  <path id="Trazado_996623" data-name="Trazado 996623" d="M399.209,259.947l3.626,2.792.124-.161-3.622-2.789c-.058.007-.1.011-.145.019C399.2,259.847,399.2,259.893,399.209,259.947Z" transform="translate(-399.192 -259.788)" fill="#fff"/>
                </g>
                <g id="Grupo_1161207" data-name="Grupo 1161207" transform="translate(10.617 8.264)">
                  <path id="Trazado_996624" data-name="Trazado 996624" d="M406.889,265.865l3.727,2.871.034,0,.058-.007a.316.316,0,0,1,.047-.008c-.005-.039-.01-.087-.019-.145l-3.723-2.868Z" transform="translate(-406.889 -265.704)" fill="#fff"/>
                </g>
                <g id="Grupo_1161208" data-name="Grupo 1161208" transform="translate(4.326 3.418)">
                  <rect id="Rectángulo_412928" data-name="Rectángulo 412928" width="0.204" height="6.81" transform="translate(0 0.162) rotate(-52.41)" fill="#fff"/>
                </g>
              </g>
              <g id="Grupo_1161213" data-name="Grupo 1161213" transform="translate(79.84)">
                <path id="Trazado_996625" data-name="Trazado 996625" d="M413.435,221.87a13.175,13.175,0,0,0,3.179,9.435l.048.054a.147.147,0,0,1,.021.021v0c.008.008.015.017.023.026l.039.043a.393.393,0,0,1,.033.034c.029-.026.066-.057.109-.1a12.685,12.685,0,0,0,1.022-18.042c-.039-.043-.069-.08-.1-.109-.032.026-.066.057-.106.092v0c-.072.062-.157.138-.257.233-.04.036-.08.074-.121.116-.2.188-.428.429-.679.715A12.853,12.853,0,0,0,413.435,221.87Z" transform="translate(-413.398 -213.236)" fill="#6acf8c"/>
                <path id="Trazado_996626" data-name="Trazado 996626" d="M416.182,228.794a13.276,13.276,0,0,1-1.075,1.4,12.745,12.745,0,0,0,.859,1.109l.069.077c.008.008.015.017.023.026l.039.043a.368.368,0,0,1,.033.034c.029-.026.066-.057.109-.1a12.685,12.685,0,0,0,1.022-18.043c-.039-.043-.069-.08-.1-.109-.032.026-.066.057-.106.092v0c-.072.062-.157.138-.257.233-.04.036-.08.074-.121.116-.2.188-.428.429-.679.715a13.952,13.952,0,0,1,.91,1.5c.061.121.123.244.183.371a12.489,12.489,0,0,1-.691,12.186C416.331,228.571,416.256,228.684,416.182,228.794Z" transform="translate(-412.749 -213.236)" fill="#58af73"/>
                <g id="Grupo_1161210" data-name="Grupo 1161210" transform="translate(4.051)">
                  <path id="Trazado_996627" data-name="Trazado 996627" d="M416.593,213.328l-.259,4.57.2.011.259-4.564c-.039-.043-.069-.08-.1-.109C416.668,213.262,416.633,213.293,416.593,213.328Z" transform="translate(-416.334 -213.236)" fill="#fff"/>
                </g>
                <g id="Grupo_1161211" data-name="Grupo 1161211" transform="translate(3.286 13.449)">
                  <path id="Trazado_996628" data-name="Trazado 996628" d="M416.046,222.986l-.266,4.7.023.026.039.043a.393.393,0,0,1,.033.034c.029-.026.066-.057.109-.1L416.25,223Z" transform="translate(-415.78 -222.986)" fill="#fff"/>
                </g>
                <g id="Grupo_1161212" data-name="Grupo 1161212" transform="translate(3.598 5.507)">
                  <rect id="Rectángulo_412929" data-name="Rectángulo 412929" width="6.81" height="0.204" transform="translate(0 6.799) rotate(-86.75)" fill="#fff"/>
                </g>
              </g>
            </g>
          </g>
          <g id="Grupo_1161219" data-name="Grupo 1161219" transform="translate(78.044 49.646)">
            <g id="Grupo_1161216" data-name="Grupo 1161216" transform="translate(0 37.86)">
              <path id="Trazado_996629" data-name="Trazado 996629" d="M392.508,205.524a5.866,5.866,0,0,1-.022-.806A6.6,6.6,0,0,0,392.508,205.524Z" transform="translate(-392.48 -199.741)" fill="#d1495b"/>
              <path id="Trazado_996630" data-name="Trazado 996630" d="M392.484,204.838a4.067,4.067,0,0,1,.037-.451C392.5,204.535,392.494,204.686,392.484,204.838Z" transform="translate(-392.479 -199.866)" fill="#d1495b"/>
              <path id="Trazado_996631" data-name="Trazado 996631" d="M398.966,202.507a7.524,7.524,0,0,0-1.324-.932A7.243,7.243,0,0,1,398.966,202.507Z" transform="translate(-390.522 -200.933)" fill="#d1495b"/>
              <path id="Trazado_996632" data-name="Trazado 996632" d="M400.623,205.649s0,0,0-.006a12.454,12.454,0,0,1,.843-1.677A12.507,12.507,0,0,0,400.623,205.649Z" transform="translate(-389.392 -200.026)" fill="#d1495b"/>
              <path id="Trazado_996633" data-name="Trazado 996633" d="M414.745,206.392c.034.127.062.254.087.389,0,.028-.007.058-.012.087a8.024,8.024,0,0,1-.185.806,10.364,10.364,0,0,1-.6,1.606c-.124.269-.266.543-.414.818A24.451,24.451,0,0,1,409,215.8c-.225.212-.457.423-.7.636a44.348,44.348,0,0,1-4.122,3.273v0l-.13.077-.386.237-.439-.294c-.025-.018-.05-.037-.074-.052a45.111,45.111,0,0,1-3.909-3.094c-.177-.154-.346-.309-.516-.466-.092-.083-.185-.167-.274-.254-.259-.244-.506-.486-.75-.728-.5-.494-.96-.992-1.393-1.486-.207-.237-.4-.469-.6-.708-.137-.167-.269-.337-.4-.5s-.254-.331-.371-.494a16.117,16.117,0,0,1-1.615-2.7c-.037-.07-.068-.145-.1-.219s-.059-.139-.087-.207a9.262,9.262,0,0,1-.528-1.652c-.028-.13-.052-.257-.074-.386a4.7,4.7,0,0,1,.219-.8,5.429,5.429,0,0,1,.343-.732,5.93,5.93,0,0,1,.549-.812,4.918,4.918,0,0,1,3.007-1.859,4.373,4.373,0,0,1,2.1.237,5.62,5.62,0,0,1,.818.364,7.164,7.164,0,0,1,1.476,1.072c.16.145.321.3.476.469a8.951,8.951,0,0,1,.59.7,10.215,10.215,0,0,1,.639.92,12.356,12.356,0,0,1,.93,1.819,10.9,10.9,0,0,1,2.6-3.876,8.8,8.8,0,0,1,.679-.574,5.132,5.132,0,0,1,3.749-1.13,5.312,5.312,0,0,1,3.762,3.072c.052.112.1.222.139.331.03.09.062.182.09.272C414.718,206.3,414.733,206.346,414.745,206.392Z" transform="translate(-392.457 -200.569)" fill="#d1495b"/>
              <path id="Trazado_996634" data-name="Trazado 996634" d="M408.77,204.931c0-.117-.01-.232-.018-.343-.007-.074-.012-.145-.022-.219.01.074.018.145.025.219C408.764,204.7,408.77,204.816,408.77,204.931Z" transform="translate(-386.315 -199.874)" fill="#d1495b"/>
              <path id="Trazado_996635" data-name="Trazado 996635" d="M414.935,206.167c0,.135,0,.275,0,.414a2.041,2.041,0,0,1-.015.2c0,.065-.01.127-.015.192v0c-.006.055-.012.112-.022.167-.006.03-.006.062-.012.092a.574.574,0,0,1-.012.083c-.025-.135-.052-.262-.087-.389-.012-.046-.028-.09-.043-.135-.028-.09-.059-.182-.09-.272-.04-.108-.087-.219-.139-.331a5.3,5.3,0,0,0-3.762-3.072,5.132,5.132,0,0,0-3.749,1.13,8.868,8.868,0,0,0-.679.574,10.894,10.894,0,0,0-2.6,3.876,12.354,12.354,0,0,0-.93-1.819,10.5,10.5,0,0,0-.639-.92,8.93,8.93,0,0,0-.59-.7c-.154-.167-.314-.324-.476-.469a7.164,7.164,0,0,0-1.476-1.072,5.624,5.624,0,0,0-.818-.364,4.371,4.371,0,0,0-2.1-.237,4.908,4.908,0,0,0-3.007,1.859,5.647,5.647,0,0,0-.549.812,5.265,5.265,0,0,0-.344.732,4.827,4.827,0,0,0-.219.8c-.012-.068-.022-.135-.03-.2s-.015-.117-.022-.177c0-.01,0-.018,0-.028s0-.019,0-.028a6.607,6.607,0,0,1-.022-.806v-.007c.01-.152.018-.3.037-.451v0a5.037,5.037,0,0,1,.127-.655c.04-.142.083-.281.135-.419.022-.059.047-.12.072-.179.052-.12.108-.244.172-.367.034-.059.068-.12.1-.182.077-.139.16-.279.25-.414s.192-.269.3-.4c.139-.17.287-.337.444-.494a4.66,4.66,0,0,1,2.56-1.366,3.776,3.776,0,0,1,.531-.04,4.538,4.538,0,0,1,.608.04,4.776,4.776,0,0,1,.571.117c.13.034.259.074.386.12a6.1,6.1,0,0,1,.818.364,7.525,7.525,0,0,1,1.324.932,8.429,8.429,0,0,1,.812.818c.139.154.275.319.4.488.007.007.01.012.015.018.05.065.1.132.152.2.108.148.214.3.319.459.05.08.1.16.154.244.087.139.17.281.254.423a12.973,12.973,0,0,1,.673,1.389s0,0,0,.006a12.511,12.511,0,0,1,.84-1.683,9.989,9.989,0,0,1,1.757-2.2c.154-.145.312-.281.469-.4.068-.059.139-.114.21-.167.13-.1.259-.185.392-.269a.37.37,0,0,1,.034-.022c.074-.05.149-.092.222-.135.148-.087.3-.167.448-.237.074-.037.152-.07.225-.1a4.93,4.93,0,0,1,.713-.25c.1-.028.207-.052.309-.07a4.165,4.165,0,0,1,1.406-.047,4.974,4.974,0,0,1,3.144,2.039,5.622,5.622,0,0,1,.521.837,4.643,4.643,0,0,1,.234.528c.034.1.07.2.1.306.01.034.019.068.028.1a2.179,2.179,0,0,1,.052.212c.018.07.03.142.043.217s.025.142.034.217.015.145.022.219C414.925,205.937,414.932,206.05,414.935,206.167Z" transform="translate(-392.48 -201.11)" fill="#a53d4f"/>
              <path id="Trazado_996636" data-name="Trazado 996636" d="M392.977,203.188c.077-.135.16-.275.254-.411-.09.135-.172.275-.25.414-.034.062-.068.123-.1.182C392.909,203.312,392.942,203.25,392.977,203.188Z" transform="translate(-392.329 -200.477)" fill="#a53d4f"/>
              <path id="Trazado_996637" data-name="Trazado 996637" d="M393.429,202.622a6.02,6.02,0,0,1,.448-.494,6.488,6.488,0,0,0-.444.494c-.108.132-.207.266-.3.4C393.226,202.888,393.324,202.756,393.429,202.622Z" transform="translate(-392.232 -200.723)" fill="#a53d4f"/>
              <path id="Trazado_996638" data-name="Trazado 996638" d="M403.467,201.716a4.507,4.507,0,0,1,.448-.237C403.764,201.549,403.615,201.631,403.467,201.716Z" transform="translate(-388.312 -200.97)" fill="#a53d4f"/>
              <path id="Trazado_996639" data-name="Trazado 996639" d="M408.646,203.929c.018.07.037.139.05.212a2.079,2.079,0,0,0-.052-.212c-.01-.034-.018-.068-.028-.1C408.624,203.862,408.638,203.895,408.646,203.929Z" transform="translate(-386.358 -200.079)" fill="#a53d4f"/>
              <path id="Trazado_996640" data-name="Trazado 996640" d="M408.7,205.637q.008-.041.012-.083a.745.745,0,0,1-.01.1A.018.018,0,0,0,408.7,205.637Z" transform="translate(-386.326 -199.424)" fill="#a53d4f"/>
              <path id="Trazado_996641" data-name="Trazado 996641" d="M408.766,205.076c0,.068-.006.137-.01.2s-.015.127-.022.192c.005-.065.012-.127.015-.192A1.994,1.994,0,0,0,408.766,205.076Z" transform="translate(-386.314 -199.605)" fill="#a53d4f"/>
            </g>
            <g id="Grupo_1161217" data-name="Grupo 1161217" transform="translate(80.543 50.38)">
              <path id="Trazado_996642" data-name="Trazado 996642" d="M457.354,211.584a7.528,7.528,0,0,0-1.324-.932A7.245,7.245,0,0,1,457.354,211.584Z" transform="translate(-448.913 -210.009)" fill="#d1495b"/>
              <path id="Trazado_996643" data-name="Trazado 996643" d="M459.011,214.725s0,0,0-.007a12.54,12.54,0,0,1,.843-1.677A12.788,12.788,0,0,0,459.011,214.725Z" transform="translate(-447.783 -209.103)" fill="#d1495b"/>
              <path id="Trazado_996644" data-name="Trazado 996644" d="M473.133,215.468c.034.127.062.254.087.389,0,.028-.007.059-.013.087a8.007,8.007,0,0,1-.185.806,10.364,10.364,0,0,1-.6,1.606c-.124.269-.266.543-.414.818a24.451,24.451,0,0,1-4.622,5.707c-.225.214-.457.423-.7.636a44.358,44.358,0,0,1-4.122,3.273v0l-.13.077-.386.237-.439-.294c-.025-.018-.05-.037-.074-.052a45.108,45.108,0,0,1-3.909-3.094c-.177-.154-.346-.309-.516-.466-.092-.083-.185-.167-.275-.254-.259-.244-.506-.486-.75-.728-.5-.494-.96-.992-1.393-1.486-.207-.237-.4-.469-.6-.708-.137-.167-.269-.337-.395-.5s-.254-.331-.371-.494a16.112,16.112,0,0,1-1.615-2.7c-.037-.07-.068-.145-.1-.219s-.058-.139-.087-.207a9.264,9.264,0,0,1-.528-1.652c-.028-.13-.052-.257-.074-.386a4.706,4.706,0,0,1,.219-.8,5.348,5.348,0,0,1,.344-.732,5.923,5.923,0,0,1,.549-.812,4.912,4.912,0,0,1,3.007-1.859,4.373,4.373,0,0,1,2.1.237,5.612,5.612,0,0,1,.818.364,7.166,7.166,0,0,1,1.476,1.072c.16.145.321.3.476.469a8.636,8.636,0,0,1,.589.7,10.211,10.211,0,0,1,.639.92,12.36,12.36,0,0,1,.93,1.819,10.883,10.883,0,0,1,2.6-3.875,8.807,8.807,0,0,1,.679-.574,5.132,5.132,0,0,1,3.749-1.13,5.314,5.314,0,0,1,3.762,3.073c.052.112.1.222.139.331.03.09.062.182.09.272C473.105,215.379,473.12,215.422,473.133,215.468Z" transform="translate(-450.848 -209.645)" fill="#d1495b"/>
              <path id="Trazado_996645" data-name="Trazado 996645" d="M467.158,214.008c0-.117-.01-.232-.018-.343-.007-.074-.012-.145-.022-.219.01.074.018.145.025.219C467.153,213.779,467.158,213.893,467.158,214.008Z" transform="translate(-444.706 -208.95)" fill="#d1495b"/>
              <path id="Trazado_996646" data-name="Trazado 996646" d="M473.322,215.244c0,.135,0,.275,0,.414,0,.068-.007.135-.015.2s-.01.127-.015.192v0c-.005.055-.012.112-.022.167-.006.03-.006.062-.013.092s-.007.055-.012.084c-.025-.135-.052-.262-.087-.389-.012-.047-.028-.09-.043-.137-.028-.09-.058-.182-.09-.272-.04-.108-.087-.219-.139-.331a5.309,5.309,0,0,0-3.762-3.073,5.132,5.132,0,0,0-3.749,1.13,8.885,8.885,0,0,0-.679.574,10.9,10.9,0,0,0-2.6,3.875,12.354,12.354,0,0,0-.93-1.819,10.5,10.5,0,0,0-.639-.92c-.189-.247-.386-.481-.589-.7-.155-.167-.315-.324-.476-.469a7.166,7.166,0,0,0-1.476-1.072,5.621,5.621,0,0,0-.818-.364,4.371,4.371,0,0,0-2.1-.237,4.908,4.908,0,0,0-3.007,1.859,5.722,5.722,0,0,0-.549.812,5.256,5.256,0,0,0-.343.732,4.824,4.824,0,0,0-.219.8c-.012-.068-.022-.137-.03-.2s-.015-.117-.022-.177c0-.01,0-.018,0-.028s0-.018,0-.028a6.607,6.607,0,0,1-.022-.806v-.007c.01-.152.018-.3.037-.451v0a5.042,5.042,0,0,1,.127-.655c.04-.142.083-.281.135-.419.022-.059.047-.12.072-.179.052-.12.108-.244.172-.367.034-.058.068-.12.1-.182.077-.139.16-.279.25-.414s.192-.269.3-.4c.139-.17.287-.337.444-.494a4.65,4.65,0,0,1,2.56-1.364,3.778,3.778,0,0,1,.531-.04,4.535,4.535,0,0,1,.608.04,4.83,4.83,0,0,1,.571.117c.13.034.259.075.386.12a6.1,6.1,0,0,1,.818.364,7.522,7.522,0,0,1,1.324.932,8.423,8.423,0,0,1,.812.818c.139.154.275.319.4.488.007.007.01.012.015.018.05.065.1.132.152.2.108.148.214.3.319.461.05.08.1.16.155.244.087.139.17.281.254.423a12.966,12.966,0,0,1,.673,1.389s0,0,0,.007a12.51,12.51,0,0,1,.84-1.683,9.991,9.991,0,0,1,1.757-2.2c.155-.145.312-.281.469-.4.068-.058.139-.114.21-.167.13-.1.259-.185.392-.269a.363.363,0,0,1,.034-.022c.074-.05.148-.092.222-.135.148-.087.3-.167.448-.237.074-.037.152-.07.225-.1a4.925,4.925,0,0,1,.713-.25c.1-.028.207-.052.309-.07a4.166,4.166,0,0,1,1.406-.047,4.978,4.978,0,0,1,3.144,2.037,5.61,5.61,0,0,1,.521.837,4.758,4.758,0,0,1,.235.528c.034.1.07.2.1.306.01.034.018.068.028.1a2.2,2.2,0,0,1,.052.214c.018.07.03.142.043.217s.025.142.035.217.015.145.022.219C473.313,215.013,473.319,215.127,473.322,215.244Z" transform="translate(-450.87 -210.186)" fill="#a53d4f"/>
              <path id="Trazado_996647" data-name="Trazado 996647" d="M461.855,210.793a4.507,4.507,0,0,1,.448-.237C462.152,210.626,462,210.706,461.855,210.793Z" transform="translate(-446.703 -210.046)" fill="#a53d4f"/>
              <path id="Trazado_996648" data-name="Trazado 996648" d="M467.034,213.005a2.153,2.153,0,0,1,.05.214,2.179,2.179,0,0,0-.052-.214c-.01-.034-.018-.068-.028-.1C467.014,212.938,467.026,212.972,467.034,213.005Z" transform="translate(-444.749 -209.155)" fill="#a53d4f"/>
              <path id="Trazado_996649" data-name="Trazado 996649" d="M467.089,214.713a.827.827,0,0,0,.012-.084c0,.03-.007.065-.01.1A.018.018,0,0,0,467.089,214.713Z" transform="translate(-444.717 -208.5)" fill="#a53d4f"/>
              <path id="Trazado_996650" data-name="Trazado 996650" d="M467.154,214.153c0,.068-.007.135-.01.2s-.015.127-.022.192c.007-.065.012-.127.015-.192S467.151,214.221,467.154,214.153Z" transform="translate(-444.705 -208.681)" fill="#a53d4f"/>
            </g>
            <g id="Grupo_1161218" data-name="Grupo 1161218" transform="translate(15.297)">
              <path id="Trazado_996651" data-name="Trazado 996651" d="M438.516,184.446a4.082,4.082,0,0,1,.037-.451C438.535,184.143,438.526,184.294,438.516,184.446Z" transform="translate(-390.311 -169.743)" fill="#d1495b"/>
              <path id="Trazado_996652" data-name="Trazado 996652" d="M410.054,175.06a7.575,7.575,0,0,0-1.324-.932A7.291,7.291,0,0,1,410.054,175.06Z" transform="translate(-401.612 -173.487)" fill="#d1495b"/>
              <path id="Trazado_996653" data-name="Trazado 996653" d="M411.71,178.2s0,0,0-.007a12.528,12.528,0,0,1,.843-1.677A12.607,12.607,0,0,0,411.71,178.2Z" transform="translate(-400.482 -172.58)" fill="#d1495b"/>
              <path id="Trazado_996654" data-name="Trazado 996654" d="M425.833,178.946c.035.127.062.254.087.389,0,.028-.007.059-.012.087a8.1,8.1,0,0,1-.185.806,10.367,10.367,0,0,1-.6,1.606c-.124.269-.266.544-.414.818a24.487,24.487,0,0,1-4.622,5.707c-.225.214-.457.423-.7.636a44.347,44.347,0,0,1-4.122,3.273v0l-.13.077-.386.237-.439-.294c-.025-.018-.05-.037-.074-.052a45.1,45.1,0,0,1-3.909-3.094c-.177-.154-.346-.309-.516-.466-.092-.083-.185-.167-.275-.254-.259-.244-.506-.484-.75-.728-.5-.494-.96-.992-1.393-1.486-.207-.237-.4-.469-.6-.708-.135-.167-.269-.337-.4-.5s-.254-.331-.371-.494a16.111,16.111,0,0,1-1.615-2.7c-.037-.07-.068-.145-.1-.219s-.059-.139-.087-.207a9.258,9.258,0,0,1-.528-1.653c-.028-.13-.052-.257-.074-.386a4.832,4.832,0,0,1,.219-.8,5.5,5.5,0,0,1,.342-.732,5.811,5.811,0,0,1,.55-.812,4.912,4.912,0,0,1,3.007-1.859,4.373,4.373,0,0,1,2.1.237,5.619,5.619,0,0,1,.818.364,7.165,7.165,0,0,1,1.476,1.072c.16.145.321.3.476.469a8.937,8.937,0,0,1,.59.7,10.219,10.219,0,0,1,.639.92,12.411,12.411,0,0,1,.93,1.818,10.883,10.883,0,0,1,2.6-3.875,8.8,8.8,0,0,1,.679-.574,5.132,5.132,0,0,1,3.749-1.13,5.312,5.312,0,0,1,3.762,3.072c.052.112.1.222.139.331.03.09.062.182.09.272C425.8,178.856,425.821,178.9,425.833,178.946Z" transform="translate(-403.547 -173.122)" fill="#d1495b"/>
              <path id="Trazado_996655" data-name="Trazado 996655" d="M419.858,177.484c0-.117-.01-.232-.018-.343-.007-.074-.012-.145-.022-.219.01.074.018.145.025.219C419.851,177.256,419.858,177.371,419.858,177.484Z" transform="translate(-397.405 -172.427)" fill="#d1495b"/>
              <path id="Trazado_996656" data-name="Trazado 996656" d="M426.023,178.72c0,.135,0,.274,0,.414,0,.068-.006.135-.015.2s-.01.127-.015.192v0c-.007.055-.012.112-.022.167-.006.03-.006.062-.012.092a.623.623,0,0,1-.012.084c-.025-.135-.052-.262-.087-.389-.012-.047-.028-.09-.043-.137-.028-.09-.059-.182-.09-.272-.04-.108-.087-.219-.139-.331a5.3,5.3,0,0,0-3.762-3.072,5.132,5.132,0,0,0-3.749,1.13,8.873,8.873,0,0,0-.679.574,10.9,10.9,0,0,0-2.6,3.875,12.265,12.265,0,0,0-.93-1.818,10.5,10.5,0,0,0-.639-.92,8.942,8.942,0,0,0-.59-.7c-.155-.167-.315-.324-.476-.469a7.166,7.166,0,0,0-1.476-1.072,5.623,5.623,0,0,0-.818-.364,4.371,4.371,0,0,0-2.1-.237,4.908,4.908,0,0,0-3.007,1.859,5.736,5.736,0,0,0-.55.812,5.111,5.111,0,0,0-.342.732,4.832,4.832,0,0,0-.219.8c-.012-.068-.022-.137-.03-.2s-.015-.117-.022-.177c0-.01,0-.018,0-.028s0-.018,0-.028a6.613,6.613,0,0,1-.022-.806v-.007c.01-.152.019-.3.037-.451v0a5.033,5.033,0,0,1,.127-.655c.04-.142.083-.281.137-.419.022-.059.047-.12.07-.179.052-.12.108-.244.172-.367.034-.058.068-.12.1-.182.077-.139.16-.279.25-.414s.192-.269.3-.4c.139-.17.287-.337.444-.494a4.66,4.66,0,0,1,2.56-1.366,3.775,3.775,0,0,1,.531-.04,4.548,4.548,0,0,1,.608.04,4.769,4.769,0,0,1,.571.117c.13.034.259.074.386.12a6.106,6.106,0,0,1,.818.364,7.527,7.527,0,0,1,1.324.932,8.431,8.431,0,0,1,.812.818c.139.154.274.319.4.488a.2.2,0,0,0,.015.018c.05.065.1.132.152.2.108.148.212.3.319.461.05.08.1.16.155.244.087.139.17.281.254.423a12.961,12.961,0,0,1,.673,1.389s0,0,0,.007a12.511,12.511,0,0,1,.84-1.683,9.988,9.988,0,0,1,1.757-2.2c.154-.145.312-.281.469-.4.068-.058.139-.114.21-.167.13-.1.259-.185.392-.269a.375.375,0,0,1,.034-.022c.075-.05.149-.092.222-.135.148-.087.3-.167.448-.237.074-.037.152-.07.225-.1a4.926,4.926,0,0,1,.713-.25c.1-.028.207-.052.309-.07a4.166,4.166,0,0,1,1.406-.047,4.978,4.978,0,0,1,3.144,2.037,5.62,5.62,0,0,1,.521.837,4.747,4.747,0,0,1,.235.528c.034.1.07.2.1.306.01.034.019.068.028.1a2.2,2.2,0,0,1,.052.214c.018.07.03.142.043.217s.025.142.034.217.015.145.022.219C426.013,178.49,426.018,178.6,426.023,178.72Z" transform="translate(-403.569 -173.663)" fill="#a53d4f"/>
              <path id="Trazado_996657" data-name="Trazado 996657" d="M404.064,175.741c.077-.137.16-.275.254-.411-.09.135-.172.275-.25.414-.034.062-.068.124-.1.182C404,175.865,404.031,175.8,404.064,175.741Z" transform="translate(-403.419 -173.031)" fill="#a53d4f"/>
              <path id="Trazado_996658" data-name="Trazado 996658" d="M404.517,175.175a6,6,0,0,1,.448-.494,6.478,6.478,0,0,0-.444.494c-.108.132-.207.266-.3.4C404.313,175.441,404.412,175.309,404.517,175.175Z" transform="translate(-403.322 -173.277)" fill="#a53d4f"/>
              <path id="Trazado_996659" data-name="Trazado 996659" d="M414.555,174.269a4.521,4.521,0,0,1,.448-.237C414.85,174.1,414.7,174.184,414.555,174.269Z" transform="translate(-399.402 -173.523)" fill="#a53d4f"/>
              <path id="Trazado_996660" data-name="Trazado 996660" d="M419.734,176.482c.018.072.037.139.05.214a2.2,2.2,0,0,0-.052-.214c-.01-.034-.018-.068-.028-.1C419.712,176.414,419.725,176.449,419.734,176.482Z" transform="translate(-397.448 -172.632)" fill="#a53d4f"/>
              <path id="Trazado_996661" data-name="Trazado 996661" d="M419.788,178.19a.81.81,0,0,0,.012-.084.751.751,0,0,1-.01.1A.009.009,0,0,0,419.788,178.19Z" transform="translate(-397.416 -171.977)" fill="#a53d4f"/>
              <path id="Trazado_996662" data-name="Trazado 996662" d="M419.853,177.63c0,.068-.006.135-.01.2s-.015.127-.022.192c.006-.065.012-.127.015-.192A1.729,1.729,0,0,0,419.853,177.63Z" transform="translate(-397.404 -172.158)" fill="#a53d4f"/>
            </g>
          </g>
          <path id="Trazado_996663" data-name="Trazado 996663" d="M485.1,273.778c-.069,21.463-26.057,38.871-58.1,38.871s-58.017-17.408-58.086-38.871c.069,3.807,26.043,6.883,58.086,6.883S485.026,277.585,485.1,273.778Z" transform="translate(-323.378 -86.034)" fill="#00798c"/>
        </g>
        <g id="Grupo_1161221" data-name="Grupo 1161221" transform="translate(80.16)">
          <rect id="Rectángulo_412930" data-name="Rectángulo 412930" width="484.999" height="14.022" transform="translate(0 7.045)" fill="none" stroke="#000" stroke-miterlimit="10" stroke-width="1"/>
          <rect id="Rectángulo_412931" data-name="Rectángulo 412931" width="50.392" height="14.022" transform="translate(217.859 7.045)"/>
          <ellipse id="Elipse_11584" data-name="Elipse 11584" cx="13.584" cy="14.056" rx="13.584" ry="14.056" transform="translate(228.915)" fill="#edae49"/>
          <ellipse id="Elipse_11585" data-name="Elipse 11585" cx="7.298" cy="7.551" rx="7.298" ry="7.551" transform="translate(235.2 6.505)" fill="none" stroke="#000" stroke-miterlimit="10" stroke-width="1"/>
        </g>
      </g>
      <g id="Grupo_1161264" data-name="Grupo 1161264" transform="translate(68.937 0)">
        <g id="Grupo_1161263" data-name="Grupo 1161263" clip-path="url(#clip-path-2)">
          <g id="Grupo_1161223" data-name="Grupo 1161223" transform="translate(265.36 110.365)">
            <path id="Trazado_996664" data-name="Trazado 996664" d="M306.767,184.716l-45.461-23.887a5.033,5.033,0,0,1-1.167-8.032,22.179,22.179,0,0,1,26.022-3.973l30.927,16.251Z" transform="translate(-258.639 -146.275)" fill="#f7af9d"/>
            <path id="Trazado_996665" data-name="Trazado 996665" d="M271.906,167.278h0a4.737,4.737,0,0,1,6.4-1.99l23.571,12.386-4.407,8.387-23.571-12.386A4.736,4.736,0,0,1,271.906,167.278Z" transform="translate(-253.813 -139.268)" fill="#f7af9d"/>
          </g>
          <g id="Grupo_1161224" data-name="Grupo 1161224" transform="translate(145.372 471.08)">
            <path id="Trazado_996666" data-name="Trazado 996666" d="M191.123,407.949l-.4,44.436A4.355,4.355,0,0,1,185,456.461a19.187,19.187,0,0,1-13.35-18.455l.272-30.229Z" transform="translate(-171.653 -407.777)" fill="#f7af9d"/>
            <path id="Trazado_996667" data-name="Trazado 996667" d="M189.679,435.124h0a4.1,4.1,0,0,1-4.062-4.135l.207-23.039,8.2.074-.207,23.039A4.1,4.1,0,0,1,189.679,435.124Z" transform="translate(-166.356 -407.711)" fill="#f7af9d"/>
          </g>
          <g id="Grupo_1161228" data-name="Grupo 1161228" transform="translate(189.296 399.573)">
            <rect id="Rectángulo_412932" data-name="Rectángulo 412932" width="129.674" height="108.453" transform="translate(0 11.948)" fill="#003d5b"/>
            <rect id="Rectángulo_412933" data-name="Rectángulo 412933" width="129.674" height="11.95"/>
            <rect id="Rectángulo_412934" data-name="Rectángulo 412934" width="11.067" height="14.365" transform="translate(15.973)" fill="#003d5b"/>
            <rect id="Rectángulo_412935" data-name="Rectángulo 412935" width="11.065" height="14.365" transform="translate(98.394)" fill="#003d5b"/>
            <g id="Grupo_1161227" data-name="Grupo 1161227" transform="translate(51.25 66.121)">
              <g id="Grupo_1161225" data-name="Grupo 1161225" transform="translate(12.897 0.69)">
                <rect id="Rectángulo_412936" data-name="Rectángulo 412936" width="1.379" height="53.594"/>
              </g>
              <g id="Grupo_1161226" data-name="Grupo 1161226">
                <rect id="Rectángulo_412937" data-name="Rectángulo 412937" width="27.471" height="1.379"/>
              </g>
            </g>
          </g>
          <g id="Grupo_1161239" data-name="Grupo 1161239" transform="translate(123.103 105.444)">
            <path id="Trazado_996668" data-name="Trazado 996668" d="M401.794,224.148c0,.041-.014.083-.014.124a25.55,25.55,0,0,1-2.428,5.683,25.212,25.212,0,0,1-34.43,9.228l-26.705-15.422-.317-.179-14.235-8.221-38.251-22.084,25.2-43.685,79.508,45.92a21.373,21.373,0,0,1,2.442,1.614,13.013,13.013,0,0,1,1.283,1.021,24.787,24.787,0,0,1,7.559,11.146c.1.29.193.566.276.855.014.055.028.1.041.138.138.483.262.966.372,1.435.055.207.1.414.138.621.028.152.069.3.083.455.069.372.124.759.179,1.131A24.964,24.964,0,0,1,401.794,224.148Z" transform="translate(-106.225 -140.096)" fill="#00798c"/>
            <path id="Trazado_996669" data-name="Trazado 996669" d="M407.894,210.786c0,.041-.014.083-.014.124-9.642,38.8-91.564,87.178-108.02,96.544-1.435.8-2.359,1.324-2.717,1.517l-3.117-7.256-24.691-57.535,67.4-30.65L344,210.22l15.463-7.035,40.4-18.374a27.931,27.931,0,0,1,7.338,10.276c.1.29.207.566.3.841s.193.566.276.855c.014.055.028.1.041.138.138.483.262.966.372,1.435.055.207.1.414.138.621.028.152.069.3.083.455.069.372.124.759.179,1.131A27.852,27.852,0,0,1,407.894,210.786Z" transform="translate(-112.325 -126.733)" fill="#00798c"/>
            <path id="Trazado_996670" data-name="Trazado 996670" d="M351.376,404.539H221.7v2.621h-.193l-.014,2.069-.248,57.383-.014,2.9H163.985V445.645a7.187,7.187,0,0,0-1.255-4.055l-5.959-8.718a7.216,7.216,0,0,1-.717-6.828l2.759-6.607,1.517-3.628a7.128,7.128,0,0,0-.455-6.4,2.852,2.852,0,0,0-.207-.345l-2.455-3.683a7.221,7.221,0,0,1,0-7.973l4.649-6.98,1.421-2.124a7.068,7.068,0,0,0,1.214-3.973,6.725,6.725,0,0,0-.1-1.172,7.118,7.118,0,0,0-3.614-5.118,7.177,7.177,0,0,1-2.814-9.711l13.3-24.36a7.069,7.069,0,0,0,.828-2.717l6.125-59.466a46.523,46.523,0,0,1,36.057-40.637q28.843-6.5,57.7-13.008l40.54-.29,24.691,57.534,3.117,7.256c.248,2.566.51,5.118.759,7.683v.014Q346.238,352.439,351.376,404.539Z" transform="translate(-155.51 -110.404)" fill="#00798c"/>
            <g id="Grupo_1161229" data-name="Grupo 1161229" transform="translate(130.218 146.745)">
              <rect id="Rectángulo_412938" data-name="Rectángulo 412938" width="1.379" height="48.311" fill="#fff"/>
            </g>
            <g id="Grupo_1161230" data-name="Grupo 1161230" transform="translate(130.218 208.346)">
              <rect id="Rectángulo_412939" data-name="Rectángulo 412939" width="1.379" height="85.783" fill="#fff"/>
            </g>
            <g id="Grupo_1161231" data-name="Grupo 1161231" transform="translate(111.707 122.841)">
              <path id="Trazado_996671" data-name="Trazado 996671" d="M274.894,232.507,265.059,247.9l-9.366-10.387L246.327,247.9l-9.835-15.394,1.172-.745,8.856,13.863,8.249-9.132.593-.648.345-.317.331.317.593.648,8.249,9.132,8.856-13.863Z" transform="translate(-236.492 -231.762)" fill="#fff"/>
            </g>
            <path id="Trazado_996672" data-name="Trazado 996672" d="M203.485,386.718l.015-111.9,6.489,44.146L203.5,386.713" transform="translate(-137.308 -92.584)" fill="#003d5b"/>
            <g id="Grupo_1161232" data-name="Grupo 1161232" transform="translate(81.473 174.582)">
              <path id="Trazado_996673" data-name="Trazado 996673" d="M214.574,269.272v17.836a17.836,17.836,0,1,0,35.671,0V269.272Zm34.292,17.836a16.456,16.456,0,1,1-32.912,0v-5.035h21.574v-1.379H215.953V270.651h32.912Z" transform="translate(-214.574 -269.272)" fill="#fff"/>
            </g>
            <g id="Grupo_1161235" data-name="Grupo 1161235" transform="translate(163.506 0)">
              <rect id="Rectángulo_412940" data-name="Rectángulo 412940" width="52.148" height="24.043" transform="translate(45.574 11.204) rotate(117.775)" fill="#00798c"/>
              <path id="Trazado_996674" data-name="Trazado 996674" d="M296.6,155.115a2.8,2.8,0,1,1,3.89-1.117A2.864,2.864,0,0,1,296.6,155.115Z" transform="translate(-266.088 -140.014)" fill="#003d5b"/>
              <g id="Grupo_1161233" data-name="Grupo 1161233" transform="translate(28.276 14.215)">
                <rect id="Rectángulo_412941" data-name="Rectángulo 412941" width="32.206" height="1.207" transform="translate(0 28.496) rotate(-62.225)" fill="#003d5b"/>
              </g>
              <g id="Grupo_1161234" data-name="Grupo 1161234" transform="translate(19.093 22.451)">
                <rect id="Rectángulo_412942" data-name="Rectángulo 412942" width="32.206" height="1.207" transform="translate(0 28.496) rotate(-62.225)" fill="#003d5b"/>
              </g>
            </g>
            <g id="Grupo_1161238" data-name="Grupo 1161238" transform="translate(8.282 347.775)">
              <rect id="Rectángulo_412943" data-name="Rectángulo 412943" width="57.217" height="24.043" transform="matrix(1, 0.008, -0.008, 1, 0.183, 0.607)" fill="#00798c"/>
              <path id="Trazado_996675" data-name="Trazado 996675" d="M170.7,404.465a2.8,2.8,0,1,1-2.778-2.944A2.864,2.864,0,0,1,170.7,404.465Z" transform="translate(-160.152 -392.29)" fill="#003d5b"/>
              <g id="Grupo_1161236" data-name="Grupo 1161236" transform="translate(3.921)">
                <rect id="Rectángulo_412944" data-name="Rectángulo 412944" width="1.207" height="32.206" transform="matrix(0.008, -1, 1, 0.008, 0, 1.207)" fill="#003d5b"/>
              </g>
              <g id="Grupo_1161237" data-name="Grupo 1161237" transform="translate(15.456 4.379)">
                <rect id="Rectángulo_412945" data-name="Rectángulo 412945" width="1.207" height="32.206" transform="matrix(0.008, -1, 1, 0.008, 0, 1.207)" fill="#003d5b"/>
              </g>
            </g>
            <path id="Trazado_996676" data-name="Trazado 996676" d="M345.352,198.822l-17.16,7.131L320.62,209.1l-.014-.014,7.269-3.311q-8.02-4.622-16.038-9.243l31.5,2.208Z" transform="translate(-96.2 -122.287)" fill="#003d5b"/>
            <path id="Trazado_996677" data-name="Trazado 996677" d="M173.094,335.752l-12.98,13.739,1.421-2.124a7.068,7.068,0,0,0,1.214-3.973,6.725,6.725,0,0,0-.1-1.172Z" transform="translate(-153.763 -69.468)" fill="#003d5b"/>
            <path id="Trazado_996678" data-name="Trazado 996678" d="M159.421,368.631a7.128,7.128,0,0,0-.455-6.4L174.512,352.2,157.9,372.258Z" transform="translate(-154.601 -63.227)" fill="#003d5b"/>
            <path id="Trazado_996679" data-name="Trazado 996679" d="M293.766,284.773c.248,2.566.51,5.118.759,7.683q-8.144-21.932-16.289-43.863,9.125,17.331,18.248,34.663Q295.124,284.015,293.766,284.773Z" transform="translate(-108.948 -102.535)" fill="#00495b"/>
          </g>
          <g id="Grupo_1161262" data-name="Grupo 1161262" transform="translate(208.026 116.453)">
            <g id="Grupo_1161240" data-name="Grupo 1161240" transform="translate(31.532 80.899)">
              <path id="Trazado_996680" data-name="Trazado 996680" d="M268.832,212.332v21.491q-7.221,4.221-14.442,8.428l-14.456-8.207V212.332Z" transform="translate(-239.934 -208.199)" fill="#f7af9d"/>
              <path id="Trazado_996681" data-name="Trazado 996681" d="M239.939,209.336V228.38l28.893-15.373v-3.671Z" transform="translate(-239.932 -209.336)"/>
            </g>
            <g id="Grupo_1161245" data-name="Grupo 1161245" transform="translate(0 3.862)">
              <ellipse id="Elipse_11586" data-name="Elipse 11586" cx="29.981" cy="43.379" rx="29.981" ry="43.379" transform="translate(16.504)" fill="#f7af9d"/>
              <ellipse id="Elipse_11587" data-name="Elipse 11587" cx="10.402" cy="11.357" rx="10.402" ry="11.357" transform="translate(0 37.387)" fill="#f7af9d"/>
              <g id="Grupo_1161241" data-name="Grupo 1161241" transform="translate(4.022 40.547)">
                <path id="Trazado_996682" data-name="Trazado 996682" d="M221.354,189.554l-1.363-.208a7.616,7.616,0,0,1,9.132-6.308l-.288,1.349a6.24,6.24,0,0,0-7.48,5.167Z" transform="translate(-219.991 -182.883)" fill="#e58876"/>
              </g>
              <g id="Grupo_1161242" data-name="Grupo 1161242" transform="translate(4.06 51.087)">
                <path id="Trazado_996683" data-name="Trazado 996683" d="M227.093,195.926a7.437,7.437,0,0,1-2.973-.612,7.835,7.835,0,0,1-4.1-4.3l1.288-.49a6.239,6.239,0,0,0,8.4,3.486l.563,1.259A8.02,8.02,0,0,1,227.093,195.926Z" transform="translate(-220.018 -190.524)" fill="#e58876"/>
              </g>
              <ellipse id="Elipse_11588" data-name="Elipse 11588" cx="10.402" cy="11.357" rx="10.402" ry="11.357" transform="translate(72.086 38.544)" fill="#f7af9d"/>
              <g id="Grupo_1161243" data-name="Grupo 1161243" transform="translate(79.736 41.704)">
                <path id="Trazado_996684" data-name="Trazado 996684" d="M282.649,190.393l1.363-.208a7.616,7.616,0,0,0-9.132-6.308l.288,1.348a6.239,6.239,0,0,1,7.48,5.169Z" transform="translate(-274.88 -183.722)" fill="#e58876"/>
              </g>
              <g id="Grupo_1161244" data-name="Grupo 1161244" transform="translate(78.58 52.245)">
                <path id="Trazado_996685" data-name="Trazado 996685" d="M277.217,196.765a7.437,7.437,0,0,0,2.973-.612,7.835,7.835,0,0,0,4.1-4.3l-1.29-.49a6.239,6.239,0,0,1-8.4,3.486l-.563,1.259A8.061,8.061,0,0,0,277.217,196.765Z" transform="translate(-274.042 -191.363)" fill="#e58876"/>
              </g>
            </g>
            <g id="Grupo_1161261" data-name="Grupo 1161261" transform="translate(16.249 37.308)">
              <g id="Grupo_1161246" data-name="Grupo 1161246" transform="translate(10.806 13.669)">
                <path id="Trazado_996686" data-name="Trazado 996686" d="M242.43,190.429a11.291,11.291,0,0,1-5.741-1.6l.713-1.181a9.914,9.914,0,0,0,5.454,1.4,9.7,9.7,0,0,0,4.57-1.4l.716,1.179a11.1,11.1,0,0,1-5.224,1.595C242.753,190.426,242.59,190.429,242.43,190.429Z" transform="translate(-236.689 -187.644)"/>
              </g>
              <g id="Grupo_1161247" data-name="Grupo 1161247" transform="translate(37.308 13.669)">
                <path id="Trazado_996687" data-name="Trazado 996687" d="M261.626,190.43a11.09,11.09,0,0,1-5.724-1.606l.713-1.181a9.868,9.868,0,0,0,5.454,1.4,9.713,9.713,0,0,0,4.571-1.4l.715,1.179a11.1,11.1,0,0,1-5.224,1.595C261.96,190.426,261.792,190.43,261.626,190.43Z" transform="translate(-255.902 -187.644)"/>
              </g>
              <g id="Grupo_1161249" data-name="Grupo 1161249" transform="translate(36.356 0.031)">
                <g id="Grupo_1161248" data-name="Grupo 1161248">
                  <path id="Trazado_996688" data-name="Trazado 996688" d="M256.5,180.341c3.792-.926,8.183-.832,11.3,1.8,1.011.854,2.483-.6,1.464-1.464-3.717-3.138-8.734-3.45-13.314-2.333-1.294.316-.746,2.312.549,1.995Z" transform="translate(-255.211 -177.757)"/>
                </g>
              </g>
              <g id="Grupo_1161251" data-name="Grupo 1161251" transform="translate(8.226)">
                <g id="Grupo_1161250" data-name="Grupo 1161250">
                  <path id="Trazado_996689" data-name="Trazado 996689" d="M248.435,178.253c-4.592-1.041-9.613-.665-13.279,2.534-1.006.877.464,2.335,1.464,1.464,3.075-2.683,7.454-2.866,11.266-2,1.3.292,1.851-1.7.55-2Z" transform="translate(-234.819 -177.734)"/>
                </g>
              </g>
              <g id="Grupo_1161253" data-name="Grupo 1161253" transform="translate(25.83 16.314)">
                <g id="Grupo_1161252" data-name="Grupo 1161252">
                  <path id="Trazado_996690" data-name="Trazado 996690" d="M251.765,190.06a10.125,10.125,0,0,1-.945,5.478c-.768,1.33-2.1,1.935-3.093,3.037a.528.528,0,0,0,.1.812,5.845,5.845,0,0,0,6.337.552c.6-.3.072-1.19-.523-.894a4.846,4.846,0,0,1-5.293-.552c.034.27.07.542.1.812,1.237-1.378,2.691-2,3.522-3.775a11.785,11.785,0,0,0,.819-5.472c-.023-.662-1.058-.665-1.034,0Z" transform="translate(-247.58 -189.561)"/>
                </g>
              </g>
              <g id="Grupo_1161254" data-name="Grupo 1161254" transform="translate(22.628 31.183)">
                <rect id="Rectángulo_412946" data-name="Rectángulo 412946" width="17.24" height="1.035" transform="translate(0 3.796) rotate(-12.72)"/>
              </g>
              <g id="Grupo_1161255" data-name="Grupo 1161255" transform="translate(23.765 39.084)">
                <path id="Trazado_996691" data-name="Trazado 996691" d="M260.1,209.792a9.574,9.574,0,0,0-13.3,0l-.715-.748a10.606,10.606,0,0,1,14.729,0Z" transform="translate(-246.084 -206.069)" fill="#e58876"/>
              </g>
              <g id="Grupo_1161256" data-name="Grupo 1161256" transform="translate(25.714 12.98)">
                <rect id="Rectángulo_412947" data-name="Rectángulo 412947" width="9.664" height="1.379" fill="#fff"/>
              </g>
              <path id="Trazado_996692" data-name="Trazado 996692" d="M275.275,193.431c0,1.1-3.032,1.99-6.771,1.99s-6.771-.891-6.771-1.99,3.032-1.99,6.771-1.99S275.275,192.332,275.275,193.431Z" transform="translate(-216.382 -172.534)" fill="#d1495b"/>
              <path id="Trazado_996693" data-name="Trazado 996693" d="M244.565,193.431c0,1.1-3.032,1.99-6.771,1.99s-6.771-.891-6.771-1.99,3.032-1.99,6.771-1.99S244.565,192.332,244.565,193.431Z" transform="translate(-228.033 -172.534)" fill="#d1495b"/>
              <g id="Grupo_1161257" data-name="Grupo 1161257" transform="translate(34.689 4.161)">
                <path id="Trazado_996694" data-name="Trazado 996694" d="M263.51,199.766a9.507,9.507,0,1,1,9.508-9.507A9.518,9.518,0,0,1,263.51,199.766Zm0-17.636a8.128,8.128,0,1,0,8.129,8.129A8.138,8.138,0,0,0,263.51,182.13Z" transform="translate(-254.003 -180.751)" fill="#fff"/>
              </g>
              <g id="Grupo_1161258" data-name="Grupo 1161258" transform="translate(7.389 4.161)">
                <path id="Trazado_996695" data-name="Trazado 996695" d="M243.72,199.766a9.507,9.507,0,1,1,9.507-9.507A9.518,9.518,0,0,1,243.72,199.766Zm0-17.636a8.128,8.128,0,1,0,8.127,8.129A8.139,8.139,0,0,0,243.72,182.13Z" transform="translate(-234.212 -180.751)" fill="#fff"/>
              </g>
              <g id="Grupo_1161259" data-name="Grupo 1161259" transform="translate(0 5.823)">
                <rect id="Rectángulo_412948" data-name="Rectángulo 412948" width="1.035" height="10.732" transform="translate(0 0.744) rotate(-45.948)" fill="#fff"/>
              </g>
              <g id="Grupo_1161260" data-name="Grupo 1161260" transform="translate(52.657 6.696)">
                <rect id="Rectángulo_412949" data-name="Rectángulo 412949" width="9.841" height="1.035" transform="translate(0 6.571) rotate(-41.891)" fill="#fff"/>
              </g>
            </g>
            <path id="Trazado_996696" data-name="Trazado 996696" d="M293.252,181.173c0,9.035-2.083,16.373-4.649,16.373s-4.662-7.338-4.662-16.373a50.391,50.391,0,0,1,.441-6.856c-6.014,2.828-14.663,4.593-24.277,4.593-9.9,0-18.787-1.876-24.829-4.869.166,1.655.248,3.421.248,5.255,0,9.035-2,16.36-4.455,16.36s-4.455-7.325-4.455-16.36a46.242,46.242,0,0,1,1.3-11.559v-.014a6.491,6.491,0,0,1-.717-2.924c0-7.794,14.746-14.111,32.912-14.111s32.912,6.318,32.912,14.111a7.042,7.042,0,0,1-1.366,4.028A42.035,42.035,0,0,1,293.252,181.173Z" transform="translate(-213.456 -150.688)"/>
          </g>
        </g>
      </g>
    </g>
  </g>
</svg>
