<svg xmlns="http://www.w3.org/2000/svg" xmlns:xlink="http://www.w3.org/1999/xlink" width="108" height="108" viewBox="0 0 108 108">
  <defs>
    <filter id="Trazado_982547" x="0" y="0" width="108" height="108" filterUnits="userSpaceOnUse">
      <feOffset dy="3" input="SourceAlpha"/>
      <feGaussianBlur stdDeviation="3" result="blur"/>
      <feFlood flood-opacity="0.161"/>
      <feComposite operator="in" in2="blur"/>
      <feComposite in="SourceGraphic"/>
    </filter>
  </defs>
  <g id="Grupo_1160726" data-name="Grupo 1160726" transform="translate(-171 -3391)">
    <g id="Grupo_1160654" data-name="Grupo 1160654" transform="translate(0 1842)">
      <g id="Grupo_1153955" data-name="Grupo 1153955" transform="translate(-83 1036)">
        <g id="Grupo_1149598" data-name="Grupo 1149598" transform="translate(80 315)">
          <g id="Grupo_1148770" data-name="Grupo 1148770" transform="translate(-27 -2583)">
            <g id="Grupo_1146954" data-name="Grupo 1146954" transform="translate(-415 -1202)">
              <g transform="matrix(1, 0, 0, 1, 616, 3983)" filter="url(#Trazado_982547)">
                <g id="Trazado_982547-2" data-name="Trazado 982547" transform="translate(9 6)" fill="#fcebe9">
                  <path d="M 45 88.5 C 39.12687683105469 88.5 33.43022537231445 87.35007476806641 28.06830024719238 85.08217620849609 C 22.88852500915527 82.89131164550781 18.23629951477051 79.75458526611328 14.2408504486084 75.75914764404297 C 10.24541282653809 71.76370239257812 7.108687400817871 67.11147308349609 4.917825222015381 61.93170166015625 C 2.649924993515015 56.56977462768555 1.5 50.87312316894531 1.5 45 C 1.5 39.12687683105469 2.649924993515015 33.43022537231445 4.917825222015381 28.06830024719238 C 7.108687400817871 22.88852500915527 10.24541282653809 18.23629951477051 14.2408504486084 14.2408504486084 C 18.23629951477051 10.24541282653809 22.88852500915527 7.108687400817871 28.06830024719238 4.917825222015381 C 33.43022537231445 2.649924993515015 39.12687683105469 1.5 45 1.5 C 50.87312316894531 1.5 56.56977462768555 2.649924993515015 61.93170166015625 4.917825222015381 C 67.11147308349609 7.108687400817871 71.76370239257812 10.24541282653809 75.75914764404297 14.2408504486084 C 79.75458526611328 18.23629951477051 82.89131164550781 22.88852500915527 85.08217620849609 28.06830024719238 C 87.35007476806641 33.43022537231445 88.5 39.12687683105469 88.5 45 C 88.5 50.87312316894531 87.35007476806641 56.56977462768555 85.08217620849609 61.93170166015625 C 82.89131164550781 67.11147308349609 79.75458526611328 71.76370239257812 75.75914764404297 75.75914764404297 C 71.76370239257812 79.75458526611328 67.11147308349609 82.89131164550781 61.93170166015625 85.08217620849609 C 56.56977462768555 87.35007476806641 50.87312316894531 88.5 45 88.5 Z" stroke="none"/>
                  <path d="M 45 3 C 39.32871246337891 3 33.82865524291992 4.110054016113281 28.65262985229492 6.299339294433594 C 23.65165710449219 8.414573669433594 19.15968322753906 11.44334411621094 15.301513671875 15.301513671875 C 11.44334411621094 19.15968322753906 8.414573669433594 23.65165710449219 6.299339294433594 28.65262985229492 C 4.110054016113281 33.82865524291992 3 39.32871246337891 3 45 C 3 50.67128753662109 4.110054016113281 56.17134475708008 6.299339294433594 61.34737396240234 C 8.414573669433594 66.34834289550781 11.44334411621094 70.84031677246094 15.301513671875 74.698486328125 C 19.15968322753906 78.55665588378906 23.65165710449219 81.58542633056641 28.65262985229492 83.70066070556641 C 33.82865524291992 85.88994598388672 39.32871246337891 87 45 87 C 50.67128753662109 87 56.17134475708008 85.88994598388672 61.34737396240234 83.70066070556641 C 66.34834289550781 81.58542633056641 70.84031677246094 78.55665588378906 74.698486328125 74.698486328125 C 78.55665588378906 70.84031677246094 81.58542633056641 66.34834289550781 83.70066070556641 61.34737396240234 C 85.88994598388672 56.17134475708008 87 50.67128753662109 87 45 C 87 39.32871246337891 85.88994598388672 33.82865524291992 83.70066070556641 28.65262985229492 C 81.58542633056641 23.65165710449219 78.55665588378906 19.15968322753906 74.698486328125 15.301513671875 C 70.84031677246094 11.44334411621094 66.34834289550781 8.414573669433594 61.34737396240234 6.299339294433594 C 56.17134475708008 4.110054016113281 50.67128753662109 3 45 3 M 45 0 C 69.85281372070312 0 90 20.14718627929688 90 45 C 90 69.85281372070312 69.85281372070312 90 45 90 C 20.14718627929688 90 0 69.85281372070312 0 45 C 0 20.14718627929688 20.14718627929688 0 45 0 Z" stroke="none" fill="#e44b36"/>
                </g>
              </g>
            </g>
          </g>
        </g>
      </g>
    </g>
    <g id="brainstorm_4335903" transform="translate(194 3411)">
      <g id="Grupo_1160724" data-name="Grupo 1160724">
        <g id="Grupo_1160710" data-name="Grupo 1160710">
          <circle id="Elipse_11566" data-name="Elipse 11566" cx="10" cy="10" r="10" transform="translate(21 1)" fill="#b4dd7f"/>
        </g>
        <g id="Grupo_1160711" data-name="Grupo 1160711">
          <circle id="Elipse_11567" data-name="Elipse 11567" cx="10" cy="10" r="10" transform="translate(1 41)" fill="#b4dd7f"/>
        </g>
        <g id="Grupo_1160712" data-name="Grupo 1160712">
          <circle id="Elipse_11568" data-name="Elipse 11568" cx="10" cy="10" r="10" transform="translate(41 41)" fill="#b4dd7f"/>
        </g>
        <g id="Grupo_1160713" data-name="Grupo 1160713">
          <path id="Trazado_995361" data-name="Trazado 995361" d="M51,55a5,5,0,0,1,4.97,4.67,9.951,9.951,0,0,1-9.94,0A5,5,0,0,1,51,55Z" fill="#ff826e"/>
        </g>
        <g id="Grupo_1160714" data-name="Grupo 1160714">
          <path id="Trazado_995362" data-name="Trazado 995362" d="M31,15a5,5,0,0,1,4.97,4.67,9.951,9.951,0,0,1-9.94,0A5,5,0,0,1,31,15Z" fill="#e6e9ed"/>
        </g>
        <g id="Grupo_1160715" data-name="Grupo 1160715">
          <path id="Trazado_995363" data-name="Trazado 995363" d="M11,55a5,5,0,0,1,4.97,4.67,9.951,9.951,0,0,1-9.94,0A5,5,0,0,1,11,55Z" fill="#fcd770"/>
        </g>
        <g id="Grupo_1160716" data-name="Grupo 1160716">
          <path id="Trazado_995364" data-name="Trazado 995364" d="M51,45a5,5,0,0,1,5,5h-.17A6.835,6.835,0,0,1,51,48a6.835,6.835,0,0,1-4.83,2H46A5,5,0,0,1,51,45Z" fill="#656d78"/>
        </g>
        <g id="Grupo_1160717" data-name="Grupo 1160717">
          <path id="Trazado_995365" data-name="Trazado 995365" d="M11,45a5,5,0,0,1,5,5h-.17A6.835,6.835,0,0,1,11,48a6.835,6.835,0,0,1-4.83,2H6A5,5,0,0,1,11,45Z" fill="#656d78"/>
        </g>
        <g id="Grupo_1160718" data-name="Grupo 1160718">
          <path id="Trazado_995366" data-name="Trazado 995366" d="M56,50a5,5,0,0,1-10,0h.17A6.835,6.835,0,0,0,51,48a6.835,6.835,0,0,0,4.83,2Z" fill="#f0d0b4"/>
        </g>
        <g id="Grupo_1160719" data-name="Grupo 1160719">
          <path id="Trazado_995367" data-name="Trazado 995367" d="M15.83,50H16A5,5,0,0,1,6,50h.17A6.835,6.835,0,0,0,11,48,6.835,6.835,0,0,0,15.83,50Z" fill="#f0d0b4"/>
        </g>
        <g id="Grupo_1160720" data-name="Grupo 1160720">
          <path id="Trazado_995368" data-name="Trazado 995368" d="M35.83,10H36a5,5,0,0,1-10,0h.17A6.835,6.835,0,0,0,31,8,6.835,6.835,0,0,0,35.83,10Z" fill="#f0d0b4"/>
        </g>
        <g id="Grupo_1160721" data-name="Grupo 1160721">
          <path id="Trazado_995369" data-name="Trazado 995369" d="M21.36,37a3.994,3.994,0,0,1,1.81-6.91A3.941,3.941,0,0,1,23,29a4,4,0,0,1,8,0V45a4,4,0,0,1-8,0,3.931,3.931,0,0,1,.15-1.09A4,4,0,0,1,20,40,3.949,3.949,0,0,1,21.36,37Z" fill="#ecc19c"/>
        </g>
        <g id="Grupo_1160722" data-name="Grupo 1160722">
          <path id="Trazado_995370" data-name="Trazado 995370" d="M38.85,30.09A4,4,0,0,1,42,34a3.949,3.949,0,0,1-1.36,3,3.994,3.994,0,0,1-1.81,6.91A3.941,3.941,0,0,1,39,45a4,4,0,0,1-8,0V29a4,4,0,0,1,8,0A3.931,3.931,0,0,1,38.85,30.09Z" fill="#ecc19c"/>
        </g>
        <g id="Grupo_1160723" data-name="Grupo 1160723">
          <path id="Trazado_995371" data-name="Trazado 995371" d="M31,5a5,5,0,0,1,5,5h-.17A6.835,6.835,0,0,1,31,8a6.835,6.835,0,0,1-4.83,2H26a5,5,0,0,1,5-5Z" fill="#b27946"/>
        </g>
      </g>
      <g id="Grupo_1160725" data-name="Grupo 1160725">
        <path id="Trazado_995372" data-name="Trazado 995372" d="M50.921,19.5l1.73-1a25.242,25.242,0,0,0-7.839-8.332l-1.106,1.666A23.259,23.259,0,0,1,50.921,19.5Z"/>
        <path id="Trazado_995373" data-name="Trazado 995373" d="M53.275,25.25l1.937-.5a24.859,24.859,0,0,0-1.481-4.168l-1.817.835A22.853,22.853,0,0,1,53.275,25.25Z"/>
        <path id="Trazado_995374" data-name="Trazado 995374" d="M54,31a22.939,22.939,0,0,1-1,6.708l1.913.584a25.135,25.135,0,0,0,.738-11.458l-1.973.331A23.16,23.16,0,0,1,54,31Z"/>
        <path id="Trazado_995375" data-name="Trazado 995375" d="M25.792,55.454a24.927,24.927,0,0,0,4.167.524l.082-2a23.051,23.051,0,0,1-3.833-.482Z"/>
        <path id="Trazado_995376" data-name="Trazado 995376" d="M6.194,34.124a24.952,24.952,0,0,0,.89,4.167L9,37.708a22.966,22.966,0,0,1-.818-3.833Z"/>
        <path id="Trazado_995377" data-name="Trazado 995377" d="M8,31c0-.321.006-.641.02-.959l-2-.082Q6,30.476,6,31t.021,1.041l2-.082Q8,31.482,8,31Z"/>
        <path id="Trazado_995378" data-name="Trazado 995378" d="M6.194,27.876l1.984.248A22.933,22.933,0,0,1,18.542,11.671L17.458,9.99A24.926,24.926,0,0,0,6.194,27.876Z"/>
        <path id="Trazado_995379" data-name="Trazado 995379" d="M57.7,42.294A28.966,28.966,0,0,0,38.522,3,10.941,10.941,0,0,0,23.478,3,28.966,28.966,0,0,0,4.3,42.294a10.987,10.987,0,1,0,15.4,15.4,28.856,28.856,0,0,0,22.588,0,10.987,10.987,0,1,0,15.4-15.4ZM31,2a8.993,8.993,0,0,1,5.634,16.008,6.028,6.028,0,0,0-2.335-3,6,6,0,1,0-6.6,0,6.028,6.028,0,0,0-2.335,3A8.992,8.992,0,0,1,31,2Zm4.458,27.694,1.018,1.722a2.992,2.992,0,0,1,4,4.265A4.943,4.943,0,0,0,38,35a5,5,0,0,0-4.842,3.751l1.937.5a3,3,0,1,1,3.529,3.684l-1.048.222.293,1.031A2.944,2.944,0,0,1,38,45a3,3,0,1,1-6,0V29a3,3,0,0,1,6,0,4.993,4.993,0,0,0-2.542.694ZM26.542,44.306l-1.018-1.722a2.992,2.992,0,0,1-4-4.265A4.943,4.943,0,0,0,24,39a5,5,0,0,0,4.842-3.751l-1.937-.5a3,3,0,1,1-3.529-3.684l1.048-.222-.293-1.031A2.944,2.944,0,0,1,24,29a3,3,0,0,1,6,0V45a3,3,0,0,1-6,0,4.993,4.993,0,0,0,2.542-.694ZM31,20a8.941,8.941,0,0,1-3.867-.885,3.958,3.958,0,0,1,7.734,0A8.941,8.941,0,0,1,31,20Zm-3.882-9.078A7.73,7.73,0,0,0,31,9.335a7.73,7.73,0,0,0,3.882,1.587,3.987,3.987,0,0,1-7.764,0ZM27.17,8.91a3.975,3.975,0,0,1,7.66,0,5.784,5.784,0,0,1-3.123-1.617L31,6.586l-.707.707A5.784,5.784,0,0,1,27.17,8.91ZM7.133,59.115a3.958,3.958,0,0,1,7.734,0,8.891,8.891,0,0,1-7.734,0Zm-.015-8.193A7.73,7.73,0,0,0,11,49.335a7.73,7.73,0,0,0,3.882,1.587,3.987,3.987,0,0,1-7.764,0ZM7.17,48.91a3.975,3.975,0,0,1,7.66,0,5.784,5.784,0,0,1-3.123-1.617L11,46.586l-.707.707A5.784,5.784,0,0,1,7.17,48.91Zm9.464,9.1a6.028,6.028,0,0,0-2.335-3,6,6,0,1,0-6.6,0,6.028,6.028,0,0,0-2.335,3,9,9,0,1,1,11.267,0ZM31,58a26.762,26.762,0,0,1-10.209-2.012,10.937,10.937,0,0,0,.75-1.861c.759.311,1.527.6,2.308.831l.572-1.916a22.966,22.966,0,0,1-2.478-.916A10.982,10.982,0,0,0,6.012,41.209,26.965,26.965,0,0,1,21.3,5.814,10.988,10.988,0,0,0,30,21.949v3.063A4.988,4.988,0,0,0,22,29a4.081,4.081,0,0,0,.02.411A5.026,5.026,0,0,0,19,34a4.951,4.951,0,0,0,1.014,2.986,4.992,4.992,0,0,0,2.014,7.6c-.011.137-.028.272-.028.409a5,5,0,0,0,9,3,5,5,0,0,0,9-3,4.081,4.081,0,0,0-.02-.411A5.026,5.026,0,0,0,43,40a4.951,4.951,0,0,0-1.014-2.986,4.992,4.992,0,0,0-2.014-7.6c.011-.137.028-.272.028-.409a4.988,4.988,0,0,0-8-3.988V21.949A10.988,10.988,0,0,0,40.7,5.814a26.964,26.964,0,0,1,15.292,35.4A10.991,10.991,0,0,0,40.057,52.116a22.783,22.783,0,0,1-8.1,1.864l.082,2a24.8,24.8,0,0,0,8.422-1.837,10.894,10.894,0,0,0,.746,1.847A26.762,26.762,0,0,1,31,58Zm16.133,1.115a3.958,3.958,0,0,1,7.734,0,8.891,8.891,0,0,1-7.734,0Zm-.015-8.193A7.73,7.73,0,0,0,51,49.335a7.73,7.73,0,0,0,3.882,1.587,3.987,3.987,0,0,1-7.764,0Zm.052-2.012a3.975,3.975,0,0,1,7.66,0,5.784,5.784,0,0,1-3.123-1.617L51,46.586l-.707.707A5.784,5.784,0,0,1,47.17,48.91Zm9.464,9.1a6.028,6.028,0,0,0-2.335-3,6,6,0,1,0-6.6,0,6.028,6.028,0,0,0-2.335,3,9,9,0,1,1,11.267,0Z"/>
      </g>
    </g>
  </g>
</svg>
