<svg xmlns="http://www.w3.org/2000/svg" xmlns:xlink="http://www.w3.org/1999/xlink" width="98" height="98" viewBox="0 0 98 98">
  <defs>
    <filter id="Trazado_982548" x="0" y="0" width="98" height="98" filterUnits="userSpaceOnUse">
      <feOffset dy="3" input="SourceAlpha"/>
      <feGaussianBlur stdDeviation="3" result="blur"/>
      <feFlood flood-opacity="0.161"/>
      <feComposite operator="in" in2="blur"/>
      <feComposite in="SourceGraphic"/>
    </filter>
  </defs>
  <g id="Grupo_1160681" data-name="Grupo 1160681" transform="translate(-183 -5118)">
    <g id="Grupo_1159316" data-name="Grupo 1159316" transform="translate(0 4103)">
      <g id="Grupo_1155642" data-name="Grupo 1155642" transform="translate(0 166)">
        <g id="Grupo_1154380" data-name="Grupo 1154380" transform="translate(-9 -1247)">
          <g id="Grupo_1149886" data-name="Grupo 1149886" transform="translate(0 -2463)">
            <g id="Grupo_1149694" data-name="Grupo 1149694" transform="translate(-9 4104)">
              <g id="Grupo_1149263" data-name="Grupo 1149263" transform="translate(210 461)">
                <g transform="matrix(1, 0, 0, 1, -9, -6)" filter="url(#Trazado_982548)">
                  <g id="Trazado_982548-2" data-name="Trazado 982548" transform="translate(9 6)" fill="#eaf5f4">
                    <path d="M 40 78.5 C 34.80187606811523 78.5 29.76003265380859 77.48227691650391 25.01452255249023 75.47509765625 C 20.43014526367188 73.53606414794922 16.31264495849609 70.75986480712891 12.77638912200928 67.22360992431641 C 9.240133285522461 63.68735504150391 6.46393346786499 59.56985473632812 4.524899959564209 54.98547744750977 C 2.517722129821777 50.23996734619141 1.5 45.19812393188477 1.5 40 C 1.5 34.80187606811523 2.517722129821777 29.76003265380859 4.524899959564209 25.01452255249023 C 6.46393346786499 20.43014526367188 9.240133285522461 16.31264495849609 12.77638912200928 12.77638912200928 C 16.31264495849609 9.240133285522461 20.43014526367188 6.46393346786499 25.01452255249023 4.524899959564209 C 29.76003265380859 2.517722129821777 34.80187606811523 1.5 40 1.5 C 45.19812393188477 1.5 50.23996734619141 2.517722129821777 54.98547744750977 4.524899959564209 C 59.56985473632812 6.46393346786499 63.68735504150391 9.240133285522461 67.22360992431641 12.77638912200928 C 70.75986480712891 16.31264495849609 73.53606414794922 20.43014526367188 75.47509765625 25.01452255249023 C 77.48227691650391 29.76003265380859 78.5 34.80187606811523 78.5 40 C 78.5 45.19812393188477 77.48227691650391 50.23996734619141 75.47509765625 54.98547744750977 C 73.53606414794922 59.56985473632812 70.75986480712891 63.68735504150391 67.22360992431641 67.22360992431641 C 63.68735504150391 70.75986480712891 59.56985473632812 73.53606414794922 54.98547744750977 75.47509765625 C 50.23996734619141 77.48227691650391 45.19812393188477 78.5 40 78.5 Z" stroke="none"/>
                    <path d="M 40 3 C 35.00370788574219 3 30.15846633911133 3.977851867675781 25.59885406494141 5.906410217285156 C 21.19326782226562 7.769813537597656 17.23602676391602 10.43806457519531 13.83704376220703 13.83705139160156 C 10.43806457519531 17.23603820800781 7.769813537597656 21.19327926635742 5.906410217285156 25.59885406494141 C 3.977851867675781 30.15846633911133 3 35.00370788574219 3 40 C 3 44.99629211425781 3.977851867675781 49.84153366088867 5.906410217285156 54.40114593505859 C 7.769813537597656 58.80672073364258 10.43806457519531 62.76396179199219 13.83704376220703 66.16294860839844 C 17.23602676391602 69.56193542480469 21.19326782226562 72.23018646240234 25.59885406494141 74.09358978271484 C 30.15846633911133 76.02214813232422 35.00370788574219 77 40 77 C 44.99629211425781 77 49.84153366088867 76.02214813232422 54.40114593505859 74.09358978271484 C 58.80672073364258 72.23018646240234 62.76396179199219 69.56193542480469 66.16294860839844 66.16294860839844 C 69.56193542480469 62.76396179199219 72.23018646240234 58.80672073364258 74.09358978271484 54.40114593505859 C 76.02214813232422 49.84153366088867 77 44.99629211425781 77 40 C 77 35.00370788574219 76.02214813232422 30.15846633911133 74.09358978271484 25.59885406494141 C 72.23018646240234 21.19327926635742 69.56193542480469 17.23603820800781 66.16294860839844 13.83705139160156 C 62.76396179199219 10.43806457519531 58.80672073364258 7.769813537597656 54.40114593505859 5.906410217285156 C 49.84153366088867 3.977851867675781 44.99629211425781 3 40 3 M 40 0 C 62.09138488769531 0 80 17.90861511230469 80 40 C 80 62.09138488769531 62.09138488769531 80 40 80 C 17.90859985351562 80 0 62.09138488769531 0 40 C 0 17.90861511230469 17.90859985351562 0 40 0 Z" stroke="none" fill="#235a53"/>
                  </g>
                </g>
              </g>
            </g>
          </g>
        </g>
      </g>
    </g>
    <g id="roundabout_1655260" transform="translate(203 5135)">
      <g id="Grupo_1160679" data-name="Grupo 1160679" transform="translate(0.863 0.863)">
        <g id="Grupo_1160677" data-name="Grupo 1160677">
          <circle id="Elipse_11556" data-name="Elipse 11556" cx="28.541" cy="28.541" r="28.541" fill="#578dd1"/>
          <path id="Trazado_995253" data-name="Trazado 995253" d="M42.486,77.175A28.541,28.541,0,0,1,25.241,25.892,28.544,28.544,0,1,0,53.287,75.059,28.454,28.454,0,0,1,42.486,77.175Z" transform="translate(-7.5 -23.775)" fill="#2d71c6"/>
        </g>
        <g id="Grupo_1160678" data-name="Grupo 1160678" transform="translate(8.085 5.394)">
          <path id="Trazado_995254" data-name="Trazado 995254" d="M98.207,59.1l-6.334-4.734.474,3.275A20.748,20.748,0,0,0,78.441,71.3l-.69,2.2,4.392,1.379.69-2.2A16.258,16.258,0,0,1,93.015,62.257l.46,3.179Z" transform="translate(-77.751 -54.366)" fill="#efeeee"/>
          <path id="Trazado_995255" data-name="Trazado 995255" d="M109.766,335.5l-.932,7.853,2.6-2.048a20.748,20.748,0,0,0,18.782,5.214l2.247-.5-1-4.493-2.247.5a16.258,16.258,0,0,1-14.117-3.607l2.523-1.988Z" transform="translate(-105.257 -303.145)" fill="#efeeee"/>
          <path id="Trazado_995256" data-name="Trazado 995256" d="M350.777,143.934l7.267-3.119-3.074-1.227a20.748,20.748,0,0,0-4.875-18.872l-1.557-1.7-3.391,3.114,1.557,1.7a16.258,16.258,0,0,1,3.935,14.029l-2.983-1.191Z" transform="translate(-314.374 -111.579)" fill="#efeeee"/>
        </g>
      </g>
      <g id="Grupo_1160680" data-name="Grupo 1160680">
        <path id="Trazado_995257" data-name="Trazado 995257" d="M54.134,13.49A29.47,29.47,0,0,0,42.012,2.832a.863.863,0,0,0-.741,1.559A27.546,27.546,0,1,1,37.438,2.91a.863.863,0,0,0,.5-1.652,29.408,29.408,0,1,0,16.2,12.232Z"/>
        <path id="Trazado_995258" data-name="Trazado 995258" d="M70.978,64.434l-.69,2.2a.863.863,0,0,0,.565,1.082l4.392,1.379a.871.871,0,0,0,1.082-.565l.69-2.2a15.324,15.324,0,0,1,8.659-9.491l.306,2.113a.87.87,0,0,0,1.546.393l4.732-6.336a.863.863,0,0,0-.175-1.208L85.75,47.067a.87.87,0,0,0-1.371.815l.369,2.549a21.612,21.612,0,0,0-13.77,14Zm6.835-7.842a19.927,19.927,0,0,1,8.139-4.73.863.863,0,0,0,.61-.952L86.387,49.7l3.974,2.97-2.969,3.974-.161-1.116a.863.863,0,0,0-1.133-.693A17.055,17.055,0,0,0,75.37,65.813l-.431,1.373-2.745-.862.431-1.373A19.905,19.905,0,0,1,77.813,56.592Z" transform="translate(-62.164 -41.502)"/>
        <path id="Trazado_995259" data-name="Trazado 995259" d="M101.775,337.468a.863.863,0,0,0,.956-.075l2.023-1.594a21.619,21.619,0,0,0,19.012,4.924l2.247-.5a.863.863,0,0,0,.655-1.03l-1-4.493a.863.863,0,0,0-1.03-.655l-2.247.5a15.323,15.323,0,0,1-12.549-2.753l1.677-1.321a.87.87,0,0,0-.433-1.535l-7.853-.931a.863.863,0,0,0-.959.755l-.933,7.853A.863.863,0,0,0,101.775,337.468Zm2.11-7.647,4.926.584-.886.7a.872.872,0,0,0-.034,1.328,17.055,17.055,0,0,0,14.873,3.8l1.4-.313.626,2.808-1.4.313a19.885,19.885,0,0,1-18-5,.872.872,0,0,0-1.129-.053l-.963.758Z" transform="translate(-89.671 -290.251)"/>
        <path id="Trazado_995260" data-name="Trazado 995260" d="M339.432,117.8a15.322,15.322,0,0,1,3.89,12.245l-1.983-.792a.87.87,0,0,0-1.113,1.142l3.121,7.266a.863.863,0,0,0,1.134.453L351.748,135a.87.87,0,0,0-.02-1.595l-2.392-.955a21.613,21.613,0,0,0-5.242-18.927l-1.557-1.7a.872.872,0,0,0-1.22-.052l-3.391,3.114a.863.863,0,0,0-.052,1.22Zm2.418-4.173.973,1.06a19.885,19.885,0,0,1,4.672,18.086.863.863,0,0,0,.519,1l1.138.454-4.559,1.956-1.958-4.558,1.047.418a.872.872,0,0,0,1.167-.635,17.055,17.055,0,0,0-4.146-14.78l-.973-1.06Z" transform="translate(-298.789 -98.713)"/>
      </g>
    </g>
  </g>
</svg>
