<svg xmlns="http://www.w3.org/2000/svg" xmlns:xlink="http://www.w3.org/1999/xlink" width="98" height="98" viewBox="0 0 98 98">
  <defs>
    <filter id="Trazado_982548" x="0" y="0" width="98" height="98" filterUnits="userSpaceOnUse">
      <feOffset dy="3" input="SourceAlpha"/>
      <feGaussianBlur stdDeviation="3" result="blur"/>
      <feFlood flood-opacity="0.161"/>
      <feComposite operator="in" in2="blur"/>
      <feComposite in="SourceGraphic"/>
    </filter>
  </defs>
  <g id="Grupo_1160676" data-name="Grupo 1160676" transform="translate(-604 -5118)">
    <g id="Grupo_1159317" data-name="Grupo 1159317" transform="translate(0 4103)">
      <g id="Grupo_1155643" data-name="Grupo 1155643" transform="translate(105 166)">
        <g id="Grupo_1154394" data-name="Grupo 1154394" transform="translate(-113 -1247)">
          <g id="Grupo_1149898" data-name="Grupo 1149898" transform="translate(0 -2463)">
            <g id="Grupo_1149695" data-name="Grupo 1149695" transform="translate(411 4104)">
              <g id="Grupo_1149263" data-name="Grupo 1149263" transform="translate(210 461)">
                <g transform="matrix(1, 0, 0, 1, -9, -6)" filter="url(#Trazado_982548)">
                  <g id="Trazado_982548-2" data-name="Trazado 982548" transform="translate(9 6)" fill="#eaf5f4">
                    <path d="M 40 78.5 C 34.80187606811523 78.5 29.76003265380859 77.48227691650391 25.01452255249023 75.47509765625 C 20.43014526367188 73.53606414794922 16.31264495849609 70.75986480712891 12.77638912200928 67.22360992431641 C 9.240133285522461 63.68735504150391 6.46393346786499 59.56985473632812 4.524899959564209 54.98547744750977 C 2.517722129821777 50.23996734619141 1.5 45.19812393188477 1.5 40 C 1.5 34.80187606811523 2.517722129821777 29.76003265380859 4.524899959564209 25.01452255249023 C 6.46393346786499 20.43014526367188 9.240133285522461 16.31264495849609 12.77638912200928 12.77638912200928 C 16.31264495849609 9.240133285522461 20.43014526367188 6.46393346786499 25.01452255249023 4.524899959564209 C 29.76003265380859 2.517722129821777 34.80187606811523 1.5 40 1.5 C 45.19812393188477 1.5 50.23996734619141 2.517722129821777 54.98547744750977 4.524899959564209 C 59.56985473632812 6.46393346786499 63.68735504150391 9.240133285522461 67.22360992431641 12.77638912200928 C 70.75986480712891 16.31264495849609 73.53606414794922 20.43014526367188 75.47509765625 25.01452255249023 C 77.48227691650391 29.76003265380859 78.5 34.80187606811523 78.5 40 C 78.5 45.19812393188477 77.48227691650391 50.23996734619141 75.47509765625 54.98547744750977 C 73.53606414794922 59.56985473632812 70.75986480712891 63.68735504150391 67.22360992431641 67.22360992431641 C 63.68735504150391 70.75986480712891 59.56985473632812 73.53606414794922 54.98547744750977 75.47509765625 C 50.23996734619141 77.48227691650391 45.19812393188477 78.5 40 78.5 Z" stroke="none"/>
                    <path d="M 40 3 C 35.00370788574219 3 30.15846633911133 3.977851867675781 25.59885406494141 5.906410217285156 C 21.19326782226562 7.769813537597656 17.23602676391602 10.43806457519531 13.83704376220703 13.83705139160156 C 10.43806457519531 17.23603820800781 7.769813537597656 21.19327926635742 5.906410217285156 25.59885406494141 C 3.977851867675781 30.15846633911133 3 35.00370788574219 3 40 C 3 44.99629211425781 3.977851867675781 49.84153366088867 5.906410217285156 54.40114593505859 C 7.769813537597656 58.80672073364258 10.43806457519531 62.76396179199219 13.83704376220703 66.16294860839844 C 17.23602676391602 69.56193542480469 21.19326782226562 72.23018646240234 25.59885406494141 74.09358978271484 C 30.15846633911133 76.02214813232422 35.00370788574219 77 40 77 C 44.99629211425781 77 49.84153366088867 76.02214813232422 54.40114593505859 74.09358978271484 C 58.80672073364258 72.23018646240234 62.76396179199219 69.56193542480469 66.16294860839844 66.16294860839844 C 69.56193542480469 62.76396179199219 72.23018646240234 58.80672073364258 74.09358978271484 54.40114593505859 C 76.02214813232422 49.84153366088867 77 44.99629211425781 77 40 C 77 35.00370788574219 76.02214813232422 30.15846633911133 74.09358978271484 25.59885406494141 C 72.23018646240234 21.19327926635742 69.56193542480469 17.23603820800781 66.16294860839844 13.83705139160156 C 62.76396179199219 10.43806457519531 58.80672073364258 7.769813537597656 54.40114593505859 5.906410217285156 C 49.84153366088867 3.977851867675781 44.99629211425781 3 40 3 M 40 0 C 62.09138488769531 0 80 17.90861511230469 80 40 C 80 62.09138488769531 62.09138488769531 80 40 80 C 17.90859985351562 80 0 62.09138488769531 0 40 C 0 17.90861511230469 17.90859985351562 0 40 0 Z" stroke="none" fill="#235a53"/>
                  </g>
                </g>
              </g>
            </g>
          </g>
        </g>
      </g>
    </g>
    <g id="checked_352736" transform="translate(626.991 5137.922)">
      <g id="Grupo_1160674" data-name="Grupo 1160674" transform="translate(1.093 1.162)">
        <path id="Trazado_995245" data-name="Trazado 995245" d="M14.072,23.2h0A25.008,25.008,0,0,1,48.134,14.07h0a25.008,25.008,0,0,1,9.127,34.062h0A25.008,25.008,0,0,1,23.2,57.259h0A25.008,25.008,0,0,1,14.072,23.2Z" transform="translate(-10.75 -10.748)" fill="#009fd3"/>
        <path id="Trazado_995246" data-name="Trazado 995246" d="M161.758,164.8h0a2.446,2.446,0,0,1,0,3.45l-13.8,13.8h0l-.045.044h0l-.046.042h0l-.047.041h0l-.047.039h0l-.048.038h0l-.049.037-.05.035-.05.034h0l-.051.033-.052.031-.052.03h0l-.053.029h0l-.054.027h0l-.054.026-.055.024h0l-.055.023-.055.021h0l-.056.02h0l-.056.018h0l-.056.017-.057.016-.057.015h0l-.057.013-.058.012-.058.01h0l-.058.009-.058.008-.058.006h0l-.058,0h0l-.059,0h0l-.059,0h-.117l-.058,0h0l-.059,0h0l-.058,0h0l-.058-.006-.058-.008-.058-.009h0l-.058-.01-.058-.012-.058-.013h0l-.057-.015-.057-.016-.056-.017h0l-.056-.018h0l-.056-.02h0l-.055-.021-.055-.023h0l-.054-.024-.054-.026h0l-.053-.027-.053-.029h0l-.052-.03-.052-.031-.051-.033-.05-.034-.05-.035-.049-.037-.048-.038-.047-.04-.047-.041-.046-.042-.045-.044-5.176-5.176a2.446,2.446,0,0,1,0-3.45h0a2.447,2.447,0,0,1,3.45,0l3.45,3.451L158.307,164.8a2.447,2.447,0,0,1,3.45,0Z" transform="translate(-125.628 -148.51)" fill="#00e588"/>
      </g>
      <g id="Grupo_1160675" data-name="Grupo 1160675" transform="translate(0.001 0.078)">
        <path id="Trazado_995247" data-name="Trazado 995247" d="M51.112,19.352A25.9,25.9,0,0,0,26.08.078a26.144,26.144,0,0,0-22.6,12.99,26,26,0,0,0,12.1,36.841h-.4a1.084,1.084,0,1,0,0,2.168H36.85a1.084,1.084,0,1,0,0-2.168h-.483A25.885,25.885,0,0,0,51.112,19.352ZM46.664,38A23.97,23.97,0,0,1,25.95,49.91h-.026A23.837,23.837,0,1,1,46.664,38Z" transform="translate(-0.001 -0.078)" fill="#000003"/>
        <path id="Trazado_995248" data-name="Trazado 995248" d="M65.409,312.4a19.57,19.57,0,0,1-13.8-13.8,1.084,1.084,0,1,0-2.094.561A21.744,21.744,0,0,0,64.848,314.5a1.084,1.084,0,0,0,.561-2.094Z" transform="translate(-44.452 -267.555)" fill="#000003"/>
        <path id="Trazado_995249" data-name="Trazado 995249" d="M299.166,49.514a1.084,1.084,0,1,0-.561,2.094,19.569,19.569,0,0,1,13.8,13.8,1.084,1.084,0,1,0,2.094-.561A21.743,21.743,0,0,0,299.166,49.514Z" transform="translate(-267.547 -44.458)" fill="#000003"/>
        <path id="Trazado_995250" data-name="Trazado 995250" d="M232.137,447.56c-.271-.009-.544-.024-.812-.044a1.084,1.084,0,0,0-.162,2.162c.3.022.6.039.9.049h.037a1.084,1.084,0,0,0,.036-2.168Z" transform="translate(-206.777 -402.056)" fill="#000003"/>
        <path id="Trazado_995251" data-name="Trazado 995251" d="M253.113,44.85c.27.009.544.024.813.044.027,0,.054,0,.081,0a1.084,1.084,0,0,0,.079-2.165c-.3-.022-.6-.039-.9-.049a1.084,1.084,0,0,0-.074,2.167Z" transform="translate(-226.457 -38.354)" fill="#000003"/>
        <path id="Trazado_995252" data-name="Trazado 995252" d="M150.445,153.417a3.5,3.5,0,0,0-2.492,1.029l-11.31,11.31-2.684-2.684a3.524,3.524,0,0,0-4.983,4.984l5.183,5.183.045.044.024.023.046.042.021.018.047.041.019.016.047.04.019.016.048.038.026.02.049.037.024.017.05.035.021.014.05.034.021.014.051.033.023.015.052.031.026.016.052.03.021.012.053.029.023.012.053.027.026.013.054.026.024.011.054.024.025.011.055.023.022.009.055.022.027.01.056.02.027.009.056.018.024.008.056.017.027.008.057.016.018,0,.057.015.034.008.058.013.019,0,.058.012.031.006.032.006.053.009.058.009.02,0,.058.008.029,0,.058.006.02,0,.058.005.033,0,.059,0h.023l.058,0h.192l.059,0h.027l.059,0,.026,0,.058,0,.023,0,.058-.006.029,0,.058-.008.021,0,.058-.009.053-.009.032-.006.03-.006.058-.012.024-.005.057-.013.025-.006.057-.015.024-.006.057-.016.027-.008.056-.017.024-.008.056-.019.026-.009.056-.02.022-.008.055-.021.03-.012.055-.023.015-.007.055-.024.031-.014.054-.026.022-.011.054-.027.024-.013.053-.029.021-.012.052-.03.027-.016.052-.031.024-.015.051-.033.018-.012.05-.034.022-.016.05-.035.025-.018.049-.037.025-.019.048-.038.016-.013.047-.039.04-.035.03-.026.017-.015.046-.042.025-.023.045-.044.025-.025,13.786-13.786a3.521,3.521,0,0,0-2.493-6.013Zm.959,4.479L137.6,171.7l-.077.07-.184.131-.21.1-.261.069-.22.018h-.032l-.23-.025L136.16,172l-.235-.116-.191-.144-5.225-5.222a1.356,1.356,0,0,1,1.917-1.918l3.45,3.451a1.084,1.084,0,0,0,1.533,0l12.076-12.076A1.356,1.356,0,0,1,151.4,157.9Z" transform="translate(-114.948 -137.839)" fill="#000003"/>
      </g>
    </g>
  </g>
</svg>
