<svg xmlns="http://www.w3.org/2000/svg" xmlns:xlink="http://www.w3.org/1999/xlink" width="108" height="108" viewBox="0 0 108 108">
  <defs>
    <filter id="Trazado_982547" x="0" y="0" width="108" height="108" filterUnits="userSpaceOnUse">
      <feOffset dy="3" input="SourceAlpha"/>
      <feGaussianBlur stdDeviation="3" result="blur"/>
      <feFlood flood-opacity="0.161"/>
      <feComposite operator="in" in2="blur"/>
      <feComposite in="SourceGraphic"/>
    </filter>
  </defs>
  <g id="Grupo_1160691" data-name="Grupo 1160691" transform="translate(-616 -3272)">
    <g id="Grupo_1154033" data-name="Grupo 1154033" transform="translate(0 -636)">
      <g id="Grupo_1153177" data-name="Grupo 1153177" transform="translate(362 3395)">
        <g id="Grupo_1149598" data-name="Grupo 1149598" transform="translate(80 315)">
          <g id="Grupo_1148770" data-name="Grupo 1148770" transform="translate(-27 -2583)">
            <g id="Grupo_1146954" data-name="Grupo 1146954" transform="translate(-415 -1202)">
              <g transform="matrix(1, 0, 0, 1, 616, 3983)" filter="url(#Trazado_982547)">
                <g id="Trazado_982547-2" data-name="Trazado 982547" transform="translate(9 6)" fill="#fef7ea">
                  <path d="M 45 88.5 C 39.12687683105469 88.5 33.43022537231445 87.35007476806641 28.06830024719238 85.08217620849609 C 22.88852500915527 82.89131164550781 18.23629951477051 79.75458526611328 14.2408504486084 75.75914764404297 C 10.24541282653809 71.76370239257812 7.108687400817871 67.11147308349609 4.917825222015381 61.93170166015625 C 2.649924993515015 56.56977462768555 1.5 50.87312316894531 1.5 45 C 1.5 39.12687683105469 2.649924993515015 33.43022537231445 4.917825222015381 28.06830024719238 C 7.108687400817871 22.88852500915527 10.24541282653809 18.23629951477051 14.2408504486084 14.2408504486084 C 18.23629951477051 10.24541282653809 22.88852500915527 7.108687400817871 28.06830024719238 4.917825222015381 C 33.43022537231445 2.649924993515015 39.12687683105469 1.5 45 1.5 C 50.87312316894531 1.5 56.56977462768555 2.649924993515015 61.93170166015625 4.917825222015381 C 67.11147308349609 7.108687400817871 71.76370239257812 10.24541282653809 75.75914764404297 14.2408504486084 C 79.75458526611328 18.23629951477051 82.89131164550781 22.88852500915527 85.08217620849609 28.06830024719238 C 87.35007476806641 33.43022537231445 88.5 39.12687683105469 88.5 45 C 88.5 50.87312316894531 87.35007476806641 56.56977462768555 85.08217620849609 61.93170166015625 C 82.89131164550781 67.11147308349609 79.75458526611328 71.76370239257812 75.75914764404297 75.75914764404297 C 71.76370239257812 79.75458526611328 67.11147308349609 82.89131164550781 61.93170166015625 85.08217620849609 C 56.56977462768555 87.35007476806641 50.87312316894531 88.5 45 88.5 Z" stroke="none"/>
                  <path d="M 45 3 C 39.32871246337891 3 33.82865524291992 4.110054016113281 28.65262985229492 6.299339294433594 C 23.65165710449219 8.414573669433594 19.15968322753906 11.44334411621094 15.301513671875 15.301513671875 C 11.44334411621094 19.15968322753906 8.414573669433594 23.65165710449219 6.299339294433594 28.65262985229492 C 4.110054016113281 33.82865524291992 3 39.32871246337891 3 45 C 3 50.67128753662109 4.110054016113281 56.17134475708008 6.299339294433594 61.34737396240234 C 8.414573669433594 66.34834289550781 11.44334411621094 70.84031677246094 15.301513671875 74.698486328125 C 19.15968322753906 78.55665588378906 23.65165710449219 81.58542633056641 28.65262985229492 83.70066070556641 C 33.82865524291992 85.88994598388672 39.32871246337891 87 45 87 C 50.67128753662109 87 56.17134475708008 85.88994598388672 61.34737396240234 83.70066070556641 C 66.34834289550781 81.58542633056641 70.84031677246094 78.55665588378906 74.698486328125 74.698486328125 C 78.55665588378906 70.84031677246094 81.58542633056641 66.34834289550781 83.70066070556641 61.34737396240234 C 85.88994598388672 56.17134475708008 87 50.67128753662109 87 45 C 87 39.32871246337891 85.88994598388672 33.82865524291992 83.70066070556641 28.65262985229492 C 81.58542633056641 23.65165710449219 78.55665588378906 19.15968322753906 74.698486328125 15.301513671875 C 70.84031677246094 11.44334411621094 66.34834289550781 8.414573669433594 61.34737396240234 6.299339294433594 C 56.17134475708008 4.110054016113281 50.67128753662109 3 45 3 M 45 0 C 69.85281372070312 0 90 20.14718627929688 90 45 C 90 69.85281372070312 69.85281372070312 90 45 90 C 20.14718627929688 90 0 69.85281372070312 0 45 C 0 20.14718627929688 20.14718627929688 0 45 0 Z" stroke="none" fill="#fcba3d"/>
                </g>
              </g>
            </g>
          </g>
        </g>
      </g>
    </g>
    <g id="ethics_15342305" transform="translate(597.487 3243.176)">
      <path id="Trazado_995288" data-name="Trazado 995288" d="M228.77,166.742h6.3v14.635h-6.3Z" transform="translate(-159.45 -99.556)" fill="#4187b5" fill-rule="evenodd"/>
      <path id="Trazado_995289" data-name="Trazado 995289" d="M242.612,239.18a4.449,4.449,0,0,0-2.058.509c.14-2.77-1.713-5.142-4.093-5.142-2.265,0-4.1,2.171-4.1,4.848l-3.076,2.21V259.45l3.076,1.331c0,2.677,1.836,4.848,4.1,4.848,2.381,0,4.234-2.374,4.093-5.142a4.447,4.447,0,0,0,2.058.509c2.831,0,5.126-3.4,5.126-6.06s-1.593-3.742-2.838-4.848c1.245-1.106,2.838-2.184,2.838-4.848S245.443,239.18,242.612,239.18Z" transform="translate(-159.887 -157.291)" fill="#19cfba" fill-rule="evenodd"/>
      <path id="Trazado_995290" data-name="Trazado 995290" d="M151.558,239.18a4.449,4.449,0,0,1,2.058.509c-.14-2.77,1.713-5.142,4.093-5.142,2.265,0,4.1,2.171,4.1,4.848v21.387c0,2.677-1.836,4.848-4.1,4.848-2.381,0-4.234-2.374-4.093-5.142a4.447,4.447,0,0,1-2.058.509c-2.831,0-5.126-3.4-5.126-6.06s1.593-3.742,2.838-4.848c-1.245-1.106-2.838-2.184-2.838-4.848S148.727,239.18,151.558,239.18Z" transform="translate(-89.339 -157.291)" fill="#ffbf31" fill-rule="evenodd"/>
      <path id="Trazado_995291" data-name="Trazado 995291" d="M370.8,204.7a7.095,7.095,0,1,1-14.19,0Z" transform="translate(-268.308 -131.878)" fill="#cf8c48" fill-rule="evenodd"/>
      <path id="Trazado_995292" data-name="Trazado 995292" d="M62.018,204.7a7.095,7.095,0,1,1-14.189,0Z" transform="translate(-5.378 -131.878)" fill="#cf8c48" fill-rule="evenodd"/>
      <path id="Trazado_995293" data-name="Trazado 995293" d="M191.074,56.139a6.34,6.34,0,0,1,6.34,6.34c0,5.754-6.04,12.309-11.107,14.545C181.24,74.788,175.2,68.233,175.2,62.479A6.339,6.339,0,0,1,186.306,58.3,6.324,6.324,0,0,1,191.074,56.139Z" transform="translate(-113.834 -5.377)" fill="#fa6e85" fill-rule="evenodd"/>
      <path id="Trazado_995294" data-name="Trazado 995294" d="M78.293,55.7a.936.936,0,0,1,.058,1.324l-6.463,7.052a.938.938,0,0,1-1.355.03L67.007,60.58a.938.938,0,0,1,1.326-1.326l2.833,2.832,5.8-6.328A.936.936,0,0,1,78.293,55.7ZM95.4,78.979a6.167,6.167,0,0,1-6.086-5.219h12.171A6.166,6.166,0,0,1,95.4,78.979Zm5.7-7.1H89.7L95.4,58Zm-28.623-1.27c4.879-2.343,10.17-8.474,10.17-13.513a5.4,5.4,0,0,0-9.464-3.559.941.941,0,0,1-1.411,0A5.4,5.4,0,0,0,62.3,57.1C62.3,62.139,67.594,68.271,72.472,70.614Zm2.214,6.124a5.255,5.255,0,0,0-2.214,2.008,5.249,5.249,0,0,0-2.214-2.008V71.545a16.476,16.476,0,0,0,1.835.959.929.929,0,0,0,.758,0,16.468,16.468,0,0,0,1.835-.959Zm5.05,5.364c0-2.156-1.419-3.91-3.162-3.91S73.41,79.946,73.41,82.1v9.756h4.17a4.549,4.549,0,0,1,3.78-3.544.938.938,0,1,1,.266,1.857,2.651,2.651,0,0,0,0,5.248.938.938,0,0,1-.265,1.857,4.55,4.55,0,0,1-3.781-3.543H73.41v9.755c0,2.156,1.419,3.909,3.164,3.909,1.839,0,3.267-1.926,3.155-4.156a.938.938,0,0,1,1.368-.881,3.515,3.515,0,0,0,1.628.4c2.216,0,4.188-2.865,4.188-5.122,0-2.189-1.275-3.041-2.523-4.147a.938.938,0,0,1,0-1.4c1.245-1.106,2.523-1.953,2.523-4.147,0-2.257-1.973-5.122-4.188-5.122a3.5,3.5,0,0,0-1.628.4.939.939,0,0,1-1.368-.881C79.734,82.267,79.736,82.185,79.736,82.1ZM68.371,107.4c1.745,0,3.163-1.753,3.163-3.909V93.734H67.365a4.55,4.55,0,0,1-3.781,3.543.938.938,0,0,1-.265-1.857,2.651,2.651,0,0,0,0-5.248.938.938,0,1,1,.266-1.857,4.549,4.549,0,0,1,3.78,3.544h4.169V82.1c0-2.156-1.418-3.91-3.163-3.91-1.838,0-3.261,1.916-3.156,4.157a.938.938,0,0,1-1.368.881,3.5,3.5,0,0,0-1.627-.4c-2.216,0-4.188,2.865-4.188,5.122,0,2.194,1.278,3.04,2.523,4.147a.938.938,0,0,1,0,1.4c-1.249,1.106-2.523,1.957-2.523,4.147,0,2.257,1.973,5.122,4.188,5.122a3.51,3.51,0,0,0,1.627-.4.938.938,0,0,1,1.368.881c-.1,2.241,1.319,4.156,3.156,4.156ZM49.546,78.979a6.166,6.166,0,0,1-6.086-5.219H55.632A6.167,6.167,0,0,1,49.546,78.979Zm0-20.977,5.7,13.882H43.849Zm53.816,14.464-7.1-17.291a.938.938,0,0,0-.868-.583H84.072a7.285,7.285,0,0,0-11.6-2.989,7.285,7.285,0,0,0-11.6,2.989H49.546a.939.939,0,0,0-.868.583l-7.09,17.277-.075.369a8.033,8.033,0,1,0,16.066,0l-.077-.369L50.944,56.469h9.512c-.019.209-.03.419-.03.632,0,4.7,3.713,9.922,7.955,13.163v6.053a5.3,5.3,0,0,0-4.972,4.767,5.26,5.26,0,0,0-1.19-.135c-3.359,0-6.065,3.829-6.065,7A6.023,6.023,0,0,0,58.5,92.8a6.02,6.02,0,0,0-2.348,4.848c0,3.17,2.706,7,6.065,7a5.267,5.267,0,0,0,1.19-.135,5.3,5.3,0,0,0,4.961,4.768,4.876,4.876,0,0,0,4.1-2.43,4.877,4.877,0,0,0,4.1,2.43,5.3,5.3,0,0,0,4.961-4.768,5.259,5.259,0,0,0,1.19.135c3.359,0,6.064-3.829,6.064-7A6.02,6.02,0,0,0,86.442,92.8a6.021,6.021,0,0,0,2.348-4.849c0-3.17-2.7-7-6.064-7a5.26,5.26,0,0,0-1.19.135,5.3,5.3,0,0,0-4.973-4.767V70.263c4.245-3.241,7.956-8.467,7.956-13.163,0-.213-.011-.423-.03-.632H94L87.442,72.452a.963.963,0,0,0-.076.369,8.033,8.033,0,1,0,16.066,0A.925.925,0,0,0,103.362,72.466Z" fill="#1e2f3f" fill-rule="evenodd"/>
    </g>
  </g>
</svg>
