<svg xmlns="http://www.w3.org/2000/svg" xmlns:xlink="http://www.w3.org/1999/xlink" width="98" height="98" viewBox="0 0 98 98">
  <defs>
    <filter id="Trazado_982548" x="0" y="0" width="98" height="98" filterUnits="userSpaceOnUse">
      <feOffset dy="3" input="SourceAlpha"/>
      <feGaussianBlur stdDeviation="3" result="blur"/>
      <feFlood flood-opacity="0.161"/>
      <feComposite operator="in" in2="blur"/>
      <feComposite in="SourceGraphic"/>
    </filter>
  </defs>
  <g id="Grupo_1160685" data-name="Grupo 1160685" transform="translate(-1023 -5118)">
    <g id="Grupo_1159318" data-name="Grupo 1159318" transform="translate(0 4102.924)">
      <g id="Grupo_1155644" data-name="Grupo 1155644" transform="translate(210 166.076)">
        <g id="Grupo_1154396" data-name="Grupo 1154396" transform="translate(-219 -1247)">
          <g id="Grupo_1149914" data-name="Grupo 1149914" transform="translate(0.5 -2463)">
            <g id="Grupo_1149696" data-name="Grupo 1149696" transform="translate(830.5 4104)">
              <g id="Grupo_1149263" data-name="Grupo 1149263" transform="translate(210 461)">
                <g transform="matrix(1, 0, 0, 1, -9, -6)" filter="url(#Trazado_982548)">
                  <g id="Trazado_982548-2" data-name="Trazado 982548" transform="translate(9 6)" fill="#eaf5f4">
                    <path d="M 40 78.5 C 34.80187606811523 78.5 29.76003265380859 77.48227691650391 25.01452255249023 75.47509765625 C 20.43014526367188 73.53606414794922 16.31264495849609 70.75986480712891 12.77638912200928 67.22360992431641 C 9.240133285522461 63.68735504150391 6.46393346786499 59.56985473632812 4.524899959564209 54.98547744750977 C 2.517722129821777 50.23996734619141 1.5 45.19812393188477 1.5 40 C 1.5 34.80187606811523 2.517722129821777 29.76003265380859 4.524899959564209 25.01452255249023 C 6.46393346786499 20.43014526367188 9.240133285522461 16.31264495849609 12.77638912200928 12.77638912200928 C 16.31264495849609 9.240133285522461 20.43014526367188 6.46393346786499 25.01452255249023 4.524899959564209 C 29.76003265380859 2.517722129821777 34.80187606811523 1.5 40 1.5 C 45.19812393188477 1.5 50.23996734619141 2.517722129821777 54.98547744750977 4.524899959564209 C 59.56985473632812 6.46393346786499 63.68735504150391 9.240133285522461 67.22360992431641 12.77638912200928 C 70.75986480712891 16.31264495849609 73.53606414794922 20.43014526367188 75.47509765625 25.01452255249023 C 77.48227691650391 29.76003265380859 78.5 34.80187606811523 78.5 40 C 78.5 45.19812393188477 77.48227691650391 50.23996734619141 75.47509765625 54.98547744750977 C 73.53606414794922 59.56985473632812 70.75986480712891 63.68735504150391 67.22360992431641 67.22360992431641 C 63.68735504150391 70.75986480712891 59.56985473632812 73.53606414794922 54.98547744750977 75.47509765625 C 50.23996734619141 77.48227691650391 45.19812393188477 78.5 40 78.5 Z" stroke="none"/>
                    <path d="M 40 3 C 35.00370788574219 3 30.15846633911133 3.977851867675781 25.59885406494141 5.906410217285156 C 21.19326782226562 7.769813537597656 17.23602676391602 10.43806457519531 13.83704376220703 13.83705139160156 C 10.43806457519531 17.23603820800781 7.769813537597656 21.19327926635742 5.906410217285156 25.59885406494141 C 3.977851867675781 30.15846633911133 3 35.00370788574219 3 40 C 3 44.99629211425781 3.977851867675781 49.84153366088867 5.906410217285156 54.40114593505859 C 7.769813537597656 58.80672073364258 10.43806457519531 62.76396179199219 13.83704376220703 66.16294860839844 C 17.23602676391602 69.56193542480469 21.19326782226562 72.23018646240234 25.59885406494141 74.09358978271484 C 30.15846633911133 76.02214813232422 35.00370788574219 77 40 77 C 44.99629211425781 77 49.84153366088867 76.02214813232422 54.40114593505859 74.09358978271484 C 58.80672073364258 72.23018646240234 62.76396179199219 69.56193542480469 66.16294860839844 66.16294860839844 C 69.56193542480469 62.76396179199219 72.23018646240234 58.80672073364258 74.09358978271484 54.40114593505859 C 76.02214813232422 49.84153366088867 77 44.99629211425781 77 40 C 77 35.00370788574219 76.02214813232422 30.15846633911133 74.09358978271484 25.59885406494141 C 72.23018646240234 21.19327926635742 69.56193542480469 17.23603820800781 66.16294860839844 13.83705139160156 C 62.76396179199219 10.43806457519531 58.80672073364258 7.769813537597656 54.40114593505859 5.906410217285156 C 49.84153366088867 3.977851867675781 44.99629211425781 3 40 3 M 40 0 C 62.09138488769531 0 80 17.90861511230469 80 40 C 80 62.09138488769531 62.09138488769531 80 40 80 C 17.90859985351562 80 0 62.09138488769531 0 40 C 0 17.90861511230469 17.90859985351562 0 40 0 Z" stroke="none" fill="#235a53"/>
                  </g>
                </g>
              </g>
            </g>
          </g>
        </g>
      </g>
    </g>
    <g id="Grupo_1160684" data-name="Grupo 1160684" transform="translate(-0.065 -1)">
      <g id="square_5854013" transform="translate(1045.065 5142)">
        <g id="Grupo_1160682" data-name="Grupo 1160682" transform="translate(0.221 0.221)">
          <path id="Trazado_995261" data-name="Trazado 995261" d="M7.737,22.143h14.17a.237.237,0,0,0,.237-.237V7.737a.237.237,0,0,0-.237-.237H7.737a.237.237,0,0,0-.237.237v14.17a.237.237,0,0,0,.237.237Z" transform="translate(-7.5 -7.5)" fill="#ffab56"/>
          <path id="Trazado_995262" data-name="Trazado 995262" d="M461.7,7.5h1.031a.237.237,0,0,0-.237.237v14.17a.237.237,0,0,0,.237.237H461.7a.237.237,0,0,1-.237-.237V7.737A.237.237,0,0,1,461.7,7.5Z" transform="translate(-461.465 -7.5)" fill="#ff982a"/>
        </g>
        <g id="Grupo_1160683" data-name="Grupo 1160683">
          <path id="Trazado_995263" data-name="Trazado 995263" d="M.221,13.51a.221.221,0,0,1,.221.221v.913h14.2V.442H13.557a.221.221,0,0,1,0-.442h1.308a.221.221,0,0,1,.221.221V14.864a.221.221,0,0,1-.221.221H.221A.221.221,0,0,1,0,14.864V13.731A.221.221,0,0,1,.221,13.51Z"/>
          <path id="Trazado_995264" data-name="Trazado 995264" d="M73.6,0H86.085a.221.221,0,1,1,0,.442H73.825V12.876a.221.221,0,0,1-.442,0V.221A.221.221,0,0,1,73.6,0Z" transform="translate(-73.383)"/>
        </g>
      </g>
      <g id="circulo" transform="translate(1078.24 5166.936)">
        <path id="Trazado_995265" data-name="Trazado 995265" d="M256,7.5V28.658A10.579,10.579,0,1,0,256,7.5Z" transform="translate(-245.102 -7.181)" fill="#901c0f"/>
        <path id="Trazado_995266" data-name="Trazado 995266" d="M26.955,18.079c0-5.843-3.974-10.579-8.876-10.579a10.579,10.579,0,0,0,0,21.158C22.981,28.658,26.955,23.922,26.955,18.079Z" transform="translate(-7.181 -7.181)" fill="#e0230d"/>
        <path id="Trazado_995267" data-name="Trazado 995267" d="M18.6,3.192A10.9,10.9,0,0,0,3.672,2.741a.319.319,0,0,0,.424.478,10.261,10.261,0,1,1-.876.876.319.319,0,0,0-.478-.424A10.9,10.9,0,1,0,18.6,3.192Z" transform="translate(0 0)"/>
      </g>
      <path id="Trazado_995269" data-name="Trazado 995269" d="M335.192,5149.263h8.889v27.566h6.472" transform="translate(725.582 0.28)" fill="none" stroke="#0b0a0a" stroke-width="2"/>
      <path id="Trazado_995270" data-name="Trazado 995270" d="M347.486,5178.41s2.785,2.867,2.675,2.839-2.675,2.238-2.675,2.238" transform="translate(726.055 -3.839)" fill="none" stroke="#0b0a0a" stroke-width="2"/>
    </g>
  </g>
</svg>
