<svg xmlns="http://www.w3.org/2000/svg" xmlns:xlink="http://www.w3.org/1999/xlink" width="108" height="108" viewBox="0 0 108 108">
  <defs>
    <filter id="Trazado_982547" x="0" y="0" width="108" height="108" filterUnits="userSpaceOnUse">
      <feOffset dy="3" input="SourceAlpha"/>
      <feGaussianBlur stdDeviation="3" result="blur"/>
      <feFlood flood-opacity="0.161"/>
      <feComposite operator="in" in2="blur"/>
      <feComposite in="SourceGraphic"/>
    </filter>
  </defs>
  <g id="Grupo_1160687" data-name="Grupo 1160687" transform="translate(-171 -7879)">
    <g id="Grupo_1160577" data-name="Grupo 1160577" transform="translate(0 6330)">
      <g id="Grupo_1153955" data-name="Grupo 1153955" transform="translate(-83 1036)">
        <g id="Grupo_1149598" data-name="Grupo 1149598" transform="translate(80 315)">
          <g id="Grupo_1148770" data-name="Grupo 1148770" transform="translate(-27 -2583)">
            <g id="Grupo_1146954" data-name="Grupo 1146954" transform="translate(-415 -1202)">
              <g transform="matrix(1, 0, 0, 1, 616, 3983)" filter="url(#Trazado_982547)">
                <g id="Trazado_982547-2" data-name="Trazado 982547" transform="translate(9 6)" fill="#fef7ea">
                  <path d="M 45 88.5 C 39.12687683105469 88.5 33.43022537231445 87.35007476806641 28.06830024719238 85.08217620849609 C 22.88852500915527 82.89131164550781 18.23629951477051 79.75458526611328 14.2408504486084 75.75914764404297 C 10.24541282653809 71.76370239257812 7.108687400817871 67.11147308349609 4.917825222015381 61.93170166015625 C 2.649924993515015 56.56977462768555 1.5 50.87312316894531 1.5 45 C 1.5 39.12687683105469 2.649924993515015 33.43022537231445 4.917825222015381 28.06830024719238 C 7.108687400817871 22.88852500915527 10.24541282653809 18.23629951477051 14.2408504486084 14.2408504486084 C 18.23629951477051 10.24541282653809 22.88852500915527 7.108687400817871 28.06830024719238 4.917825222015381 C 33.43022537231445 2.649924993515015 39.12687683105469 1.5 45 1.5 C 50.87312316894531 1.5 56.56977462768555 2.649924993515015 61.93170166015625 4.917825222015381 C 67.11147308349609 7.108687400817871 71.76370239257812 10.24541282653809 75.75914764404297 14.2408504486084 C 79.75458526611328 18.23629951477051 82.89131164550781 22.88852500915527 85.08217620849609 28.06830024719238 C 87.35007476806641 33.43022537231445 88.5 39.12687683105469 88.5 45 C 88.5 50.87312316894531 87.35007476806641 56.56977462768555 85.08217620849609 61.93170166015625 C 82.89131164550781 67.11147308349609 79.75458526611328 71.76370239257812 75.75914764404297 75.75914764404297 C 71.76370239257812 79.75458526611328 67.11147308349609 82.89131164550781 61.93170166015625 85.08217620849609 C 56.56977462768555 87.35007476806641 50.87312316894531 88.5 45 88.5 Z" stroke="none"/>
                  <path d="M 45 3 C 39.32871246337891 3 33.82865524291992 4.110054016113281 28.65262985229492 6.299339294433594 C 23.65165710449219 8.414573669433594 19.15968322753906 11.44334411621094 15.301513671875 15.301513671875 C 11.44334411621094 19.15968322753906 8.414573669433594 23.65165710449219 6.299339294433594 28.65262985229492 C 4.110054016113281 33.82865524291992 3 39.32871246337891 3 45 C 3 50.67128753662109 4.110054016113281 56.17134475708008 6.299339294433594 61.34737396240234 C 8.414573669433594 66.34834289550781 11.44334411621094 70.84031677246094 15.301513671875 74.698486328125 C 19.15968322753906 78.55665588378906 23.65165710449219 81.58542633056641 28.65262985229492 83.70066070556641 C 33.82865524291992 85.88994598388672 39.32871246337891 87 45 87 C 50.67128753662109 87 56.17134475708008 85.88994598388672 61.34737396240234 83.70066070556641 C 66.34834289550781 81.58542633056641 70.84031677246094 78.55665588378906 74.698486328125 74.698486328125 C 78.55665588378906 70.84031677246094 81.58542633056641 66.34834289550781 83.70066070556641 61.34737396240234 C 85.88994598388672 56.17134475708008 87 50.67128753662109 87 45 C 87 39.32871246337891 85.88994598388672 33.82865524291992 83.70066070556641 28.65262985229492 C 81.58542633056641 23.65165710449219 78.55665588378906 19.15968322753906 74.698486328125 15.301513671875 C 70.84031677246094 11.44334411621094 66.34834289550781 8.414573669433594 61.34737396240234 6.299339294433594 C 56.17134475708008 4.110054016113281 50.67128753662109 3 45 3 M 45 0 C 69.85281372070312 0 90 20.14718627929688 90 45 C 90 69.85281372070312 69.85281372070312 90 45 90 C 20.14718627929688 90 0 69.85281372070312 0 45 C 0 20.14718627929688 20.14718627929688 0 45 0 Z" stroke="none" fill="#fcba3d"/>
                </g>
              </g>
            </g>
          </g>
        </g>
      </g>
    </g>
    <g id="XMLID_1020_" transform="translate(197 7902)">
      <g id="XMLID_1910_" transform="translate(1.101 1.178)">
        <circle id="XMLID_1515_" cx="27.089" cy="27.089" r="27.089" transform="translate(0.076 0)" fill="#80b6ff"/>
        <g id="Grupo_1160686" data-name="Grupo 1160686" transform="translate(0 5.961)">
          <path id="XMLID_1106_" d="M20.5,103.621H15.823A26.976,26.976,0,0,0,10,120.4a27.321,27.321,0,0,0,.26,3.754h.088a9.76,9.76,0,0,0,9.317-6.854,9.76,9.76,0,0,1,3.508-4.937l.172-.128a4.778,4.778,0,0,0-2.844-8.618Z" transform="translate(-10 -99.348)" fill="#89df8f"/>
          <path id="XMLID_1674_" d="M326.255,73.086a8.263,8.263,0,0,0,3.787,6.946l2.865,1.846a5.313,5.313,0,0,1,.284,8.736,5.362,5.362,0,0,0-2.171,4.309,3.953,3.953,0,0,0,3.953,3.953h7.32a27.1,27.1,0,0,0-6.727-34.052h-1.048A8.263,8.263,0,0,0,326.255,73.086Z" transform="translate(-291.425 -64.823)" fill="#89df8f"/>
        </g>
      </g>
      <path id="XMLID_1821_" d="M101.032,345.586h0a9.03,9.03,0,0,0-9.03,9.03v5.555h18.062v-5.555a9.031,9.031,0,0,0-9.03-9.03Z" transform="translate(-81.869 -307.526)" fill="#c5d3de"/>
      <path id="XMLID_1820_" d="M142.919,266.579h0a3.847,3.847,0,0,0-3.847,3.847v.918a3.847,3.847,0,0,0,3.847,3.847h0a3.847,3.847,0,0,0,3.847-3.847v-.918A3.847,3.847,0,0,0,142.919,266.579Z" transform="translate(-123.756 -237.22)" fill="#f2b394"/>
      <path id="XMLID_1824_" d="M265.032,345.586h0a9.03,9.03,0,0,1,9.03,9.03v5.555H256v-5.555A9.031,9.031,0,0,1,265.032,345.586Z" transform="translate(-227.808 -307.526)" fill="#ffcd69"/>
      <path id="XMLID_1823_" d="M306.922,266.579h0a3.847,3.847,0,0,1,3.847,3.847v.918a3.847,3.847,0,0,1-3.847,3.847h0a3.847,3.847,0,0,1-3.847-3.847v-.918A3.847,3.847,0,0,1,306.922,266.579Z" transform="translate(-269.697 -237.22)" fill="#f2b394"/>
      <path id="XMLID_1807_" d="M19.031,420h0A9.03,9.03,0,0,0,10,429.03H28.062A9.03,9.03,0,0,0,19.031,420Z" transform="translate(-8.899 -373.745)" fill="#ffcd69"/>
      <path id="XMLID_1806_" d="M60.919,340.993h0a3.847,3.847,0,0,0-3.847,3.847v.918a3.847,3.847,0,0,0,3.847,3.847h0a3.847,3.847,0,0,0,3.847-3.847v-.918A3.847,3.847,0,0,0,60.919,340.993Z" transform="translate(-50.787 -303.439)" fill="#f5c6af"/>
      <path id="XMLID_1812_" d="M183.031,420h0a9.03,9.03,0,0,0-9.03,9.03h18.062A9.03,9.03,0,0,0,183.031,420Z" transform="translate(-154.837 -373.745)" fill="#ff7d97"/>
      <path id="XMLID_1811_" d="M224.919,340.993h0a3.847,3.847,0,0,0-3.847,3.847v.918a3.847,3.847,0,0,0,3.847,3.847h0a3.847,3.847,0,0,0,3.847-3.847v-.918A3.847,3.847,0,0,0,224.919,340.993Z" transform="translate(-196.725 -303.439)" fill="#f2b394"/>
      <path id="XMLID_1816_" d="M347.031,420h0a9.03,9.03,0,0,0-9.03,9.03h18.062A9.03,9.03,0,0,0,347.031,420Z" transform="translate(-300.776 -373.745)" fill="#c5d3de"/>
      <path id="XMLID_1815_" d="M388.919,340.993h0a3.847,3.847,0,0,0-3.847,3.847v.918a3.847,3.847,0,0,0,3.847,3.847h0a3.847,3.847,0,0,0,3.847-3.847v-.918A3.847,3.847,0,0,0,388.919,340.993Z" transform="translate(-342.663 -303.439)" fill="#f5c6af"/>
      <path id="XMLID_1906_" d="M198.442,137.613a4.312,4.312,0,0,0,4.425.939,4.922,4.922,0,0,0,3.266-4.635v-2.1a3.815,3.815,0,0,0-7.16-1.835l-1.337,2.438A4.312,4.312,0,0,0,198.442,137.613Z" transform="translate(-175.397 -113.903)" fill="#89df8f"/>
      <g id="XMLID_4_" transform="translate(0 0)">
        <path id="XMLID_768_" d="M50.118,45.919A28.244,28.244,0,0,0,55.3,20.4a1.1,1.1,0,1,0-2.117.608,26.064,26.064,0,0,1-2.066,19.451,4.955,4.955,0,0,0-4.856-4h0a4.941,4.941,0,0,0-3.9,1.9c-.14-.082-.28-.162-.423-.238a2.843,2.843,0,0,1-.139-.879,4.278,4.278,0,0,1,1.725-3.424,6.414,6.414,0,0,0-.343-10.546l-2.865-1.847A7.162,7.162,0,0,1,44.194,8.24h.671a26.389,26.389,0,0,1,4.056,4.269,1.1,1.1,0,1,0,1.755-1.33,28.45,28.45,0,0,0-9.728-8.136A28.2,28.2,0,0,0,0,28.194,28.122,28.122,0,0,0,6.27,45.919,10.148,10.148,0,0,0,0,55.286a1.1,1.1,0,0,0,1.1,1.1H55.286a1.1,1.1,0,0,0,1.1-1.1,10.147,10.147,0,0,0-6.27-9.366ZM12.877,41.4v.918a2.745,2.745,0,0,1-5.491,0V41.4a2.748,2.748,0,0,1,2.745-2.745h0A2.748,2.748,0,0,1,12.877,41.4Zm2.2.918V41.4a4.946,4.946,0,0,0-.111-1.04,7.933,7.933,0,0,1,8.387,0,4.945,4.945,0,0,0-.111,1.04v.918a4.931,4.931,0,0,0,1.423,3.468,10.19,10.19,0,0,0-5.506,4.908,10.19,10.19,0,0,0-5.506-4.908,4.931,4.931,0,0,0,1.423-3.468Zm6.828-8.2a2.745,2.745,0,0,1-5.491,0v-.918a2.748,2.748,0,0,1,2.745-2.745h0a2.748,2.748,0,0,1,2.745,2.745ZM30.939,41.4v.918a2.745,2.745,0,0,1-5.491,0V41.4a2.748,2.748,0,0,1,2.745-2.745h0A2.748,2.748,0,0,1,30.939,41.4Zm2.2.918V41.4a4.95,4.95,0,0,0-.111-1.04,7.935,7.935,0,0,1,8.388,0,4.946,4.946,0,0,0-.111,1.041v.918a4.931,4.931,0,0,0,1.423,3.468,10.19,10.19,0,0,0-5.506,4.908,10.19,10.19,0,0,0-5.506-4.908,4.931,4.931,0,0,0,1.423-3.468Zm6.828-8.2a2.745,2.745,0,0,1-5.491,0v-.918a2.748,2.748,0,0,1,2.745-2.745h0a2.748,2.748,0,0,1,2.745,2.745v.918Zm6.285,4.532h0A2.748,2.748,0,0,1,49,41.4v.918a2.745,2.745,0,0,1-5.491,0V41.4A2.748,2.748,0,0,1,46.255,38.655ZM28.194,2.2A25.838,25.838,0,0,1,42.171,6.26a9.363,9.363,0,0,0-3.05,17.013l2.865,1.847a4.212,4.212,0,0,1,.225,6.925c-.051.038-.1.079-.15.118a4.956,4.956,0,0,0-4.836-3.906h0a4.953,4.953,0,0,0-4.948,4.948v.918a4.931,4.931,0,0,0,1.42,3.465,10,10,0,0,0-1.609.766,4.941,4.941,0,0,0-3.895-1.9h0a4.941,4.941,0,0,0-3.894,1.9,10.013,10.013,0,0,0-1.609-.766,4.931,4.931,0,0,0,1.42-3.465v-.918a4.954,4.954,0,0,0-4.948-4.948h0a4.953,4.953,0,0,0-4.948,4.948v.918a4.93,4.93,0,0,0,1.42,3.465,10,10,0,0,0-1.609.766,4.941,4.941,0,0,0-3.894-1.9h0a4.956,4.956,0,0,0-4.857,4.005,25.892,25.892,0,0,1-2.63-7.475,10.777,10.777,0,0,0,5.24-2.046,10.789,10.789,0,0,0,3.933-5.515,8.6,8.6,0,0,1,3.113-4.38l.172-.128a5.879,5.879,0,0,0-3.5-10.6H9.35A25.92,25.92,0,0,1,28.194,2.2ZM7.48,12.513H11.6a3.677,3.677,0,0,1,2.188,6.631l-.172.128a10.791,10.791,0,0,0-3.9,5.494A8.614,8.614,0,0,1,2.334,30.8Q2.2,29.507,2.2,28.194A25.856,25.856,0,0,1,7.48,12.513Zm-5.2,41.671a7.942,7.942,0,0,1,7.853-6.828h0a7.941,7.941,0,0,1,7.853,6.828Zm18.062,0a7.942,7.942,0,0,1,7.853-6.828h0a7.941,7.941,0,0,1,7.853,6.828Zm18.062,0a7.942,7.942,0,0,1,7.853-6.828h0a7.941,7.941,0,0,1,7.853,6.828Z" transform="translate(0 0)"/>
        <path id="XMLID_1169_" d="M188.794,129.511a5.389,5.389,0,0,0,5.555,1.179,6.036,6.036,0,0,0,4-5.672v-2.1a4.916,4.916,0,0,0-9.226-2.365l-1.337,2.438A5.418,5.418,0,0,0,188.794,129.511Zm.92-5.463,1.337-2.438a2.714,2.714,0,0,1,5.093,1.305v2.1a3.829,3.829,0,0,1-2.536,3.6,3.21,3.21,0,0,1-3.895-4.568Z" transform="translate(-166.509 -105.005)"/>
        <path id="XMLID_1178_" d="M467.221,138.253a1.1,1.1,0,1,0-.779-.323A1.11,1.11,0,0,0,467.221,138.253Z" transform="translate(-414.786 -121.067)"/>
      </g>
    </g>
  </g>
</svg>
