<svg xmlns="http://www.w3.org/2000/svg" xmlns:xlink="http://www.w3.org/1999/xlink" width="610" height="337" viewBox="0 0 610 337">
  <defs>
    <clipPath id="clip-path">
      <rect id="Rectángulo_412922" data-name="Rectángulo 412922" width="610" height="337" transform="translate(669.3 8948.295)" fill="#fff" stroke="#707070" stroke-width="1" opacity="0.68"/>
    </clipPath>
    <filter id="Trazado_996363" x="83.474" y="6.178" width="455.103" height="352.358" filterUnits="userSpaceOnUse">
      <feOffset dy="3" input="SourceAlpha"/>
      <feGaussianBlur stdDeviation="3" result="blur"/>
      <feFlood flood-opacity="0.161"/>
      <feComposite operator="in" in2="blur"/>
      <feComposite in="SourceGraphic"/>
    </filter>
  </defs>
  <g id="Enmascarar_grupo_1098777" data-name="Enmascarar grupo 1098777" transform="translate(-669.3 -8948.295)" clip-path="url(#clip-path)">
    <g id="Grupo_1161109" data-name="Grupo 1161109" transform="translate(761.774 8960.473)">
      <g id="Grupo_1161049" data-name="Grupo 1161049" transform="translate(0 0)">
        <g id="Grupo_1161048" data-name="Grupo 1161048" transform="translate(0 0)">
          <g transform="matrix(1, 0, 0, 1, -92.47, -12.18)" filter="url(#Trazado_996363)">
            <path id="Trazado_996363-2" data-name="Trazado 996363" d="M404.156,468.413c49.412-3.48,143.077-48.479,156.621-103.351s-20.718-91.994-44.157-126.1c-14.856-21.615-5.051-62.362-56.647-89.645s-115.25-8.82-143.488,7-46.529,6.725-63.836,6.425c-19.56-.339-67.828,18.948-100.362,59.753-38.139,47.836-30.479,120.141,2.635,170.486,13.951,21.21,43.743,45.391,68.518,57.315C262.968,469.32,354.742,471.893,404.156,468.413Z" transform="translate(-34.27 -123.19)" fill="#fee9c3"/>
          </g>
        </g>
      </g>
      <g id="Grupo_1161050" data-name="Grupo 1161050" transform="translate(307.585 126.56)">
        <path id="Trazado_996364" data-name="Trazado 996364" d="M1875,878.982s14.541-10.52,32.279,2.01,1.788,36.037,0,38.626-27.061,22.857-58.175,26.136l25.724-66.315Z" transform="translate(-1823.664 -858.429)" fill="#ff424d"/>
        <path id="Trazado_996365" data-name="Trazado 996365" d="M1744.069,790.577c-21.548-2.709-25.621,25.4-26.044,28.526s4.569,35.126,25.334,58.529l25.724-66.315.177-.457S1765.618,793.286,1744.069,790.577Z" transform="translate(-1717.911 -790.303)" fill="#ef3a4c"/>
        <path id="Trazado_996366" data-name="Trazado 996366" d="M1742.949,877.338a.09.09,0,0,1-.035-.025c-10.98-12.375-17.279-26.9-20.63-36.9-3.834-11.446-4.934-20.161-4.726-21.7a51.909,51.909,0,0,1,5.109-16.48,25.031,25.031,0,0,1,7.873-9.234,18.7,18.7,0,0,1,13.163-2.89.092.092,0,0,1-.023.182c-20.675-2.6-25.236,23.241-25.941,28.447-.206,1.527.894,10.2,4.718,21.617,3.345,9.988,9.634,24.486,20.593,36.839a.092.092,0,0,1-.1.146Z" transform="translate(-1717.534 -789.923)" fill="#20111d"/>
        <path id="Trazado_996367" data-name="Trazado 996367" d="M1982.645,878.686a.088.088,0,0,1-.041-.032.092.092,0,0,1,.02-.128,25.531,25.531,0,0,1,9.526-3.71,27.271,27.271,0,0,1,10.3.1,33.176,33.176,0,0,1,12.562,5.615.092.092,0,0,1-.106.15c-9.134-6.452-17.393-6.655-22.714-5.69a25.342,25.342,0,0,0-9.459,3.679A.092.092,0,0,1,1982.645,878.686Z" transform="translate(-1931.338 -858.047)" fill="#20111d"/>
        <path id="Trazado_996368" data-name="Trazado 996368" d="M2138.623,926.547a.091.091,0,0,1-.054-.058,7.767,7.767,0,0,0-3.6-3.92.092.092,0,0,1,.081-.165,7.971,7.971,0,0,1,3.7,4.029.092.092,0,0,1-.121.114Z" transform="translate(-2054.213 -896.781)" fill="#20111d"/>
        <path id="Trazado_996369" data-name="Trazado 996369" d="M2139.691,935.7a.091.091,0,0,1-.057-.066,7.775,7.775,0,0,0-3.189-4.263.092.092,0,1,1,.1-.156,7.965,7.965,0,0,1,3.271,4.381.092.092,0,0,1-.123.1Z" transform="translate(-2055.412 -903.881)" fill="#20111d"/>
        <path id="Trazado_996370" data-name="Trazado 996370" d="M1795.661,1135.353a.093.093,0,0,1-.049-.044l-2.762-5.364a.092.092,0,1,1,.163-.084l2.762,5.363a.092.092,0,0,1-.039.124A.087.087,0,0,1,1795.661,1135.353Z" transform="translate(-1778.279 -1064.093)" fill="#20111d"/>
        <path id="Trazado_996371" data-name="Trazado 996371" d="M1808.893,1151.547a.09.09,0,0,1-.045-.038l-3.381-5.56a.092.092,0,1,1,.157-.1l3.381,5.559a.092.092,0,0,1-.031.126A.1.1,0,0,1,1808.893,1151.547Z" transform="translate(-1788.454 -1076.998)" fill="#20111d"/>
      </g>
      <g id="Grupo_1161065" data-name="Grupo 1161065" transform="translate(47.665 126.954)">
        <g id="Grupo_1161051" data-name="Grupo 1161051" transform="translate(71.072 35.618)">
          <rect id="Rectángulo_412913" data-name="Rectángulo 412913" width="2.173" height="3.044" transform="translate(2.173 3.044) rotate(180)" fill="#fdeacf"/>
        </g>
        <g id="Grupo_1161052" data-name="Grupo 1161052" transform="translate(0.097 0.096)">
          <path id="Trazado_996372" data-name="Trazado 996372" d="M382.607,866.653a16.9,16.9,0,0,0,8.94,9.383,15.653,15.653,0,0,0,5.955,1.13,22.882,22.882,0,0,0,7.765-1.489,11.349,11.349,0,0,0,6.838-1.8,7.957,7.957,0,0,0,3.211-5.113,8.412,8.412,0,0,0,4.65-.977,5.5,5.5,0,0,0,2.444-3,5.507,5.507,0,0,0,2.444,3,8.415,8.415,0,0,0,4.651.977,7.957,7.957,0,0,0,3.211,5.113,11.352,11.352,0,0,0,6.837,1.8,22.9,22.9,0,0,0,7.766,1.489,15.65,15.65,0,0,0,5.956-1.13,16.9,16.9,0,0,0,8.94-9.383c8.7-6.479,9.464-13.713,8.545-18.673a22.682,22.682,0,0,0-3.816-8.8c1.328-8.184-1.242-13.724-3.669-16.955a20,20,0,0,0-4.94-4.663,12.968,12.968,0,0,0-3.942-11.775,21.325,21.325,0,0,0-4.743-3.566c-.011-1.873-1.246-5.262-8.83-8.22-4.233-1.652-7.719-1.978-10.363-.967a6.189,6.189,0,0,0-2.813,2.052,6.421,6.421,0,0,0-5.234,4.346,6.42,6.42,0,0,0-5.234-4.346,6.184,6.184,0,0,0-2.812-2.052c-2.643-1.01-6.129-.685-10.363.967-7.583,2.959-8.819,6.347-8.829,8.22a21.348,21.348,0,0,0-4.744,3.566,12.97,12.97,0,0,0-3.941,11.775,20.024,20.024,0,0,0-4.941,4.662h0c-2.427,3.231-5,8.771-3.668,16.955a22.675,22.675,0,0,0-3.816,8.8C373.143,852.94,373.9,860.173,382.607,866.653Zm50.306-1.862-2.313.613a5.663,5.663,0,0,1-3.65-.244,2.838,2.838,0,0,1-1.2-2.372V801.625a4.515,4.515,0,0,1,.479-1.87,3.017,3.017,0,0,1,2.76-1.629l1.332-.083.3-1.012a2.452,2.452,0,0,1,1.427-1.129,5.3,5.3,0,0,1,1.783-.269,15.366,15.366,0,0,1,5.443,1.255c7.377,2.879,6.672,5.55,6.661,5.574l-.629,1.344,1.507.661c.4.18,9.966,4.54,7.656,13.464l-.293,1.135,1.176.583a15.687,15.687,0,0,1,4.7,4.165c.067.088.134.178.2.269a16.826,16.826,0,0,1,1.214,1.9c2.058,3.756,2.629,8.22,1.7,13.305l-.117.637.435.526a19.762,19.762,0,0,1,3.625,8.133C468.2,854.7,465.6,860.06,459.4,864.53l-.443.319-.153.479c-.017.054-1.9,5.725-7.149,7.847-3.064,1.239-6.778,1.049-11.039-.567l-.488-.185-.528.065a7.4,7.4,0,0,1-4.53-1.071,5.593,5.593,0,0,1-2.067-4.557Zm-18.7.611-2.3-.586-.1,2.044a5.593,5.593,0,0,1-2.067,4.557,7.391,7.391,0,0,1-4.542,1.07l-.528-.064-.476.186c-4.262,1.615-7.976,1.806-11.039.567-5.244-2.122-7.132-7.794-7.15-7.851l-.153-.475-.441-.32c-6.2-4.47-8.795-9.833-7.708-15.942a19.761,19.761,0,0,1,3.626-8.135l.43-.525-.114-.635c-2.617-14.3,7.707-19.591,7.811-19.642l1.177-.583-.294-1.135c-2.31-8.924,7.253-13.284,7.662-13.466l1.633-.725L398.9,802.5c-.07-.311-.394-2.86,6.642-5.606,3.94-1.538,6.1-1.385,7.225-.986a2.454,2.454,0,0,1,1.427,1.129l.327,1.089,1.306.006a3.017,3.017,0,0,1,2.761,1.629,4.524,4.524,0,0,1,.479,1.872v61.16a2.841,2.841,0,0,1-1.2,2.372A5.667,5.667,0,0,1,414.213,865.4Z" transform="translate(-373.762 -792.456)" fill="#f7597f"/>
        </g>
        <g id="Grupo_1161053" data-name="Grupo 1161053" transform="translate(50.229 1.687)">
          <path id="Trazado_996373" data-name="Trazado 996373" d="M633.041,808.279v61.2c.451,5.884,7.256,4.08,7.256,4.08.367,8.159,8.715,7.139,8.715,7.139,16.147,6.12,20.735-8.317,20.735-8.317,16.33-11.769,4.4-26.206,4.4-26.206,2.844-15.535-8.715-21.263-8.715-21.263,2.66-10.278-8.624-15.221-8.624-15.221s1.835-3.923-7.614-7.611-11.193,1.1-11.193,1.1A5.031,5.031,0,0,0,633.041,808.279Z" transform="translate(-633.041 -800.685)" fill="#febac7"/>
        </g>
        <g id="Grupo_1161054" data-name="Grupo 1161054" transform="translate(1.95 1.687)">
          <path id="Trazado_996374" data-name="Trazado 996374" d="M428.66,808.279a5.031,5.031,0,0,0-4.962-5.1s-1.743-4.786-11.193-1.1-7.615,7.611-7.615,7.611-11.284,4.943-8.624,15.222c0,0-11.56,5.728-8.716,21.263,0,0-11.927,14.437,4.4,26.206,0,0,4.587,14.437,20.734,8.317,0,0,8.349,1.02,8.716-7.14,0,0,6.8,1.8,7.255-4.08v-61.2Z" transform="translate(-383.349 -800.685)" fill="#febac7"/>
        </g>
        <g id="Grupo_1161055" data-name="Grupo 1161055" transform="translate(24.489 5.918)" opacity="0.3">
          <path id="Trazado_996375" data-name="Trazado 996375" d="M509.53,832.413a14.116,14.116,0,0,1-2.952.333,9.8,9.8,0,0,1-2.515-.31,5.185,5.185,0,0,0-1.33,2.071c-.693,1.922-.443,4.316.724,6.925a6.464,6.464,0,0,0,5.811,4.174,9.881,9.881,0,0,0,3.791-.566.386.386,0,0,1,.287.716,10.518,10.518,0,0,1-3.58.636q-.254,0-.516-.014a7.255,7.255,0,0,1-6.5-4.631c-1.593-3.561-1.275-6.074-.727-7.554a6.175,6.175,0,0,1,1.211-2.023,7.058,7.058,0,0,1-1.247-.623,5.628,5.628,0,0,1-2.04-2.121.386.386,0,0,1,.7-.328,4.986,4.986,0,0,0,1.8,1.823c1.734,1.079,4.128,1.334,6.924.737a6.463,6.463,0,0,0,5.3-4.812,9.894,9.894,0,0,0,.238-3.826.386.386,0,0,1,.76-.131,10.509,10.509,0,0,1-.247,4.135A7.255,7.255,0,0,1,509.53,832.413Z" transform="translate(-499.914 -822.57)" fill="#fff"/>
        </g>
        <g id="Grupo_1161056" data-name="Grupo 1161056" transform="translate(12.739 40.607)" opacity="0.3">
          <path id="Trazado_996376" data-name="Trazado 996376" d="M439.662,1028.038a4.99,4.99,0,0,0,2.559.025c1.991-.458,3.867-1.967,5.427-4.362a6.544,6.544,0,0,0,.989-5.7.386.386,0,0,1-.083-.166c0-.01-.014-.066-.027-.161a7.571,7.571,0,0,0-.521-1.119,9.9,9.9,0,0,0-2.53-2.879.386.386,0,1,1,.446-.63,10.527,10.527,0,0,1,2.682,3,5.9,5.9,0,0,1,.24-.846c.486-1.329,1.727-3.229,4.879-4.733a6.68,6.68,0,0,1,5.052-.484,4.363,4.363,0,0,1-.217-.75,6.525,6.525,0,0,1,1.277-4.873,4.846,4.846,0,0,1,4.783-2.353,6.986,6.986,0,0,1,2.62.846.386.386,0,0,1-.4.661,6.306,6.306,0,0,0-2.327-.743,4.078,4.078,0,0,0-4.032,2.013c-2.289,3.476-.753,5.457-.545,5.7a7.408,7.408,0,0,1,.921.6,9.418,9.418,0,0,1,2.434,2.8.386.386,0,0,1-.683.36,8.788,8.788,0,0,0-2.238-2.563,5.723,5.723,0,0,0-6.313-.517,8.3,8.3,0,0,0-4.47,4.256,4.655,4.655,0,0,0-.3,2.091,7.276,7.276,0,0,1-.991,6.609,11.689,11.689,0,0,1-3.858,3.872,5.184,5.184,0,0,0,.518,2.406c.864,1.851,2.731,3.372,5.4,4.4a6.463,6.463,0,0,0,7.064-1.141,9.9,9.9,0,0,0,2.288-3.075.386.386,0,0,1,.709.305,10.505,10.505,0,0,1-2.465,3.33,7.164,7.164,0,0,1-4.813,1.908,8.493,8.493,0,0,1-3.059-.607c-3.642-1.4-5.188-3.406-5.844-4.841a6.183,6.183,0,0,1-.569-2.288,7.059,7.059,0,0,1-1.323.439,6.484,6.484,0,0,1-1.4.156,4.832,4.832,0,0,1-1.539-.22.386.386,0,0,1,.264-.726Z" transform="translate(-439.146 -1001.977)" fill="#fff"/>
        </g>
        <g id="Grupo_1161057" data-name="Grupo 1161057" transform="translate(14.13 25.857)" opacity="0.3">
          <path id="Trazado_996377" data-name="Trazado 996377" d="M458.833,931.2a.305.305,0,0,1-.418.1,4.98,4.98,0,0,0-1.84-.587,3.225,3.225,0,0,0-3.188,1.591c-1.894,2.877-.475,4.459-.416,4.524a.305.305,0,1,1-.441.421,3.01,3.01,0,0,1-.662-1.427,5.159,5.159,0,0,1,1.01-3.853,4.5,4.5,0,0,1,1.091-1.174,5.025,5.025,0,0,0-.082-1.818,3.224,3.224,0,0,0-2.568-2.471c-3.345-.821-4.36,1.046-4.4,1.124a.305.305,0,1,1-.545-.275,3.01,3.01,0,0,1,1.123-1.1,5.158,5.158,0,0,1,3.969-.34,3.833,3.833,0,0,1,3.02,2.94,5.516,5.516,0,0,1,.134,1.561,3.909,3.909,0,0,1,2.041-.305,5.527,5.527,0,0,1,2.071.669A.3.3,0,0,1,458.833,931.2Z" transform="translate(-446.339 -925.692)" fill="#fff"/>
        </g>
        <g id="Grupo_1161058" data-name="Grupo 1161058" transform="translate(34.75 58.444)" opacity="0.3">
          <path id="Trazado_996378" data-name="Trazado 996378" d="M557.18,1094.41a3.141,3.141,0,0,1,2.473,2.411,4.368,4.368,0,0,1,.115,1.034,3.263,3.263,0,0,1,1.461-.162,4.485,4.485,0,0,1,1.683.544.386.386,0,0,1-.4.661,2.725,2.725,0,0,0-3.741.741c-1.413,2.147-.384,3.315-.342,3.361a.386.386,0,1,1-.559.532c-.063-.065-1.51-1.636.256-4.318a3.715,3.715,0,0,1,.841-.922,2.662,2.662,0,0,0-1.974-3.133c-2.5-.612-3.252.749-3.281.8a.386.386,0,1,1-.689-.348C553.067,1095.533,554.062,1093.644,557.18,1094.41Z" transform="translate(-552.984 -1094.227)" fill="#fff"/>
        </g>
        <g id="Grupo_1161059" data-name="Grupo 1161059" transform="translate(56.604 5.918)" opacity="0.3">
          <path id="Trazado_996379" data-name="Trazado 996379" d="M672.243,832.413a14.117,14.117,0,0,0,2.952.333,9.8,9.8,0,0,0,2.515-.31,5.187,5.187,0,0,1,1.329,2.071c.693,1.922.443,4.316-.725,6.925a6.464,6.464,0,0,1-5.811,4.174,9.883,9.883,0,0,1-3.791-.566.386.386,0,0,0-.287.716,10.518,10.518,0,0,0,3.58.636q.254,0,.516-.014a7.255,7.255,0,0,0,6.5-4.631c1.593-3.561,1.275-6.074.727-7.554a6.174,6.174,0,0,0-1.211-2.023,7.058,7.058,0,0,0,1.247-.623,5.627,5.627,0,0,0,2.04-2.121.386.386,0,0,0-.7-.328,4.988,4.988,0,0,1-1.8,1.823c-1.734,1.079-4.128,1.334-6.924.737a6.464,6.464,0,0,1-5.3-4.812,9.9,9.9,0,0,1-.238-3.826.386.386,0,0,0-.76-.131,10.509,10.509,0,0,0,.247,4.135A7.255,7.255,0,0,0,672.243,832.413Z" transform="translate(-666.01 -822.57)" fill="#fff"/>
        </g>
        <g id="Grupo_1161060" data-name="Grupo 1161060" transform="translate(62.902 51.605)" opacity="0.3">
          <path id="Trazado_996380" data-name="Trazado 996380" d="M698.615,1076.766a10.51,10.51,0,0,0,2.465,3.33,7.162,7.162,0,0,0,4.813,1.908,8.5,8.5,0,0,0,3.06-.608c3.642-1.4,5.187-3.405,5.844-4.841a6.187,6.187,0,0,0,.568-2.288,7.13,7.13,0,0,0,1.324.438,6.507,6.507,0,0,0,1.4.157,4.817,4.817,0,0,0,1.539-.221.386.386,0,0,0-.263-.725,5,5,0,0,1-2.56.025c-1.991-.458-3.868-1.967-5.428-4.361a6.547,6.547,0,0,1-.989-5.7.38.38,0,0,0,.083-.165c0-.01.014-.066.027-.16a7.539,7.539,0,0,1,.52-1.119,9.891,9.891,0,0,1,2.53-2.879.386.386,0,0,0-.446-.63,10.536,10.536,0,0,0-2.682,3,5.823,5.823,0,0,0-.24-.846,6.706,6.706,0,0,0-1.11-1.923l.006.515-.577.007a5.907,5.907,0,0,1,.94,1.621,4.651,4.651,0,0,1,.3,2.091,7.276,7.276,0,0,0,.991,6.609,11.682,11.682,0,0,0,3.858,3.872,5.189,5.189,0,0,1-.518,2.406c-.865,1.851-2.731,3.371-5.4,4.4a6.462,6.462,0,0,1-7.063-1.141,9.9,9.9,0,0,1-2.288-3.075.386.386,0,0,0-.709.3Z" transform="translate(-698.584 -1058.855)" fill="#fff"/>
        </g>
        <g id="Grupo_1161061" data-name="Grupo 1161061" transform="translate(52.078 58.444)" opacity="0.3">
          <path id="Trazado_996381" data-name="Trazado 996381" d="M648.519,1094.41a3.141,3.141,0,0,0-2.473,2.411,4.366,4.366,0,0,0-.115,1.034,3.262,3.262,0,0,0-1.461-.162,4.486,4.486,0,0,0-1.683.544.386.386,0,0,0,.4.661,2.725,2.725,0,0,1,3.741.741c1.414,2.147.384,3.315.342,3.361a.386.386,0,1,0,.559.532c.062-.065,1.51-1.636-.256-4.318a3.714,3.714,0,0,0-.841-.922,2.662,2.662,0,0,1,1.974-3.133c2.5-.612,3.252.749,3.281.8a.386.386,0,1,0,.689-.348C652.632,1095.533,651.637,1093.644,648.519,1094.41Z" transform="translate(-642.601 -1094.227)" fill="#fff"/>
        </g>
        <g id="Grupo_1161062" data-name="Grupo 1161062" transform="translate(82.632 52.915)" opacity="0.3">
          <path id="Trazado_996382" data-name="Trazado 996382" d="M809.81,1071.747a3.141,3.141,0,0,0-2.286-2.59,4.356,4.356,0,0,0-1.027-.166,3.268,3.268,0,0,0,.235-1.452,4.488,4.488,0,0,0-.461-1.708.386.386,0,1,0-.68.366,3.7,3.7,0,0,1,.37,1.385,2.388,2.388,0,0,1-1.3,2.313c-2.214,1.306-3.33.219-3.374.175a.386.386,0,0,0-.559.532,2.711,2.711,0,0,0,1.916.709,4.749,4.749,0,0,0,2.409-.751,3.714,3.714,0,0,0,.962-.794,2.662,2.662,0,0,1,3.032,2.127c.488,2.523-.909,3.211-.966,3.237a.386.386,0,0,0,.313.705C808.484,1075.8,810.42,1074.9,809.81,1071.747Z" transform="translate(-800.627 -1065.629)" fill="#fff"/>
        </g>
        <g id="Grupo_1161063" data-name="Grupo 1161063" transform="translate(0 0)">
          <path id="Trazado_996383" data-name="Trazado 996383" d="M391.107,875.727a17.046,17.046,0,0,1-8.984-9.412c-8.737-6.516-9.478-13.793-8.56-18.752l.19.035c-.909,4.91-.17,12.118,8.508,18.579l.022.017.01.026a16.854,16.854,0,0,0,8.887,9.329,15.628,15.628,0,0,0,5.919,1.123,22.871,22.871,0,0,0,7.733-1.483l.018-.007h.019a11.291,11.291,0,0,0,6.778-1.786l.112.157a11.484,11.484,0,0,1-6.879,1.822,23.046,23.046,0,0,1-7.781,1.488A15.857,15.857,0,0,1,391.107,875.727Zm48.028-.352a11.471,11.471,0,0,1-6.879-1.822l.112-.157a11.281,11.281,0,0,0,6.778,1.786h.019l.018.007a22.871,22.871,0,0,0,7.733,1.483,15.624,15.624,0,0,0,5.919-1.123,16.855,16.855,0,0,0,8.887-9.329l.01-.026.022-.017c8.678-6.461,9.417-13.669,8.508-18.579a22.638,22.638,0,0,0-3.8-8.764l-.023-.033.006-.04c1.326-8.171-1.254-13.69-3.651-16.881l.154-.116c2.416,3.216,5.015,8.772,3.693,16.988a22.847,22.847,0,0,1,3.81,8.809c.918,4.959.176,12.236-8.56,18.752a17.046,17.046,0,0,1-8.984,9.412,15.816,15.816,0,0,1-5.992,1.137A23.1,23.1,0,0,1,439.135,875.375Zm-58.069-53.611a20.016,20.016,0,0,1,4.912-4.65,13.1,13.1,0,0,1,3.979-11.8,21.349,21.349,0,0,1,4.716-3.556,5.825,5.825,0,0,1,1.6-3.709,18.5,18.5,0,0,1,7.292-4.544c4.256-1.661,7.766-1.986,10.433-.967a6.3,6.3,0,0,1,2.855,2.084l-.155.115a6.112,6.112,0,0,0-2.77-2.019c-2.621-1-6.084-.677-10.294.966-7.6,2.968-8.758,6.368-8.768,8.131v.057l-.049.027a21.172,21.172,0,0,0-4.721,3.551,12.906,12.906,0,0,0-3.915,11.69l.011.063-.053.035a19.8,19.8,0,0,0-4.916,4.64ZM449.2,801.9l-.049-.028v-.056c-.01-1.763-1.163-5.163-8.768-8.131-4.21-1.643-7.673-1.969-10.294-.966a6.112,6.112,0,0,0-2.77,2.019l-.155-.115a6.306,6.306,0,0,1,2.855-2.084c2.666-1.02,6.176-.694,10.433.967a18.494,18.494,0,0,1,7.292,4.544,5.825,5.825,0,0,1,1.6,3.709,21.347,21.347,0,0,1,4.716,3.557l-.137.136A21.164,21.164,0,0,0,449.2,801.9Z" transform="translate(-373.262 -791.961)"/>
        </g>
        <g id="Grupo_1161064" data-name="Grupo 1161064" transform="translate(73.245 30.981)" opacity="0.3">
          <path id="Trazado_996384" data-name="Trazado 996384" d="M752.076,958.322a7,7,0,0,1,2.014-.543,4.943,4.943,0,0,1,2.582.386,6.965,6.965,0,0,1,.169-1.973,4.846,4.846,0,0,1,3.819-3.717,6.92,6.92,0,0,1,4.56.192,4.475,4.475,0,0,1,.459.238,3.806,3.806,0,0,1,1.42,1.394.386.386,0,0,1-.689.348c-.051-.1-1.336-2.46-5.566-1.422a4.076,4.076,0,0,0-3.247,3.125,6.35,6.35,0,0,0-.1,2.3,5.694,5.694,0,0,1,1.379,1.484A6.524,6.524,0,0,1,760.15,965a3.8,3.8,0,0,1-.838,1.8.386.386,0,1,1-.558-.533c.076-.081,1.87-2.082-.526-5.721a4.078,4.078,0,0,0-4.032-2.012,6.378,6.378,0,0,0-2.12.631v-.853Z" transform="translate(-752.076 -952.192)" fill="#fff"/>
        </g>
      </g>
      <g id="Grupo_1161103" data-name="Grupo 1161103" transform="translate(35.376 28.11)">
        <g id="Grupo_1161066" data-name="Grupo 1161066" transform="translate(162.6 18.136)">
          <path id="Trazado_996385" data-name="Trazado 996385" d="M1173.183,377.39l-7.121-2.628v-.122l-.165.061-.415-.153v.306l-7.121,2.628s-8.068,203.686-7.7,220.556,15.4,15.4,15.4,15.4v-.064c2.762.062,14.5-.55,14.822-15.431C1181.25,581.077,1173.183,377.39,1173.183,377.39Z" transform="translate(-1150.647 -374.548)" fill="#fec786"/>
        </g>
        <g id="Grupo_1161067" data-name="Grupo 1161067" transform="translate(162.155 29.296)">
          <path id="Trazado_996386" data-name="Trazado 996386" d="M1149.261,644.612l-.911-.033,7.1-212.315.911.034Z" transform="translate(-1148.35 -432.264)"/>
        </g>
        <g id="Grupo_1161068" data-name="Grupo 1161068" transform="translate(168.004 8.678)">
          <circle id="Elipse_11577" data-name="Elipse 11577" cx="9.583" cy="9.583" r="9.583" fill="#fec786"/>
        </g>
        <g id="Grupo_1161069" data-name="Grupo 1161069" transform="translate(172.779 0)">
          <circle id="Elipse_11578" data-name="Elipse 11578" cx="4.808" cy="4.808" r="4.808" fill="#fec786"/>
        </g>
        <g id="Grupo_1161070" data-name="Grupo 1161070" transform="translate(166.787 23.974)">
          <path id="Trazado_996387" data-name="Trazado 996387" d="M1191.221,404.742h-16.027v.011c-.07-.006-.141-.011-.212-.011a2.675,2.675,0,0,0,0,5.35c.082,0,.163-.005.244-.012h15.752c.081.007.161.012.244.012a2.675,2.675,0,0,0,0-5.35Z" transform="translate(-1172.306 -404.742)" fill="#213748"/>
        </g>
        <g id="Grupo_1161071" data-name="Grupo 1161071" transform="translate(169.679 6.719)">
          <path id="Trazado_996388" data-name="Trazado 996388" d="M1201.11,315.5h-11.734v.008c-.051,0-.1-.008-.155-.008a1.959,1.959,0,0,0,0,3.917c.06,0,.12,0,.179-.009h11.532c.059.005.118.009.178.009a1.959,1.959,0,0,0,0-3.917Z" transform="translate(-1187.262 -315.501)" fill="#213748"/>
        </g>
        <g id="Grupo_1161072" data-name="Grupo 1161072" transform="translate(50.737 43.682)">
          <path id="Trazado_996389" data-name="Trazado 996389" d="M826.429,543.874a8.984,8.984,0,0,0-16.468-4.971c-2.138,2.476-6.2,4.8-13.879,4.259-7.812-.55-15.535-7.986-23.712-15.86-10.33-9.946-22.023-21.21-37.677-20.608-15.228.595-21.627,6.07-26.3,10.068-3.167,2.71-4.553,3.9-9.125,4.03-4.572-.135-5.957-1.32-9.125-4.03-4.672-4-11.072-9.473-26.3-10.068-15.654-.6-27.347,10.662-37.677,20.608-8.177,7.874-15.9,15.31-23.712,15.86-7.969.557-12.038-1.958-14.11-4.535a9.033,9.033,0,0,0-2.607-2.217,8.986,8.986,0,0,0-13.631,7.691c0,.05,0,.1,0,.148a8.7,8.7,0,0,0,1.875,5.529c4.862,6.219,13.149,11.661,26.232,11.661q1.7,0,3.512-.126c14.4-1.012,25.375-11.58,35.057-20.9,8.461-8.147,16.43-15.841,24.346-15.533,8.912.348,11.541,2.6,15.18,5.712,3.848,3.292,9.035,7.728,19.344,8.341a9.145,9.145,0,0,0,1.116.071h.094c.136,0,.267-.007.4-.009s.265.008.4.009h.094a9.143,9.143,0,0,0,1.115-.071c10.309-.613,15.5-5.049,19.344-8.341,3.639-3.114,6.268-5.363,15.18-5.712,7.916-.308,15.885,7.387,24.346,15.533,9.683,9.323,20.658,19.891,35.057,20.9q1.81.128,3.512.126c13.083,0,21.37-5.443,26.232-11.661a8.7,8.7,0,0,0,1.872-5.626C826.426,544.059,826.429,543.967,826.429,543.874Zm-245.337,3.787a3.56,3.56,0,1,1,3.56-3.56A3.56,3.56,0,0,1,581.092,547.661Zm235.855,0a3.56,3.56,0,1,1,3.56-3.56A3.56,3.56,0,0,1,816.947,547.661Z" transform="translate(-572.107 -506.671)" fill="#804f70"/>
        </g>
        <g id="Grupo_1161073" data-name="Grupo 1161073" transform="translate(172.776 61.729)">
          <circle id="Elipse_11579" data-name="Elipse 11579" cx="4.317" cy="4.317" r="4.317" transform="translate(0 8.523) rotate(-80.782)" fill="#213748"/>
        </g>
        <g id="Grupo_1161074" data-name="Grupo 1161074" transform="translate(96.858 240.215)">
          <path id="Trazado_996390" data-name="Trazado 996390" d="M973.127,1541.278c-5.747-10.273-39.931-18.165-81.244-18.165s-75.5,7.892-81.245,18.165Z" transform="translate(-810.638 -1523.113)" fill="#804f70"/>
        </g>
        <g id="Grupo_1161076" data-name="Grupo 1161076" transform="translate(239.125 81.645)">
          <g id="Grupo_1161075" data-name="Grupo 1161075">
            <path id="Trazado_996391" data-name="Trazado 996391" d="M1547.648,784.655a1.224,1.224,0,0,1-1.088-1.781l52.761-79.2a1.224,1.224,0,0,1,2.179,1.114l-52.762,79.2A1.224,1.224,0,0,1,1547.648,784.655Z" transform="translate(-1546.425 -703.009)" fill="#213748"/>
          </g>
        </g>
        <g id="Grupo_1161078" data-name="Grupo 1161078" transform="translate(296.574 81.645)">
          <g id="Grupo_1161077" data-name="Grupo 1161077">
            <path id="Trazado_996392" data-name="Trazado 996392" d="M1897.534,784.655a1.224,1.224,0,0,0,1.088-1.781l-52.761-79.2a1.224,1.224,0,0,0-2.179,1.114l52.762,79.2A1.224,1.224,0,0,0,1897.534,784.655Z" transform="translate(-1843.547 -703.009)" fill="#213748"/>
          </g>
        </g>
        <g id="Grupo_1161079" data-name="Grupo 1161079" transform="translate(235.539 160.94)" opacity="0.5">
          <path id="Trazado_996393" data-name="Trazado 996393" d="M1527.88,1113.11h60.667v25.121H1565A75.677,75.677,0,0,1,1527.88,1113.11Z" transform="translate(-1527.88 -1113.11)" fill="#79a9d8"/>
        </g>
        <g id="Grupo_1161080" data-name="Grupo 1161080" transform="translate(296.207 160.94)" opacity="0.5">
          <path id="Trazado_996394" data-name="Trazado 996394" d="M1902.317,1113.11H1841.65v25.121h23.542A75.678,75.678,0,0,0,1902.317,1113.11Z" transform="translate(-1841.65 -1113.11)" fill="#9ebee5"/>
        </g>
        <g id="Grupo_1161081" data-name="Grupo 1161081" transform="translate(272.665 186.06)">
          <rect id="Rectángulo_412914" data-name="Rectángulo 412914" width="46.907" height="5.675" fill="#213748"/>
        </g>
        <g id="Grupo_1161082" data-name="Grupo 1161082" transform="translate(187.531 87.706)">
          <path id="Trazado_996395" data-name="Trazado 996395" d="M1283.906,864.606l-4.316-130.214.911-.036,4.314,130.215Z" transform="translate(-1279.59 -734.356)"/>
        </g>
        <g id="Grupo_1161083" data-name="Grupo 1161083" transform="translate(96.455 239.907)">
          <path id="Trazado_996396" data-name="Trazado 996396" d="M809.36,1540.209l-.8-.428c.089-.169,2.3-4.189,12.266-8.453,9.095-3.892,26.731-8.75,59.1-9.79.328,0,31.975-.326,46.248,1.972l-.145.9c-14.2-2.286-45.767-1.965-46.083-1.961-32.053,1.03-49.544,5.809-58.571,9.636C811.6,1536.228,809.381,1540.17,809.36,1540.209Z" transform="translate(-808.555 -1521.521)"/>
        </g>
        <g id="Grupo_1161084" data-name="Grupo 1161084" transform="translate(167.173 224.586)">
          <rect id="Rectángulo_412915" data-name="Rectángulo 412915" width="6.943" height="0.911" transform="matrix(0.429, -0.903, 0.903, 0.429, 0, 6.272)"/>
        </g>
        <g id="Grupo_1161085" data-name="Grupo 1161085" transform="translate(168.659 227.712)">
          <rect id="Rectángulo_412916" data-name="Rectángulo 412916" width="6.943" height="0.911" transform="matrix(0.429, -0.903, 0.903, 0.429, 0, 6.272)"/>
        </g>
        <g id="Grupo_1161086" data-name="Grupo 1161086" transform="translate(133.74 61.393)">
          <path id="Trazado_996397" data-name="Trazado 996397" d="M1045.828,613.337c-.955,0-1.94-.046-2.96-.144-9.867-.945-13.734-4.334-17.473-7.611-2.369-2.076-4.606-4.037-8.3-5.228-9.259-2.983-15.144.742-15.2.779l-.5-.762c.252-.165,6.283-4.008,15.98-.884,3.877,1.249,6.184,3.27,8.625,5.41,3.631,3.182,7.385,6.473,16.96,7.39,11.139,1.067,18.167-4.25,23.814-8.522,3.118-2.359,5.811-4.4,8.471-4.686l.1.906c-2.409.263-5.009,2.229-8.02,4.507C1062.058,608.47,1055.623,613.336,1045.828,613.337Z" transform="translate(-1001.389 -598.267)"/>
        </g>
        <g id="Grupo_1161087" data-name="Grupo 1161087" transform="translate(207.511 43.17)">
          <path id="Trazado_996398" data-name="Trazado 996398" d="M1447.592,541.078c-6.778-1.231-9.572-4.017-15.7-10.12-3.328-3.317-7.886-7.86-14.7-13.711-9.736-8.359-18.466-11.112-24.076-11.949a25.666,25.666,0,0,0-9.937.185l-.256-.875a25.968,25.968,0,0,1,10.268-.221c5.741.847,14.669,3.645,24.594,12.167,6.841,5.874,11.413,10.43,14.751,13.758,6.165,6.145,8.717,8.688,15.215,9.869Z" transform="translate(-1382.926 -504.02)"/>
        </g>
        <g id="Grupo_1161088" data-name="Grupo 1161088" transform="translate(60.017 91.111)">
          <path id="Trazado_996399" data-name="Trazado 996399" d="M638.058,759.624a37.343,37.343,0,0,1-6.164-.506,31.689,31.689,0,0,1-11.791-4.251l.512-.753a31.442,31.442,0,0,0,11.474,4.113c6.534,1.086,16.81.88,28.657-6.261l.47.78C652.356,758.088,644.342,759.624,638.058,759.624Z" transform="translate(-620.103 -751.966)"/>
        </g>
        <g id="Grupo_1161090" data-name="Grupo 1161090" transform="translate(3.585 81.645)">
          <g id="Grupo_1161089" data-name="Grupo 1161089">
            <path id="Trazado_996400" data-name="Trazado 996400" d="M329.466,784.655a1.224,1.224,0,0,1-1.088-1.781l52.762-79.2a1.224,1.224,0,0,1,2.179,1.114l-52.762,79.2A1.224,1.224,0,0,1,329.466,784.655Z" transform="translate(-328.243 -703.009)" fill="#213748"/>
          </g>
        </g>
        <g id="Grupo_1161092" data-name="Grupo 1161092" transform="translate(61.035 81.645)">
          <g id="Grupo_1161091" data-name="Grupo 1161091">
            <path id="Trazado_996401" data-name="Trazado 996401" d="M679.353,784.653a1.224,1.224,0,0,0,1.088-1.781l-52.762-79.2a1.223,1.223,0,1,0-2.179,1.114l52.762,79.2A1.223,1.223,0,0,0,679.353,784.653Z" transform="translate(-625.366 -703.006)" fill="#213748"/>
          </g>
        </g>
        <g id="Grupo_1161093" data-name="Grupo 1161093" transform="translate(0 160.94)" opacity="0.5">
          <path id="Trazado_996402" data-name="Trazado 996402" d="M309.7,1113.11H370.37v25.121H346.827A75.665,75.665,0,0,1,309.7,1113.11Z" transform="translate(-309.703 -1113.11)" fill="#79a9d8"/>
        </g>
        <g id="Grupo_1161094" data-name="Grupo 1161094" transform="translate(60.667 160.94)" opacity="0.5">
          <path id="Trazado_996403" data-name="Trazado 996403" d="M684.13,1113.11H623.463v25.121h23.542A75.666,75.666,0,0,0,684.13,1113.11Z" transform="translate(-623.463 -1113.11)" fill="#9ebee5"/>
        </g>
        <g id="Grupo_1161095" data-name="Grupo 1161095" transform="translate(37.124 186.06)">
          <rect id="Rectángulo_412917" data-name="Rectángulo 412917" width="46.907" height="5.675" fill="#213748"/>
        </g>
        <g id="Grupo_1161096" data-name="Grupo 1161096" transform="translate(168.832 28.791)">
          <rect id="Rectángulo_412918" data-name="Rectángulo 412918" width="0.911" height="17.113" transform="translate(0 0.911) rotate(-89.799)"/>
        </g>
        <g id="Grupo_1161097" data-name="Grupo 1161097" transform="translate(168.83 23.482)">
          <rect id="Rectángulo_412919" data-name="Rectángulo 412919" width="0.911" height="17.113" transform="translate(0 0.911) rotate(-89.799)"/>
        </g>
        <g id="Grupo_1161098" data-name="Grupo 1161098" transform="translate(170.044 10.172)">
          <rect id="Rectángulo_412920" data-name="Rectángulo 412920" width="15.076" height="0.911"/>
        </g>
        <g id="Grupo_1161099" data-name="Grupo 1161099" transform="translate(0 160.483)">
          <path id="Trazado_996404" data-name="Trazado 996404" d="M393.831,1136.771l-.193-.891c16.908-3.662,32.952-20.448,36.382-24.22H309.7v-.911H432.027l-.645.752a106.794,106.794,0,0,1-11.447,11.041C413.6,1127.827,403.92,1134.587,393.831,1136.771Z" transform="translate(-309.703 -1110.75)"/>
        </g>
        <g id="Grupo_1161100" data-name="Grupo 1161100" transform="translate(37.124 185.604)">
          <path id="Trazado_996405" data-name="Trazado 996405" d="M549.068,1246.815l-.911-.029.163-5.205H501.706v-.91h47.555Z" transform="translate(-501.706 -1240.67)"/>
        </g>
        <g id="Grupo_1161101" data-name="Grupo 1161101" transform="translate(234.569 160.483)">
          <path id="Trazado_996406" data-name="Trazado 996406" d="M1607.864,1136.779H1560.9l-.056-.015a65.394,65.394,0,0,1-12.51-5.193,82.789,82.789,0,0,1-24.85-20.077l-.62-.747h122.3v.911H1524.811a79.765,79.765,0,0,0,36.206,24.209h46.846Z" transform="translate(-1522.862 -1110.747)"/>
        </g>
        <g id="Grupo_1161102" data-name="Grupo 1161102" transform="translate(272.208 186.06)">
          <rect id="Rectángulo_412921" data-name="Rectángulo 412921" width="0.911" height="6.018"/>
        </g>
      </g>
      <g id="Grupo_1161108" data-name="Grupo 1161108" transform="translate(59.717 245.898)">
        <g id="Grupo_1161106" data-name="Grupo 1161106" transform="translate(0)">
          <g id="Grupo_1161104" data-name="Grupo 1161104">
            <path id="Trazado_996407" data-name="Trazado 996407" d="M435.591,1471.973c4.8,18.055,33.367,43.651,74.759,35.526,4.75-5.63.184-.543,27.767-30.547,11.979.26,66.448,1.28,78.286-.4,10.865-1.533,33.943-15.169,43.142-21.045,4.245-2.709,55.227-35.436,49.908-40.5-5.492-5.219-17.811.08-26.875,4.722-1.8.948-4.244,2.169-45.665,23.589-14.086,1.881-40.488-6.174-40.488-6.174,6.76-2.331,48.4-17.3,46.377-24.232-1.918-6.383-13.918-2.127-26.487-1.133a72.852,72.852,0,0,1-11.388.207c-21.531-1.219-30.248-7.069-80.1-3.974a54.761,54.761,0,0,0-31.492,12.425C486.892,1425.77,456.146,1455.239,435.591,1471.973Z" transform="translate(-435.591 -1407.126)" fill="#fe9f73"/>
          </g>
          <g id="Grupo_1161105" data-name="Grupo 1161105" transform="translate(77.81 48.232)">
            <path id="Trazado_996408" data-name="Trazado 996408" d="M838.017,1704.565c.11.047.217.091.324.136l.328.134,7.255-7.89.444-.48.02-.025,3.442-3.743.408-.444.051-.056,6.646-7.228,5.94-6.462c.189,0,.541.013,1.043.023,8.934.185,65.149,1.27,77.147-.423,13.024-1.843,42.695-20.725,42.994-20.918a.331.331,0,1,0-.356-.558c-.3.189-29.85,19-42.729,20.819-12.311,1.741-71.555.531-77.719.4l-.514-.013-.153,0-6.373,6.932-6.5,7.072-.042.044-.417.454-3.474,3.779-.013.016-.453.491Z" transform="translate(-838.017 -1656.578)" fill="#20111d"/>
          </g>
        </g>
        <g id="Grupo_1161107" data-name="Grupo 1161107" transform="translate(159.759 5.462)">
          <path id="Trazado_996409" data-name="Trazado 996409" d="M1348.622,1442.382a.332.332,0,1,1,.3.591c-8.986,4.622-45.007,23.247-45.37,23.435l-.052.027-.057.007c-13.995,1.87-40.363-6.1-40.628-6.183l-.978-.3.967-.333c13.421-4.628,47.878-17.93,46.165-23.826a.332.332,0,0,1,.638-.185c.97,3.339-6.409,8.352-22.559,15.322-9.818,4.238-19.931,7.873-23.052,8.974,4.914,1.421,26.969,7.5,39.3,5.878C1304.869,1464.981,1339.794,1446.922,1348.622,1442.382Z" transform="translate(-1261.842 -1435.376)" fill="#20111d"/>
        </g>
      </g>
    </g>
  </g>
</svg>
