<svg xmlns="http://www.w3.org/2000/svg" xmlns:xlink="http://www.w3.org/1999/xlink" width="108" height="108" viewBox="0 0 108 108">
  <defs>
    <filter id="Trazado_982547" x="0" y="0" width="108" height="108" filterUnits="userSpaceOnUse">
      <feOffset dy="3" input="SourceAlpha"/>
      <feGaussianBlur stdDeviation="3" result="blur"/>
      <feFlood flood-opacity="0.161"/>
      <feComposite operator="in" in2="blur"/>
      <feComposite in="SourceGraphic"/>
    </filter>
  </defs>
  <g id="Grupo_1160670" data-name="Grupo 1160670" transform="translate(-171 -1191)">
    <g id="Grupo_1153959" data-name="Grupo 1153959" transform="translate(0 -369)">
      <g id="Grupo_1153955" data-name="Grupo 1153955" transform="translate(-83 1047)">
        <g id="Grupo_1149598" data-name="Grupo 1149598" transform="translate(80 315)">
          <g id="Grupo_1148770" data-name="Grupo 1148770" transform="translate(-27 -2583)">
            <g id="Grupo_1146954" data-name="Grupo 1146954" transform="translate(-415 -1202)">
              <g transform="matrix(1, 0, 0, 1, 616, 3983)" filter="url(#Trazado_982547)">
                <g id="Trazado_982547-2" data-name="Trazado 982547" transform="translate(9 6)" fill="#eaf5f4">
                  <path d="M 45 88.5 C 39.12687683105469 88.5 33.43022537231445 87.35007476806641 28.06830024719238 85.08217620849609 C 22.88852500915527 82.89131164550781 18.23629951477051 79.75458526611328 14.2408504486084 75.75914764404297 C 10.24541282653809 71.76370239257812 7.108687400817871 67.11147308349609 4.917825222015381 61.93170166015625 C 2.649924993515015 56.56977462768555 1.5 50.87312316894531 1.5 45 C 1.5 39.12687683105469 2.649924993515015 33.43022537231445 4.917825222015381 28.06830024719238 C 7.108687400817871 22.88852500915527 10.24541282653809 18.23629951477051 14.2408504486084 14.2408504486084 C 18.23629951477051 10.24541282653809 22.88852500915527 7.108687400817871 28.06830024719238 4.917825222015381 C 33.43022537231445 2.649924993515015 39.12687683105469 1.5 45 1.5 C 50.87312316894531 1.5 56.56977462768555 2.649924993515015 61.93170166015625 4.917825222015381 C 67.11147308349609 7.108687400817871 71.76370239257812 10.24541282653809 75.75914764404297 14.2408504486084 C 79.75458526611328 18.23629951477051 82.89131164550781 22.88852500915527 85.08217620849609 28.06830024719238 C 87.35007476806641 33.43022537231445 88.5 39.12687683105469 88.5 45 C 88.5 50.87312316894531 87.35007476806641 56.56977462768555 85.08217620849609 61.93170166015625 C 82.89131164550781 67.11147308349609 79.75458526611328 71.76370239257812 75.75914764404297 75.75914764404297 C 71.76370239257812 79.75458526611328 67.11147308349609 82.89131164550781 61.93170166015625 85.08217620849609 C 56.56977462768555 87.35007476806641 50.87312316894531 88.5 45 88.5 Z" stroke="none"/>
                  <path d="M 45 3 C 39.32871246337891 3 33.82865524291992 4.110054016113281 28.65262985229492 6.299339294433594 C 23.65165710449219 8.414573669433594 19.15968322753906 11.44334411621094 15.301513671875 15.301513671875 C 11.44334411621094 19.15968322753906 8.414573669433594 23.65165710449219 6.299339294433594 28.65262985229492 C 4.110054016113281 33.82865524291992 3 39.32871246337891 3 45 C 3 50.67128753662109 4.110054016113281 56.17134475708008 6.299339294433594 61.34737396240234 C 8.414573669433594 66.34834289550781 11.44334411621094 70.84031677246094 15.301513671875 74.698486328125 C 19.15968322753906 78.55665588378906 23.65165710449219 81.58542633056641 28.65262985229492 83.70066070556641 C 33.82865524291992 85.88994598388672 39.32871246337891 87 45 87 C 50.67128753662109 87 56.17134475708008 85.88994598388672 61.34737396240234 83.70066070556641 C 66.34834289550781 81.58542633056641 70.84031677246094 78.55665588378906 74.698486328125 74.698486328125 C 78.55665588378906 70.84031677246094 81.58542633056641 66.34834289550781 83.70066070556641 61.34737396240234 C 85.88994598388672 56.17134475708008 87 50.67128753662109 87 45 C 87 39.32871246337891 85.88994598388672 33.82865524291992 83.70066070556641 28.65262985229492 C 81.58542633056641 23.65165710449219 78.55665588378906 19.15968322753906 74.698486328125 15.301513671875 C 70.84031677246094 11.44334411621094 66.34834289550781 8.414573669433594 61.34737396240234 6.299339294433594 C 56.17134475708008 4.110054016113281 50.67128753662109 3 45 3 M 45 0 C 69.85281372070312 0 90 20.14718627929688 90 45 C 90 69.85281372070312 69.85281372070312 90 45 90 C 20.14718627929688 90 0 69.85281372070312 0 45 C 0 20.14718627929688 20.14718627929688 0 45 0 Z" stroke="none" fill="#235a53"/>
                </g>
              </g>
            </g>
          </g>
        </g>
      </g>
    </g>
    <g id="movimiento" transform="translate(195 1211.993)">
      <g id="Grupo_1160668" data-name="Grupo 1160668" transform="translate(0.866 0.871)">
        <path id="Trazado_995183" data-name="Trazado 995183" d="M205.9,176.522h13.9v37.85H205.9Z" transform="translate(-183.006 -157.015)" fill="#d78878"/>
        <path id="Trazado_995184" data-name="Trazado 995184" d="M205.9,176.522v5.908l8.453.954a2.238,2.238,0,0,1,1.987,2.224v28.764h3.462v-37.85Z" transform="translate(-183.006 -157.015)" fill="#ca6e59"/>
        <path id="Trazado_995185" data-name="Trazado 995185" d="M197.543,79.822V90.236a5.2,5.2,0,0,1-5.2,5.2h-9.17a6.193,6.193,0,0,1-6.192-6.195V79.822Z" transform="translate(-157.425 -71.475)" fill="#d78878"/>
        <path id="Trazado_995186" data-name="Trazado 995186" d="M258.486,109.327s-7.079.6-8.552,5.1c-2.02,6.174,4.047,7.922,8.552,4.173Z" transform="translate(-221.602 -97.575)" fill="#ca6e59"/>
        <path id="Trazado_995187" data-name="Trazado 995187" d="M224.093,27.493a2.57,2.57,0,0,0,2.57-2.57V18.635a2.57,2.57,0,1,0-5.14,0v6.288A2.57,2.57,0,0,0,224.093,27.493Z" transform="translate(-196.824 -15.076)" fill="#d78878"/>
        <path id="Trazado_995188" data-name="Trazado 995188" d="M233.029,16.065a2.557,2.557,0,0,0-1.4.418,2.567,2.567,0,0,1,1.166,2.152v6.288a2.567,2.567,0,0,1-1.166,2.152,2.57,2.57,0,0,0,3.974-2.152V18.635A2.57,2.57,0,0,0,233.029,16.065Z" transform="translate(-205.76 -15.076)" fill="#ca6e59"/>
        <path id="Trazado_995189" data-name="Trazado 995189" d="M268.618,20.171a2.57,2.57,0,0,0,2.57-2.57V10.064a2.57,2.57,0,0,0-5.14,0V17.6A2.57,2.57,0,0,0,268.618,20.171Z" transform="translate(-236.21 -7.494)" fill="#d78878"/>
        <path id="Trazado_995190" data-name="Trazado 995190" d="M276.8,7.493a2.558,2.558,0,0,0-1.5.486,2.566,2.566,0,0,1,1.067,2.084V17.6a2.566,2.566,0,0,1-1.067,2.084,2.57,2.57,0,0,0,4.073-2.084V10.063A2.57,2.57,0,0,0,276.8,7.493Z" transform="translate(-244.39 -7.493)" fill="#ca6e59"/>
        <path id="Trazado_995191" data-name="Trazado 995191" d="M313.159,20.171a2.57,2.57,0,0,0,2.57-2.57V10.064a2.57,2.57,0,0,0-5.14,0V17.6A2.57,2.57,0,0,0,313.159,20.171Z" transform="translate(-275.611 -7.494)" fill="#d78878"/>
        <path id="Trazado_995192" data-name="Trazado 995192" d="M322.125,7.493a2.557,2.557,0,0,0-1.4.415,2.567,2.567,0,0,1,1.17,2.155V17.6a2.567,2.567,0,0,1-1.17,2.155A2.57,2.57,0,0,0,324.7,17.6V10.063A2.57,2.57,0,0,0,322.125,7.493Z" transform="translate(-284.577 -7.493)" fill="#ca6e59"/>
        <path id="Trazado_995193" data-name="Trazado 995193" d="M179.552,39.261a2.57,2.57,0,0,0,2.57-2.57V30.4a2.57,2.57,0,1,0-5.14,0v6.288A2.57,2.57,0,0,0,179.552,39.261Z" transform="translate(-157.423 -25.486)" fill="#d78878"/>
        <path id="Trazado_995194" data-name="Trazado 995194" d="M185.017,27.832a2.56,2.56,0,0,0-.951.183,2.561,2.561,0,0,1,.713,1.776v6.288a2.57,2.57,0,0,1-1.619,2.388,2.569,2.569,0,0,0,4.427-1.776V30.4A2.57,2.57,0,0,0,185.017,27.832Z" transform="translate(-162.888 -25.485)" fill="#ca6e59"/>
        <path id="Trazado_995195" data-name="Trazado 995195" d="M270.193,58.478A12.856,12.856,0,0,1,271.613,55c1.385-1.829,2.893-2.873,5.022-2.8.654.022,1.955-.428,2.131-1.209a.36.36,0,0,0-.2-.405l-1.226-.573a4.753,4.753,0,0,1-2.512-4.831c.3-1.248.953-1.827,1.427-1.605,0,0,5.433,2.465,7,3.244a1.578,1.578,0,0,1,.876,1.437l-.067,4.527a7.75,7.75,0,0,1-1.57,4.563l-2.321,3.066c-3.178,4.194-6.005,3.306-9.777,2.918A13.419,13.419,0,0,1,270.193,58.478Z" transform="translate(-239.752 -39.374)" fill="#d78878"/>
        <path id="Trazado_995196" data-name="Trazado 995196" d="M300.363,46.826c-1.572-.779-7-3.244-7-3.244-.391-.183-.906.18-1.241,1.013,1.691.774,3.878,1.782,4.783,2.231a1.578,1.578,0,0,1,.876,1.437l-.067,4.527a7.75,7.75,0,0,1-1.57,4.563l-2.321,3.066a7.281,7.281,0,0,1-4.435,3.135c2.881.326,5.269.333,7.9-3.135l2.321-3.066a7.749,7.749,0,0,0,1.57-4.563l.067-4.527A1.578,1.578,0,0,0,300.363,46.826Z" transform="translate(-256.854 -39.376)" fill="#ca6e59"/>
        <path id="Trazado_995197" data-name="Trazado 995197" d="M318.3,363.272h13.9v16.3H318.3Z" transform="translate(-282.432 -322.213)" fill="#fed2a4"/>
        <path id="Trazado_995198" data-name="Trazado 995198" d="M318.3,363.272v9.984l8.453.954a2.238,2.238,0,0,1,1.987,2.224v3.135H332.2v-16.3Z" transform="translate(-282.432 -322.213)" fill="#ffbd86"/>
        <path id="Trazado_995199" data-name="Trazado 995199" d="M309.94,305.379v10.414a5.2,5.2,0,0,1-5.2,5.2h-9.17a6.193,6.193,0,0,1-6.192-6.195v-9.419Z" transform="translate(-256.85 -271.001)" fill="#fed2a4"/>
        <path id="Trazado_995200" data-name="Trazado 995200" d="M370.883,334.884s-7.079.6-8.552,5.1c-2.02,6.174,4.047,7.922,8.552,4.173Z" transform="translate(-321.028 -297.101)" fill="#ffbd86"/>
        <path id="Trazado_995201" data-name="Trazado 995201" d="M336.489,253.051a2.57,2.57,0,0,0,2.57-2.57v-6.288a2.57,2.57,0,0,0-5.14,0v6.288A2.57,2.57,0,0,0,336.489,253.051Z" transform="translate(-296.249 -214.603)" fill="#fed2a4"/>
        <path id="Trazado_995202" data-name="Trazado 995202" d="M345.425,241.623a2.556,2.556,0,0,0-1.4.418,2.567,2.567,0,0,1,1.166,2.152v6.288a2.567,2.567,0,0,1-1.166,2.152A2.57,2.57,0,0,0,348,250.481v-6.288A2.57,2.57,0,0,0,345.425,241.623Z" transform="translate(-305.185 -214.603)" fill="#ffbd86"/>
        <path id="Trazado_995203" data-name="Trazado 995203" d="M381.014,245.729a2.57,2.57,0,0,0,2.57-2.57v-7.537a2.57,2.57,0,1,0-5.14,0v7.537A2.57,2.57,0,0,0,381.014,245.729Z" transform="translate(-335.635 -207.021)" fill="#fed2a4"/>
        <path id="Trazado_995204" data-name="Trazado 995204" d="M389.194,233.051a2.558,2.558,0,0,0-1.5.486,2.566,2.566,0,0,1,1.067,2.084v7.537a2.566,2.566,0,0,1-1.067,2.084,2.57,2.57,0,0,0,4.073-2.084v-7.537A2.57,2.57,0,0,0,389.194,233.051Z" transform="translate(-343.815 -207.02)" fill="#ffbd86"/>
        <path id="Trazado_995205" data-name="Trazado 995205" d="M425.555,245.729a2.57,2.57,0,0,0,2.57-2.57v-7.537a2.57,2.57,0,1,0-5.14,0v7.537A2.57,2.57,0,0,0,425.555,245.729Z" transform="translate(-375.036 -207.021)" fill="#fed2a4"/>
        <path id="Trazado_995206" data-name="Trazado 995206" d="M434.521,233.051a2.557,2.557,0,0,0-1.4.415,2.567,2.567,0,0,1,1.17,2.155v7.537a2.567,2.567,0,0,1-1.17,2.155,2.57,2.57,0,0,0,3.971-2.155v-7.537A2.57,2.57,0,0,0,434.521,233.051Z" transform="translate(-384.002 -207.02)" fill="#ffbd86"/>
        <path id="Trazado_995207" data-name="Trazado 995207" d="M291.948,264.818a2.57,2.57,0,0,0,2.57-2.57V255.96a2.57,2.57,0,1,0-5.14,0v6.288A2.57,2.57,0,0,0,291.948,264.818Z" transform="translate(-256.848 -225.012)" fill="#fed2a4"/>
        <path id="Trazado_995208" data-name="Trazado 995208" d="M297.413,253.39a2.56,2.56,0,0,0-.951.183,2.561,2.561,0,0,1,.713,1.776v6.288a2.57,2.57,0,0,1-1.619,2.387,2.569,2.569,0,0,0,4.427-1.776V255.96A2.57,2.57,0,0,0,297.413,253.39Z" transform="translate(-262.313 -225.012)" fill="#ffbd86"/>
        <path id="Trazado_995209" data-name="Trazado 995209" d="M382.59,284.037a12.855,12.855,0,0,1,1.42-3.475c1.385-1.829,2.893-2.873,5.022-2.8.654.022,1.955-.428,2.131-1.209a.359.359,0,0,0-.2-.4l-1.226-.573a4.753,4.753,0,0,1-2.512-4.831c.3-1.248.953-1.827,1.427-1.605,0,0,5.433,2.465,7,3.244a1.578,1.578,0,0,1,.876,1.437l-.067,4.527a7.75,7.75,0,0,1-1.57,4.563l-2.321,3.066c-3.178,4.194-6.005,3.306-9.777,2.918A13.418,13.418,0,0,1,382.59,284.037Z" transform="translate(-339.178 -238.903)" fill="#fed2a4"/>
        <path id="Trazado_995210" data-name="Trazado 995210" d="M412.759,272.384c-1.572-.779-7-3.244-7-3.244-.391-.183-.906.18-1.241,1.013,1.691.774,3.878,1.782,4.783,2.231a1.578,1.578,0,0,1,.876,1.437l-.067,4.527a7.749,7.749,0,0,1-1.57,4.563l-2.321,3.066a7.281,7.281,0,0,1-4.435,3.135c2.881.326,5.269.333,7.9-3.135L412,282.911a7.75,7.75,0,0,0,1.57-4.563l.067-4.527A1.578,1.578,0,0,0,412.759,272.384Z" transform="translate(-356.279 -238.903)" fill="#ffbd86"/>
        <path id="Trazado_995211" data-name="Trazado 995211" d="M36.422,331.983h13.9v19.909h-13.9Z" transform="translate(-33.084 -294.535)" fill="#ffcebf"/>
        <path id="Trazado_995212" data-name="Trazado 995212" d="M36.422,331.983v9.984l8.453.954a2.238,2.238,0,0,1,1.987,2.224v6.746h3.462V331.983Z" transform="translate(-33.084 -294.535)" fill="#ffb09e"/>
        <path id="Trazado_995213" data-name="Trazado 995213" d="M28.062,274.091V284.5a5.2,5.2,0,0,1-5.2,5.2h-9.17A6.193,6.193,0,0,1,7.5,283.51v-9.419Z" transform="translate(-7.503 -243.324)" fill="#ffcebf"/>
        <path id="Trazado_995214" data-name="Trazado 995214" d="M89,303.6s-7.079.6-8.552,5.1c-2.02,6.174,4.047,7.922,8.552,4.173Z" transform="translate(-71.68 -269.424)" fill="#ffb09e"/>
        <path id="Trazado_995215" data-name="Trazado 995215" d="M54.611,221.763a2.57,2.57,0,0,0,2.57-2.57v-6.288a2.57,2.57,0,1,0-5.14,0v6.288A2.57,2.57,0,0,0,54.611,221.763Z" transform="translate(-46.901 -186.926)" fill="#ffcebf"/>
        <path id="Trazado_995216" data-name="Trazado 995216" d="M63.547,210.334a2.556,2.556,0,0,0-1.4.418,2.567,2.567,0,0,1,1.166,2.152v6.288a2.567,2.567,0,0,1-1.166,2.152,2.57,2.57,0,0,0,3.974-2.152V212.9A2.57,2.57,0,0,0,63.547,210.334Z" transform="translate(-55.837 -186.925)" fill="#ffb09e"/>
        <path id="Trazado_995217" data-name="Trazado 995217" d="M99.137,214.44a2.57,2.57,0,0,0,2.57-2.57v-7.537a2.57,2.57,0,1,0-5.14,0v7.537A2.57,2.57,0,0,0,99.137,214.44Z" transform="translate(-86.288 -179.343)" fill="#ffcebf"/>
        <path id="Trazado_995218" data-name="Trazado 995218" d="M107.317,201.762a2.558,2.558,0,0,0-1.5.486,2.566,2.566,0,0,1,1.067,2.084v7.537a2.566,2.566,0,0,1-1.067,2.084,2.57,2.57,0,0,0,4.073-2.084v-7.537a2.57,2.57,0,0,0-2.57-2.57Z" transform="translate(-94.468 -179.342)" fill="#ffb09e"/>
        <path id="Trazado_995219" data-name="Trazado 995219" d="M143.678,214.44a2.57,2.57,0,0,0,2.57-2.57v-7.537a2.57,2.57,0,1,0-5.14,0v7.537A2.57,2.57,0,0,0,143.678,214.44Z" transform="translate(-125.689 -179.343)" fill="#ffcebf"/>
        <path id="Trazado_995220" data-name="Trazado 995220" d="M152.643,201.762a2.557,2.557,0,0,0-1.4.415,2.567,2.567,0,0,1,1.17,2.155v7.537a2.567,2.567,0,0,1-1.17,2.155,2.57,2.57,0,0,0,3.971-2.155v-7.537a2.57,2.57,0,0,0-2.57-2.57Z" transform="translate(-134.654 -179.342)" fill="#ffb09e"/>
        <path id="Trazado_995221" data-name="Trazado 995221" d="M10.07,233.53a2.57,2.57,0,0,0,2.57-2.57v-6.288a2.57,2.57,0,0,0-5.14,0v6.288A2.57,2.57,0,0,0,10.07,233.53Z" transform="translate(-7.5 -197.335)" fill="#ffcebf"/>
        <path id="Trazado_995222" data-name="Trazado 995222" d="M15.535,222.1a2.56,2.56,0,0,0-.951.183,2.561,2.561,0,0,1,.713,1.776v6.288a2.57,2.57,0,0,1-1.619,2.388,2.569,2.569,0,0,0,4.427-1.776v-6.288A2.57,2.57,0,0,0,15.535,222.1Z" transform="translate(-12.965 -197.334)" fill="#ffb09e"/>
        <path id="Trazado_995223" data-name="Trazado 995223" d="M100.712,252.747a12.854,12.854,0,0,1,1.42-3.475c1.385-1.829,2.893-2.873,5.022-2.8.654.022,1.955-.428,2.131-1.209a.36.36,0,0,0-.2-.405l-1.226-.573a4.753,4.753,0,0,1-2.512-4.831c.3-1.248.953-1.827,1.427-1.605,0,0,5.433,2.465,7,3.244a1.578,1.578,0,0,1,.876,1.437l-.067,4.527a7.75,7.75,0,0,1-1.57,4.563l-2.321,3.066c-3.178,4.194-6.005,3.306-9.777,2.918a13.417,13.417,0,0,1-.21-4.856Z" transform="translate(-89.83 -211.224)" fill="#ffcebf"/>
        <path id="Trazado_995224" data-name="Trazado 995224" d="M130.881,241.095c-1.572-.779-7-3.244-7-3.244-.391-.183-.906.18-1.241,1.013,1.691.774,3.878,1.782,4.783,2.231a1.578,1.578,0,0,1,.876,1.437l-.067,4.527a7.75,7.75,0,0,1-1.57,4.563l-2.321,3.066a7.28,7.28,0,0,1-4.435,3.135c2.881.326,5.269.333,7.9-3.135l2.321-3.066a7.75,7.75,0,0,0,1.57-4.563l.067-4.527A1.578,1.578,0,0,0,130.881,241.095Z" transform="translate(-106.931 -211.225)" fill="#ffb09e"/>
      </g>
      <g id="Grupo_1160669" data-name="Grupo 1160669" transform="translate(0 0.007)">
        <path id="Trazado_995225" data-name="Trazado 995225" d="M57.731,33.576c-.6-.3-1.728-.825-2.91-1.371V29.471a3.444,3.444,0,0,0-5.865-2.43q-.074.074-.142.151a3.444,3.444,0,0,0-5.559.589,3.449,3.449,0,0,0-4.724.409V25.408a9.218,9.218,0,0,0,3.453-2.972L44.3,19.37A8.558,8.558,0,0,0,46.049,14.3l.067-4.527a2.455,2.455,0,0,0-1.357-2.226c-.6-.3-1.728-.825-2.91-1.371V3.441a3.444,3.444,0,0,0-5.865-2.43q-.074.074-.142.151a3.444,3.444,0,0,0-5.559.589,3.448,3.448,0,0,0-5.274,1.255,3.444,3.444,0,0,0-5.449,2.782v.963a.866.866,0,0,0,1.731,0V5.788a1.7,1.7,0,0,1,3.409,0v6.288a1.7,1.7,0,0,1-3.409,0V10.825a.866.866,0,0,0-1.731,0v7.811a7.063,7.063,0,0,0,3.338,6v4.24l-.606-.28V25.86a3.444,3.444,0,0,0-5.865-2.43q-.074.074-.142.151a3.444,3.444,0,0,0-5.559.589A3.448,3.448,0,0,0,5.45,25.426,3.444,3.444,0,0,0,0,28.208V41.056a7.063,7.063,0,0,0,3.338,6v4.721a.866.866,0,0,0,1.731,0V47.831a7.036,7.036,0,0,0,1.989.286h4.854c.381.04.757.085,1.121.129a23.155,23.155,0,0,0,2.749.222,8.841,8.841,0,0,0,1.457-.113v9.008H5.068v-1.5a.866.866,0,0,0-1.731,0v2.362a.865.865,0,0,0,.866.866h13.9a.865.865,0,0,0,.866-.866v-10.4a9.218,9.218,0,0,0,3.453-2.972l.472-.623V58.227a.865.865,0,0,0,.866.866H50.636a.865.865,0,0,0,.866-.866V51.442a8.54,8.54,0,0,0,2.907-2.3A.866.866,0,0,0,53.1,48.017c-2.336,2.72-4.32,2.482-7.325,2.12-.385-.046-1.253-.141-1.283-.141h-4.9a5.334,5.334,0,0,1-5.327-5.329V41.088a3.455,3.455,0,0,0,4.831-1.558,3.451,3.451,0,0,0,4.468-.38,3.438,3.438,0,0,0,2.876,1.289,10.366,10.366,0,0,0-1.429,1.57.866.866,0,1,0,1.38,1.045c1.347-1.78,2.632-2.514,4.3-2.458.866.03,2.7-.508,3-1.884a1.233,1.233,0,0,0-.676-1.379l-1.226-.573a3.914,3.914,0,0,1-2.036-3.848,2.226,2.226,0,0,1,.41-.933c.96.436,5.416,2.464,6.795,3.148a.716.716,0,0,1,.395.649L57.29,40.3A6.838,6.838,0,0,1,55.9,44.356l-.377.5A.866.866,0,1,0,56.9,45.9l.377-.5a8.558,8.558,0,0,0,1.745-5.073l.067-4.527a2.455,2.455,0,0,0-1.357-2.226ZM36.709,3.441a1.7,1.7,0,1,1,3.409,0V5.378c-1.264-.579-2.29-1.044-2.382-1.086a1.371,1.371,0,0,0-1.027-.053Zm.31,2.427-.007,0Zm-5.45,4.96c0-.036,0-.073,0-.11V4.43c0-.037,0-.073,0-.11V3.441a1.7,1.7,0,0,1,3.409,0v7.537a1.7,1.7,0,0,1-3.409,0ZM26.43,4.43a1.7,1.7,0,0,1,3.407-.078V10.8a1.7,1.7,0,0,1-3.407-.078ZM17.15,25.86a1.7,1.7,0,1,1,3.409,0V27.8c-1.263-.579-2.29-1.044-2.382-1.086a1.371,1.371,0,0,0-1.027-.053Zm-5.14,7.387c0-.036,0-.073,0-.11V26.85c0-.037,0-.073,0-.11v-.879a1.7,1.7,0,0,1,3.409,0V33.4a1.7,1.7,0,0,1-3.409,0Zm-5.138-6.4a1.7,1.7,0,0,1,3.407-.078v6.444a1.7,1.7,0,0,1-3.407-.078Zm-5.14,1.358a1.7,1.7,0,0,1,3.409,0V34.5a1.7,1.7,0,0,1-3.409,0ZM23.365,40.745,21.045,43.81c-2.537,3.35-4.633,3.1-7.8,2.716-.385-.046-.784-.094-1.195-.137a.875.875,0,0,0-.089,0h-4.9a5.334,5.334,0,0,1-5.327-5.329V37.477a3.455,3.455,0,0,0,4.831-1.558,3.451,3.451,0,0,0,4.468-.38,3.439,3.439,0,0,0,2.877,1.289,10.344,10.344,0,0,0-1.43,1.57.866.866,0,0,0,1.38,1.045c1.347-1.78,2.633-2.514,4.3-2.458.866.029,2.7-.508,3.005-1.884a1.233,1.233,0,0,0-.676-1.379l-1.226-.573A3.914,3.914,0,0,1,17.227,29.3a2.227,2.227,0,0,1,.41-.933c.961.437,5.416,2.464,6.795,3.148a.716.716,0,0,1,.395.649l-.067,4.527a6.841,6.841,0,0,1-1.394,4.053ZM17.2,33.8a4.942,4.942,0,0,0,1.331.914l.6.282c-.068.036-.143.071-.221.1A1.709,1.709,0,0,1,17.2,33.8ZM37.6,51.442a7.037,7.037,0,0,0,1.99.286h4.854c.381.04.757.085,1.121.129a14.835,14.835,0,0,0,4.207.111v5.395H37.6ZM32.53,31.819V44.667a7.063,7.063,0,0,0,3.338,6v6.7H24.627V42.016c0-.023,0-.045,0-.067l.121-.159a8.559,8.559,0,0,0,1.745-5.073l.067-4.527A2.455,2.455,0,0,0,25.2,29.965c-.157-.078-.351-.172-.573-.278V25.411a7.036,7.036,0,0,0,1.989.286h4.855c.381.04.757.085,1.12.129a23.131,23.131,0,0,0,2.749.222,8.844,8.844,0,0,0,1.458-.113v2.551a3.451,3.451,0,0,0-4.269,3.334Zm5.14,6.288a1.7,1.7,0,0,1-3.409,0V31.819a1.7,1.7,0,0,1,3.409,0Zm-4.872-14c-.384-.046-1.27-.141-1.3-.141H26.617a5.334,5.334,0,0,1-5.327-5.329V15.058A3.455,3.455,0,0,0,26.121,13.5a3.451,3.451,0,0,0,4.468-.38,3.431,3.431,0,0,0,2.684,1.294h0q.1,0,.192-.005a10.359,10.359,0,0,0-1.429,1.57.866.866,0,1,0,1.38,1.045c1.348-1.78,2.634-2.515,4.3-2.458.865.032,2.7-.508,3-1.884a1.233,1.233,0,0,0-.676-1.379l-1.226-.573a3.914,3.914,0,0,1-2.036-3.848,2.227,2.227,0,0,1,.41-.933c.96.436,5.416,2.464,6.795,3.148a.716.716,0,0,1,.395.649l-.067,4.527a6.838,6.838,0,0,1-1.394,4.053L40.6,21.391C38.066,24.74,35.97,24.488,32.8,24.106Zm3.959-12.724a4.944,4.944,0,0,0,1.331.914l.6.282c-.068.036-.143.071-.222.1a1.709,1.709,0,0,1-1.714-1.3Zm6.052,25.441a1.7,1.7,0,0,1-3.407-.076V30.46a1.7,1.7,0,0,1,3.407-.076Zm5.14.185a1.7,1.7,0,0,1-3.409,0v-.154c0-.035,0-.071,0-.106V30.46q0-.053,0-.106v-.883a1.7,1.7,0,0,1,3.409,0Zm3.111,1.319.6.282a2.409,2.409,0,0,1-.222.1,1.709,1.709,0,0,1-1.714-1.3,4.942,4.942,0,0,0,1.331.914ZM49.984,31.9l.007,0Zm3.106-.486c-1.264-.579-2.29-1.044-2.382-1.086a1.372,1.372,0,0,0-1.027-.053v-.8a1.7,1.7,0,1,1,3.409,0Z" transform="translate(0 -0.007)"/>
      </g>
    </g>
  </g>
</svg>
