<svg xmlns="http://www.w3.org/2000/svg" xmlns:xlink="http://www.w3.org/1999/xlink" width="108" height="108" viewBox="0 0 108 108">
  <defs>
    <filter id="Trazado_982547" x="0" y="0" width="108" height="108" filterUnits="userSpaceOnUse">
      <feOffset dy="3" input="SourceAlpha"/>
      <feGaussianBlur stdDeviation="3" result="blur"/>
      <feFlood flood-opacity="0.161"/>
      <feComposite operator="in" in2="blur"/>
      <feComposite in="SourceGraphic"/>
    </filter>
  </defs>
  <g id="Grupo_1160693" data-name="Grupo 1160693" transform="translate(-186 -786)">
    <g id="Grupo_1160650" data-name="Grupo 1160650" transform="translate(15 -774)">
      <g id="Grupo_1153955" data-name="Grupo 1153955" transform="translate(-83 1047)">
        <g id="Grupo_1149598" data-name="Grupo 1149598" transform="translate(80 315)">
          <g id="Grupo_1148770" data-name="Grupo 1148770" transform="translate(-27 -2583)">
            <g id="Grupo_1146954" data-name="Grupo 1146954" transform="translate(-415 -1202)">
              <g transform="matrix(1, 0, 0, 1, 616, 3983)" filter="url(#Trazado_982547)">
                <g id="Trazado_982547-2" data-name="Trazado 982547" transform="translate(9 6)" fill="#fef7ea">
                  <path d="M 45 88.5 C 39.12687683105469 88.5 33.43022537231445 87.35007476806641 28.06830024719238 85.08217620849609 C 22.88852500915527 82.89131164550781 18.23629951477051 79.75458526611328 14.2408504486084 75.75914764404297 C 10.24541282653809 71.76370239257812 7.108687400817871 67.11147308349609 4.917825222015381 61.93170166015625 C 2.649924993515015 56.56977462768555 1.5 50.87312316894531 1.5 45 C 1.5 39.12687683105469 2.649924993515015 33.43022537231445 4.917825222015381 28.06830024719238 C 7.108687400817871 22.88852500915527 10.24541282653809 18.23629951477051 14.2408504486084 14.2408504486084 C 18.23629951477051 10.24541282653809 22.88852500915527 7.108687400817871 28.06830024719238 4.917825222015381 C 33.43022537231445 2.649924993515015 39.12687683105469 1.5 45 1.5 C 50.87312316894531 1.5 56.56977462768555 2.649924993515015 61.93170166015625 4.917825222015381 C 67.11147308349609 7.108687400817871 71.76370239257812 10.24541282653809 75.75914764404297 14.2408504486084 C 79.75458526611328 18.23629951477051 82.89131164550781 22.88852500915527 85.08217620849609 28.06830024719238 C 87.35007476806641 33.43022537231445 88.5 39.12687683105469 88.5 45 C 88.5 50.87312316894531 87.35007476806641 56.56977462768555 85.08217620849609 61.93170166015625 C 82.89131164550781 67.11147308349609 79.75458526611328 71.76370239257812 75.75914764404297 75.75914764404297 C 71.76370239257812 79.75458526611328 67.11147308349609 82.89131164550781 61.93170166015625 85.08217620849609 C 56.56977462768555 87.35007476806641 50.87312316894531 88.5 45 88.5 Z" stroke="none"/>
                  <path d="M 45 3 C 39.32871246337891 3 33.82865524291992 4.110054016113281 28.65262985229492 6.299339294433594 C 23.65165710449219 8.414573669433594 19.15968322753906 11.44334411621094 15.301513671875 15.301513671875 C 11.44334411621094 19.15968322753906 8.414573669433594 23.65165710449219 6.299339294433594 28.65262985229492 C 4.110054016113281 33.82865524291992 3 39.32871246337891 3 45 C 3 50.67128753662109 4.110054016113281 56.17134475708008 6.299339294433594 61.34737396240234 C 8.414573669433594 66.34834289550781 11.44334411621094 70.84031677246094 15.301513671875 74.698486328125 C 19.15968322753906 78.55665588378906 23.65165710449219 81.58542633056641 28.65262985229492 83.70066070556641 C 33.82865524291992 85.88994598388672 39.32871246337891 87 45 87 C 50.67128753662109 87 56.17134475708008 85.88994598388672 61.34737396240234 83.70066070556641 C 66.34834289550781 81.58542633056641 70.84031677246094 78.55665588378906 74.698486328125 74.698486328125 C 78.55665588378906 70.84031677246094 81.58542633056641 66.34834289550781 83.70066070556641 61.34737396240234 C 85.88994598388672 56.17134475708008 87 50.67128753662109 87 45 C 87 39.32871246337891 85.88994598388672 33.82865524291992 83.70066070556641 28.65262985229492 C 81.58542633056641 23.65165710449219 78.55665588378906 19.15968322753906 74.698486328125 15.301513671875 C 70.84031677246094 11.44334411621094 66.34834289550781 8.414573669433594 61.34737396240234 6.299339294433594 C 56.17134475708008 4.110054016113281 50.67128753662109 3 45 3 M 45 0 C 69.85281372070312 0 90 20.14718627929688 90 45 C 90 69.85281372070312 69.85281372070312 90 45 90 C 20.14718627929688 90 0 69.85281372070312 0 45 C 0 20.14718627929688 20.14718627929688 0 45 0 Z" stroke="none" fill="#fcba3d"/>
                </g>
              </g>
            </g>
          </g>
        </g>
      </g>
    </g>
    <g id="public-service_17977670" transform="translate(200.802 803.001)">
      <g id="Grupo_1160692" data-name="Grupo 1160692" transform="translate(10.177 17.025)">
        <path id="Trazado_995295" data-name="Trazado 995295" d="M147.395,117.89a5.482,5.482,0,1,1-10.964,0Z" transform="translate(-121.877 -117.89)" fill="#ffd987" fill-rule="evenodd"/>
        <path id="Trazado_995296" data-name="Trazado 995296" d="M296.749,117.89a5.482,5.482,0,0,1-10.964,0Z" transform="translate(-252.999 -117.89)" fill="#ffd987" fill-rule="evenodd"/>
        <path id="Trazado_995297" data-name="Trazado 995297" d="M25.118,200.03h2.733a7.925,7.925,0,0,1,7.9,7.9V211.2H17.216v-3.268a7.925,7.925,0,0,1,7.9-7.9Z" transform="translate(-17.216 -190.002)" fill="#ffeb87" fill-rule="evenodd"/>
      </g>
      <circle id="Elipse_11560" data-name="Elipse 11560" cx="2.6" cy="2.6" r="2.6" transform="translate(36.084 9.827) rotate(-73.268)" fill="#ffd987"/>
      <path id="Trazado_995298" data-name="Trazado 995298" d="M17.216,291.527a29.4,29.4,0,0,0,58.3,0Z" transform="translate(-7.039 -253.305)" fill="#85caff" fill-rule="evenodd"/>
      <path id="Trazado_995299" data-name="Trazado 995299" d="M350.865,200.03H353.6a7.925,7.925,0,0,1,7.9,7.9V211.2H342.963v-3.268a7.925,7.925,0,0,1,7.9-7.9Z" transform="translate(-293.02 -172.978)" fill="#ffeb87" fill-rule="evenodd"/>
      <circle id="Elipse_11561" data-name="Elipse 11561" cx="4.505" cy="4.505" r="4.505" transform="translate(54.283 18.351) rotate(-5.682)" fill="#ffcec0"/>
      <circle id="Elipse_11562" data-name="Elipse 11562" cx="4.505" cy="4.505" r="4.505" transform="translate(14.941 17.896)" fill="#ffcec0"/>
      <path id="Trazado_995300" data-name="Trazado 995300" d="M402.007,200.03l-1.289,8.488,2.218,2.682,2.218-2.682-1.289-8.488Z" transform="translate(-343.724 -172.978)" fill="#ff879b" fill-rule="evenodd"/>
      <path id="Trazado_995301" data-name="Trazado 995301" d="M76.26,200.03l-1.289,8.488,2.218,2.682,2.218-2.682-1.289-8.488Z" transform="translate(-57.744 -172.978)" fill="#ff879b" fill-rule="evenodd"/>
      <path id="Trazado_995302" data-name="Trazado 995302" d="M59.051,54.838a30.281,30.281,0,0,0-5.972-3.989A47.041,47.041,0,0,0,55.542,39.2h11.8a28.277,28.277,0,0,1-8.294,15.639ZM11.309,39.2h11.8a47.069,47.069,0,0,0,2.463,11.65A30.344,30.344,0,0,0,19.6,54.838,28.286,28.286,0,0,1,11.309,39.2Zm6.065-11.135-1.113,7.33a.976.976,0,0,0,.212.768l.9,1.084H11.151V34.954a6.937,6.937,0,0,1,6.223-6.89Zm2.071-9.191A3.528,3.528,0,1,1,15.916,22.4,3.532,3.532,0,0,1,19.444,18.873Zm1.187,16.382-1.187,1.434-1.187-1.434,1.1-7.226h.178Zm7.1-.3v2.291H21.518l.9-1.084a.97.97,0,0,0,.212-.768l-1.113-7.33a6.935,6.935,0,0,1,6.222,6.89ZM40.3,47.578a30.334,30.334,0,0,1,11,2.44A45.146,45.146,0,0,0,53.581,39.2H40.3Zm12.066,5.1a30.367,30.367,0,0,1-1.985,3.941,19,19,0,0,1-4.786,5.5,28.474,28.474,0,0,0,11.985-5.96A28.4,28.4,0,0,0,52.37,52.68Zm-3.656,2.931c-2.387,3.953-5.341,6.3-8.41,6.712V49.532a28.377,28.377,0,0,1,10.3,2.311,28.787,28.787,0,0,1-1.891,3.769ZM28.269,56.621a30.523,30.523,0,0,1-1.985-3.941,28.47,28.47,0,0,0-5.215,3.476,28.477,28.477,0,0,0,11.987,5.96,19,19,0,0,1-4.787-5.5ZM38.35,49.532V62.323c-3.069-.413-6.024-2.759-8.409-6.712a28.433,28.433,0,0,1-1.891-3.769,28.363,28.363,0,0,1,10.3-2.311Zm0-1.954V39.2H25.073A45.146,45.146,0,0,0,27.35,50.018,30.334,30.334,0,0,1,38.35,47.578ZM50.919,34.954a6.935,6.935,0,0,1,6.223-6.89l-1.114,7.33a.976.976,0,0,0,.212.768l.9,1.084H50.918V34.954ZM59.21,18.873A3.528,3.528,0,1,1,55.683,22.4a3.531,3.531,0,0,1,3.527-3.528ZM60.4,35.255,59.21,36.689l-1.187-1.434,1.1-7.226H59.3Zm7.106-.3v2.291H61.285l.9-1.084a.974.974,0,0,0,.213-.768l-1.113-7.33a6.935,6.935,0,0,1,6.222,6.89Zm1.953,0a8.894,8.894,0,0,0-6.5-8.554,5.48,5.48,0,1,0-7.483,0,8.9,8.9,0,0,0-6.5,8.554v2.291H29.689V34.954a8.892,8.892,0,0,0-6.5-8.553,5.482,5.482,0,1,0-7.483,0,8.894,8.894,0,0,0-6.5,8.554v3.268h0a.994.994,0,0,0,.008.125,30.379,30.379,0,0,0,60.24,0,.824.824,0,0,0,.008-.125h0V34.954ZM30.2,10.888l2.653,5.433H27.55Zm.007,10.368a3.965,3.965,0,0,1-3.835-2.981h7.672A3.966,3.966,0,0,1,30.21,21.256Zm9.117-14.78A1.624,1.624,0,1,1,37.7,8.1,1.626,1.626,0,0,1,39.327,6.476Zm6.457,9.845,2.653-5.433,2.652,5.433Zm2.66,4.935a3.965,3.965,0,0,1-3.837-2.981H52.28a3.965,3.965,0,0,1-3.836,2.981ZM30.21,23.209A5.919,5.919,0,0,0,36.122,17.3a.978.978,0,0,0-.977-.977h-.117L31.693,9.488c.674-.121,1.307-.3,1.907-.469a12.363,12.363,0,0,1,2.178-.481,3.585,3.585,0,0,0,2.572,3V26.9H35.224a.976.976,0,1,0,0,1.953H43.43a.976.976,0,1,0,0-1.953H40.3V11.54a3.585,3.585,0,0,0,2.572-3,12.363,12.363,0,0,1,2.178.481c.6.168,1.223.346,1.893.467l-3.338,6.836h-.1a.976.976,0,0,0-.976.977,5.911,5.911,0,1,0,11.822,0,.976.976,0,0,0-.977-.977h-.116L49.934,9.5l.126-.024a.976.976,0,1,0-.4-1.911,8.206,8.206,0,0,1-4.077-.431,12.016,12.016,0,0,0-3.029-.575,3.594,3.594,0,0,0-2.253-1.9V3.976a.977.977,0,0,0-1.953,0v.684a3.594,3.594,0,0,0-2.253,1.9,12.07,12.07,0,0,0-3.028.575,8.211,8.211,0,0,1-4.078.431.976.976,0,1,0-.4,1.911c.037.009.073.014.111.021l-3.329,6.819h-.1a.977.977,0,0,0-.977.977,5.918,5.918,0,0,0,5.911,5.911Z" fill-rule="evenodd"/>
    </g>
  </g>
</svg>
