<svg xmlns="http://www.w3.org/2000/svg" xmlns:xlink="http://www.w3.org/1999/xlink" width="782.325" height="278.83" viewBox="0 0 782.325 278.83">
  <defs>
    <radialGradient id="radial-gradient" cx="0.5" cy="0.5" r="0.5" gradientUnits="objectBoundingBox">
      <stop offset="0.684" stop-color="#00b59a"/>
      <stop offset="0.747" stop-color="#44c9b5"/>
      <stop offset="0.815" stop-color="#86dccf"/>
      <stop offset="0.877" stop-color="#baebe4"/>
      <stop offset="0.93" stop-color="#e0f6f3"/>
      <stop offset="0.973" stop-color="#f7fdfc"/>
      <stop offset="1" stop-color="#fff"/>
    </radialGradient>
    <radialGradient id="radial-gradient-2" cx="0.5" cy="0.5" r="0.5" gradientTransform="translate(0)" gradientUnits="objectBoundingBox">
      <stop offset="0.684" stop-color="#ff9d00"/>
      <stop offset="0.747" stop-color="#ffb744"/>
      <stop offset="0.815" stop-color="#ffd086"/>
      <stop offset="0.877" stop-color="#ffe5ba"/>
      <stop offset="0.93" stop-color="#fff3e0"/>
      <stop offset="0.973" stop-color="#fffcf7"/>
      <stop offset="1" stop-color="#fff"/>
    </radialGradient>
    <radialGradient id="radial-gradient-3" cx="0.5" cy="0.5" r="0.5" gradientTransform="translate(0)" gradientUnits="objectBoundingBox">
      <stop offset="0.684" stop-color="#7b3dd9"/>
      <stop offset="0.692" stop-color="#8044da"/>
      <stop offset="0.775" stop-color="#ad86e7"/>
      <stop offset="0.85" stop-color="#d0baf2"/>
      <stop offset="0.915" stop-color="#eae0f9"/>
      <stop offset="0.967" stop-color="#f9f7fd"/>
      <stop offset="1" stop-color="#fff"/>
    </radialGradient>
  </defs>
  <g id="Grupo_1161373" data-name="Grupo 1161373" transform="translate(-405.674 -1137)">
    <g id="Grupo_1161343" data-name="Grupo 1161343" transform="translate(405.674 1159.502)">
      <g id="Grupo_1161335" data-name="Grupo 1161335" transform="translate(12.919 17.048)">
        <circle id="Elipse_11597" data-name="Elipse 11597" cx="109.889" cy="109.889" r="109.889" fill="url(#radial-gradient)"/>
      </g>
      <circle id="Elipse_11598" data-name="Elipse 11598" cx="92.893" cy="92.893" r="92.893" transform="translate(32.703 24.948)" fill="#fff"/>
      <g id="Grupo_1161339" data-name="Grupo 1161339" transform="translate(41.61 0)">
        <g id="Grupo_1161336" data-name="Grupo 1161336" transform="translate(5.961)">
          <path id="Trazado_996844" data-name="Trazado 996844" d="M125.919,296.826a117.677,117.677,0,0,1-77.237-28.834,2.29,2.29,0,1,1,3-3.456A113.264,113.264,0,1,0,51.7,93.424a2.29,2.29,0,1,1-3-3.456,117.845,117.845,0,1,1,77.225,206.858Z" transform="translate(-47.894 -61.144)"/>
        </g>
        <g id="Grupo_1161337" data-name="Grupo 1161337" transform="translate(0 21.692)">
          <path id="Trazado_996845" data-name="Trazado 996845" d="M58.873,88.689a8.609,8.609,0,1,1,.5-12.164A8.611,8.611,0,0,1,58.873,88.689Z" transform="translate(-44.431 -73.749)"/>
        </g>
        <g id="Grupo_1161338" data-name="Grupo 1161338" transform="translate(0 196.773)">
          <path id="Trazado_996846" data-name="Trazado 996846" d="M58.873,177.762a8.61,8.61,0,1,0,.5,12.165A8.61,8.61,0,0,0,58.873,177.762Z" transform="translate(-44.431 -175.485)"/>
        </g>
      </g>
      <g id="Grupo_1161340" data-name="Grupo 1161340" transform="translate(0 74.589)">
        <path id="Trazado_996847" data-name="Trazado 996847" d="M20.252,104.486H56v88.3H37.052V121.288h-16.8v-16.8Z" transform="translate(-20.252 -104.486)"/>
      </g>
    </g>
    <g id="Grupo_1161352" data-name="Grupo 1161352" transform="translate(664.318 1159.502)">
      <g id="Grupo_1161344" data-name="Grupo 1161344" transform="translate(23.782 17.048)">
        <circle id="Elipse_11599" data-name="Elipse 11599" cx="109.889" cy="109.889" r="109.889" fill="url(#radial-gradient-2)"/>
      </g>
      <circle id="Elipse_11600" data-name="Elipse 11600" cx="92.893" cy="92.893" r="92.893" transform="translate(43.566 24.948)" fill="#fff"/>
      <g id="Grupo_1161348" data-name="Grupo 1161348" transform="translate(52.473 0)">
        <g id="Grupo_1161345" data-name="Grupo 1161345" transform="translate(5.959)">
          <path id="Trazado_996908" data-name="Trazado 996908" d="M284.325,296.826a117.685,117.685,0,0,1-77.239-28.834,2.29,2.29,0,1,1,3-3.456A113.264,113.264,0,1,0,210.1,93.424a2.29,2.29,0,0,1-3-3.456,117.844,117.844,0,1,1,77.225,206.858Z" transform="translate(-206.298 -61.144)"/>
        </g>
        <g id="Grupo_1161346" data-name="Grupo 1161346" transform="translate(0 21.692)">
          <path id="Trazado_996909" data-name="Trazado 996909" d="M217.278,88.689a8.609,8.609,0,1,1,.5-12.164A8.611,8.611,0,0,1,217.278,88.689Z" transform="translate(-202.836 -73.749)"/>
        </g>
        <g id="Grupo_1161347" data-name="Grupo 1161347" transform="translate(0 196.773)">
          <path id="Trazado_996910" data-name="Trazado 996910" d="M217.278,177.762a8.609,8.609,0,1,0,.5,12.165A8.61,8.61,0,0,0,217.278,177.762Z" transform="translate(-202.836 -175.485)"/>
        </g>
      </g>
      <g id="Grupo_1161349" data-name="Grupo 1161349" transform="translate(0 72.568)">
        <path id="Trazado_996911" data-name="Trazado 996911" d="M210.935,139.755a15.963,15.963,0,0,0,3.347-9.159,10.146,10.146,0,0,0-2.9-7.388,9.984,9.984,0,0,0-7.453-2.969q-8.335,0-15.79,11.871l-15.79-9.348q6.185-9.6,13.58-14.525t18.822-4.925a30.3,30.3,0,0,1,20.085,7.264q8.65,7.264,8.651,19.767a26.571,26.571,0,0,1-3.473,13.076q-3.477,6.252-12.821,15.979l-15.915,16.547h34.864v17.683H173.865V178.975l25.895-26.527A113.449,113.449,0,0,0,210.935,139.755Z" transform="translate(-172.345 -103.312)"/>
      </g>
    </g>
    <g id="Grupo_1161362" data-name="Grupo 1161362" transform="translate(933.32 1159.502)">
      <g id="Grupo_1161364" data-name="Grupo 1161364" transform="translate(0 0)">
        <g id="Grupo_1161353" data-name="Grupo 1161353" transform="translate(24.16 17.048)">
          <circle id="Elipse_11601" data-name="Elipse 11601" cx="109.889" cy="109.889" r="109.889" fill="url(#radial-gradient-3)"/>
        </g>
        <circle id="Elipse_11602" data-name="Elipse 11602" cx="92.893" cy="92.893" r="92.893" transform="translate(43.944 24.948)" fill="#fff"/>
        <g id="Grupo_1161357" data-name="Grupo 1161357" transform="translate(52.851)">
          <g id="Grupo_1161354" data-name="Grupo 1161354" transform="translate(5.959)">
            <path id="Trazado_996972" data-name="Trazado 996972" d="M442.731,296.826a117.684,117.684,0,0,1-77.239-28.834,2.29,2.29,0,1,1,3-3.456,113.264,113.264,0,1,0,.014-171.113,2.29,2.29,0,1,1-3-3.456,117.845,117.845,0,1,1,77.225,206.858Z" transform="translate(-364.704 -61.144)"/>
          </g>
          <g id="Grupo_1161355" data-name="Grupo 1161355" transform="translate(0 21.692)">
            <path id="Trazado_996973" data-name="Trazado 996973" d="M375.684,88.689a8.609,8.609,0,1,1,.5-12.164A8.611,8.611,0,0,1,375.684,88.689Z" transform="translate(-361.242 -73.749)"/>
          </g>
          <g id="Grupo_1161356" data-name="Grupo 1161356" transform="translate(0 196.773)">
            <path id="Trazado_996974" data-name="Trazado 996974" d="M375.684,177.762a8.61,8.61,0,1,0,.5,12.165A8.61,8.61,0,0,0,375.684,177.762Z" transform="translate(-361.242 -175.485)"/>
          </g>
        </g>
        <g id="Grupo_1161358" data-name="Grupo 1161358" transform="translate(0 74.589)">
          <path id="Trazado_996975" data-name="Trazado 996975" d="M335.456,121.288v-16.8h54.065V118.13l-18.063,20.589q10.61,1.773,16.421,8.906a25.367,25.367,0,0,1,5.81,16.483q0,13.9-9.41,21.791t-24.064,7.9q-14.655,0-29.684-10.36l8.083-15.664q12.507,8.844,22.358,8.844a15.812,15.812,0,0,0,9.789-2.9,9.883,9.883,0,0,0,3.853-8.4,10.234,10.234,0,0,0-4.421-8.715q-4.425-3.219-12.253-3.22-4.166,0-11.747,2.4V141.247l16.927-19.958H335.456Z" transform="translate(-330.531 -104.486)"/>
        </g>
      </g>
    </g>
    <path id="Contenido" d="M25.106,11.421H20.712V24h-3.48V11.421H12.86V8.6H25.106Zm5.006,12.848a5.913,5.913,0,0,1-4.324-1.542,5.589,5.589,0,0,1-1.574-4.184,5.589,5.589,0,0,1,1.633-4.27,6.17,6.17,0,0,1,4.415-1.542,5.842,5.842,0,0,1,4.3,1.542,5.48,5.48,0,0,1,1.558,4.077,5.816,5.816,0,0,1-1.606,4.329A5.979,5.979,0,0,1,30.112,24.269Zm.086-8.937a2.264,2.264,0,0,0-1.869.827,3.647,3.647,0,0,0-.666,2.342q0,3.169,2.557,3.169,2.438,0,2.438-3.255Q32.658,15.331,30.2,15.331ZM55.786,24H52.4V17.727q0-2.4-1.762-2.4a1.619,1.619,0,0,0-1.364.72,2.958,2.958,0,0,0-.526,1.794V24H45.355V17.662q0-2.331-1.729-2.331a1.658,1.658,0,0,0-1.391.688,3.025,3.025,0,0,0-.521,1.869V24H38.319V13h3.395v1.719h.043a4.168,4.168,0,0,1,3.556-1.987,3.167,3.167,0,0,1,3.19,2.052,4.069,4.069,0,0,1,3.7-2.052q3.588,0,3.588,4.426Zm11.838,0H64.412V22.421h-.043a3.585,3.585,0,0,1-3.276,1.848,3.427,3.427,0,0,1-2.519-.908,3.253,3.253,0,0,1-.918-2.422q0-3.2,3.792-3.7l2.986-.4q0-1.8-1.955-1.8a6.673,6.673,0,0,0-3.738,1.171V13.655a8.41,8.41,0,0,1,1.939-.645,10.193,10.193,0,0,1,2.24-.279q4.705,0,4.705,4.694Zm-3.19-4.469V18.79l-2,.258q-1.654.215-1.654,1.493a1.234,1.234,0,0,0,.4.951,1.548,1.548,0,0,0,1.09.371,2.01,2.01,0,0,0,1.558-.661A2.386,2.386,0,0,0,64.433,19.531ZM87.142,24H83.748V22.485H83.7A3.806,3.806,0,0,1,80.3,24.269a4.17,4.17,0,0,1-3.319-1.456,6.025,6.025,0,0,1-1.257-4.066,6.558,6.558,0,0,1,1.386-4.372,4.52,4.52,0,0,1,3.631-1.644A3.089,3.089,0,0,1,83.7,14.257h.043V7.715h3.395Zm-3.33-5.35v-.827a2.6,2.6,0,0,0-.623-1.783,2.2,2.2,0,0,0-3.384.177,4.116,4.116,0,0,0-.634,2.433,3.561,3.561,0,0,0,.612,2.234,2.174,2.174,0,0,0,3.378-.043A3.448,3.448,0,0,0,83.812,18.65Zm16.07.816H92.707q.172,2.4,3.019,2.4A5.893,5.893,0,0,0,98.916,21v2.449a8.381,8.381,0,0,1-3.964.816,5.58,5.58,0,0,1-4.136-1.477,5.58,5.58,0,0,1-1.472-4.12,5.887,5.887,0,0,1,1.59-4.34,5.3,5.3,0,0,1,3.91-1.6,4.807,4.807,0,0,1,3.722,1.429,5.5,5.5,0,0,1,1.316,3.878Zm-3.147-2.084q0-2.363-1.912-2.363a1.826,1.826,0,0,0-1.413.677,3.072,3.072,0,0,0-.725,1.687ZM15.39,50.4H12V48.885h-.043a3.806,3.806,0,0,1-3.405,1.783,4.17,4.17,0,0,1-3.319-1.456,6.025,6.025,0,0,1-1.257-4.066,6.558,6.558,0,0,1,1.386-4.372,4.52,4.52,0,0,1,3.631-1.644,3.089,3.089,0,0,1,2.965,1.525H12V34.115H15.39Zm-3.33-5.35v-.827a2.6,2.6,0,0,0-.623-1.783,2.058,2.058,0,0,0-1.622-.709,2.045,2.045,0,0,0-1.762.886,4.115,4.115,0,0,0-.634,2.433,3.561,3.561,0,0,0,.612,2.234,2.033,2.033,0,0,0,1.7.784,2.041,2.041,0,0,0,1.681-.827A3.448,3.448,0,0,0,12.06,45.05Zm16.07.816H20.954q.172,2.4,3.019,2.4a5.893,5.893,0,0,0,3.19-.859v2.449a8.381,8.381,0,0,1-3.964.816,5.58,5.58,0,0,1-4.136-1.477,5.58,5.58,0,0,1-1.472-4.12,5.887,5.887,0,0,1,1.59-4.34,5.3,5.3,0,0,1,3.91-1.6,4.807,4.807,0,0,1,3.722,1.429,5.5,5.5,0,0,1,1.316,3.878Zm-3.147-2.084q0-2.363-1.912-2.363a1.826,1.826,0,0,0-1.413.677,3.072,3.072,0,0,0-.725,1.687ZM38.485,50a6.712,6.712,0,0,1-3.319.666,5.614,5.614,0,0,1-4.1-1.536,5.305,5.305,0,0,1-1.568-3.964,5.844,5.844,0,0,1,1.681-4.42,6.213,6.213,0,0,1,4.5-1.617,5.768,5.768,0,0,1,2.814.516v2.879a3.87,3.87,0,0,0-2.374-.795,3.128,3.128,0,0,0-2.315.854,3.187,3.187,0,0,0-.854,2.358,3.135,3.135,0,0,0,.816,2.293A3,3,0,0,0,36,48.069a4.48,4.48,0,0,0,2.481-.795ZM42.428,37.66a1.983,1.983,0,0,1-1.407-.51,1.644,1.644,0,0,1-.548-1.251,1.586,1.586,0,0,1,.548-1.246,2.3,2.3,0,0,1,2.82,0,1.593,1.593,0,0,1,.542,1.246,1.638,1.638,0,0,1-.542,1.268A2.016,2.016,0,0,1,42.428,37.66ZM44.1,50.4H40.709v-11H44.1Zm2.138-.29V47.36a7.227,7.227,0,0,0,1.67.752,5.538,5.538,0,0,0,1.574.247,3.375,3.375,0,0,0,1.423-.247.8.8,0,0,0,.521-.752.7.7,0,0,0-.236-.537,2.2,2.2,0,0,0-.607-.376,6.887,6.887,0,0,0-.811-.29q-.44-.129-.849-.29a8.131,8.131,0,0,1-1.155-.532,3.338,3.338,0,0,1-.838-.661,2.6,2.6,0,0,1-.516-.87,3.472,3.472,0,0,1-.177-1.171,3.014,3.014,0,0,1,.4-1.59,3.29,3.29,0,0,1,1.074-1.09,4.908,4.908,0,0,1,1.536-.623,8.009,8.009,0,0,1,1.8-.2,9.984,9.984,0,0,1,1.482.113,11.064,11.064,0,0,1,1.482.328v2.621a5.356,5.356,0,0,0-1.38-.564,5.823,5.823,0,0,0-1.445-.188,3.2,3.2,0,0,0-.628.059,2.07,2.07,0,0,0-.521.172.957.957,0,0,0-.354.29.668.668,0,0,0-.129.4.744.744,0,0,0,.193.516,1.679,1.679,0,0,0,.5.371,4.984,4.984,0,0,0,.693.279q.381.124.757.252a9.846,9.846,0,0,1,1.225.516,3.916,3.916,0,0,1,.94.655,2.573,2.573,0,0,1,.6.881,3.524,3.524,0,0,1-.215,2.874,3.4,3.4,0,0,1-1.128,1.128,5.115,5.115,0,0,1-1.622.634,8.992,8.992,0,0,1-1.907.2A9.83,9.83,0,0,1,46.241,50.11ZM58.358,37.66a1.983,1.983,0,0,1-1.407-.51A1.644,1.644,0,0,1,56.4,35.9a1.586,1.586,0,0,1,.548-1.246,2.3,2.3,0,0,1,2.82,0,1.593,1.593,0,0,1,.542,1.246,1.638,1.638,0,0,1-.542,1.268A2.016,2.016,0,0,1,58.358,37.66ZM60.034,50.4H56.64v-11h3.395Zm8.1.269a5.913,5.913,0,0,1-4.324-1.542,5.589,5.589,0,0,1-1.574-4.184,5.589,5.589,0,0,1,1.633-4.27,6.17,6.17,0,0,1,4.415-1.542,5.842,5.842,0,0,1,4.3,1.542,5.479,5.479,0,0,1,1.558,4.077,5.816,5.816,0,0,1-1.606,4.329A5.979,5.979,0,0,1,68.134,50.669Zm.086-8.937a2.264,2.264,0,0,0-1.869.827,3.647,3.647,0,0,0-.666,2.342q0,3.169,2.557,3.169,2.438,0,2.438-3.255Q70.68,41.731,68.22,41.731ZM86.965,50.4H83.581V44.288q0-2.557-1.826-2.557a1.812,1.812,0,0,0-1.45.677,2.578,2.578,0,0,0-.569,1.719V50.4H76.341v-11h3.395v1.74h.043a3.89,3.89,0,0,1,3.534-2.009q3.652,0,3.652,4.533Zm12.568-4.533H92.357q.172,2.4,3.019,2.4a5.893,5.893,0,0,0,3.19-.859v2.449a8.381,8.381,0,0,1-3.964.816A5.12,5.12,0,0,1,89,45.072a5.887,5.887,0,0,1,1.59-4.34,5.3,5.3,0,0,1,3.91-1.6,4.807,4.807,0,0,1,3.722,1.429,5.5,5.5,0,0,1,1.316,3.878Zm-3.147-2.084q0-2.363-1.912-2.363a1.826,1.826,0,0,0-1.413.677,3.072,3.072,0,0,0-.725,1.687Zm4.447,6.327V47.36a7.227,7.227,0,0,0,1.67.752,5.538,5.538,0,0,0,1.574.247,3.375,3.375,0,0,0,1.423-.247.8.8,0,0,0,.521-.752.7.7,0,0,0-.236-.537,2.2,2.2,0,0,0-.607-.376,6.888,6.888,0,0,0-.811-.29q-.44-.129-.849-.29a8.131,8.131,0,0,1-1.155-.532,3.338,3.338,0,0,1-.838-.661,2.6,2.6,0,0,1-.516-.87,3.472,3.472,0,0,1-.177-1.171,3.014,3.014,0,0,1,.4-1.59,3.29,3.29,0,0,1,1.074-1.09,4.908,4.908,0,0,1,1.536-.623,8.009,8.009,0,0,1,1.8-.2,9.984,9.984,0,0,1,1.482.113,11.064,11.064,0,0,1,1.482.328v2.621a5.356,5.356,0,0,0-1.38-.564,5.823,5.823,0,0,0-1.445-.188,3.2,3.2,0,0,0-.628.059,2.07,2.07,0,0,0-.521.172.957.957,0,0,0-.354.29.668.668,0,0,0-.129.4.744.744,0,0,0,.193.516,1.679,1.679,0,0,0,.5.371,4.984,4.984,0,0,0,.693.279q.381.124.757.252a9.846,9.846,0,0,1,1.225.516,3.916,3.916,0,0,1,.94.655,2.573,2.573,0,0,1,.6.881,3.524,3.524,0,0,1-.215,2.874,3.4,3.4,0,0,1-1.128,1.128,5.115,5.115,0,0,1-1.622.634,8.992,8.992,0,0,1-1.907.2A9.83,9.83,0,0,1,100.833,50.11Z" transform="translate(475.316 1252.502)" fill="#212429"/>
    <path id="Contenido-2" data-name="Contenido" d="M15.616,23.452a10.158,10.158,0,0,1-4.4.816,7.424,7.424,0,0,1-5.575-2.084,7.618,7.618,0,0,1-2.03-5.554,8.139,8.139,0,0,1,2.283-5.994,7.985,7.985,0,0,1,5.924-2.3,11.079,11.079,0,0,1,3.8.569v3.341a6.738,6.738,0,0,0-3.523-.924,4.674,4.674,0,0,0-3.5,1.364,5.062,5.062,0,0,0-1.332,3.7,4.965,4.965,0,0,0,1.257,3.561A4.44,4.44,0,0,0,11.9,21.271a7.218,7.218,0,0,0,3.717-.988Zm7.595.816a5.913,5.913,0,0,1-4.324-1.542,5.589,5.589,0,0,1-1.574-4.184,5.589,5.589,0,0,1,1.633-4.27,6.17,6.17,0,0,1,4.415-1.542,5.842,5.842,0,0,1,4.3,1.542,5.48,5.48,0,0,1,1.558,4.077,5.816,5.816,0,0,1-1.606,4.329A5.979,5.979,0,0,1,23.211,24.269Zm.086-8.937a2.264,2.264,0,0,0-1.869.827,3.647,3.647,0,0,0-.666,2.342q0,3.169,2.557,3.169,2.438,0,2.438-3.255Q25.757,15.331,23.3,15.331ZM42.042,24H38.658V17.888q0-2.557-1.826-2.557a1.812,1.812,0,0,0-1.45.677,2.578,2.578,0,0,0-.569,1.719V24H31.418V13h3.395v1.74h.043a3.89,3.89,0,0,1,3.534-2.009q3.652,0,3.652,4.533Zm13.449,0H52.1V22.485h-.043a3.806,3.806,0,0,1-3.405,1.783,4.17,4.17,0,0,1-3.319-1.456,6.025,6.025,0,0,1-1.257-4.066,6.558,6.558,0,0,1,1.386-4.372,4.52,4.52,0,0,1,3.631-1.644,3.089,3.089,0,0,1,2.965,1.525H52.1V7.715h3.395Zm-3.33-5.35v-.827a2.6,2.6,0,0,0-.623-1.783,2.2,2.2,0,0,0-3.384.177,4.115,4.115,0,0,0-.634,2.433,3.561,3.561,0,0,0,.612,2.234,2.174,2.174,0,0,0,3.378-.043A3.448,3.448,0,0,0,52.161,18.65ZM68.8,24H65.417V22.324h-.054A3.839,3.839,0,0,1,62,24.269q-3.824,0-3.824-4.63V13h3.384v6.338q0,2.331,1.848,2.331a1.828,1.828,0,0,0,1.461-.639,2.577,2.577,0,0,0,.548-1.735V13H68.8Zm11.193-.4a6.712,6.712,0,0,1-3.319.666,5.614,5.614,0,0,1-4.1-1.536A5.305,5.305,0,0,1,71,18.769a5.845,5.845,0,0,1,1.681-4.42,6.213,6.213,0,0,1,4.5-1.617,5.768,5.768,0,0,1,2.814.516v2.879a3.87,3.87,0,0,0-2.374-.795,3.128,3.128,0,0,0-2.315.854,3.187,3.187,0,0,0-.854,2.358,3.135,3.135,0,0,0,.816,2.293,3,3,0,0,0,2.245.833,4.48,4.48,0,0,0,2.481-.795Zm8.873.269a5.017,5.017,0,0,1-2.267.4q-3.588,0-3.588-3.728V15.5H81.229V13h1.783V10.626L86.4,9.659V13h2.471v2.5H86.4V19.95q0,1.719,1.364,1.719a2.3,2.3,0,0,0,1.106-.312ZM99.932,24H96.72V22.421h-.043A3.585,3.585,0,0,1,93.4,24.269a3.427,3.427,0,0,1-2.519-.908,3.253,3.253,0,0,1-.918-2.422q0-3.2,3.792-3.7l2.986-.4q0-1.8-1.955-1.8a6.673,6.673,0,0,0-3.738,1.171V13.655a8.41,8.41,0,0,1,1.939-.645,10.192,10.192,0,0,1,2.24-.279q4.705,0,4.705,4.694Zm-3.19-4.469V18.79l-2,.258q-1.654.215-1.654,1.493a1.234,1.234,0,0,0,.4.951,1.548,1.548,0,0,0,1.09.371A2.01,2.01,0,0,0,96.14,21.2,2.386,2.386,0,0,0,96.741,19.531ZM40.672,50.4H37.289V44.127q0-2.4-1.762-2.4a1.619,1.619,0,0,0-1.364.72,2.958,2.958,0,0,0-.526,1.794V50.4H30.242V44.062q0-2.331-1.729-2.331a1.658,1.658,0,0,0-1.391.688,3.025,3.025,0,0,0-.521,1.869V50.4H23.206v-11H26.6v1.719h.043A4.168,4.168,0,0,1,30.2,39.131a3.167,3.167,0,0,1,3.19,2.052,4.069,4.069,0,0,1,3.7-2.052q3.588,0,3.588,4.426Zm7.928.269a5.913,5.913,0,0,1-4.324-1.542A5.589,5.589,0,0,1,42.7,44.943a5.589,5.589,0,0,1,1.633-4.27,6.17,6.17,0,0,1,4.415-1.542,5.842,5.842,0,0,1,4.3,1.542A5.48,5.48,0,0,1,54.6,44.75,5.816,5.816,0,0,1,53,49.079,5.979,5.979,0,0,1,48.6,50.669Zm.086-8.937a2.264,2.264,0,0,0-1.869.827,3.647,3.647,0,0,0-.666,2.342q0,3.169,2.557,3.169,2.438,0,2.438-3.255Q51.146,41.731,48.686,41.731Zm15.3.73a2.945,2.945,0,0,0-1.429-.333,2.058,2.058,0,0,0-1.729.811,3.538,3.538,0,0,0-.623,2.208V50.4H56.807v-11H60.2v2.041h.043a2.937,2.937,0,0,1,2.9-2.234,2.186,2.186,0,0,1,.838.129ZM74.714,50.4H71.5V48.821h-.043a3.585,3.585,0,0,1-3.276,1.848,3.427,3.427,0,0,1-2.519-.908,3.253,3.253,0,0,1-.918-2.422q0-3.2,3.792-3.7l2.986-.4q0-1.8-1.955-1.8a6.673,6.673,0,0,0-3.738,1.171V40.055a8.41,8.41,0,0,1,1.939-.645,10.192,10.192,0,0,1,2.24-.279q4.705,0,4.705,4.694Zm-3.19-4.469V45.19l-2,.258q-1.654.215-1.654,1.493a1.234,1.234,0,0,0,.4.951,1.548,1.548,0,0,0,1.09.371,2.01,2.01,0,0,0,1.558-.661A2.386,2.386,0,0,0,71.524,45.931ZM80.794,50.4H77.4V34.115h3.395Z" transform="translate(752.191 1250.915)" fill="#212429"/>
    <path id="Contenido-3" data-name="Contenido" d="M33.506,24h-3.47V8.6h3.47ZM47.3,24H43.916V17.888q0-2.557-1.826-2.557a1.812,1.812,0,0,0-1.45.677,2.578,2.578,0,0,0-.569,1.719V24H36.675V13H40.07v1.74h.043a3.89,3.89,0,0,1,3.534-2.009q3.652,0,3.652,4.533Zm9.335-.129a5.017,5.017,0,0,1-2.267.4q-3.588,0-3.588-3.728V15.5H49V13H50.78V10.626l3.384-.967V13h2.471v2.5H54.164V19.95q0,1.719,1.364,1.719a2.3,2.3,0,0,0,1.106-.312Zm11.709-4.4H61.167q.172,2.4,3.019,2.4A5.893,5.893,0,0,0,67.376,21v2.449a8.381,8.381,0,0,1-3.964.816,5.58,5.58,0,0,1-4.136-1.477,5.58,5.58,0,0,1-1.472-4.12,5.887,5.887,0,0,1,1.59-4.34,5.3,5.3,0,0,1,3.91-1.6,4.807,4.807,0,0,1,3.722,1.429,5.5,5.5,0,0,1,1.316,3.878ZM65.2,17.383q0-2.363-1.912-2.363a1.826,1.826,0,0,0-1.413.677,3.072,3.072,0,0,0-.725,1.687Zm12.343-1.321a2.945,2.945,0,0,0-1.429-.333,2.058,2.058,0,0,0-1.729.811,3.538,3.538,0,0,0-.623,2.208V24H70.363V13h3.395v2.041H73.8a2.937,2.937,0,0,1,2.9-2.234,2.186,2.186,0,0,1,.838.129ZM90.472,13,86.379,24H82.512l-3.9-11h3.631l1.912,6.778a9.9,9.9,0,0,1,.376,1.955h.043a11.1,11.1,0,0,1,.4-1.891L86.927,13Zm11.118,6.467H94.415q.172,2.4,3.019,2.4a5.893,5.893,0,0,0,3.19-.859v2.449a8.381,8.381,0,0,1-3.964.816,5.58,5.58,0,0,1-4.136-1.477,5.58,5.58,0,0,1-1.472-4.12,5.887,5.887,0,0,1,1.59-4.34,5.3,5.3,0,0,1,3.91-1.6,4.807,4.807,0,0,1,3.722,1.429,5.5,5.5,0,0,1,1.316,3.878Zm-3.147-2.084q0-2.363-1.912-2.363a1.826,1.826,0,0,0-1.413.677,3.072,3.072,0,0,0-.725,1.687ZM114.234,24H110.85V17.888q0-2.557-1.826-2.557a1.812,1.812,0,0,0-1.45.677A2.578,2.578,0,0,0,107,17.727V24H103.61V13H107v1.74h.043a3.89,3.89,0,0,1,3.534-2.009q3.652,0,3.652,4.533Zm11.021-.4a6.712,6.712,0,0,1-3.319.666,5.614,5.614,0,0,1-4.1-1.536,5.305,5.305,0,0,1-1.568-3.964,5.845,5.845,0,0,1,1.681-4.42,6.213,6.213,0,0,1,4.5-1.617,5.768,5.768,0,0,1,2.814.516v2.879a3.87,3.87,0,0,0-2.374-.795,3.128,3.128,0,0,0-2.315.854,3.187,3.187,0,0,0-.854,2.358,3.135,3.135,0,0,0,.816,2.293,3,3,0,0,0,2.245.833,4.48,4.48,0,0,0,2.481-.795ZM129.2,11.26a1.983,1.983,0,0,1-1.407-.51,1.644,1.644,0,0,1-.548-1.251,1.586,1.586,0,0,1,.548-1.246,2.3,2.3,0,0,1,2.82,0,1.593,1.593,0,0,1,.542,1.246,1.638,1.638,0,0,1-.542,1.268A2.016,2.016,0,0,1,129.2,11.26ZM130.874,24h-3.395V13h3.395Zm8.1.269a5.913,5.913,0,0,1-4.324-1.542,5.589,5.589,0,0,1-1.574-4.184,5.589,5.589,0,0,1,1.633-4.27,6.17,6.17,0,0,1,4.415-1.542,5.842,5.842,0,0,1,4.3,1.542,5.48,5.48,0,0,1,1.558,4.077,5.816,5.816,0,0,1-1.606,4.329A5.979,5.979,0,0,1,138.973,24.269Zm.086-8.937a2.264,2.264,0,0,0-1.869.827,3.647,3.647,0,0,0-.666,2.342q0,3.169,2.557,3.169,2.438,0,2.438-3.255Q141.519,15.331,139.059,15.331ZM142.7,7.79l-3.362,3.47h-2.449l2.793-3.47ZM157.793,24H154.41V17.888q0-2.557-1.826-2.557a1.812,1.812,0,0,0-1.45.677,2.578,2.578,0,0,0-.569,1.719V24h-3.395V13h3.395v1.74h.043a3.89,3.89,0,0,1,3.534-2.009q3.652,0,3.652,4.533ZM42.868,39.4,38.4,51.281q-1.611,4.286-4.855,4.286a6.221,6.221,0,0,1-2.03-.279V52.581a2.855,2.855,0,0,0,1.472.4,1.838,1.838,0,0,0,1.826-1.235l.58-1.364L30.923,39.4h3.76l2.052,6.692a8.7,8.7,0,0,1,.3,1.472h.043a10.262,10.262,0,0,1,.354-1.45L39.506,39.4ZM58.638,50a6.712,6.712,0,0,1-3.319.666,5.614,5.614,0,0,1-4.1-1.536,5.305,5.305,0,0,1-1.568-3.964,5.844,5.844,0,0,1,1.681-4.42,6.213,6.213,0,0,1,4.5-1.617,5.768,5.768,0,0,1,2.814.516v2.879a3.87,3.87,0,0,0-2.374-.795,3.128,3.128,0,0,0-2.315.854,3.187,3.187,0,0,0-.854,2.358,3.135,3.135,0,0,0,.816,2.293,3,3,0,0,0,2.245.833,4.48,4.48,0,0,0,2.481-.795Zm11.376.4H66.8V48.821h-.043a3.585,3.585,0,0,1-3.276,1.848,3.427,3.427,0,0,1-2.519-.908,3.253,3.253,0,0,1-.918-2.422q0-3.2,3.792-3.7l2.986-.4q0-1.8-1.955-1.8a6.673,6.673,0,0,0-3.738,1.171V40.055a8.41,8.41,0,0,1,1.939-.645,10.192,10.192,0,0,1,2.24-.279q4.705,0,4.705,4.694Zm-3.19-4.469V45.19l-2,.258q-1.654.215-1.654,1.493a1.234,1.234,0,0,0,.4.951,1.548,1.548,0,0,0,1.09.371,2.01,2.01,0,0,0,1.558-.661A2.386,2.386,0,0,0,66.823,45.931ZM90.166,50.4H86.782V44.127q0-2.4-1.762-2.4a1.619,1.619,0,0,0-1.364.72,2.958,2.958,0,0,0-.526,1.794V50.4H79.735V44.062q0-2.331-1.729-2.331a1.658,1.658,0,0,0-1.391.688,3.025,3.025,0,0,0-.521,1.869V50.4H72.7v-11h3.395v1.719h.043a4.168,4.168,0,0,1,3.556-1.987,3.167,3.167,0,0,1,3.19,2.052,4.069,4.069,0,0,1,3.7-2.052q3.588,0,3.588,4.426Zm6.123-1.278h-.043V50.4H92.852V34.115h3.395v6.939h.043a4.028,4.028,0,0,1,3.577-1.923,3.925,3.925,0,0,1,3.276,1.461,6.3,6.3,0,0,1,1.149,4A6.823,6.823,0,0,1,102.949,49a4.374,4.374,0,0,1-3.588,1.665A3.466,3.466,0,0,1,96.289,49.122Zm-.1-4.641v1.128a2.575,2.575,0,0,0,.612,1.762,1.992,1.992,0,0,0,1.568.7,2.081,2.081,0,0,0,1.8-.9,4.331,4.331,0,0,0,.639-2.541,3.446,3.446,0,0,0-.585-2.132,1.976,1.976,0,0,0-1.67-.768,2.158,2.158,0,0,0-1.692.763A2.9,2.9,0,0,0,96.192,44.481Zm12.021-6.821a1.983,1.983,0,0,1-1.407-.51,1.644,1.644,0,0,1-.548-1.251,1.586,1.586,0,0,1,.548-1.246,2.3,2.3,0,0,1,2.82,0,1.593,1.593,0,0,1,.542,1.246,1.637,1.637,0,0,1-.542,1.268A2.016,2.016,0,0,1,108.213,37.66Zm1.676,12.74h-3.395v-11h3.395Zm8.1.269a5.913,5.913,0,0,1-4.324-1.542,5.589,5.589,0,0,1-1.574-4.184,5.589,5.589,0,0,1,1.633-4.27,6.17,6.17,0,0,1,4.415-1.542,5.842,5.842,0,0,1,4.3,1.542,5.479,5.479,0,0,1,1.558,4.077,5.816,5.816,0,0,1-1.606,4.329A5.979,5.979,0,0,1,117.988,50.669Zm.086-8.937a2.264,2.264,0,0,0-1.869.827,3.647,3.647,0,0,0-.666,2.342q0,3.169,2.557,3.169,2.438,0,2.438-3.255Q120.534,41.731,118.074,41.731ZM143.028,50.4h-3.395V48.885h-.043a3.806,3.806,0,0,1-3.405,1.783,4.17,4.17,0,0,1-3.319-1.456,6.025,6.025,0,0,1-1.257-4.066A6.558,6.558,0,0,1,133,40.775a4.52,4.52,0,0,1,3.631-1.644,3.089,3.089,0,0,1,2.965,1.525h.043V34.115h3.395Zm-3.33-5.35v-.827a2.6,2.6,0,0,0-.623-1.783,2.2,2.2,0,0,0-3.384.177,4.115,4.115,0,0,0-.634,2.433,3.561,3.561,0,0,0,.612,2.234,2.174,2.174,0,0,0,3.378-.043A3.448,3.448,0,0,0,139.7,45.05Zm16.07.816h-7.176q.172,2.4,3.019,2.4a5.893,5.893,0,0,0,3.19-.859v2.449a8.381,8.381,0,0,1-3.964.816,5.12,5.12,0,0,1-5.607-5.6,5.887,5.887,0,0,1,1.59-4.34,5.3,5.3,0,0,1,3.91-1.6,4.807,4.807,0,0,1,3.722,1.429,5.5,5.5,0,0,1,1.316,3.878Zm-3.147-2.084q0-2.363-1.912-2.363a1.826,1.826,0,0,0-1.413.677,3.072,3.072,0,0,0-.725,1.687ZM16.136,76.4a6.712,6.712,0,0,1-3.319.666,5.614,5.614,0,0,1-4.1-1.536,5.305,5.305,0,0,1-1.568-3.964,5.844,5.844,0,0,1,1.681-4.42,6.213,6.213,0,0,1,4.5-1.617,5.768,5.768,0,0,1,2.814.516v2.879a3.87,3.87,0,0,0-2.374-.795,3.128,3.128,0,0,0-2.315.854,3.187,3.187,0,0,0-.854,2.358,3.135,3.135,0,0,0,.816,2.293,3,3,0,0,0,2.245.833,4.48,4.48,0,0,0,2.481-.795Zm7.466.666a5.913,5.913,0,0,1-4.324-1.542,6.375,6.375,0,0,1,.059-8.454,6.17,6.17,0,0,1,4.415-1.542,5.842,5.842,0,0,1,4.3,1.542,5.48,5.48,0,0,1,1.558,4.077A5.816,5.816,0,0,1,28,75.479,5.979,5.979,0,0,1,23.6,77.069Zm.086-8.937a2.264,2.264,0,0,0-1.869.827,3.647,3.647,0,0,0-.666,2.342q0,3.169,2.557,3.169,2.438,0,2.438-3.255Q26.148,68.131,23.688,68.131ZM49.276,76.8H45.892V70.527q0-2.4-1.762-2.4a1.619,1.619,0,0,0-1.364.72,2.958,2.958,0,0,0-.526,1.794V76.8H38.845V70.462q0-2.331-1.729-2.331a1.658,1.658,0,0,0-1.391.688,3.025,3.025,0,0,0-.521,1.869V76.8H31.809v-11H35.2v1.719h.043A4.168,4.168,0,0,1,38.8,65.531a3.167,3.167,0,0,1,3.19,2.052,4.069,4.069,0,0,1,3.7-2.052q3.588,0,3.588,4.426ZM55.4,75.522h-.043V81.86H51.961V65.8h3.395v1.654H55.4A4.32,4.32,0,0,1,62.236,67,6.243,6.243,0,0,1,63.4,70.988,6.767,6.767,0,0,1,62.043,75.4a4.431,4.431,0,0,1-3.615,1.665A3.425,3.425,0,0,1,55.4,75.522Zm-.1-4.512v.881a2.8,2.8,0,0,0,.6,1.858,1.958,1.958,0,0,0,1.579.72,2.081,2.081,0,0,0,1.8-.9,4.331,4.331,0,0,0,.639-2.541q0-2.9-2.256-2.9a2.118,2.118,0,0,0-1.7.79A3.149,3.149,0,0,0,55.3,71.01Zm15.544,6.059a5.913,5.913,0,0,1-4.324-1.542,6.375,6.375,0,0,1,.059-8.454A6.17,6.17,0,0,1,71,65.531a5.842,5.842,0,0,1,4.3,1.542,5.48,5.48,0,0,1,1.558,4.077,5.816,5.816,0,0,1-1.606,4.329A5.979,5.979,0,0,1,70.846,77.069Zm.086-8.937a2.264,2.264,0,0,0-1.869.827A3.647,3.647,0,0,0,68.4,71.3q0,3.169,2.557,3.169,2.438,0,2.438-3.255Q73.392,68.131,70.932,68.131Zm15.3.73a2.945,2.945,0,0,0-1.429-.333,2.058,2.058,0,0,0-1.729.811,3.538,3.538,0,0,0-.623,2.208V76.8H79.053v-11h3.395v2.041h.043a2.937,2.937,0,0,1,2.9-2.234,2.186,2.186,0,0,1,.838.129Zm8.862,7.81a5.017,5.017,0,0,1-2.267.4q-3.588,0-3.588-3.728V68.3H87.454V65.8h1.783V63.426l3.384-.967V65.8h2.471v2.5H92.621V72.75q0,1.719,1.364,1.719a2.3,2.3,0,0,0,1.106-.312Zm11.064.129h-3.212V75.221H102.9a3.585,3.585,0,0,1-3.276,1.848,3.427,3.427,0,0,1-2.519-.908,3.253,3.253,0,0,1-.918-2.422q0-3.2,3.792-3.7l2.986-.4q0-1.8-1.955-1.8a6.673,6.673,0,0,0-3.738,1.171V66.455a8.41,8.41,0,0,1,1.939-.645,10.193,10.193,0,0,1,2.24-.279q4.705,0,4.705,4.694Zm-3.19-4.469V71.59l-2,.258q-1.654.215-1.654,1.493a1.234,1.234,0,0,0,.4.951,1.548,1.548,0,0,0,1.09.371A2.01,2.01,0,0,0,102.364,74,2.386,2.386,0,0,0,102.965,72.331ZM126.308,76.8h-3.384V70.527q0-2.4-1.762-2.4a1.619,1.619,0,0,0-1.364.72,2.958,2.958,0,0,0-.526,1.794V76.8h-3.395V70.462q0-2.331-1.729-2.331a1.658,1.658,0,0,0-1.391.688,3.025,3.025,0,0,0-.521,1.869V76.8h-3.395v-11h3.395v1.719h.043a4.168,4.168,0,0,1,3.556-1.987,3.167,3.167,0,0,1,3.19,2.052,4.069,4.069,0,0,1,3.7-2.052q3.588,0,3.588,4.426Zm4.4-12.74a1.983,1.983,0,0,1-1.407-.51,1.644,1.644,0,0,1-.548-1.251,1.586,1.586,0,0,1,.548-1.246,2.3,2.3,0,0,1,2.82,0,1.593,1.593,0,0,1,.542,1.246,1.638,1.638,0,0,1-.542,1.268A2.016,2.016,0,0,1,130.712,64.06Zm1.676,12.74h-3.395v-11h3.395Zm12.74-4.533h-7.176q.172,2.4,3.019,2.4a5.893,5.893,0,0,0,3.19-.859v2.449a8.381,8.381,0,0,1-3.964.816,5.12,5.12,0,0,1-5.607-5.6,5.887,5.887,0,0,1,1.59-4.34,5.3,5.3,0,0,1,3.91-1.6,4.807,4.807,0,0,1,3.722,1.429,5.5,5.5,0,0,1,1.316,3.878Zm-3.147-2.084q0-2.363-1.912-2.363a1.826,1.826,0,0,0-1.413.677,3.072,3.072,0,0,0-.725,1.687ZM157.772,76.8h-3.384V70.688q0-2.557-1.826-2.557a1.812,1.812,0,0,0-1.45.677,2.578,2.578,0,0,0-.569,1.719V76.8h-3.395v-11h3.395v1.74h.043a3.89,3.89,0,0,1,3.534-2.009q3.652,0,3.652,4.533Zm9.335-.129a5.017,5.017,0,0,1-2.267.4q-3.588,0-3.588-3.728V68.3h-1.783V65.8h1.783V63.426l3.384-.967V65.8h2.471v2.5h-2.471V72.75q0,1.719,1.364,1.719a2.3,2.3,0,0,0,1.106-.312Zm7.068.4a5.913,5.913,0,0,1-4.324-1.542,6.375,6.375,0,0,1,.059-8.454,6.17,6.17,0,0,1,4.415-1.542,5.842,5.842,0,0,1,4.3,1.542,5.48,5.48,0,0,1,1.558,4.077,5.816,5.816,0,0,1-1.606,4.329A5.979,5.979,0,0,1,174.175,77.069Zm.086-8.937a2.264,2.264,0,0,0-1.869.827,3.647,3.647,0,0,0-.666,2.342q0,3.169,2.557,3.169,2.438,0,2.438-3.255Q176.721,68.131,174.261,68.131Z" transform="translate(984.674 1238.83)" fill="#212429"/>
    <g id="Trazado_987435" data-name="Trazado 987435" transform="translate(1131.169 1182)" fill="#fff">
      <path d="M 28.4150390625 56.330078125 C 24.64630889892578 56.330078125 20.99057960510254 55.59207916259766 17.54939842224121 54.13657760620117 C 14.2253589630127 52.73062896728516 11.23995876312256 50.71778869628906 8.676129341125488 48.15395736694336 C 6.112298965454102 45.59012985229492 4.099449157714844 42.60472869873047 2.693499088287354 39.28067779541016 C 1.237999081611633 35.83950042724609 0.499999076128006 32.18376922607422 0.499999076128006 28.4150390625 C 0.499999076128006 24.64630889892578 1.237999081611633 20.9905891418457 2.693499088287354 17.54939842224121 C 4.099449157714844 14.2253589630127 6.112298965454102 11.23995876312256 8.676129341125488 8.676129341125488 C 11.23995876312256 6.112298965454102 14.2253589630127 4.099449157714844 17.54939842224121 2.693499088287354 C 20.9905891418457 1.237999081611633 24.64630889892578 0.499999076128006 28.4150390625 0.499999076128006 C 32.18376922607422 0.499999076128006 35.83950042724609 1.237999081611633 39.28067779541016 2.693499088287354 C 42.60472869873047 4.099449157714844 45.59012985229492 6.112298965454102 48.15395736694336 8.676129341125488 C 50.71778869628906 11.23995876312256 52.73062896728516 14.2253589630127 54.13657760620117 17.54939842224121 C 55.59207916259766 20.99057960510254 56.330078125 24.64630889892578 56.330078125 28.4150390625 C 56.330078125 32.18376922607422 55.59207916259766 35.83950042724609 54.13657760620117 39.28067779541016 C 52.73062896728516 42.60472869873047 50.71778869628906 45.59012985229492 48.15395736694336 48.15395736694336 C 45.59012985229492 50.71778869628906 42.60472869873047 52.73062896728516 39.28067779541016 54.13657760620117 C 35.83950042724609 55.59207916259766 32.18376922607422 56.330078125 28.4150390625 56.330078125 Z" stroke="none"/>
      <path d="M 28.4150390625 1 C 24.71358871459961 1 21.12339782714844 1.724708557128906 17.74417877197266 3.153999328613281 C 14.47972869873047 4.534740447998047 11.54774856567383 6.511608123779297 9.029678344726562 9.029678344726562 C 6.511608123779297 11.54774856567383 4.534740447998047 14.47972869873047 3.153999328613281 17.74417877197266 C 1.724708557128906 21.12339782714844 1 24.71358871459961 1 28.4150390625 C 1 32.11648941040039 1.724708557128906 35.70668029785156 3.153999328613281 39.08589935302734 C 4.534740447998047 42.35034942626953 6.511608123779297 45.28232955932617 9.029678344726562 47.80039978027344 C 11.54774856567383 50.3184700012207 14.47972869873047 52.29533767700195 17.74417877197266 53.67607879638672 C 21.12339782714844 55.10536956787109 24.71358871459961 55.830078125 28.4150390625 55.830078125 C 32.11648941040039 55.830078125 35.70668029785156 55.10536956787109 39.08589935302734 53.67607879638672 C 42.35034942626953 52.29533767700195 45.28232955932617 50.3184700012207 47.80039978027344 47.80039978027344 C 50.3184700012207 45.28232955932617 52.29533767700195 42.35034942626953 53.67607879638672 39.08589935302734 C 55.10536956787109 35.70668029785156 55.830078125 32.11648941040039 55.830078125 28.4150390625 C 55.830078125 24.71358871459961 55.10536956787109 21.12339782714844 53.67607879638672 17.74417877197266 C 52.29533767700195 14.47972869873047 50.3184700012207 11.54774856567383 47.80039978027344 9.029678344726562 C 45.28232955932617 6.511608123779297 42.35034942626953 4.534740447998047 39.08589935302734 3.153999328613281 C 35.70668029785156 1.724708557128906 32.11648941040039 1 28.4150390625 1 M 28.4150390625 0 C 44.10823059082031 0 56.830078125 12.72184753417969 56.830078125 28.4150390625 C 56.830078125 44.10823059082031 44.10823059082031 56.830078125 28.4150390625 56.830078125 C 12.72184753417969 56.830078125 0 44.10823059082031 0 28.4150390625 C 0 12.72184753417969 12.72184753417969 0 28.4150390625 0 Z" stroke="none" fill="#6f6e88"/>
    </g>
    <g id="Trazado_996976" data-name="Trazado 996976" transform="translate(779.007 1359)" fill="#fff">
      <path d="M 28.4150390625 56.330078125 C 24.64630889892578 56.330078125 20.99057960510254 55.59207916259766 17.54939842224121 54.13657760620117 C 14.2253589630127 52.73062896728516 11.23995876312256 50.71778869628906 8.676129341125488 48.15395736694336 C 6.112298965454102 45.59012985229492 4.099449157714844 42.60472869873047 2.693499088287354 39.28067779541016 C 1.237999081611633 35.83950042724609 0.499999076128006 32.18376922607422 0.499999076128006 28.4150390625 C 0.499999076128006 24.64630889892578 1.237999081611633 20.9905891418457 2.693499088287354 17.54939842224121 C 4.099449157714844 14.2253589630127 6.112298965454102 11.23995876312256 8.676129341125488 8.676129341125488 C 11.23995876312256 6.112298965454102 14.2253589630127 4.099449157714844 17.54939842224121 2.693499088287354 C 20.9905891418457 1.237999081611633 24.64630889892578 0.499999076128006 28.4150390625 0.499999076128006 C 32.18376922607422 0.499999076128006 35.83950042724609 1.237999081611633 39.28067779541016 2.693499088287354 C 42.60472869873047 4.099449157714844 45.59012985229492 6.112298965454102 48.15395736694336 8.676129341125488 C 50.71778869628906 11.23995876312256 52.73062896728516 14.2253589630127 54.13657760620117 17.54939842224121 C 55.59207916259766 20.99057960510254 56.330078125 24.64630889892578 56.330078125 28.4150390625 C 56.330078125 32.18376922607422 55.59207916259766 35.83950042724609 54.13657760620117 39.28067779541016 C 52.73062896728516 42.60472869873047 50.71778869628906 45.59012985229492 48.15395736694336 48.15395736694336 C 45.59012985229492 50.71778869628906 42.60472869873047 52.73062896728516 39.28067779541016 54.13657760620117 C 35.83950042724609 55.59207916259766 32.18376922607422 56.330078125 28.4150390625 56.330078125 Z" stroke="none"/>
      <path d="M 28.4150390625 1 C 24.71358871459961 1 21.12339782714844 1.724708557128906 17.74417877197266 3.153999328613281 C 14.47972869873047 4.534740447998047 11.54774856567383 6.511608123779297 9.029678344726562 9.029678344726562 C 6.511608123779297 11.54774856567383 4.534740447998047 14.47972869873047 3.153999328613281 17.74417877197266 C 1.724708557128906 21.12339782714844 1 24.71358871459961 1 28.4150390625 C 1 32.11648941040039 1.724708557128906 35.70668029785156 3.153999328613281 39.08589935302734 C 4.534740447998047 42.35034942626953 6.511608123779297 45.28232955932617 9.029678344726562 47.80039978027344 C 11.54774856567383 50.3184700012207 14.47972869873047 52.29533767700195 17.74417877197266 53.67607879638672 C 21.12339782714844 55.10536956787109 24.71358871459961 55.830078125 28.4150390625 55.830078125 C 32.11648941040039 55.830078125 35.70668029785156 55.10536956787109 39.08589935302734 53.67607879638672 C 42.35034942626953 52.29533767700195 45.28232955932617 50.3184700012207 47.80039978027344 47.80039978027344 C 50.3184700012207 45.28232955932617 52.29533767700195 42.35034942626953 53.67607879638672 39.08589935302734 C 55.10536956787109 35.70668029785156 55.830078125 32.11648941040039 55.830078125 28.4150390625 C 55.830078125 24.71358871459961 55.10536956787109 21.12339782714844 53.67607879638672 17.74417877197266 C 52.29533767700195 14.47972869873047 50.3184700012207 11.54774856567383 47.80039978027344 9.029678344726562 C 45.28232955932617 6.511608123779297 42.35034942626953 4.534740447998047 39.08589935302734 3.153999328613281 C 35.70668029785156 1.724708557128906 32.11648941040039 1 28.4150390625 1 M 28.4150390625 0 C 44.10823059082031 0 56.830078125 12.72184753417969 56.830078125 28.4150390625 C 56.830078125 44.10823059082031 44.10823059082031 56.830078125 28.4150390625 56.830078125 C 12.72184753417969 56.830078125 0 44.10823059082031 0 28.4150390625 C 0 12.72184753417969 12.72184753417969 0 28.4150390625 0 Z" stroke="none" fill="#6f6e88"/>
    </g>
    <g id="Trazado_996977" data-name="Trazado 996977" transform="translate(480.669 1137)" fill="#fff">
      <path d="M 28.4150390625 56.330078125 C 24.64630889892578 56.330078125 20.99057960510254 55.59207916259766 17.54939842224121 54.13657760620117 C 14.2253589630127 52.73062896728516 11.23995876312256 50.71778869628906 8.676129341125488 48.15395736694336 C 6.112298965454102 45.59012985229492 4.099449157714844 42.60472869873047 2.693499088287354 39.28067779541016 C 1.237999081611633 35.83950042724609 0.499999076128006 32.18376922607422 0.499999076128006 28.4150390625 C 0.499999076128006 24.64630889892578 1.237999081611633 20.9905891418457 2.693499088287354 17.54939842224121 C 4.099449157714844 14.2253589630127 6.112298965454102 11.23995876312256 8.676129341125488 8.676129341125488 C 11.23995876312256 6.112298965454102 14.2253589630127 4.099449157714844 17.54939842224121 2.693499088287354 C 20.9905891418457 1.237999081611633 24.64630889892578 0.499999076128006 28.4150390625 0.499999076128006 C 32.18376922607422 0.499999076128006 35.83950042724609 1.237999081611633 39.28067779541016 2.693499088287354 C 42.60472869873047 4.099449157714844 45.59012985229492 6.112298965454102 48.15395736694336 8.676129341125488 C 50.71778869628906 11.23995876312256 52.73062896728516 14.2253589630127 54.13657760620117 17.54939842224121 C 55.59207916259766 20.99057960510254 56.330078125 24.64630889892578 56.330078125 28.4150390625 C 56.330078125 32.18376922607422 55.59207916259766 35.83950042724609 54.13657760620117 39.28067779541016 C 52.73062896728516 42.60472869873047 50.71778869628906 45.59012985229492 48.15395736694336 48.15395736694336 C 45.59012985229492 50.71778869628906 42.60472869873047 52.73062896728516 39.28067779541016 54.13657760620117 C 35.83950042724609 55.59207916259766 32.18376922607422 56.330078125 28.4150390625 56.330078125 Z" stroke="none"/>
      <path d="M 28.4150390625 1 C 24.71358871459961 1 21.12339782714844 1.724708557128906 17.74417877197266 3.153999328613281 C 14.47972869873047 4.534740447998047 11.54774856567383 6.511608123779297 9.029678344726562 9.029678344726562 C 6.511608123779297 11.54774856567383 4.534740447998047 14.47972869873047 3.153999328613281 17.74417877197266 C 1.724708557128906 21.12339782714844 1 24.71358871459961 1 28.4150390625 C 1 32.11648941040039 1.724708557128906 35.70668029785156 3.153999328613281 39.08589935302734 C 4.534740447998047 42.35034942626953 6.511608123779297 45.28232955932617 9.029678344726562 47.80039978027344 C 11.54774856567383 50.3184700012207 14.47972869873047 52.29533767700195 17.74417877197266 53.67607879638672 C 21.12339782714844 55.10536956787109 24.71358871459961 55.830078125 28.4150390625 55.830078125 C 32.11648941040039 55.830078125 35.70668029785156 55.10536956787109 39.08589935302734 53.67607879638672 C 42.35034942626953 52.29533767700195 45.28232955932617 50.3184700012207 47.80039978027344 47.80039978027344 C 50.3184700012207 45.28232955932617 52.29533767700195 42.35034942626953 53.67607879638672 39.08589935302734 C 55.10536956787109 35.70668029785156 55.830078125 32.11648941040039 55.830078125 28.4150390625 C 55.830078125 24.71358871459961 55.10536956787109 21.12339782714844 53.67607879638672 17.74417877197266 C 52.29533767700195 14.47972869873047 50.3184700012207 11.54774856567383 47.80039978027344 9.029678344726562 C 45.28232955932617 6.511608123779297 42.35034942626953 4.534740447998047 39.08589935302734 3.153999328613281 C 35.70668029785156 1.724708557128906 32.11648941040039 1 28.4150390625 1 M 28.4150390625 0 C 44.10823059082031 0 56.830078125 12.72184753417969 56.830078125 28.4150390625 C 56.830078125 44.10823059082031 44.10823059082031 56.830078125 28.4150390625 56.830078125 C 12.72184753417969 56.830078125 0 44.10823059082031 0 28.4150390625 C 0 12.72184753417969 12.72184753417969 0 28.4150390625 0 Z" stroke="none" fill="#6f6e88"/>
    </g>
  </g>
</svg>
