<svg xmlns="http://www.w3.org/2000/svg" xmlns:xlink="http://www.w3.org/1999/xlink" width="108" height="108" viewBox="0 0 108 108">
  <defs>
    <filter id="Trazado_982547" x="0" y="0" width="108" height="108" filterUnits="userSpaceOnUse">
      <feOffset dy="3" input="SourceAlpha"/>
      <feGaussianBlur stdDeviation="3" result="blur"/>
      <feFlood flood-opacity="0.161"/>
      <feComposite operator="in" in2="blur"/>
      <feComposite in="SourceGraphic"/>
    </filter>
  </defs>
  <g id="Grupo_1160672" data-name="Grupo 1160672" transform="translate(-171 -2931)">
    <g id="Grupo_1160541" data-name="Grupo 1160541" transform="translate(0 1382)">
      <g id="Grupo_1153955" data-name="Grupo 1153955" transform="translate(-83 1036)">
        <g id="Grupo_1149598" data-name="Grupo 1149598" transform="translate(80 315)">
          <g id="Grupo_1148770" data-name="Grupo 1148770" transform="translate(-27 -2583)">
            <g id="Grupo_1146954" data-name="Grupo 1146954" transform="translate(-415 -1202)">
              <g transform="matrix(1, 0, 0, 1, 616, 3983)" filter="url(#Trazado_982547)">
                <g id="Trazado_982547-2" data-name="Trazado 982547" transform="translate(9 6)" fill="#eaf5f4">
                  <path d="M 45 88.5 C 39.12687683105469 88.5 33.43022537231445 87.35007476806641 28.06830024719238 85.08217620849609 C 22.88852500915527 82.89131164550781 18.23629951477051 79.75458526611328 14.2408504486084 75.75914764404297 C 10.24541282653809 71.76370239257812 7.108687400817871 67.11147308349609 4.917825222015381 61.93170166015625 C 2.649924993515015 56.56977462768555 1.5 50.87312316894531 1.5 45 C 1.5 39.12687683105469 2.649924993515015 33.43022537231445 4.917825222015381 28.06830024719238 C 7.108687400817871 22.88852500915527 10.24541282653809 18.23629951477051 14.2408504486084 14.2408504486084 C 18.23629951477051 10.24541282653809 22.88852500915527 7.108687400817871 28.06830024719238 4.917825222015381 C 33.43022537231445 2.649924993515015 39.12687683105469 1.5 45 1.5 C 50.87312316894531 1.5 56.56977462768555 2.649924993515015 61.93170166015625 4.917825222015381 C 67.11147308349609 7.108687400817871 71.76370239257812 10.24541282653809 75.75914764404297 14.2408504486084 C 79.75458526611328 18.23629951477051 82.89131164550781 22.88852500915527 85.08217620849609 28.06830024719238 C 87.35007476806641 33.43022537231445 88.5 39.12687683105469 88.5 45 C 88.5 50.87312316894531 87.35007476806641 56.56977462768555 85.08217620849609 61.93170166015625 C 82.89131164550781 67.11147308349609 79.75458526611328 71.76370239257812 75.75914764404297 75.75914764404297 C 71.76370239257812 79.75458526611328 67.11147308349609 82.89131164550781 61.93170166015625 85.08217620849609 C 56.56977462768555 87.35007476806641 50.87312316894531 88.5 45 88.5 Z" stroke="none"/>
                  <path d="M 45 3 C 39.32871246337891 3 33.82865524291992 4.110054016113281 28.65262985229492 6.299339294433594 C 23.65165710449219 8.414573669433594 19.15968322753906 11.44334411621094 15.301513671875 15.301513671875 C 11.44334411621094 19.15968322753906 8.414573669433594 23.65165710449219 6.299339294433594 28.65262985229492 C 4.110054016113281 33.82865524291992 3 39.32871246337891 3 45 C 3 50.67128753662109 4.110054016113281 56.17134475708008 6.299339294433594 61.34737396240234 C 8.414573669433594 66.34834289550781 11.44334411621094 70.84031677246094 15.301513671875 74.698486328125 C 19.15968322753906 78.55665588378906 23.65165710449219 81.58542633056641 28.65262985229492 83.70066070556641 C 33.82865524291992 85.88994598388672 39.32871246337891 87 45 87 C 50.67128753662109 87 56.17134475708008 85.88994598388672 61.34737396240234 83.70066070556641 C 66.34834289550781 81.58542633056641 70.84031677246094 78.55665588378906 74.698486328125 74.698486328125 C 78.55665588378906 70.84031677246094 81.58542633056641 66.34834289550781 83.70066070556641 61.34737396240234 C 85.88994598388672 56.17134475708008 87 50.67128753662109 87 45 C 87 39.32871246337891 85.88994598388672 33.82865524291992 83.70066070556641 28.65262985229492 C 81.58542633056641 23.65165710449219 78.55665588378906 19.15968322753906 74.698486328125 15.301513671875 C 70.84031677246094 11.44334411621094 66.34834289550781 8.414573669433594 61.34737396240234 6.299339294433594 C 56.17134475708008 4.110054016113281 50.67128753662109 3 45 3 M 45 0 C 69.85281372070312 0 90 20.14718627929688 90 45 C 90 69.85281372070312 69.85281372070312 90 45 90 C 20.14718627929688 90 0 69.85281372070312 0 45 C 0 20.14718627929688 20.14718627929688 0 45 0 Z" stroke="none" fill="#235a53"/>
                </g>
              </g>
            </g>
          </g>
        </g>
      </g>
    </g>
    <g id="filosofia" transform="translate(198 2954.024)">
      <path id="Trazado_995226" data-name="Trazado 995226" d="M176.832,76.285c0,6.479-8.577,11.731-19.157,11.731s-19.157-5.252-19.157-11.731,8.577-8.975,19.157-8.975S176.832,69.806,176.832,76.285Z" transform="translate(-124.016 -59.389)" fill="#c8c1c9"/>
      <path id="Trazado_995227" data-name="Trazado 995227" d="M198.721,87.182a6.225,6.225,0,0,1,1.606,4.25c0,6.479-8.577,11.731-19.157,11.731a27.465,27.465,0,0,1-11.995-2.585c3.434,3.153,9.294,5.23,15.947,5.23,10.58,0,19.157-5.252,19.157-11.731C204.279,90.854,202.156,88.617,198.721,87.182Z" transform="translate(-151.464 -77.181)" fill="#a698a6"/>
      <path id="Trazado_995228" data-name="Trazado 995228" d="M220.384,24.166c0,11.319-5.995,20.494-13.39,20.494s-13.39-9.176-13.39-20.494,5.995-15.68,13.39-15.68S220.384,12.847,220.384,24.166Z" transform="translate(-173.336 -6.724)" fill="#ffcbbe"/>
      <path id="Trazado_995229" data-name="Trazado 995229" d="M245.387,30.172a20.1,20.1,0,0,1,1.876,9.189c0,11.319-5.995,20.494-13.39,20.494a9.879,9.879,0,0,1-6.235-2.354c2.446,4.043,5.943,6.575,9.827,6.575,7.395,0,13.39-9.176,13.39-20.494C250.855,36.8,248.7,32.517,245.387,30.172Z" transform="translate(-203.807 -26.139)" fill="#fdad9d"/>
      <path id="Trazado_995230" data-name="Trazado 995230" d="M194.31,173.506a1.008,1.008,0,0,0-1.944.181,23.2,23.2,0,0,1-5.715,12.456,2.593,2.593,0,0,1-3.609.1,5.966,5.966,0,0,0-8.094,0,2.593,2.593,0,0,1-3.609-.1,23.2,23.2,0,0,1-5.715-12.456,1.008,1.008,0,0,0-1.944-.181,26.863,26.863,0,0,0-1.349,8.931c0,13.819,7.461,25.021,16.664,25.021s16.664-11.2,16.664-25.021A26.86,26.86,0,0,0,194.31,173.506Z" transform="translate(-145.336 -153.871)" fill="#c8c1c9"/>
      <path id="Trazado_995231" data-name="Trazado 995231" d="M313.95,173.506a1.008,1.008,0,0,0-1.944.181,27.344,27.344,0,0,1-2.1,7.039c.026.556.041,1.125.041,1.711,0,12.452-6.058,22.777-13.99,24.7a11.329,11.329,0,0,0,2.674.322c9.2,0,16.664-11.2,16.664-25.021A26.861,26.861,0,0,0,313.95,173.506Z" transform="translate(-264.977 -153.871)" fill="#a698a6"/>
      <ellipse id="Elipse_11551" data-name="Elipse 11551" cx="3.288" cy="2.393" rx="3.288" ry="2.393" transform="translate(30.37 23.055)" fill="#fa6931"/>
      <path id="Trazado_995232" data-name="Trazado 995232" d="M311.3,211.876a4.375,4.375,0,0,0-1.193.163,2.234,2.234,0,0,1,0,4.459,4.377,4.377,0,0,0,1.193.163c1.816,0,3.288-1.071,3.288-2.393S313.115,211.876,311.3,211.876Z" transform="translate(-277.641 -188.821)" fill="#fc5327"/>
      <path id="Trazado_995233" data-name="Trazado 995233" d="M256.587,197.011a6.883,6.883,0,0,0-7.293-3.342A6.883,6.883,0,0,0,242,197.011a7.5,7.5,0,0,0-1.138,4.392c0,.007,0,.013,0,.019a.774.774,0,0,0,1.481.233,7.608,7.608,0,0,1,13.9,0,.774.774,0,0,0,1.48-.233c0-.006,0-.013,0-.019A7.5,7.5,0,0,0,256.587,197.011Z" transform="translate(-215.636 -172.375)" fill="#c8c1c9"/>
      <path id="Trazado_995234" data-name="Trazado 995234" d="M329.485,197.022a6.9,6.9,0,0,0-7.212-3.36,7.328,7.328,0,0,1,4.615,3.36,7.69,7.69,0,0,1,1.048,2.756,7.62,7.62,0,0,1,1.21,1.9.772.772,0,0,0,1.469-.183c0-.026.006-.053.008-.08A7.5,7.5,0,0,0,329.485,197.022Z" transform="translate(-288.534 -172.386)" fill="#a698a6"/>
      <path id="Trazado_995235" data-name="Trazado 995235" d="M20.77,19.755a4.563,4.563,0,0,0-4.563-4.563H12.073a4.563,4.563,0,1,0,0,9.126H15.7a.164.164,0,0,1,.084.023l2.965,1.771a.456.456,0,0,0,.671-.523l-.591-1.965a.164.164,0,0,1,.062-.18,4.556,4.556,0,0,0,1.879-3.689Z" transform="translate(-6.724 -12.728)" fill="#fbcb80"/>
      <path id="Trazado_995236" data-name="Trazado 995236" d="M62.374,23.444a4.556,4.556,0,0,0,1.879-3.71,4.612,4.612,0,0,0-4.638-4.543H56.077a4.562,4.562,0,0,1,3.153,7.861,1.251,1.251,0,0,0-.321,1.265h.276a.163.163,0,0,1,.084.023l2.965,1.771a.456.456,0,0,0,.671-.523l-.591-1.965A.164.164,0,0,1,62.374,23.444Z" transform="translate(-50.206 -12.728)" fill="#f9c36e"/>
      <circle id="Elipse_11552" data-name="Elipse 11552" cx="1.106" cy="1.106" r="1.106" transform="translate(10.118 19.045)"/>
      <circle id="Elipse_11553" data-name="Elipse 11553" cx="1.934" cy="1.934" r="1.934" transform="translate(6.349 14.872)" fill="#fbcb80"/>
      <path id="Trazado_995237" data-name="Trazado 995237" d="M64.189,134.786a1.93,1.93,0,0,1-2.467,2.467,1.933,1.933,0,1,0,2.467-2.467Z" transform="translate(-55.26 -119.801)" fill="#f9c36e"/>
      <path id="Trazado_995238" data-name="Trazado 995238" d="M170.9,16.9c0-2.582-1.278-6.057-7.3-8.092a12.628,12.628,0,0,0-3.654-4.947.786.786,0,0,0-.991,1.221c3.054,2.478,4.6,6.637,4.6,12.364,0,.974-.046,1.952-.137,2.907a.808.808,0,0,0,0,.091,24.433,24.433,0,0,1-3.246,8.575,8.22,8.22,0,0,0-.89-4.14.786.786,0,1,0-1.4.709,6.648,6.648,0,0,1,.725,3.336,8.394,8.394,0,0,0-15.3,0,6.776,6.776,0,0,1,1.025-3.872,6.125,6.125,0,0,1,6.438-2.992.785.785,0,0,0,.373,0,5.741,5.741,0,0,1,4.835,1.187.786.786,0,0,0,.973-1.235,7.356,7.356,0,0,0-5.994-1.522,7.74,7.74,0,0,0-7.961,3.735,8.243,8.243,0,0,0-1.256,4.794,24.394,24.394,0,0,1-3.233-8.505c-.1-1.007-.153-2.04-.153-3.068,0-9.6,4.476-14.894,12.6-14.894a14.108,14.108,0,0,1,5.313.954.786.786,0,1,0,.59-1.457,15.667,15.667,0,0,0-5.9-1.069,13.543,13.543,0,0,0-10.033,3.835,13.059,13.059,0,0,0-2.607,3.99c-6.029,2.036-7.3,5.518-7.3,8.094a9.361,9.361,0,0,0,2.882,6.514,32.532,32.532,0,0,0-.389,5.157,35.392,35.392,0,0,0,2.708,13.841.786.786,0,0,0,1.445-.62,33.809,33.809,0,0,1-2.581-13.221,26.226,26.226,0,0,1,1.3-8.67.193.193,0,0,1,.223-.141.2.2,0,0,1,.2.186,23.934,23.934,0,0,0,5.928,12.88,3.4,3.4,0,0,0,4.706.13,5.18,5.18,0,0,1,7.027,0,3.4,3.4,0,0,0,4.706-.13,23.936,23.936,0,0,0,5.928-12.88.2.2,0,0,1,.2-.186.2.2,0,0,1,.224.141,26.223,26.223,0,0,1,1.3,8.67c0,13.363-7.123,24.234-15.878,24.234-4.559,0-8.91-3.019-11.937-8.284a.786.786,0,1,0-1.363.784c3.315,5.766,8.163,9.072,13.3,9.072,4.723,0,9.14-2.727,12.438-7.679A32.988,32.988,0,0,0,168.4,28.566a32.521,32.521,0,0,0-.389-5.157A9.362,9.362,0,0,0,170.9,16.9ZM153.3,25.976a2.742,2.742,0,0,1-2.355,1.079,2.675,2.675,0,0,1-2.351-1.077,6.793,6.793,0,0,1,4.706,0Zm-18.406-6.6a21.611,21.611,0,0,0-.615,2.089,7.413,7.413,0,0,1-1.7-4.567c0-2.686,1.7-4.753,5.045-6.157a24.292,24.292,0,0,0-.85,6.7c0,.251,0,.5.009.753l-.043-.006a1.764,1.764,0,0,0-1.847,1.185ZM155.533,31.8a6.753,6.753,0,0,0-9.161,0,1.814,1.814,0,0,1-2.513-.073,15.719,15.719,0,0,1-1.125-1.293,1.613,1.613,0,0,0,.285.077,1.636,1.636,0,0,0,.279.024,1.548,1.548,0,0,0,1.424-.932,6.818,6.818,0,0,1,2.467-2.909,4.612,4.612,0,0,0,7.516-.007,6.819,6.819,0,0,1,2.477,2.916,1.551,1.551,0,0,0,1.7.908,1.611,1.611,0,0,0,.285-.077,15.713,15.713,0,0,1-1.126,1.293,1.814,1.814,0,0,1-2.513.073Zm9.629-13.607-.043.006q.009-.376.009-.753a24.377,24.377,0,0,0-.845-6.7c3.346,1.4,5.04,3.47,5.04,6.156a7.413,7.413,0,0,1-1.7,4.567,21.623,21.623,0,0,0-.615-2.089A1.764,1.764,0,0,0,165.161,18.19Z" transform="translate(-117.294 0)"/>
      <circle id="Elipse_11554" data-name="Elipse 11554" cx="1.417" cy="1.417" r="1.417" transform="translate(26.621 20.019) rotate(-89.714)"/>
      <circle id="Elipse_11555" data-name="Elipse 11555" cx="1.417" cy="1.417" r="1.417" transform="translate(37.836 20.166) rotate(-89.714)"/>
      <path id="Trazado_995239" data-name="Trazado 995239" d="M245.978,128.572a.786.786,0,0,0,.522-1.374,4.248,4.248,0,0,0-5.076,0,.786.786,0,0,0,1.043,1.176,2.73,2.73,0,0,1,2.99,0A.783.783,0,0,0,245.978,128.572Z" transform="translate(-215.912 -112.254)"/>
      <path id="Trazado_995240" data-name="Trazado 995240" d="M353.125,129.492a.786.786,0,0,0,.522-1.374,4.248,4.248,0,0,0-5.076,0,.786.786,0,0,0,1.043,1.177,2.73,2.73,0,0,1,2.99,0A.783.783,0,0,0,353.125,129.492Z" transform="translate(-311.842 -113.078)"/>
      <path id="Trazado_995241" data-name="Trazado 995241" d="M12.98,17.079a5.348,5.348,0,0,0-3.5-9.4H5.349a5.349,5.349,0,1,0,0,10.7H8.806l2.817,1.683A1.242,1.242,0,0,0,13.45,18.64ZM11.7,16.086a.952.952,0,0,0-.352,1.042l.346,1.15L9.465,16.943a.95.95,0,0,0-.487-.134H5.349a3.777,3.777,0,0,1,0-7.554H9.483A3.777,3.777,0,0,1,11.7,16.086Z" transform="translate(0 -6.005)"/>
      <path id="Trazado_995242" data-name="Trazado 995242" d="M47.208,36.689H42.731a.786.786,0,1,0,0,1.572h4.477a.786.786,0,0,0,0-1.572Z" transform="translate(-37.554 -31.974)"/>
      <path id="Trazado_995243" data-name="Trazado 995243" d="M47.208,64.806H42.731a.786.786,0,1,0,0,1.572h4.477a.786.786,0,0,0,0-1.572Z" transform="translate(-37.554 -57.148)"/>
      <path id="Trazado_995244" data-name="Trazado 995244" d="M55.859,131.642a2.719,2.719,0,1,1,2.719-2.719A2.722,2.722,0,0,1,55.859,131.642Zm0-3.868a1.149,1.149,0,1,0,1.149,1.149A1.15,1.15,0,0,0,55.859,127.774Z" transform="translate(-47.577 -112.118)"/>
    </g>
  </g>
</svg>
