<svg xmlns="http://www.w3.org/2000/svg" xmlns:xlink="http://www.w3.org/1999/xlink" width="113" height="113" viewBox="0 0 113 113">
  <defs>
    <filter id="Trazado_982547" x="0" y="0" width="113" height="113" filterUnits="userSpaceOnUse">
      <feOffset dy="3" input="SourceAlpha"/>
      <feGaussianBlur stdDeviation="3" result="blur"/>
      <feFlood flood-opacity="0.161"/>
      <feComposite operator="in" in2="blur"/>
      <feComposite in="SourceGraphic"/>
    </filter>
  </defs>
  <g id="Grupo_1160707" data-name="Grupo 1160707" transform="translate(-742 -2235)">
    <g id="Grupo_1160652" data-name="Grupo 1160652" transform="translate(0 -3477)">
      <g id="Grupo_1159768" data-name="Grupo 1159768" transform="translate(0 1505)">
        <g id="Grupo_1158169" data-name="Grupo 1158169" transform="translate(-1 -1314)">
          <g id="Grupo_1152577" data-name="Grupo 1152577" transform="translate(-0.5 1205.621)">
            <g id="Grupo_1148634" data-name="Grupo 1148634" transform="translate(488.454 600.047)">
              <g id="Grupo_1148525" data-name="Grupo 1148525" transform="translate(264.046 3721.333)">
                <g transform="matrix(1, 0, 0, 1, -9, -6)" filter="url(#Trazado_982547)">
                  <g id="Trazado_982547-2" data-name="Trazado 982547" transform="translate(9 6)" fill="#fcebe9">
                    <path d="M 47.5 93.5 C 41.28937149047852 93.5 35.26533508300781 92.28397369384766 29.59518623352051 89.88570404052734 C 24.11771965026855 87.56893157958984 19.19813346862793 84.25196075439453 14.97309303283691 80.02691650390625 C 10.74804019927979 75.80186462402344 7.431066513061523 70.88229370117188 5.114293098449707 65.40481567382812 C 2.716026782989502 59.73468017578125 1.5 53.71062850952148 1.5 47.5 C 1.5 41.28937149047852 2.716026782989502 35.26533508300781 5.114293098449707 29.59518623352051 C 7.431066513061523 24.11771965026855 10.74804019927979 19.19813346862793 14.97309303283691 14.97309303283691 C 19.19813346862793 10.74804019927979 24.11771965026855 7.431066513061523 29.59518623352051 5.114293098449707 C 35.26533508300781 2.716026782989502 41.28937149047852 1.5 47.5 1.5 C 53.71062850952148 1.5 59.73468017578125 2.716026782989502 65.40481567382812 5.114293098449707 C 70.88229370117188 7.431066513061523 75.80186462402344 10.74804019927979 80.02691650390625 14.97309303283691 C 84.25196075439453 19.19813346862793 87.56893157958984 24.11771965026855 89.88570404052734 29.59518623352051 C 92.28397369384766 35.26533508300781 93.5 41.28937149047852 93.5 47.5 C 93.5 53.71062850952148 92.28397369384766 59.73468017578125 89.88570404052734 65.40481567382812 C 87.56893157958984 70.88229370117188 84.25196075439453 75.80186462402344 80.02691650390625 80.02691650390625 C 75.80186462402344 84.25196075439453 70.88229370117188 87.56893157958984 65.40481567382812 89.88570404052734 C 59.73468017578125 92.28397369384766 53.71062850952148 93.5 47.5 93.5 Z" stroke="none"/>
                    <path d="M 47.5 3 C 41.49121475219727 3 35.66376876831055 4.176155090332031 30.17950439453125 6.495796203613281 C 24.88084411621094 8.736953735351562 20.12152099609375 11.94598388671875 16.03375244140625 16.03375244140625 C 11.94598388671875 20.12152099609375 8.736953735351562 24.88084411621094 6.495796203613281 30.17950439453125 C 4.176155090332031 35.66376876831055 3 41.49121475219727 3 47.5 C 3 53.50878524780273 4.176155090332031 59.33623123168945 6.495796203613281 64.82049560546875 C 8.736953735351562 70.11915588378906 11.94598388671875 74.87847900390625 16.03375244140625 78.96624755859375 C 20.12152099609375 83.05401611328125 24.88084411621094 86.26304626464844 30.17950439453125 88.50419616699219 C 35.66376876831055 90.82384490966797 41.49121475219727 92 47.5 92 C 53.50878524780273 92 59.33623123168945 90.82384490966797 64.82049560546875 88.50419616699219 C 70.11915588378906 86.26304626464844 74.87847900390625 83.05401611328125 78.96624755859375 78.96624755859375 C 83.05401611328125 74.87847900390625 86.26304626464844 70.11915588378906 88.50419616699219 64.82049560546875 C 90.82384490966797 59.33623123168945 92 53.50878524780273 92 47.5 C 92 41.49121475219727 90.82384490966797 35.66376876831055 88.50419616699219 30.17950439453125 C 86.26304626464844 24.88084411621094 83.05401611328125 20.12152099609375 78.96624755859375 16.03375244140625 C 74.87847900390625 11.94598388671875 70.11915588378906 8.736953735351562 64.82049560546875 6.495796203613281 C 59.33623123168945 4.176155090332031 53.50878524780273 3 47.5 3 M 47.5 0 C 73.7335205078125 0 95 21.2664794921875 95 47.5 C 95 73.7335205078125 73.7335205078125 95 47.5 95 C 21.2664794921875 95 0 73.7335205078125 0 47.5 C 0 21.2664794921875 21.2664794921875 0 47.5 0 Z" stroke="none" fill="#e44b36"/>
                  </g>
                </g>
              </g>
            </g>
          </g>
        </g>
      </g>
    </g>
    <g id="balanced_3696458" transform="translate(765.25 2255.329)">
      <g id="Grupo_1160700" data-name="Grupo 1160700" transform="translate(3.35 4.271)">
        <path id="Trazado_995314" data-name="Trazado 995314" d="M114.643,46.927v4.159a7.456,7.456,0,0,0-12.343,0V46.927a6.172,6.172,0,1,1,12.343,0Z" transform="translate(-78.994 -32.446)" fill="#fc5d3d"/>
        <g id="Grupo_1160696" data-name="Grupo 1160696" transform="translate(23.306 13.686)">
          <path id="Trazado_995315" data-name="Trazado 995315" d="M114.643,65.559v2.555a7.456,7.456,0,0,0-12.343,0V65.559a9.138,9.138,0,0,1,12.343,0Z" transform="translate(-102.3 -63.16)" fill="#b34f33"/>
        </g>
        <path id="Trazado_995316" data-name="Trazado 995316" d="M111.664,79.41a7.45,7.45,0,0,1-14.452,0,7.491,7.491,0,0,1,0-3.609,7.379,7.379,0,0,1,1.054-2.365,7.456,7.456,0,0,1,12.343,0,7.379,7.379,0,0,1,1.054,2.365,7.491,7.491,0,0,1,0,3.609Z" transform="translate(-74.96 -54.795)" fill="#efefef"/>
        <g id="Grupo_1160699" data-name="Grupo 1160699" transform="translate(12.258 9.95)">
          <g id="Grupo_1160697" data-name="Grupo 1160697">
            <path id="Trazado_995317" data-name="Trazado 995317" d="M61.431,50.668c-.983-.325-2-.609-2.569-3.064-.525,2.262-1.366,2.667-2.569,3.064,1.961.648,2.257,1.721,2.569,3.064C59.4,51.417,60.289,51.046,61.431,50.668Z" transform="translate(-56.294 -47.604)" fill="#f0c020"/>
          </g>
          <g id="Grupo_1160698" data-name="Grupo 1160698" transform="translate(29.302)">
            <path id="Trazado_995318" data-name="Trazado 995318" d="M183.451,50.668c-.983-.325-2-.609-2.569-3.064-.525,2.262-1.366,2.667-2.569,3.064,1.961.648,2.257,1.721,2.569,3.064C181.42,51.417,182.309,51.046,183.451,50.668Z" transform="translate(-178.314 -47.604)" fill="#f0c020"/>
          </g>
        </g>
        <path id="Trazado_995319" data-name="Trazado 995319" d="M113.053,147.461H99.24l1.667-21.625.156-2.036a7.437,7.437,0,0,0,10.168,0l.156,2.034Z" transform="translate(-76.669 -95.552)" fill="#72c2e9"/>
        <path id="Trazado_995320" data-name="Trazado 995320" d="M99.832,226.021v1.712a1.2,1.2,0,0,1-1.2,1.2H75a1.2,1.2,0,0,1-1.2-1.2v-1.712a3.691,3.691,0,0,1,3.691-3.691h18.65A3.691,3.691,0,0,1,99.832,226.021Z" transform="translate(-57.338 -170.42)" fill="#7d7b79"/>
        <path id="Trazado_995321" data-name="Trazado 995321" d="M29.986,87.125H10.323a1.8,1.8,0,0,1-1.8-1.8v-3.2a1.8,1.8,0,0,1,3.609,0v1.4H29.986A7.491,7.491,0,0,0,29.986,87.125Z" transform="translate(-7.735 -62.511)" fill="#f2bf22"/>
        <path id="Trazado_995322" data-name="Trazado 995322" d="M179.556,82.12v3.2a1.8,1.8,0,0,1-1.8,1.8H158.09a7.491,7.491,0,0,0,0-3.609h17.857v-1.4a1.8,1.8,0,0,1,3.609,0Z" transform="translate(-121.386 -62.511)" fill="#f2bf22"/>
        <path id="Trazado_995323" data-name="Trazado 995323" d="M91.892,93.637a7.491,7.491,0,0,0,0,3.609H90.17a9.132,9.132,0,0,1,0-3.609Z" transform="translate(-69.64 -72.632)" fill="#e8a61f"/>
        <path id="Trazado_995324" data-name="Trazado 995324" d="M116.5,123.8l.156,2.034a9.117,9.117,0,0,1-10.48,0l.156-2.036A7.437,7.437,0,0,0,116.5,123.8Z" transform="translate(-81.942 -95.55)" fill="#4ba5c8"/>
        <path id="Trazado_995325" data-name="Trazado 995325" d="M159.812,97.246H158.09a7.491,7.491,0,0,0,0-3.609h1.722A9.132,9.132,0,0,1,159.812,97.246Z" transform="translate(-121.386 -72.632)" fill="#e8a61f"/>
        <path id="Trazado_995326" data-name="Trazado 995326" d="M20.7,156.2H6.66a1.41,1.41,0,0,1-1.41-1.41v-.073a1.41,1.41,0,0,1,1.41-1.41H20.7a1.41,1.41,0,0,1,1.41,1.41v.073A1.41,1.41,0,0,1,20.7,156.2Z" transform="translate(-5.25 -117.972)" fill="#7d7b79"/>
        <path id="Trazado_995327" data-name="Trazado 995327" d="M25.122,165.35H11.041v2.375a7.04,7.04,0,1,0,14.081,0Z" transform="translate(-9.65 -127.124)" fill="#f2bf22"/>
        <path id="Trazado_995328" data-name="Trazado 995328" d="M195.986,156.2H181.944a1.41,1.41,0,0,1-1.41-1.41v-.073a1.41,1.41,0,0,1,1.41-1.41h14.043a1.41,1.41,0,0,1,1.41,1.41v.073A1.41,1.41,0,0,1,195.986,156.2Z" transform="translate(-138.441 -117.972)" fill="#7d7b79"/>
        <path id="Trazado_995329" data-name="Trazado 995329" d="M200.406,165.35H186.325v2.375a7.04,7.04,0,1,0,14.081,0Z" transform="translate(-142.841 -127.124)" fill="#f2bf22"/>
        <circle id="Elipse_11563" data-name="Elipse 11563" cx="4.153" cy="4.153" r="4.153" transform="translate(25.325 0)" fill="#ffb69f"/>
        <path id="Trazado_995330" data-name="Trazado 995330" d="M117.887,88.527a1.283,1.283,0,0,0-1.813,0l-3.133,3.133-1.489-1.489a1.282,1.282,0,0,0-1.813,1.813l2.4,2.4a1.283,1.283,0,0,0,1.813,0l4.039-4.039A1.283,1.283,0,0,0,117.887,88.527Z" transform="translate(-84.286 -68.464)" fill="#13bf6d"/>
      </g>
      <g id="Grupo_1160706" data-name="Grupo 1160706" transform="translate(2.75 3.671)">
        <g id="Grupo_1160701" data-name="Grupo 1160701" transform="translate(18.622 56.352)">
          <path id="Trazado_995331" data-name="Trazado 995331" d="M102.608,239.53H84.116a.6.6,0,1,1,0-1.2h18.491a.6.6,0,1,1,0,1.2Zm-20.893,0H80.9a.6.6,0,1,1,0-1.2h.819a.6.6,0,1,1,0,1.2Z" transform="translate(-80.296 -238.329)" fill="#efefef"/>
        </g>
        <g id="Grupo_1160702" data-name="Grupo 1160702" transform="translate(25.219 33.553)">
          <path id="Trazado_995332" data-name="Trazado 995332" d="M116.883,160.673h-8.518a.6.6,0,1,1,0-1.2h7.87l-.95-12.323a.6.6,0,0,1,1.2-.092l1,12.969A.6.6,0,0,1,116.883,160.673ZM115.1,144.755l-.055-.718a.6.6,0,1,1,1.2-.092l.055.718a.6.6,0,1,1-1.2.092Z" transform="translate(-107.765 -143.391)" fill="#c5e5fe"/>
        </g>
        <g id="Grupo_1160703" data-name="Grupo 1160703" transform="translate(8.431 40.602)">
          <path id="Trazado_995333" data-name="Trazado 995333" d="M38.458,178.822a.6.6,0,0,1,0-1.2,4.285,4.285,0,0,0,1.026-.124.6.6,0,0,1,.288,1.166A5.482,5.482,0,0,1,38.458,178.822Zm2.822-1.456a.6.6,0,0,1,.043-.848,4.286,4.286,0,0,0,1.414-3.175.6.6,0,1,1,1.2,0,5.489,5.489,0,0,1-1.81,4.066A.6.6,0,0,1,41.28,177.366Z" transform="translate(-37.858 -172.743)" fill="#f8e5b0"/>
        </g>
        <g id="Grupo_1160704" data-name="Grupo 1160704" transform="translate(50.524 40.602)">
          <path id="Trazado_995334" data-name="Trazado 995334" d="M213.742,178.822a.6.6,0,0,1,0-1.2,4.284,4.284,0,0,0,1.025-.124.6.6,0,0,1,.288,1.166A5.48,5.48,0,0,1,213.742,178.822Zm2.822-1.456a.6.6,0,0,1,.043-.848,4.287,4.287,0,0,0,1.414-3.175.6.6,0,1,1,1.2,0,5.489,5.489,0,0,1-1.81,4.066A.6.6,0,0,1,216.564,177.366Z" transform="translate(-213.142 -172.743)" fill="#f8e5b0"/>
        </g>
        <g id="Grupo_1160705" data-name="Grupo 1160705" transform="translate(0 0)">
          <path id="Trazado_995335" data-name="Trazado 995335" d="M54.21,49.34c1.692.559,1.883,1.383,2.172,2.63a.6.6,0,0,0,1.17,0c.48-2.071,1.19-2.305,2.172-2.63a.6.6,0,0,0,0-1.14c-.94-.311-1.68-.509-2.172-2.63a.6.6,0,0,0-1.17,0c-.481,2.071-1.19,2.306-2.172,2.63A.6.6,0,0,0,54.21,49.34Zm2.759-1.834a3.343,3.343,0,0,0,1.1,1.27A3.246,3.246,0,0,0,56.981,50a3.4,3.4,0,0,0-1.144-1.218A3.257,3.257,0,0,0,56.97,47.506Z" transform="translate(-41.54 -35.155)"/>
          <path id="Trazado_995336" data-name="Trazado 995336" d="M176.23,49.34c1.692.559,1.883,1.383,2.172,2.63a.6.6,0,0,0,1.17,0c.48-2.071,1.19-2.305,2.172-2.63a.6.6,0,0,0,0-1.14c-.94-.311-1.68-.509-2.172-2.63a.6.6,0,0,0-1.169,0c-.481,2.071-1.19,2.306-2.172,2.63A.6.6,0,0,0,176.23,49.34Zm2.759-1.834a3.343,3.343,0,0,0,1.1,1.27A3.246,3.246,0,0,0,179,50a3.4,3.4,0,0,0-1.144-1.218A3.255,3.255,0,0,0,178.99,47.506Z" transform="translate(-134.258 -35.155)"/>
          <circle id="Elipse_11564" data-name="Elipse 11564" cx="0.6" cy="0.6" r="0.6" transform="translate(35.287 58.513)"/>
          <path id="Trazado_995337" data-name="Trazado 995337" d="M60.9,39h-.285l-5.679-9.519h4.785a2.407,2.407,0,0,0,2.4-2.4v-3.2a2.405,2.405,0,0,0-4.81,0v.795h-16.8a7.924,7.924,0,0,0-.907-1.941V18.752a6.775,6.775,0,0,0-4.264-6.3,4.752,4.752,0,1,0-5.016,0,6.774,6.774,0,0,0-4.264,6.3v3.983a7.967,7.967,0,0,0-.908,1.941h-7.42a.6.6,0,1,0,0,1.2h7.147a7.767,7.767,0,0,0,0,2.409H5.939a1.208,1.208,0,0,1-1.2-1.2v-3.2a1.2,1.2,0,0,1,2.409,0v1.4a.6.6,0,0,0,.6.6h5.18a.6.6,0,0,0,0-1.2H8.345v-.795a2.405,2.405,0,1,0-4.81,0v3.2a2.41,2.41,0,0,0,2.4,2.4h4.785L5.045,39H4.76A2.052,2.052,0,0,0,4.141,43v1.874a7.641,7.641,0,0,0,15.281,0V43A2.052,2.052,0,0,0,18.8,39h-.285l-5.679-9.518H25.151a7.954,7.954,0,0,0,1.974,3.262l-.142,1.836a.6.6,0,1,0,1.2.094l.074-.976a7.991,7.991,0,0,0,4.57,1.427v-.012l0,.012A7.992,7.992,0,0,0,37.4,33.7L39.086,55.58H26.569l1.242-16.114a.6.6,0,1,0-1.2-.091l-1.249,16.2H23.5a4.3,4.3,0,0,0-4.291,4.291v1.712a1.8,1.8,0,0,0,1.8,1.8H36.236a.6.6,0,0,0,0-1.2H21.013a.6.6,0,0,1-.6-.6V59.872A3.1,3.1,0,0,1,23.5,56.781h18.65a3.1,3.1,0,0,1,3.091,3.091v1.712a.6.6,0,0,1-.6.6h-3.6a.6.6,0,0,0,0,1.2h3.6a1.8,1.8,0,0,0,1.8-1.8V59.872a4.3,4.3,0,0,0-4.291-4.291H40.291L38.532,32.747a7.978,7.978,0,0,0,1.975-3.262H52.818L47.138,39h-.285A2.052,2.052,0,0,0,46.234,43v1.874a7.641,7.641,0,0,0,15.281,0V43a2.013,2.013,0,0,0,1.391-1.911v-.073A2.012,2.012,0,0,0,60.9,39ZM18.221,44.873a6.44,6.44,0,1,1-12.88,0V43.1h12.88Zm1.391-3.858a.815.815,0,0,1-.809.882H4.76a.847.847,0,0,1,0-1.692H18.8A.81.81,0,0,1,19.612,41.015ZM6.443,39l5.338-8.947L17.119,39ZM57.911,25.876a.6.6,0,0,0,.6-.6v-1.4a1.2,1.2,0,0,1,2.409,0v3.2a1.2,1.2,0,0,1-1.2,1.2H40.781a7.768,7.768,0,0,0,0-2.409ZM29.276,8.423A3.552,3.552,0,1,1,32.8,11.976a3.564,3.564,0,0,1-3.521-3.552Zm3.582,4.753A5.593,5.593,0,0,1,38.4,18.752V21.27a8,8,0,0,0-5.557-2.232h-.017a8.021,8.021,0,0,0-5.569,2.233V18.752a5.59,5.59,0,0,1,5.6-5.575Zm-.03,20.753a6.845,6.845,0,1,1,6.847-6.849,6.85,6.85,0,0,1-6.847,6.849Zm21.047-3.872L59.213,39H48.537Zm6.44,14.815a6.44,6.44,0,1,1-12.88,0V43.1h12.88Zm1.391-3.785a.81.81,0,0,1-.809.809H46.853a.847.847,0,0,1,0-1.692H60.9a.81.81,0,0,1,.809.809Z" transform="translate(-2.75 -3.671)"/>
          <circle id="Elipse_11565" data-name="Elipse 11565" cx="0.6" cy="0.6" r="0.6" transform="translate(11.976 21.005)"/>
          <path id="Trazado_995338" data-name="Trazado 995338" d="M103.485,141.266a.6.6,0,1,0-.6-.648.6.6,0,0,0,.6.648Z" transform="translate(-78.837 -107.31)"/>
          <path id="Trazado_995339" data-name="Trazado 995339" d="M123.931,24.1a.6.6,0,0,0-1.2,0v0a.68.68,0,1,1-1.359,0,.6.6,0,0,0-1.2,0,1.88,1.88,0,0,0,3.761,0Z" transform="translate(-91.972 -18.738)"/>
          <path id="Trazado_995340" data-name="Trazado 995340" d="M113.751,86.2l-2.708,2.708-1.064-1.064a1.883,1.883,0,0,0-2.662,2.662l2.4,2.4a1.885,1.885,0,0,0,2.662,0l4.039-4.039a1.882,1.882,0,0,0-2.662-2.662Zm1.814,1.813-4.039,4.039a.683.683,0,0,1-.964,0l-2.4-2.4a.682.682,0,0,1,.964-.964l1.489,1.489a.6.6,0,0,0,.849,0l3.133-3.132a.7.7,0,0,1,.964,0A.683.683,0,0,1,115.564,88.016Z" transform="translate(-81.787 -65.964)"/>
        </g>
      </g>
    </g>
  </g>
</svg>
