<svg xmlns="http://www.w3.org/2000/svg" xmlns:xlink="http://www.w3.org/1999/xlink" width="113" height="113" viewBox="0 0 113 113">
  <defs>
    <filter id="Trazado_982547" x="0" y="0" width="113" height="113" filterUnits="userSpaceOnUse">
      <feOffset dy="3" input="SourceAlpha"/>
      <feGaussianBlur stdDeviation="3" result="blur"/>
      <feFlood flood-opacity="0.161"/>
      <feComposite operator="in" in2="blur"/>
      <feComposite in="SourceGraphic"/>
    </filter>
  </defs>
  <g id="Grupo_1160709" data-name="Grupo 1160709" transform="translate(-1163 -2235)">
    <g id="Grupo_1160653" data-name="Grupo 1160653" transform="translate(0 -3477)">
      <g id="Grupo_1159769" data-name="Grupo 1159769" transform="translate(0 1505)">
        <g id="Grupo_1158170" data-name="Grupo 1158170" transform="translate(-1 -1314)">
          <g id="Grupo_1152578" data-name="Grupo 1152578" transform="translate(0.046 1205.621)">
            <g id="Grupo_1148635" data-name="Grupo 1148635" transform="translate(908.908 600.047)">
              <g id="Grupo_1148525" data-name="Grupo 1148525" transform="translate(264.046 3721.333)">
                <g transform="matrix(1, 0, 0, 1, -9, -6)" filter="url(#Trazado_982547)">
                  <g id="Trazado_982547-2" data-name="Trazado 982547" transform="translate(9 6)" fill="#fcebe9">
                    <path d="M 47.5 93.5 C 41.28937149047852 93.5 35.26533508300781 92.28397369384766 29.59518623352051 89.88570404052734 C 24.11771965026855 87.56893157958984 19.19813346862793 84.25196075439453 14.97309303283691 80.02691650390625 C 10.74804019927979 75.80186462402344 7.431066513061523 70.88229370117188 5.114293098449707 65.40481567382812 C 2.716026782989502 59.73468017578125 1.5 53.71062850952148 1.5 47.5 C 1.5 41.28937149047852 2.716026782989502 35.26533508300781 5.114293098449707 29.59518623352051 C 7.431066513061523 24.11771965026855 10.74804019927979 19.19813346862793 14.97309303283691 14.97309303283691 C 19.19813346862793 10.74804019927979 24.11771965026855 7.431066513061523 29.59518623352051 5.114293098449707 C 35.26533508300781 2.716026782989502 41.28937149047852 1.5 47.5 1.5 C 53.71062850952148 1.5 59.73468017578125 2.716026782989502 65.40481567382812 5.114293098449707 C 70.88229370117188 7.431066513061523 75.80186462402344 10.74804019927979 80.02691650390625 14.97309303283691 C 84.25196075439453 19.19813346862793 87.56893157958984 24.11771965026855 89.88570404052734 29.59518623352051 C 92.28397369384766 35.26533508300781 93.5 41.28937149047852 93.5 47.5 C 93.5 53.71062850952148 92.28397369384766 59.73468017578125 89.88570404052734 65.40481567382812 C 87.56893157958984 70.88229370117188 84.25196075439453 75.80186462402344 80.02691650390625 80.02691650390625 C 75.80186462402344 84.25196075439453 70.88229370117188 87.56893157958984 65.40481567382812 89.88570404052734 C 59.73468017578125 92.28397369384766 53.71062850952148 93.5 47.5 93.5 Z" stroke="none"/>
                    <path d="M 47.5 3 C 41.49121475219727 3 35.66376876831055 4.176155090332031 30.17950439453125 6.495796203613281 C 24.88084411621094 8.736953735351562 20.12152099609375 11.94598388671875 16.03375244140625 16.03375244140625 C 11.94598388671875 20.12152099609375 8.736953735351562 24.88084411621094 6.495796203613281 30.17950439453125 C 4.176155090332031 35.66376876831055 3 41.49121475219727 3 47.5 C 3 53.50878524780273 4.176155090332031 59.33623123168945 6.495796203613281 64.82049560546875 C 8.736953735351562 70.11915588378906 11.94598388671875 74.87847900390625 16.03375244140625 78.96624755859375 C 20.12152099609375 83.05401611328125 24.88084411621094 86.26304626464844 30.17950439453125 88.50419616699219 C 35.66376876831055 90.82384490966797 41.49121475219727 92 47.5 92 C 53.50878524780273 92 59.33623123168945 90.82384490966797 64.82049560546875 88.50419616699219 C 70.11915588378906 86.26304626464844 74.87847900390625 83.05401611328125 78.96624755859375 78.96624755859375 C 83.05401611328125 74.87847900390625 86.26304626464844 70.11915588378906 88.50419616699219 64.82049560546875 C 90.82384490966797 59.33623123168945 92 53.50878524780273 92 47.5 C 92 41.49121475219727 90.82384490966797 35.66376876831055 88.50419616699219 30.17950439453125 C 86.26304626464844 24.88084411621094 83.05401611328125 20.12152099609375 78.96624755859375 16.03375244140625 C 74.87847900390625 11.94598388671875 70.11915588378906 8.736953735351562 64.82049560546875 6.495796203613281 C 59.33623123168945 4.176155090332031 53.50878524780273 3 47.5 3 M 47.5 0 C 73.7335205078125 0 95 21.2664794921875 95 47.5 C 95 73.7335205078125 73.7335205078125 95 47.5 95 C 21.2664794921875 95 0 73.7335205078125 0 47.5 C 0 21.2664794921875 21.2664794921875 0 47.5 0 Z" stroke="none" fill="#e44b36"/>
                  </g>
                </g>
              </g>
            </g>
          </g>
        </g>
      </g>
    </g>
    <g id="consciousness_1654278" transform="translate(1195 2257)">
      <path id="Trazado_995341" data-name="Trazado 995341" d="M54.1,28.554a21.132,21.132,0,1,0-42.183,1.839l-4.5,8.553v5.179H11.9V58.373H33.7L45.273,49.4V45.738A21.1,21.1,0,0,0,54.1,28.554Zm0,0" transform="translate(-6.513 -6.512)" fill="#ffdaaa"/>
      <path id="Trazado_995342" data-name="Trazado 995342" d="M147,77.358a13.511,13.511,0,1,1-13.511-13.511A13.512,13.512,0,0,1,147,77.358Zm0,0" transform="translate(-105.273 -56.021)" fill="#54c8f2"/>
      <path id="Trazado_995343" data-name="Trazado 995343" d="M122.406,77.362a13.512,13.512,0,0,1,12.3-13.456,13.511,13.511,0,1,0,0,26.913A13.512,13.512,0,0,1,122.406,77.362Zm0,0" transform="translate(-105.273 -56.025)" fill="#00acea"/>
      <g id="Grupo_1160708" data-name="Grupo 1160708" transform="translate(14.707 7.826)">
        <path id="Trazado_995344" data-name="Trazado 995344" d="M129.552,97.365l.364-1.7L124.5,91.847a13.471,13.471,0,0,0-4.514,10.08c0,2.944.454,4.005,1.88,6.686l6.476-2.859.233-2.385-1.085-1.616V99.47Zm0,0" transform="translate(-119.984 -88.415)" fill="#55e072"/>
        <path id="Trazado_995345" data-name="Trazado 995345" d="M276.281,133.268a13.3,13.3,0,0,1-6.569,11.471l-2.392-2.858,1.22-5.667,2.784-1.491-.087-3.76,3.664-3.4a13.526,13.526,0,0,1,1.38,5.7Zm0,0" transform="translate(-249.26 -119.755)" fill="#55e072"/>
        <path id="Trazado_995346" data-name="Trazado 995346" d="M217.646,67.842l-4.978,6.8-2.123-.485-1.193-3.317-1.78-1.293-2.47-5.222a12.427,12.427,0,0,1,12.544,3.521Zm0,0" transform="translate(-194.668 -63.848)" fill="#55e072"/>
        <path id="Trazado_995347" data-name="Trazado 995347" d="M166.159,244.359c-.393.035-.792.173-1.193.173a13.561,13.561,0,0,1-9.114-3.659l1.471-1.492,4.692-.4,3.8,2.184Zm0,0" transform="translate(-151.455 -217.509)" fill="#55e072"/>
      </g>
      <path id="Trazado_995348" data-name="Trazado 995348" d="M122.41,101.928a13.457,13.457,0,0,1,3.506-9.08l-1.418-1a13.471,13.471,0,0,0-4.514,10.08c0,2.944.454,4.005,1.88,6.686l1.97-.87a10.493,10.493,0,0,1-1.425-5.817Zm0,0" transform="translate(-105.277 -80.589)" fill="#00d33d"/>
      <path id="Trazado_995349" data-name="Trazado 995349" d="M269.746,141.881l1.22-5.667,2.784-1.491-.088-3.76,1.9-1.762a16.777,16.777,0,0,0-.663-1.635l-3.664,3.4.087,3.76-2.784,1.491-1.22,5.667,2.392,2.858a14.038,14.038,0,0,0,1.534-1.067Zm0,0" transform="translate(-234.552 -111.929)" fill="#00d33d"/>
      <path id="Trazado_995350" data-name="Trazado 995350" d="M212.971,74.142l-1.192-3.317L210,69.532l-2.47-5.222a20.44,20.44,0,0,1,2.021-.4,11.251,11.251,0,0,0-4.448.4l2.47,5.222,1.78,1.293,1.193,3.317,2.123.485.348-.475Zm0,0" transform="translate(-179.961 -56.01)" fill="#00d33d"/>
      <path id="Trazado_995351" data-name="Trazado 995351" d="M158.278,240.872l1.471-1.492,2.581-.223-.317-.181-4.692.4-1.471,1.492a13.561,13.561,0,0,0,9.114,3.659,4.078,4.078,0,0,0,.776-.108,13.781,13.781,0,0,1-7.463-3.551Zm0,0" transform="translate(-136.747 -209.682)" fill="#00d33d"/>
      <path id="Trazado_995352" data-name="Trazado 995352" d="M154.24,343.957l-11.573,8.97H131.613v9.991h22.679Zm0,0" transform="translate(-115.48 -301.794)" fill="#ffb680"/>
      <path id="Trazado_995353" data-name="Trazado 995353" d="M14.347,30.4A21.131,21.131,0,0,1,34.185,7.466,21.13,21.13,0,0,0,11.92,30.4l-4.5,8.553v5.179H9.849V38.954Zm0,0" transform="translate(-6.513 -6.52)" fill="#ffb680"/>
      <path id="Trazado_995354" data-name="Trazado 995354" d="M43.941,306.832h2.427v14.249H43.941Zm0,0" transform="translate(-38.556 -269.22)" fill="#ffb680"/>
      <path id="Trazado_995355" data-name="Trazado 995355" d="M233.368,345.835l-.005-1.877-11.573,8.97h2.426Zm0,0" transform="translate(-194.602 -301.795)" fill="#eb975d"/>
      <path id="Trazado_995356" data-name="Trazado 995356" d="M131.613,417.133h2.427v9.991h-2.427Zm0,0" transform="translate(-115.48 -366)" fill="#eb975d"/>
      <path id="Trazado_995357" data-name="Trazado 995357" d="M141.389,71.774a14.411,14.411,0,0,0-23.431-12.137l-.02-.014-.539.481a14.416,14.416,0,0,0-4.818,10.826,11.1,11.1,0,0,0,.714,4.416,14.419,14.419,0,0,0,28.094-3.572Zm-1.8-.52a12.376,12.376,0,0,1-5.467,9.879l-1.593-1.9,1.038-4.82,2.905-1.555-.091-3.909,2.41-2.234a11.7,11.7,0,0,1,.8,4.542Zm-4.339-9.794-4.146,5.66-1.054-.241-1.119-3.112-1.818-1.321-1.883-3.981a9.133,9.133,0,0,1,1.755-.2,12.5,12.5,0,0,1,8.265,3.2Zm-11.878-2.667,2.3,4.852,1.741,1.265,1.266,3.521,3.191.73,4.728-6.455a12.634,12.634,0,0,1,1.493,2.178l-3.543,3.284.084,3.61L131.967,73.2l-1.4,6.514,2.033,2.428a12.5,12.5,0,0,1-3.588,1.154l-.306-2.858-4.45-2.557-5.31.457-1.124,1.141a12.733,12.733,0,0,1-1.2-1.491l6.083-2.686.316-3.238L121.9,70.412V68.777l1.987-2.027.545-2.544-4.924-3.472a12.57,12.57,0,0,1,3.862-1.94ZM127,83.46a12.5,12.5,0,0,1-7.779-2.805l.549-.557,4.072-.351,3.151,1.81.2,1.887a1.32,1.32,0,0,1-.2.017Zm-8.907-21.5L122.405,65l-.182.852-2.138,2.182v2.932l1.056,1.575-.149,1.53-5.212,2.3a17.871,17.871,0,0,1-.769-1.635,12.589,12.589,0,0,1,3.081-12.779Zm0,0" transform="translate(-98.782 -49.523)"/>
      <path id="Trazado_995358" data-name="Trazado 995358" d="M146.831,387.376l.036,13.452H126.011v-5.441h-1.82v7.262h24.5l-.041-15.277Zm0,0" transform="translate(-108.968 -339.886)"/>
      <path id="Trazado_995359" data-name="Trazado 995359" d="M26.459,0A22.064,22.064,0,0,0,4.48,23.69L0,32.209v6.313H4.476V52.771H27.5L39.67,43.337V39.686A22.042,22.042,0,0,0,26.459,0ZM38.23,38.486l-.38.272v3.687L26.875,50.951H6.3V44.083h7.738v-1.82H6.3V36.7H1.819V32.658l4.518-8.59c-.057-.661-.1-1.226-.1-2.026A20.222,20.222,0,1,1,38.23,38.486Zm0,0"/>
      <path id="Trazado_995360" data-name="Trazado 995360" d="M220.459,178.367h-1.82v-1.82h1.82Zm-3.033,0h-1.82v-1.82h1.82Zm0,0" transform="translate(-189.177 -154.906)" fill="#fff"/>
    </g>
  </g>
</svg>
